<?xml version="1.0" encoding="UTF-8"?>
<svg id="Layer_2" data-name="Layer 2" xmlns="http://www.w3.org/2000/svg" xmlns:xlink="http://www.w3.org/1999/xlink" viewBox="0 0 219.18 190.91">
  <defs>
    <style>
      .cls-1 {
        fill: #fd0;
      }

      .cls-2 {
        fill: #d69d00;
      }

      .cls-3 {
        fill: #a85e0d;
      }

      .cls-4 {
        fill: none;
      }

      .cls-5 {
        clip-path: url(#clippath-1);
      }

      .cls-6 {
        fill: #0095ff;
      }

      .cls-7 {
        fill: #5e3815;
      }

      .cls-8 {
        fill: #0b0909;
      }

      .cls-9 {
        fill: #ff1f5e;
      }

      .cls-10 {
        fill: #ff6400;
      }

      .cls-11 {
        fill: #a3bbc0;
      }

      .cls-12 {
        clip-path: url(#clippath);
      }
    </style>
    <clipPath id="clippath">
      <path class="cls-4" d="M72.7,67.18c1.6,1.26,3.07,2.6,4.7,3.69,4.45,2.95,9.37,4.96,14.35,6.79,3.6,1.32,7.25,2.47,10.89,3.66,8.56,2.81,17.3,4.96,26.17,6.5,6.01,1.05,12.07,1.88,18.14,2.48,3.94.39,7.94.35,11.9.22,1.99-.07,3.95-.78,5.99-1.21,0,.68.05,1.5-.01,2.3-.06.82-.51,1.44-1.32,1.65-1.59.41-3.19.94-4.81,1.09-4.76.42-9.51.11-14.27-.33-6.92-.63-13.77-1.74-20.53-3.27-7.32-1.65-14.61-3.47-21.82-5.54-5.22-1.5-10.34-3.38-15.41-5.35-4.38-1.7-8.68-3.63-12.49-6.48-.21-.16-.43-.31-.61-.5-2.57-2.51-2.69-2.28-.87-5.73Z"/>
    </clipPath>
    <clipPath id="clippath-1">
      <path class="cls-4" d="M79.73,58.39c5.3,4.17,11.41,6.2,17.49,8.28,10.96,3.76,22.16,6.63,33.51,8.91,4.3.86,8.62,1.65,12.96,2.25,5.17.72,10.37,1.31,15.61.97,1.03-.07,2.05-.32,3.3-.52,0,1.64.06,3.13-.05,4.61-.02.31-.63.79-1.01.83-2.46.22-4.94.46-7.4.44-2.24-.02-4.49-.3-6.72-.61-4.23-.59-8.47-1.16-12.67-1.96-5.93-1.13-11.86-2.3-17.7-3.77-6.52-1.64-12.95-3.59-19.4-5.49-5.64-1.66-11.14-3.68-16.36-6.39-1.13-.59-2.15-1.38-3.19-2.12-.6-.43-.72-1.01-.35-1.69.66-1.22,1.29-2.46,1.97-3.76ZM73.71,64.89c-.15.7.53,1.71,1.08,2.39.6.75,1.39,1.4,2.23,1.87,2.81,1.59,5.62,3.19,8.53,4.58,6.18,2.96,12.66,5.16,19.24,6.98,7.19,1.99,14.45,3.77,21.75,5.34,5.38,1.16,10.84,2.03,16.31,2.64,4.73.53,9.52.63,14.28.65,2.06,0,4.16-.51,6.17-1.07,2.16-.61,2.41-2.18.72-3.63-.22-.19-.71-.21-1.04-.13-1.01.24-1.99.81-2.99.82-3.14.05-6.3.09-9.42-.21-4.73-.46-9.47-1.01-14.13-1.89-6.92-1.31-13.82-2.8-20.67-4.47-10.81-2.64-21.52-5.7-31.74-10.18-2.9-1.27-5.95-2.43-7.85-5.29-1.13.07-2.24.6-2.47,1.59ZM146.93,70.36c-4.65-.53-9.27-1.34-13.88-2.21-4.67-.88-9.33-1.9-13.95-3.02-3.36-.81-6.66-1.85-9.97-2.83-7.56-2.24-15.15-4.41-21.92-8.74-.06.07-.15.18-.24.3-1.73,2.54-1.66,3.1,1.15,4.42,3.09,1.45,6.21,2.92,9.45,3.95,7.08,2.24,14.23,4.29,21.39,6.25,4.05,1.11,8.16,2.02,12.28,2.81,4.74.91,9.53,1.58,14.3,2.38,3.69.63,7.41.66,11.13.57,1.38-.03,1.84-.69,1.61-2.02-.1-.55-.18-1.1-.3-1.8-3.75.94-7.42.33-11.05-.08ZM81.13,56.46c-.61.2-.8.7-.2,1.19.78.64,1.51,1.44,2.4,1.84,4.25,1.91,8.47,3.92,12.84,5.51,9.76,3.55,19.81,6.16,29.96,8.34,4.91,1.05,9.86,1.93,14.82,2.76,3.36.56,6.76.97,10.15,1.3,2.28.22,4.58.26,6.87.22,1.22-.02,2.44-.33,3.64-.61.28-.07.69-.76.68-.77-.77-.74-1.58-1.44-2.4-2.11-.07-.05-.32.01-.4.1-1.26,1.49-3.06,1.36-4.69,1.39-2.24.04-4.51-.13-6.74-.42-4.9-.65-9.82-1.27-14.67-2.22-6.07-1.19-12.13-2.51-18.11-4.1-6.49-1.73-12.94-3.67-19.29-5.84-3.43-1.17-6.64-2.97-9.92-4.57-1-.49-1.73-1.33-1.73-2.8-1.18.28-2.22.47-3.2.8Z"/>
    </clipPath>
  </defs>
  <g id="Layer_1-2" data-name="Layer 1">
    <g>
      <g>
        <polygon class="cls-6" points="7.72 73.26 7.72 174.49 193.47 154.6 199.29 29.28 7.72 73.26"/>
        <path class="cls-10" d="M14.66,167.95l-13.62-26.94,18.43,21.99s20.98-12.32,20.37-11.1c-.61,1.22-16.21,16.69-16.21,16.69l14.22,22.31-19.06-17.35L0,181.8l14.66-13.85Z"/>
        <polygon class="cls-10" points="194.36 28.04 206.28 0 200.57 29.12 219.18 38.18 198.49 35.13 185.85 58.54 192.26 34.04 172.01 22.15 194.36 28.04"/>
        <polygon class="cls-1" points="193.17 26.42 206.28 0 199.38 27.51 219.18 38.18 197.31 33.52 185.85 58.54 191.08 32.43 172.01 22.15 193.17 26.42"/>
        <path class="cls-1" d="M15.47,166.74l-14.43-25.73,18.82,21.21s20.54-11.44,19.98-10.32c-.56,1.12-16.19,15.43-16.19,15.43l14.2,23.58-18.61-19.05L0,181.8l15.47-15.06Z"/>
      </g>
      <path class="cls-9" d="M169.5,86.22c-1.32-1.07-1.47-2.42-1.43-3.91.01-.56-.09-1.14-.02-1.69.34-2.62-.93-4.33-3.13-5.45-.92-.47-1.36-1.06-1.21-2.09.05-.37-.04-.75-.02-1.13.09-1.39-.52-2.4-1.67-3.11-.83-.51-1.64-1.1-2.53-1.48-3.4-1.42-6.77-2.92-10.26-4.1-14.33-4.84-29-8.28-43.98-10.3-3.78-.51-7.65-.45-11.48-.55-1.45-.04-2.62.62-3.17,2.1-.56,1.52-1.49,2.4-3.29,2.35-2.13-.06-3.57,1.08-4.39,3.09-.42,1.04-1.1,1.97-1.59,2.99-.33.69-.78,1.11-1.54,1.31-1.76.46-2.92,1.62-3.57,3.32-.37.95-.71,1.92-1.2,2.79-.92,1.62-.43,2.98.68,4.21.63.7,1.34,1.33,2.08,1.89.5.38.68.72.63,1.38-.46,5.52-.87,11.04-1.28,16.56-.64,8.53-1.27,17.06-1.91,25.58-.81,10.74-1.62,21.49-2.43,32.23-.4,5.33-.72,10.68-1.25,16-.22,2.23.15,4.22,1.62,5.77,1.75,1.84,3.62,3.66,5.73,5.04,6.48,4.26,13.75,6.59,21.29,8.16,5.07,1.06,10.19,1.59,15.38,1.35,3.1-.14,6.15-.56,9.03-1.82,2.14-.94,3.86-2.3,4.57-4.68.27-.93.73-1.8,1.1-2.69,7.59-18.22,15.18-36.44,22.77-54.66,3.76-9.04,7.52-18.08,11.24-27.04,1.37-.41,2.69-.7,3.93-1.21,1.33-.54,2.2-1.49,2.17-3.09-.02-1.28.14-2.56.22-3.84.08-1.25-.09-2.52-1.08-3.32Z"/>
      <path class="cls-9" d="M179.34,82.59c-1.32-1.07-1.47-2.42-1.43-3.91.01-.56-.09-1.14-.02-1.69.34-2.62-.93-4.33-3.13-5.45-.92-.47-1.36-1.06-1.21-2.09.05-.37-.04-.75-.02-1.13.09-1.39-.52-2.4-1.67-3.11-.83-.51-1.64-1.1-2.53-1.48-3.4-1.42-6.77-2.92-10.26-4.1-14.33-4.84-29-8.28-43.98-10.3-3.78-.51-7.65-.45-11.48-.55-1.45-.04-2.62.62-3.17,2.1-.56,1.52-1.49,2.4-3.29,2.35-2.13-.06-3.57,1.08-4.39,3.09-.42,1.04-1.1,1.97-1.59,2.99-.33.69-.78,1.11-1.54,1.31-1.76.46-2.92,1.62-3.57,3.32-.37.95-.71,1.92-1.2,2.79-.92,1.62-.43,2.98.68,4.21.63.7,1.34,1.33,2.08,1.89.5.38.68.72.63,1.38-.46,5.52-.87,11.04-1.28,16.56-.64,8.53-1.27,17.06-1.91,25.58-.81,10.74-1.62,21.49-2.43,32.23-.4,5.33-.72,10.68-1.25,16-.22,2.23.15,4.22,1.62,5.77,1.75,1.84,3.62,3.66,5.73,5.04,6.48,4.26,13.75,6.59,21.29,8.16,5.07,1.06,10.19,1.59,15.38,1.35,3.1-.14,6.15-.56,9.03-1.82,2.14-.94,3.86-2.3,4.57-4.68.27-.93.73-1.8,1.1-2.69,7.59-18.22,15.18-36.44,22.77-54.66,3.76-9.04,7.52-18.08,11.24-27.04,1.37-.41,2.69-.7,3.93-1.21,1.33-.54,2.2-1.49,2.17-3.09-.02-1.28.14-2.56.22-3.84.08-1.25-.09-2.52-1.08-3.32Z"/>
      <g>
        <path class="cls-1" d="M137.28,123.75c-3.87.03-7.74.09-11.61.06-.3,0-.68-.48-.89-.82-3.41-5.75-8.34-9.44-14.89-10.78-5.99-1.23-11.58-.11-16.73,3.23-.35.23-.94.41-1.28.27-6.02-2.55-11.75-5.6-16.6-10.08-.11-.1-.21-.22-.33-.31-1.12-.83-1.41-1.85-1.29-3.3.72-8.52,1.31-17.04,1.94-25.57,0-.11.04-.21.08-.42.89.5,1.73.97,2.57,1.44.24.13.48.26.73.39,0,0,0,0,0,0,.22.27.38.61.66.78,4.99,3.12,10.23,5.76,15.65,8.04,9.21,3.87,18.68,6.95,28.48,8.89,5.66,1.12,11.38,1.97,17.08,2.91,1.5.25,3.01.36,4.49.53.02.21.06.29.04.36-2.04,6.33-4.07,12.66-6.14,18.98-.59,1.81-1.31,3.59-1.97,5.38Z"/>
        <path class="cls-1" d="M76.69,176.38c-2.65-1.36-4.94-3.16-6.74-5.55-.83-1.11-1.27-2.33-1.16-3.79.85-10.78,1.65-21.55,2.47-32.33,0-.07.04-.13.1-.32.72.58,1.39,1.14,2.09,1.67,3.34,2.54,6.99,4.55,10.77,6.35.49.23.98.7,1.22,1.18,6.37,12.72,22.12,16.49,33.49,7.94.71-.53,1.37-.49,2.11-.37-1.14,1.4-2.22,2.84-3.43,4.18-6.24,6.91-13.6,12.29-22.12,16.09-4.81,2.15-9.82,3.52-15.04,4.21-1.27.17-2.51.49-3.77.74Z"/>
        <path class="cls-2" d="M76.69,176.38c1.26-.25,2.5-.57,3.77-.74,5.22-.68,10.22-2.06,15.04-4.21,8.52-3.8,15.88-9.18,22.12-16.09,1.21-1.34,2.29-2.78,3.43-4.18,4.9.03,9.77-.17,14.74-1.42-1.04,2.49-2,4.8-2.96,7.11-3.12,7.51-6.26,15.01-9.32,22.54-.78,1.93-2.08,3.16-3.95,3.92-3.38,1.38-6.95,1.8-10.53,1.62-3.98-.2-7.97-.56-11.9-1.2-6.87-1.13-13.39-3.4-19.51-6.73-.32-.18-.61-.42-.91-.63Z"/>
        <path class="cls-3" d="M126.06,133.87c.22,10.74-8.41,20.09-19.35,20.7-12.44.7-21.96-9.37-21.91-20.68.05-11.37,9.25-20.71,20.75-20.62,12.04.08,20.66,9.96,20.51,20.6ZM95.18,138.19c-.11,2.22.36,4.74,1.46,7.16,1.54,3.39,4.83,5.27,7.99,4.45,1.96-.51,3.67-1.55,5.06-3.03,3.34-3.52,4.98-7.83,5.66-12.56.53-3.69.28-7.31-1.4-10.7-1.66-3.36-4.57-5.01-7.73-4.38-2.6.51-4.56,2.13-6.15,4.15-3.33,4.24-4.87,9.11-4.89,14.91Z"/>
        <path class="cls-2" d="M137.28,123.75c.66-1.79,1.37-3.57,1.97-5.38,2.07-6.32,4.1-12.65,6.14-18.98.02-.06-.01-.15-.04-.36-1.48-.17-3-.28-4.49-.53-5.7-.94-11.42-1.79-17.08-2.91-9.8-1.94-19.27-5.02-28.48-8.89-5.42-2.28-10.66-4.92-15.65-8.04-.28-.17-.44-.52-.66-.78,1.64.74,3.27,1.5,4.93,2.2,8.39,3.58,17.04,6.4,25.87,8.66,5.79,1.48,11.61,2.89,17.48,4.02,5.25,1.01,10.55,1.76,15.87,2.33,4.95.52,9.94.64,14.99.95-.19.51-.45,1.27-.76,2-3.13,7.5-6.29,14.99-9.39,22.5-.34.82-.79,1.33-1.64,1.49-3.02.58-6.04,1.16-9.06,1.73Z"/>
        <path class="cls-7" d="M72.7,67.18c1.6,1.26,3.07,2.6,4.7,3.69,4.45,2.95,9.37,4.96,14.35,6.79,3.6,1.32,7.25,2.47,10.89,3.66,8.56,2.81,17.3,4.96,26.17,6.5,6.01,1.05,12.07,1.88,18.14,2.48,3.94.39,7.94.35,11.9.22,1.99-.07,3.95-.78,5.99-1.21,0,.68.05,1.5-.01,2.3-.06.82-.51,1.44-1.32,1.65-1.59.41-3.19.94-4.81,1.09-4.76.42-9.51.11-14.27-.33-6.92-.63-13.77-1.74-20.53-3.27-7.32-1.65-14.61-3.47-21.82-5.54-5.22-1.5-10.34-3.38-15.41-5.35-4.38-1.7-8.68-3.63-12.49-6.48-.21-.16-.43-.31-.61-.5-2.57-2.51-2.69-2.28-.87-5.73Z"/>
        <path class="cls-7" d="M139.6,61.17c-.84-.15-1.7-.25-2.52-.46-1.52-.38-3-.27-4.39.4-1.41.68-1.57,1.85-.5,3,1.47,1.59,3.43,2.27,5.42,2.86,2.39.71,4.82,1.17,7.32.76.68-.11,1.43-.32,1.98-.71,1.16-.83.67-2.57-.85-3.36-.8-.41-1.56-.88-2.25-1.49,4.91,1.75,10,3.07,14.2,6.32l-.04.54c-.79.17-1.6.51-2.38.48-3.41-.14-6.83-.3-10.22-.63-8.23-.81-16.29-2.63-24.31-4.56-8.73-2.1-17.41-4.49-25.74-7.92-2.22-.91-4.31-2.13-6.44-3.24-.37-.19-.63-.57-.95-.86.01-.12.03-.25.04-.37.81-.15,1.63-.47,2.43-.43,3.3.14,6.63.15,9.88.65,6.96,1.07,13.91,2.22,20.79,3.69,6.27,1.34,12.43,3.16,18.64,4.77-.03.2-.06.39-.1.59Z"/>
        <path class="cls-7" d="M143.94,128.24c.96.24.38.85.22,1.23-1.22,2.99-2.48,5.95-3.74,8.92-.8,1.89-1.62,3.78-2.43,5.66-4.33.97-8.71,1.39-13.14,1.17.43-1.07.87-2.13,1.3-3.2,1.48-3.7,1.76-7.54,1.25-11.46-.03-.22,0-.45-.01-.67,5.58.06,11.12-.26,16.55-1.66Z"/>
        <path class="cls-7" d="M87.57,120.49c-.74,1.3-1.65,2.54-2.17,3.93-.78,2.08-1.41,4.24-1.87,6.42-.32,1.49-.23,3.06-.33,4.6-.48-.2-1-.35-1.44-.62-3.35-2.06-6.68-4.14-10.02-6.21.26-3.52.51-7.04.78-10.56.17-2.21.37-4.42.55-6.62,1.77,1.31,3.45,2.75,5.32,3.89,3,1.83,6.11,3.46,9.18,5.17Z"/>
        <path class="cls-7" d="M73.28,109.27v-2.98c.11-.04.22-.07.33-.11,4.92,4.79,10.87,7.95,17.27,10.86-.81.74-1.53,1.4-2.25,2.06-.79-.33-1.6-.62-2.36-1.01-4.71-2.37-9.25-5.02-12.98-8.84Z"/>
        <path class="cls-7" d="M126.93,128.39c-.25-.93-.51-1.85-.77-2.81,6.83.13,13.52.19,20.05-1.85.07.11.15.22.22.32-.32.68-.63,1.36-.95,2.03-3.36,1.29-6.88,1.85-10.44,2.07-2.69.17-5.4.17-8.1.24Z"/>
        <path class="cls-7" d="M137.01,145.88c.06,1.5-.37,2.14-1.77,2.47-3.06.72-6.13,1.39-9.32,1.26-1.52-.06-3.04-.01-4.75-.01.9-.95,1.75-1.84,2.6-2.73,4.41-.33,8.83-.66,13.24-1Z"/>
        <path class="cls-7" d="M83.48,137.17c.23,1.08.45,2.17.73,3.51-.58-.23-.95-.35-1.29-.52-3.65-1.79-7.06-3.97-10.25-6.5-1.3-1.03-1.48-1.63-.96-3.05.29.16.57.33.86.49,3.29,1.91,6.57,3.83,9.87,5.73.31.18.69.22,1.03.33Z"/>
        <path class="cls-1" d="M126.93,128.39c2.7-.07,5.4-.07,8.1-.24,3.57-.22,7.08-.78,10.44-2.07-.19.95-.3,1.96-1.54,2.16-5.43,1.4-10.98,1.71-16.55,1.66-.15-.5-.3-1.01-.45-1.51Z"/>
        <path class="cls-1" d="M73.28,109.27c3.73,3.82,8.26,6.46,12.98,8.84.76.38,1.57.67,2.36,1.01-.35.46-.71.92-1.06,1.38-3.07-1.71-6.18-3.34-9.18-5.17-1.87-1.14-3.55-2.58-5.32-3.89.07-.72.15-1.44.22-2.16Z"/>
        <path class="cls-1" d="M137.01,145.88c-4.41.33-8.83.66-13.24,1,.36-.55.72-1.1,1.08-1.65,4.44.22,8.81-.2,13.14-1.17-.33.61-.65,1.22-.98,1.82Z"/>
        <path class="cls-1" d="M83.48,137.17c-.35-.11-.73-.15-1.03-.33-3.3-1.9-6.58-3.82-9.87-5.73-.29-.17-.57-.33-.86-.49,0-.67.02-1.34.02-2.01,3.34,2.07,6.67,4.15,10.02,6.21.44.27.96.41,1.44.62.1.58.19,1.16.29,1.74Z"/>
        <path class="cls-11" d="M78.99,77.87c-.24-.13-.48-.26-.73-.39.24.13.48.26.73.39Z"/>
        <path d="M165.25,84.14c-1.32-1.07-1.47-2.42-1.43-3.91.01-.56-.09-1.14-.02-1.69.34-2.62-.93-4.33-3.13-5.45-.92-.47-1.36-1.06-1.21-2.09.05-.37-.04-.75-.02-1.13.09-1.39-.52-2.4-1.67-3.11-.83-.51-1.64-1.1-2.53-1.48-3.4-1.42-6.77-2.92-10.25-4.1-14.33-4.84-29-8.28-43.98-10.3-3.78-.51-7.65-.45-11.48-.55-1.45-.04-2.62.62-3.17,2.1-.56,1.52-1.49,2.4-3.29,2.35-2.13-.06-3.57,1.08-4.39,3.09-.42,1.04-1.1,1.97-1.59,2.99-.33.69-.78,1.11-1.54,1.31-1.76.46-2.92,1.62-3.57,3.32-.37.95-.71,1.92-1.2,2.8-.92,1.62-.43,2.98.68,4.21.63.7,1.34,1.33,2.08,1.89.5.38.68.72.63,1.38-.46,5.52-.87,11.04-1.28,16.56-.64,8.53-1.27,17.06-1.91,25.59-.81,10.74-1.62,21.49-2.43,32.23-.4,5.33-.72,10.68-1.25,16-.22,2.23.15,4.22,1.62,5.77,1.75,1.84,3.62,3.66,5.73,5.04,6.48,4.26,13.75,6.59,21.29,8.16,5.07,1.06,10.19,1.59,15.38,1.35,3.1-.14,6.15-.56,9.03-1.82,2.14-.94,3.86-2.3,4.57-4.68.27-.93.73-1.8,1.1-2.69,7.59-18.22,15.18-36.44,22.77-54.66,3.76-9.04,7.52-18.08,11.24-27.04,1.37-.41,2.69-.7,3.93-1.21,1.33-.54,2.2-1.49,2.17-3.09-.02-1.28.14-2.56.22-3.84.08-1.25-.09-2.52-1.08-3.32ZM87.95,51.91c.81-.15,1.63-.47,2.43-.43,3.3.14,6.63.15,9.88.65,6.96,1.07,13.91,2.22,20.79,3.69,6.27,1.34,12.4,3.35,18.61,4.96-.03.2,0,0-.03.2-.84-.18-1.44-.38-2.45-.48-1.56-.15-3.1-.05-4.5.62-1.41.68-1.57,1.85-.5,3,1.47,1.59,3.43,2.27,5.42,2.86,2.39.71,4.82,1.17,7.32.76.68-.11,1.43-.32,1.98-.71,1.16-.83.67-2.57-.85-3.36-.8-.41-1.56-.88-2.25-1.49,4.91,1.75,10,3.07,14.2,6.32-.01.18-.03.36-.04.54-.79.17-1.6.51-2.38.48-3.41-.14-6.83-.3-10.22-.63-8.23-.81-16.29-2.63-24.31-4.56-8.73-2.1-17.41-4.49-25.74-7.92-2.22-.91-4.31-2.13-6.44-3.24-.37-.19-.63-.57-.95-.86.01-.12.03-.25.04-.37ZM86.97,53.87c.08-.12.18-.23.24-.3,6.77,4.33,14.37,6.49,21.92,8.74,3.31.98,6.61,2.02,9.97,2.83,4.63,1.12,9.28,2.13,13.95,3.02,4.6.87,9.23,1.68,13.88,2.21,3.63.41,7.3,1.02,11.05.08.12.71.2,1.26.3,1.8.24,1.34-.22,1.99-1.61,2.02-3.72.09-7.44.05-11.13-.57-4.76-.81-9.56-1.47-14.3-2.38-4.12-.79-8.24-1.7-12.28-2.81-7.16-1.97-14.31-4.01-21.39-6.25-3.24-1.03-6.36-2.5-9.45-3.95-2.81-1.32-2.88-1.89-1.15-4.42ZM81.13,56.46c.98-.33,2.02-.51,3.2-.8,0,1.48.73,2.32,1.73,2.8,3.27,1.59,6.49,3.4,9.92,4.57,6.36,2.17,12.8,4.11,19.29,5.84,5.98,1.59,12.04,2.91,18.11,4.1,4.85.95,9.77,1.57,14.67,2.22,2.23.3,4.49.46,6.74.42,1.63-.03,3.43.1,4.69-1.39.08-.09.34-.16.4-.1.82.68,1.63,1.38,2.4,2.11.02.02-.39.71-.68.77-1.2.28-2.42.59-3.64.61-2.29.04-4.59,0-6.87-.22-3.39-.33-6.79-.74-10.15-1.3-4.95-.83-9.91-1.7-14.82-2.76-10.15-2.18-20.2-4.78-29.96-8.34-4.37-1.59-8.59-3.6-12.84-5.51-.9-.4-1.62-1.2-2.4-1.84-.6-.49-.42-.99.2-1.19ZM77.76,62.15c.66-1.22,1.29-2.46,1.97-3.76,5.3,4.17,11.41,6.2,17.49,8.28,10.96,3.76,22.16,6.63,33.51,8.91,4.3.86,8.62,1.65,12.96,2.25,5.17.72,10.37,1.31,15.61.97,1.03-.07,2.05-.32,3.3-.52,0,1.64.06,3.13-.05,4.61-.02.31-.63.79-1.01.83-2.46.22-4.94.46-7.4.44-2.24-.02-4.49-.3-6.72-.61-4.23-.59-8.47-1.16-12.67-1.96-5.93-1.13-11.86-2.3-17.7-3.77-6.52-1.64-12.95-3.59-19.4-5.49-5.64-1.66-11.14-3.68-16.36-6.39-1.13-.59-2.15-1.38-3.19-2.12-.6-.43-.72-1.01-.35-1.69ZM71.71,130.62c0-.67.02-1.34.02-2.01.26-3.52.51-7.04.78-10.56.17-2.21.37-4.42.55-6.62.07-.72.15-1.44.22-2.16v-2.98c.11-.04.22-.07.33-.11,4.92,4.79,10.87,7.95,17.27,10.86-.81.74-1.53,1.4-2.25,2.06-.35.46-.71.92-1.06,1.38-.74,1.3-1.65,2.54-2.17,3.93-.78,2.08-1.41,4.24-1.87,6.42-.32,1.49-.23,3.06-.33,4.6.1.58.19,1.16.29,1.74.23,1.08.45,2.17.73,3.51-.58-.23-.95-.35-1.29-.52-3.65-1.79-7.06-3.97-10.25-6.5-1.3-1.03-1.48-1.63-.96-3.05ZM106.71,154.57c-12.44.7-21.96-9.37-21.91-20.68.05-11.37,9.25-20.71,20.75-20.63,12.04.08,20.66,9.96,20.51,20.6.22,10.74-8.41,20.09-19.35,20.7ZM132.81,156.86c-3.12,7.51-6.26,15.01-9.32,22.54-.78,1.93-2.08,3.16-3.95,3.92-3.38,1.38-6.95,1.8-10.53,1.62-3.98-.2-7.97-.56-11.9-1.2-6.87-1.13-13.39-3.4-19.51-6.73-.32-.18-.61-.42-.91-.63-2.65-1.36-4.94-3.16-6.74-5.55-.83-1.11-1.27-2.33-1.16-3.79.85-10.78,1.65-21.55,2.47-32.33,0-.07.04-.13.1-.32.72.58,1.39,1.14,2.09,1.67,3.34,2.54,6.99,4.55,10.77,6.35.49.23.98.7,1.22,1.18,6.37,12.72,22.12,16.49,33.49,7.94.71-.53,1.37-.49,2.11-.37,4.9.03,9.77-.17,14.74-1.42-1.04,2.49-2,4.8-2.96,7.11ZM145.48,126.08c-.19.95-.3,1.96-1.54,2.16.96.24.38.85.22,1.23-1.22,2.99-2.48,5.95-3.74,8.92-.8,1.89-1.62,3.78-2.43,5.66-.33.61-.65,1.22-.98,1.82.06,1.5-.37,2.14-1.77,2.47-3.06.72-6.13,1.39-9.32,1.26-1.52-.06-3.04-.01-4.75-.01.9-.95,1.75-1.84,2.6-2.73.36-.55.72-1.1,1.08-1.65.43-1.07.87-2.13,1.3-3.2,1.48-3.7,1.76-7.54,1.25-11.46-.03-.22,0-.45-.01-.67-.15-.5-.3-1.01-.45-1.51-.25-.93-.51-1.85-.77-2.81,6.83.13,13.52.19,20.05-1.85.07.11.15.22.22.32-.32.68-.63,1.36-.95,2.03ZM157.36,98.03c-3.13,7.5-6.29,14.99-9.39,22.5-.34.82-.79,1.33-1.64,1.49-3.02.58-6.04,1.16-9.06,1.73-3.87.03-7.74.09-11.61.07-.3,0-.68-.48-.89-.82-3.41-5.75-8.34-9.44-14.89-10.78-5.99-1.23-11.58-.11-16.73,3.23-.35.23-.94.41-1.28.27-6.02-2.55-11.75-5.6-16.6-10.08-.11-.1-.21-.22-.33-.31-1.12-.83-1.41-1.85-1.29-3.3.72-8.52,1.31-17.04,1.94-25.57,0-.11.04-.21.08-.42.89.5,1.73.97,2.57,1.44l.73.39h0c1.64.74,3.27,1.5,4.93,2.21,8.39,3.58,17.04,6.4,25.87,8.66,5.79,1.48,11.61,2.89,17.48,4.02,5.24,1.01,10.55,1.76,15.87,2.33,4.95.52,9.94.64,14.99.95-.19.51-.45,1.27-.76,2ZM164.84,91.62c-.06.82-.51,1.44-1.32,1.65-1.59.41-3.19.94-4.81,1.09-4.76.42-9.51.11-14.27-.33-6.92-.63-13.77-1.74-20.53-3.27-7.32-1.65-14.61-3.47-21.82-5.54-5.22-1.5-10.34-3.38-15.41-5.35-4.38-1.7-8.68-3.63-12.49-6.48-.21-.16-.43-.31-.61-.5-2.57-2.51-2.69-2.28-.87-5.73,1.6,1.26,3.07,2.6,4.7,3.69,4.45,2.95,9.37,4.96,14.35,6.79,3.6,1.32,7.25,2.47,10.89,3.66,8.56,2.81,17.3,4.96,26.17,6.5,6.01,1.05,12.07,1.88,18.14,2.48,3.94.39,7.94.35,11.9.22,1.99-.07,3.95-.78,5.99-1.21,0,.68.05,1.5-.01,2.3ZM163.3,88.29c-2.01.56-4.11,1.08-6.17,1.07-4.76-.02-9.55-.12-14.28-.65-5.47-.61-10.93-1.49-16.31-2.64-7.3-1.57-14.56-3.35-21.75-5.34-6.58-1.82-13.06-4.03-19.24-6.98-2.91-1.39-5.72-2.99-8.53-4.58-.84-.47-1.63-1.13-2.23-1.87-.55-.68-1.23-1.7-1.08-2.39.22-1,1.34-1.52,2.47-1.59,1.9,2.86,4.94,4.02,7.85,5.29,10.23,4.48,20.93,7.53,31.74,10.18,6.84,1.67,13.74,3.16,20.67,4.47,4.67.88,9.41,1.43,14.13,1.89,3.12.3,6.28.26,9.42.21,1-.02,1.98-.58,2.99-.82.32-.08.81-.06,1.04.13,1.7,1.46,1.45,3.03-.72,3.63Z"/>
        <path class="cls-7" d="M79.73,58.39c5.3,4.17,11.41,6.2,17.49,8.28,10.96,3.76,22.16,6.63,33.51,8.91,4.3.86,8.62,1.65,12.96,2.25,5.17.72,10.37,1.31,15.61.97,1.03-.07,2.05-.32,3.3-.52,0,1.64.06,3.13-.05,4.61-.02.31-.63.79-1.01.83-2.46.22-4.94.46-7.4.44-2.24-.02-4.49-.3-6.72-.61-4.23-.59-8.47-1.16-12.67-1.96-5.93-1.13-11.86-2.3-17.7-3.77-6.52-1.64-12.95-3.59-19.4-5.49-5.64-1.66-11.14-3.68-16.36-6.39-1.13-.59-2.15-1.38-3.19-2.12-.6-.43-.72-1.01-.35-1.69.66-1.22,1.29-2.46,1.97-3.76ZM73.71,64.89c-.15.7.53,1.71,1.08,2.39.6.75,1.39,1.4,2.23,1.87,2.81,1.59,5.62,3.19,8.53,4.58,6.18,2.96,12.66,5.16,19.24,6.98,7.19,1.99,14.45,3.77,21.75,5.34,5.38,1.16,10.84,2.03,16.31,2.64,4.73.53,9.52.63,14.28.65,2.06,0,4.16-.51,6.17-1.07,2.16-.61,2.41-2.18.72-3.63-.22-.19-.71-.21-1.04-.13-1.01.24-1.99.81-2.99.82-3.14.05-6.3.09-9.42-.21-4.73-.46-9.47-1.01-14.13-1.89-6.92-1.31-13.82-2.8-20.67-4.47-10.81-2.64-21.52-5.7-31.74-10.18-2.9-1.27-5.95-2.43-7.85-5.29-1.13.07-2.24.6-2.47,1.59ZM146.93,70.36c-4.65-.53-9.27-1.34-13.88-2.21-4.67-.88-9.33-1.9-13.95-3.02-3.36-.81-6.66-1.85-9.97-2.83-7.56-2.24-15.15-4.41-21.92-8.74-.06.07-.15.18-.24.3-1.73,2.54-1.66,3.1,1.15,4.42,3.09,1.45,6.21,2.92,9.45,3.95,7.08,2.24,14.23,4.29,21.39,6.25,4.05,1.11,8.16,2.02,12.28,2.81,4.74.91,9.53,1.58,14.3,2.38,3.69.63,7.41.66,11.13.57,1.38-.03,1.84-.69,1.61-2.02-.1-.55-.18-1.1-.3-1.8-3.75.94-7.42.33-11.05-.08ZM81.13,56.46c-.61.2-.8.7-.2,1.19.78.64,1.51,1.44,2.4,1.84,4.25,1.91,8.47,3.92,12.84,5.51,9.76,3.55,19.81,6.16,29.96,8.34,4.91,1.05,9.86,1.93,14.82,2.76,3.36.56,6.76.97,10.15,1.3,2.28.22,4.58.26,6.87.22,1.22-.02,2.44-.33,3.64-.61.28-.07.69-.76.68-.77-.77-.74-1.58-1.44-2.4-2.11-.07-.05-.32.01-.4.1-1.26,1.49-3.06,1.36-4.69,1.39-2.24.04-4.51-.13-6.74-.42-4.9-.65-9.82-1.27-14.67-2.22-6.07-1.19-12.13-2.51-18.11-4.1-6.49-1.73-12.94-3.67-19.29-5.84-3.43-1.17-6.64-2.97-9.92-4.57-1-.49-1.73-1.33-1.73-2.8-1.18.28-2.22.47-3.2.8Z"/>
        <path class="cls-8" d="M95.18,138.19c.02-5.8,1.57-10.67,4.89-14.91,1.59-2.03,3.54-3.64,6.15-4.15,3.17-.63,6.08,1.03,7.73,4.38,1.67,3.39,1.93,7.01,1.4,10.7-.68,4.73-2.32,9.03-5.66,12.56-1.39,1.47-3.1,2.51-5.06,3.03-3.15.82-6.44-1.06-7.99-4.45-1.1-2.41-1.57-4.94-1.46-7.16ZM103.42,148.39c.06,0,.31.1.47.02,1.36-.69,2.99-1.12,4.01-2.16,5.47-5.54,7.08-12.27,5.5-19.81-.43-2.03-1.44-3.78-3.15-5.05-1.04-.77-1.5-.71-2.16.36-.47.76-.97,1.53-1.29,2.37-1.18,3.08-1.3,6.26-.81,9.51.45,3.02.67,6.08-.28,9.04-.62,1.94-1.5,3.8-2.28,5.72ZM107.22,120.51c-.81.23-1.43.33-1.99.58-1.82.81-3.26,2.1-4.4,3.73-3.3,4.72-4.63,9.95-3.97,15.66.27,2.34.98,4.56,2.69,6.31,1.69,1.72,2.17,1.59,3.37-.49,2.42-4.19,2.28-8.67,1.73-13.24-.42-3.51-.24-6.98,1.38-10.23.35-.7.72-1.39,1.2-2.33Z"/>
        <path class="cls-7" d="M103.42,148.39c.78-1.92,1.66-3.78,2.28-5.72.95-2.96.74-6.02.28-9.04-.49-3.25-.37-6.43.81-9.51.32-.83.82-1.6,1.29-2.37.66-1.07,1.12-1.13,2.16-.36,1.71,1.27,2.72,3.02,3.15,5.05,1.58,7.54-.03,14.26-5.5,19.81-1.02,1.03-2.65,1.47-4.01,2.16-.16.08-.41-.01-.47-.02Z"/>
        <path class="cls-7" d="M107.22,120.51c-.49.94-.85,1.63-1.2,2.33-1.61,3.25-1.8,6.72-1.38,10.23.55,4.58.69,9.05-1.73,13.24-1.2,2.08-1.68,2.21-3.37.49-1.71-1.75-2.42-3.97-2.69-6.31-.66-5.71.67-10.94,3.97-15.66,1.14-1.64,2.58-2.92,4.4-3.73.56-.25,1.18-.35,1.99-.58Z"/>
        <g class="cls-12">
          <polygon class="cls-3" points="72.67 67.18 71.71 68.3 71.45 70.29 71.44 71.28 74.73 74.67 82.05 78.59 95.45 83.65 115.03 89.36 124.85 91.48 131.37 92.86 131.85 87.82 112.65 83.65 100.67 80.35 90.85 77.33 82.48 73.21 74.42 68.45 72.67 67.18"/>
        </g>
        <g class="cls-5">
          <path class="cls-3" d="M131.23,87.08l-2.82-5.68,1.41-6.79-3.02-3.27,1.15-4.63-16.64-4.24-17.73-5.87-5.84-3.4s-.37-.99-.6-.73-1.27,1.88-1.5,1.99-2.18.86-2.18.86l-2.3.39-1.72,1.28-1.33,3.28s-.97,1.77-1.15,1.75-.63.61-.98.67-2.19.75-2.19.98-.86,1.38-.86,1.61.56,1.95.56,1.95c0,0,4.92,4.27,5.35,4.38s10.04,4.48,10.04,4.48l13.51,4.83,22.36,5.43,6.51.73Z"/>
        </g>
      </g>
      <path class="cls-3" d="M126.03,65.49s-6.62-1.53-10.61-2.58c-3.99-1.05-11.09-3.12-12.03-3.52s-5.44-1.76-8.09-2.99-6.35-3.08-6.93-3.54-.69-.74-.46-1.09c.31-.47,1.06-.52,3.62-.38,2.56.14,5.74.38,7.95.63,2.17.25,8.9,1.41,8.9,1.41,0,0-1.73-.19-2.85-.1-1.19.09-2.22.47-2.45,1.16s.61,2.13,1.94,3.22c1.2.99,4.54,2.65,7.94,3.76,2.98.97,13.07,4.03,13.07,4.03Z"/>
    </g>
    <ellipse class="cls-9" cx="95.56" cy="41.44" rx="2.9" ry="5.63"/>
    <ellipse class="cls-6" cx="93.78" cy="41.44" rx="2.9" ry="5.63"/>
  </g>
</svg>