<?xml version="1.0" encoding="UTF-8"?>
<svg id="Layer_2" data-name="Layer 2" xmlns="http://www.w3.org/2000/svg" viewBox="0 0 36.76 36.76">
  <defs>
    <style>
      .cls-1 {
        fill: #fff;
      }
    </style>
  </defs>
  <g id="Layer_1-2" data-name="Layer 1">
    <g>
      <path class="cls-1" d="M36.66,10.81c-.09-1.95-.4-3.3-.85-4.46-.47-1.24-1.19-2.34-2.13-3.26-.92-.93-2.03-1.66-3.25-2.12-1.17-.45-2.51-.77-4.46-.85-1.97-.09-2.59-.12-7.58-.12s-5.62.02-7.58.11c-1.95.09-3.3.4-4.46.85-1.24.47-2.34,1.19-3.26,2.13-.93.92-1.66,2.03-2.12,3.25-.45,1.17-.77,2.51-.85,4.46-.09,1.97-.12,2.59-.12,7.58s.02,5.62.11,7.58c.09,1.95.4,3.3.85,4.46.47,1.24,1.19,2.34,2.13,3.26.92.93,2.03,1.66,3.25,2.12,1.17.45,2.51.77,4.46.85,1.96.09,2.59.11,7.58.11s5.62-.02,7.58-.11c1.95-.09,3.3-.4,4.46-.85,2.47-.96,4.42-2.91,5.38-5.38.45-1.17.77-2.51.85-4.46.09-1.96.11-2.59.11-7.58s0-5.62-.09-7.58ZM33.35,25.82c-.08,1.8-.38,2.77-.63,3.41-.62,1.6-1.89,2.87-3.49,3.49-.65.25-1.62.55-3.41.63-1.94.09-2.52.11-7.43.11s-5.49-.02-7.43-.11c-1.8-.08-2.77-.38-3.41-.63-.8-.29-1.52-.76-2.11-1.37-.61-.6-1.08-1.31-1.37-2.11-.25-.65-.55-1.62-.63-3.41-.09-1.94-.11-2.52-.11-7.43s.02-5.49.11-7.43c.08-1.8.38-2.77.63-3.41.29-.8.76-1.52,1.38-2.11.6-.61,1.31-1.08,2.11-1.37.65-.25,1.62-.55,3.41-.63,1.94-.09,2.52-.11,7.43-.11s5.49.02,7.43.11c1.8.08,2.77.38,3.41.63.8.29,1.52.76,2.11,1.37.61.6,1.08,1.31,1.37,2.11.25.65.55,1.62.63,3.41.09,1.94.11,2.52.11,7.43s-.02,5.48-.11,7.42Z"/>
      <path class="cls-1" d="M18.39,8.94c-5.21,0-9.44,4.23-9.44,9.44s4.23,9.44,9.44,9.44,9.44-4.23,9.44-9.44-4.23-9.44-9.44-9.44ZM18.39,24.51c-3.38,0-6.13-2.74-6.13-6.13s2.74-6.13,6.13-6.13,6.13,2.74,6.13,6.13-2.74,6.13-6.13,6.13Z"/>
      <path class="cls-1" d="M30.41,8.57c0,1.22-.99,2.2-2.21,2.2s-2.2-.99-2.2-2.2.99-2.2,2.2-2.2,2.21.99,2.21,2.2Z"/>
    </g>
  </g>
</svg>