<?xml version="1.0" encoding="UTF-8"?>
<svg id="Layer_2" data-name="Layer 2" xmlns="http://www.w3.org/2000/svg" viewBox="0 0 318 295.14">
  <defs>
    <style>
      .cls-1 {
        fill: #fff;
      }

      .cls-2 {
        fill: #9fff00;
      }

      .cls-3 {
        fill: #ff5900;
      }
    </style>
  </defs>
  <g id="Layer_1-2" data-name="Layer 1">
    <g>
      <g>
        <path class="cls-2" d="M1.95,179.19c1.3-2.36,3.11-4.19,5.45-5.51,2.33-1.32,4.97-1.97,7.92-1.97,3.61,0,6.71.96,9.28,2.87,2.57,1.91,4.29,4.51,5.16,7.81h-8.16c-.61-1.27-1.47-2.24-2.58-2.91-1.11-.67-2.38-1-3.8-1-2.28,0-4.14.79-5.55,2.38-1.42,1.59-2.13,3.72-2.13,6.38s.71,4.79,2.12,6.38c1.42,1.59,3.27,2.39,5.55,2.39,1.42,0,2.68-.33,3.8-1,1.11-.66,1.97-1.63,2.58-2.91h8.16c-.87,3.3-2.59,5.89-5.16,7.79-2.58,1.89-5.67,2.84-9.29,2.84-2.95,0-5.59-.66-7.91-1.98-2.33-1.32-4.14-3.15-5.44-5.49s-1.95-5.02-1.95-8.03.65-5.69,1.95-8.05Z"/>
        <path class="cls-2" d="M40.84,200.83c-2.39-1.33-4.28-3.19-5.68-5.58-1.4-2.39-2.1-5.07-2.1-8.05s.7-5.65,2.11-8.03c1.4-2.37,3.3-4.22,5.68-5.55s5.01-2,7.87-2c2.86,0,5.49.67,7.87,2,2.39,1.33,4.26,3.18,5.64,5.55,1.37,2.37,2.06,5.05,2.06,8.03s-.7,5.66-2.09,8.05-3.27,4.25-5.64,5.57c-2.37,1.33-4.99,2-7.85,1.99-2.86,0-5.49-.67-7.87-2ZM54.54,193.63c1.46-1.62,2.19-3.76,2.19-6.42s-.73-4.84-2.19-6.44c-1.46-1.61-3.41-2.41-5.84-2.41-2.46,0-4.42.8-5.88,2.39s-2.19,3.75-2.19,6.46.73,4.84,2.19,6.44c1.46,1.61,3.42,2.41,5.88,2.41,2.43,0,4.37-.81,5.84-2.43Z"/>
        <path class="cls-2" d="M102.89,172.08v30.45s-7.43,0-7.43,0v-18.26s-6.81,18.26-6.81,18.26h-5.99s-6.85-18.31-6.85-18.31v18.31s-7.42,0-7.42,0v-30.45s8.77,0,8.77,0l8.54,21.09,8.47-21.08h8.72Z"/>
        <path class="cls-2" d="M115.65,172.09v30.45s-7.43,0-7.43,0v-30.45s7.43,0,7.43,0Z"/>
        <path class="cls-2" d="M148.26,202.55h-7.42s-12.4-18.79-12.4-18.79v18.78s-7.42,0-7.42,0v-30.45s7.43,0,7.43,0l12.4,18.87v-18.87s7.42,0,7.42,0v30.45Z"/>
        <path class="cls-2" d="M173.86,181.73c-.55-1.01-1.34-1.79-2.36-2.32-1.03-.53-2.23-.8-3.62-.8-2.4,0-4.32.79-5.77,2.36-1.45,1.58-2.17,3.68-2.17,6.31,0,2.81.76,5,2.28,6.57,1.52,1.58,3.61,2.37,6.27,2.37,1.82,0,3.36-.46,4.62-1.39,1.26-.92,2.18-2.26,2.76-3.99h-9.41v-5.47h16.13v6.9c-.55,1.85-1.48,3.57-2.8,5.16-1.32,1.59-2.99,2.88-5.01,3.86-2.03.98-4.31,1.47-6.86,1.47-3.01,0-5.69-.66-8.04-1.98-2.36-1.32-4.19-3.15-5.51-5.49-1.32-2.34-1.97-5.02-1.97-8.03s.66-5.69,1.98-8.04c1.31-2.36,3.14-4.19,5.49-5.51,2.34-1.32,5.02-1.97,8.02-1.97,3.64,0,6.72.88,9.22,2.65,2.5,1.76,4.16,4.21,4.97,7.33h-8.2Z"/>
        <path class="cls-2" d="M200.92,201.78c-1.76-.72-3.17-1.8-4.23-3.21s-1.61-3.12-1.67-5.12h7.89c.11,1.13.51,1.99,1.17,2.58.66.59,1.53.89,2.6.89,1.1,0,1.96-.25,2.6-.76.64-.51.96-1.21.96-2.1,0-.75-.25-1.37-.76-1.87-.51-.49-1.13-.9-1.86-1.21-.74-.32-1.79-.68-3.15-1.09-1.97-.61-3.57-1.22-4.81-1.82-1.24-.61-2.32-1.51-3.21-2.69s-1.34-2.73-1.34-4.64c0-2.83,1.03-5.05,3.08-6.66s4.73-2.41,8.03-2.41c3.35,0,6.06.81,8.11,2.41,2.05,1.61,3.15,3.84,3.29,6.7h-8.02c-.06-.99-.42-1.76-1.09-2.32-.66-.56-1.52-.85-2.56-.85-.9,0-1.62.24-2.17.72s-.82,1.17-.82,2.06c0,.98.46,1.75,1.39,2.3.93.55,2.37,1.14,4.34,1.78,1.96.67,3.56,1.3,4.79,1.91,1.23.61,2.29,1.49,3.19,2.65.9,1.16,1.34,2.65,1.34,4.47,0,1.73-.44,3.31-1.32,4.73s-2.16,2.54-3.84,3.38c-1.68.84-3.66,1.26-5.94,1.26-2.23,0-4.22-.36-5.99-1.09Z"/>
        <path class="cls-2" d="M229.09,200.87c-2.39-1.33-4.28-3.19-5.68-5.58-1.4-2.39-2.1-5.07-2.1-8.05s.7-5.65,2.11-8.03c1.4-2.37,3.3-4.22,5.68-5.55,2.39-1.33,5.01-1.99,7.87-1.99s5.49.67,7.87,2c2.39,1.33,4.26,3.18,5.64,5.55,1.37,2.37,2.06,5.05,2.06,8.03s-.7,5.66-2.09,8.04c-1.39,2.39-3.27,4.25-5.64,5.57-2.37,1.33-4.99,1.99-7.85,1.99s-5.49-.67-7.87-2ZM242.8,193.68c1.46-1.62,2.19-3.76,2.19-6.42s-.73-4.84-2.19-6.44c-1.46-1.61-3.41-2.41-5.84-2.41s-4.42.79-5.88,2.38-2.19,3.75-2.19,6.46.73,4.84,2.19,6.44c1.46,1.61,3.42,2.41,5.88,2.41s4.37-.81,5.84-2.43Z"/>
        <path class="cls-2" d="M263.19,200.88c-2.39-1.33-4.28-3.19-5.68-5.58-1.4-2.39-2.1-5.07-2.1-8.05s.7-5.65,2.11-8.03c1.4-2.37,3.3-4.22,5.68-5.55,2.39-1.33,5.01-1.99,7.87-1.99s5.49.67,7.87,2c2.39,1.33,4.26,3.18,5.64,5.55,1.37,2.37,2.06,5.05,2.06,8.03s-.7,5.66-2.09,8.04c-1.39,2.39-3.27,4.25-5.64,5.57-2.37,1.33-4.99,1.99-7.85,1.99s-5.49-.67-7.87-2ZM276.89,193.69c1.46-1.62,2.19-3.76,2.19-6.42s-.73-4.84-2.19-6.44c-1.46-1.61-3.41-2.41-5.84-2.41s-4.42.79-5.88,2.38-2.19,3.75-2.19,6.46.73,4.84,2.19,6.44c1.46,1.61,3.42,2.41,5.88,2.41s4.37-.81,5.84-2.43Z"/>
        <path class="cls-2" d="M317.99,202.59h-7.42s-12.4-18.79-12.4-18.79v18.78s-7.42,0-7.42,0v-30.45s7.43,0,7.43,0l12.4,18.87v-18.87s7.42,0,7.42,0v30.45Z"/>
      </g>
      <g>
        <g>
          <path class="cls-1" d="M22.23,231.99l-3.91,14.44h-4.89s-2.27-9.37-2.27-9.37l-2.36,9.37H3.93S0,231.98,0,231.98h4.42s2.04,10.32,2.04,10.32l2.43-10.32h4.68s2.46,10.27,2.46,10.27l2.02-10.27h4.17Z"/>
          <path class="cls-1" d="M37.44,240.27h-10.01c.07.9.36,1.58.87,2.06.51.47,1.13.71,1.87.71,1.1,0,1.87-.46,2.3-1.4h4.71c-.24.95-.68,1.8-1.31,2.56-.63.76-1.42,1.35-2.37,1.78-.95.43-2.01.65-3.18.65-1.42,0-2.67-.3-3.78-.9-1.1-.61-1.97-1.47-2.59-2.59-.62-1.12-.93-2.43-.93-3.93,0-1.5.31-2.81.92-3.93.61-1.12,1.47-1.98,2.57-2.59,1.1-.6,2.37-.9,3.8-.9,1.4,0,2.64.3,3.73.88,1.09.59,1.94,1.42,2.55,2.51.61,1.09.92,2.36.92,3.8,0,.41-.03.85-.08,1.29ZM32.99,237.81c0-.76-.26-1.36-.78-1.81-.52-.45-1.17-.67-1.94-.67s-1.37.22-1.88.65c-.51.43-.82,1.04-.94,1.84h5.54Z"/>
          <path class="cls-1" d="M45.29,235.28c.56-1.12,1.32-1.98,2.29-2.59s2.04-.91,3.23-.9c1.02,0,1.91.21,2.68.62.77.41,1.36.96,1.77,1.63v-2.04h4.42s0,14.44,0,14.44h-4.42s0-2.05,0-2.05c-.43.67-1.03,1.22-1.8,1.63s-1.66.62-2.68.62c-1.17,0-2.24-.31-3.21-.92-.97-.61-1.73-1.48-2.29-2.61-.56-1.13-.84-2.44-.84-3.92,0-1.48.28-2.79.84-3.91ZM54.34,236.6c-.61-.64-1.36-.96-2.24-.96s-1.63.31-2.24.94c-.61.63-.92,1.5-.92,2.6s.31,1.98.92,2.63c.61.65,1.36.97,2.24.97s1.63-.32,2.24-.96c.61-.64.92-1.51.92-2.61s-.31-1.97-.92-2.61Z"/>
          <path class="cls-1" d="M69.26,232.53c.78-.46,1.64-.68,2.59-.68v4.68s-1.22,0-1.22,0c-1.1,0-1.93.24-2.48.71s-.83,1.31-.83,2.5v6.7s-4.43,0-4.43,0v-14.44s4.43,0,4.43,0v2.41c.52-.79,1.16-1.42,1.94-1.88Z"/>
          <path class="cls-1" d="M87.5,240.28h-10.01c.07.9.36,1.58.87,2.06.51.47,1.13.71,1.88.71,1.1,0,1.87-.46,2.3-1.4h4.71c-.24.95-.68,1.8-1.31,2.56-.63.76-1.42,1.35-2.37,1.78-.95.43-2.01.65-3.18.65-1.41,0-2.67-.3-3.78-.91-1.1-.6-1.97-1.47-2.59-2.59-.62-1.12-.93-2.43-.93-3.93,0-1.5.31-2.81.92-3.93.61-1.12,1.47-1.98,2.57-2.59,1.1-.6,2.37-.9,3.8-.9s2.64.3,3.73.88c1.09.59,1.93,1.42,2.55,2.51.61,1.09.92,2.36.92,3.8,0,.41-.03.85-.08,1.29ZM83.05,237.82c0-.76-.26-1.36-.78-1.81-.52-.45-1.16-.67-1.94-.67s-1.37.22-1.88.65c-.51.43-.82,1.04-.94,1.84h5.54Z"/>
          <path class="cls-1" d="M103.44,242.69v3.75h-2.25c-1.6,0-2.86-.39-3.75-1.18-.9-.78-1.34-2.06-1.34-3.84v-5.74s-1.76,0-1.76,0v-3.67h1.76v-3.52h4.43v3.52s2.9,0,2.9,0v3.67h-2.9s0,5.79,0,5.79c0,.43.1.74.31.93s.55.28,1.03.28h1.58Z"/>
          <path class="cls-1" d="M105.86,235.3c.56-1.12,1.32-1.98,2.29-2.59s2.04-.9,3.23-.9c1.02,0,1.91.21,2.68.62.77.41,1.36.96,1.77,1.63v-2.04h4.42v14.44h-4.43v-2.04c-.43.67-1.03,1.21-1.8,1.63-.77.41-1.66.62-2.68.62-1.17,0-2.24-.31-3.21-.92-.97-.61-1.73-1.48-2.29-2.61-.56-1.13-.84-2.44-.84-3.92,0-1.48.28-2.78.84-3.91ZM114.91,236.62c-.61-.64-1.36-.96-2.24-.96s-1.63.31-2.24.94c-.61.63-.92,1.5-.92,2.6,0,1.1.31,1.98.92,2.63.61.65,1.36.97,2.24.97s1.63-.32,2.24-.96c.61-.64.92-1.51.92-2.61,0-1.1-.31-1.98-.92-2.61Z"/>
          <path class="cls-1" d="M132.28,246.45l-4.4-6.06v6.05h-4.43v-19.15s4.43,0,4.43,0v10.58s4.37-5.87,4.37-5.87h5.46s-6,7.24-6,7.24l6.05,7.19h-5.49Z"/>
          <path class="cls-1" d="M139.78,229.83c-.49-.46-.74-1.02-.74-1.7s.25-1.26.74-1.72c.49-.46,1.13-.69,1.9-.68.76,0,1.38.23,1.88.69s.74,1.03.74,1.72c0,.67-.25,1.24-.74,1.69-.49.46-1.12.69-1.88.69s-1.41-.23-1.9-.69ZM143.88,232.02v14.44s-4.43,0-4.43,0v-14.44s4.43,0,4.43,0Z"/>
          <path class="cls-1" d="M159.93,233.51c1.01,1.1,1.51,2.6,1.51,4.52v8.43h-4.4v-7.84c0-.97-.25-1.72-.75-2.25-.5-.54-1.17-.8-2.02-.8s-1.52.27-2.02.8c-.5.54-.75,1.28-.75,2.25v7.84s-4.43,0-4.43,0v-14.44s4.43,0,4.43,0v1.91c.45-.64,1.05-1.14,1.81-1.51.76-.37,1.61-.55,2.56-.55,1.69,0,3.04.55,4.05,1.64Z"/>
          <path class="cls-1" d="M172.69,232.44c.77.41,1.36.96,1.77,1.63v-2.04s4.43,0,4.43,0v14.41c0,1.33-.27,2.53-.8,3.61-.53,1.08-1.33,1.94-2.41,2.57-1.08.64-2.42.96-4.02.96-2.14,0-3.87-.51-5.2-1.51-1.33-1.01-2.09-2.38-2.28-4.1h4.37c.14.55.47.99.98,1.31.52.32,1.15.48,1.91.48.91,0,1.64-.26,2.19-.79.54-.53.82-1.37.82-2.52v-2.04c-.43.67-1.03,1.22-1.79,1.64-.76.42-1.65.63-2.67.63-1.19,0-2.27-.31-3.23-.92-.96-.61-1.73-1.48-2.29-2.61-.56-1.13-.84-2.44-.84-3.92s.28-2.79.84-3.91c.56-1.12,1.32-1.98,2.29-2.59.97-.6,2.04-.9,3.23-.9,1.02,0,1.91.21,2.68.62ZM173.54,236.63c-.61-.64-1.36-.96-2.24-.96s-1.63.31-2.24.94c-.61.63-.92,1.5-.92,2.6s.31,1.98.92,2.63,1.36.97,2.24.97,1.63-.32,2.24-.96c.61-.64.92-1.51.92-2.61s-.31-1.97-.92-2.61Z"/>
          <path class="cls-1" d="M187.54,235.32c.56-1.12,1.32-1.98,2.29-2.59.97-.6,2.04-.91,3.23-.91,1.02,0,1.91.21,2.68.62.77.42,1.36.96,1.77,1.63v-2.04s4.43,0,4.43,0v14.44s-4.43,0-4.43,0v-2.04c-.43.67-1.03,1.22-1.8,1.63-.77.41-1.66.62-2.68.62-1.17,0-2.24-.31-3.21-.92-.96-.61-1.73-1.48-2.29-2.61-.56-1.13-.84-2.44-.84-3.92s.28-2.79.84-3.91ZM196.59,236.64c-.61-.64-1.36-.96-2.24-.96s-1.63.31-2.24.94c-.61.63-.92,1.5-.92,2.6s.31,1.98.92,2.63,1.36.97,2.24.97,1.63-.32,2.24-.96c.61-.64.92-1.51.92-2.61s-.31-1.97-.92-2.61Z"/>
          <path class="cls-1" d="M216.84,232.45c.76-.41,1.65-.62,2.67-.62,1.19,0,2.27.3,3.23.91.96.6,1.73,1.47,2.29,2.59.56,1.12.84,2.42.84,3.91s-.28,2.79-.84,3.92c-.56,1.13-1.32,2-2.29,2.61-.97.61-2.04.92-3.23.92-1,0-1.89-.21-2.65-.62-.77-.41-1.37-.95-1.8-1.6v8.9s-4.43,0-4.43,0v-21.32s4.43,0,4.43,0v2.04c.43-.67,1.03-1.22,1.79-1.63ZM220.45,236.63c-.61-.63-1.37-.94-2.26-.94s-1.63.32-2.24.96c-.61.64-.92,1.51-.92,2.61s.31,1.97.92,2.61c.61.64,1.36.96,2.24.96s1.63-.32,2.25-.97c.62-.65.93-1.52.93-2.63s-.3-1.97-.92-2.6Z"/>
          <path class="cls-1" d="M228.52,229.85c-.49-.46-.74-1.02-.74-1.69s.25-1.26.74-1.72,1.13-.69,1.9-.69,1.38.23,1.88.69c.49.46.74,1.03.74,1.72s-.25,1.24-.74,1.7c-.49.46-1.12.69-1.88.69s-1.41-.23-1.9-.69ZM232.62,232.04v14.44h-4.43v-14.44s4.43,0,4.43,0Z"/>
          <path class="cls-1" d="M243.87,242.73v3.75h-2.25c-1.6,0-2.86-.39-3.75-1.18-.9-.78-1.35-2.07-1.34-3.84v-5.74s-1.76,0-1.76,0v-3.67h1.76v-3.52s4.43,0,4.43,0v3.52s2.9,0,2.9,0v3.67h-2.9v5.8c0,.43.1.74.31.93.21.19.55.28,1.04.28h1.58Z"/>
          <path class="cls-1" d="M257.46,235.57v3.67s-11.38,0-11.38,0v-3.67s11.38,0,11.38,0Z"/>
          <path class="cls-1" d="M263.85,246.05c-.98-.43-1.76-1.02-2.33-1.77s-.89-1.59-.96-2.52h4.37c.05.5.28.91.7,1.22.41.31.92.47,1.53.47.55,0,.98-.11,1.28-.32.3-.22.45-.5.45-.84,0-.41-.22-.72-.65-.92-.43-.2-1.13-.42-2.1-.66-1.03-.24-1.9-.5-2.59-.76-.69-.27-1.29-.69-1.79-1.27-.5-.58-.75-1.36-.75-2.34,0-.83.23-1.58.69-2.26.46-.68,1.13-1.22,2.02-1.62.89-.4,1.94-.59,3.17-.59,1.81,0,3.24.45,4.28,1.35,1.04.9,1.64,2.09,1.8,3.57h-4.09c-.07-.5-.29-.9-.66-1.19-.37-.29-.86-.44-1.46-.44-.52,0-.91.1-1.19.3-.28.2-.41.47-.41.82,0,.41.22.72.66.93.44.21,1.12.41,2.06.62,1.07.28,1.94.55,2.61.82.67.27,1.26.7,1.77,1.29.51.59.77,1.39.79,2.39,0,.85-.24,1.6-.71,2.26s-1.16,1.19-2.04,1.56c-.89.38-1.92.57-3.09.57-1.26,0-2.38-.22-3.36-.65Z"/>
          <path class="cls-1" d="M283.82,242.74v3.75s-2.25,0-2.25,0c-1.6,0-2.86-.39-3.75-1.18-.9-.79-1.35-2.07-1.34-3.84v-5.74s-1.76,0-1.76,0v-3.67s1.76,0,1.76,0v-3.52s4.43,0,4.43,0v3.52s2.9,0,2.9,0v3.67s-2.9,0-2.9,0v5.8c0,.43.1.74.31.93.21.19.55.28,1.04.28h1.58Z"/>
          <path class="cls-1" d="M289.03,245.79c-1.13-.6-2.02-1.47-2.66-2.59-.65-1.12-.97-2.43-.97-3.93s.33-2.79.98-3.92c.66-1.13,1.55-1.99,2.69-2.6s2.41-.91,3.83-.9c1.41,0,2.69.3,3.83.91,1.14.61,2.04,1.47,2.69,2.6.66,1.13.98,2.44.98,3.92s-.33,2.79-1,3.92-1.57,2-2.72,2.6-2.43.9-3.84.9c-1.42,0-2.69-.3-3.82-.91ZM295.01,241.94c.6-.62.89-1.51.89-2.67s-.29-2.04-.87-2.67c-.58-.62-1.29-.93-2.13-.93-.86,0-1.58.31-2.15.92-.57.61-.85,1.5-.85,2.68s.28,2.05.84,2.67c.56.62,1.26.93,2.11.93s1.56-.31,2.16-.93Z"/>
          <path class="cls-1" d="M308.97,232.47c.76-.41,1.65-.62,2.67-.62,1.19,0,2.27.3,3.23.91.96.6,1.73,1.47,2.29,2.59.56,1.12.84,2.42.84,3.91s-.28,2.79-.84,3.92c-.56,1.13-1.32,2-2.29,2.61-.97.61-2.04.92-3.23.92-1,0-1.89-.21-2.65-.62-.77-.41-1.37-.95-1.8-1.6v8.9s-4.43,0-4.43,0v-21.32h4.43v2.04c.43-.67,1.03-1.22,1.79-1.63ZM312.58,236.65c-.61-.63-1.37-.94-2.26-.94-.88,0-1.63.32-2.24.96-.61.64-.92,1.51-.92,2.61s.31,1.98.92,2.61c.61.64,1.36.96,2.24.96s1.63-.32,2.25-.97c.62-.65.93-1.52.93-2.63s-.3-1.97-.92-2.6Z"/>
        </g>
        <g>
          <path class="cls-1" d="M8.97,268.79v3.69s-2.22,0-2.22,0c-1.58,0-2.81-.39-3.69-1.16-.88-.77-1.32-2.03-1.32-3.78v-5.66S0,261.88,0,261.88v-3.62h1.73v-3.47s4.36,0,4.36,0v3.47s2.85,0,2.85,0v3.62s-2.85,0-2.85,0v5.71c0,.42.1.73.3.92.2.19.54.28,1.02.28h1.55Z"/>
          <path class="cls-1" d="M13.79,271.79c-1.11-.59-1.99-1.44-2.62-2.55-.64-1.1-.95-2.4-.95-3.87,0-1.46.32-2.75.97-3.86.65-1.11,1.53-1.96,2.65-2.56,1.12-.6,2.38-.89,3.77-.89,1.39,0,2.65.3,3.77.89,1.12.6,2,1.45,2.65,2.56.65,1.11.97,2.4.97,3.86,0,1.46-.33,2.75-.98,3.86-.65,1.11-1.55,1.97-2.68,2.56-1.13.6-2.39.89-3.78.89-1.39,0-2.64-.3-3.76-.89ZM19.68,268c.59-.61.88-1.49.88-2.62,0-1.14-.28-2.01-.85-2.62-.57-.61-1.27-.92-2.1-.92-.85,0-1.55.3-2.11.9-.56.6-.84,1.48-.84,2.64,0,1.14.28,2.01.83,2.62.55.61,1.24.92,2.08.92.83,0,1.54-.31,2.13-.92Z"/>
          <path class="cls-1" d="M54.45,259.73c1.04,1.07,1.57,2.56,1.57,4.46v8.3s-4.33,0-4.33,0v-7.72c0-.92-.24-1.63-.72-2.13-.48-.5-1.15-.75-2-.75-.85,0-1.52.25-2,.75-.48.5-.73,1.21-.73,2.13v7.72s-4.33,0-4.33,0v-7.72c0-.92-.24-1.63-.72-2.13-.48-.5-1.15-.75-2-.75s-1.52.25-2,.75c-.48.5-.73,1.21-.73,2.13v7.72s-4.36,0-4.36,0v-14.22s4.36,0,4.36,0v1.78c.44-.59,1.02-1.07,1.73-1.41.71-.35,1.52-.52,2.42-.52,1.07,0,2.03.23,2.87.69.84.46,1.5,1.11,1.97,1.96.49-.78,1.16-1.42,2.01-1.91.85-.49,1.78-.74,2.78-.74,1.77,0,3.17.53,4.22,1.61Z"/>
          <path class="cls-1" d="M58.73,261.51c.55-1.1,1.3-1.95,2.26-2.55.95-.6,2.01-.89,3.18-.89,1,0,1.88.2,2.64.61.76.41,1.34.94,1.74,1.61v-2.01s4.36,0,4.36,0v14.22s-4.36,0-4.36,0v-2.01c-.42.66-1.01,1.2-1.77,1.6-.76.41-1.64.61-2.64.61-1.16,0-2.21-.3-3.16-.9-.95-.6-1.7-1.46-2.25-2.57-.55-1.11-.83-2.4-.83-3.86,0-1.46.28-2.74.83-3.85ZM67.65,262.81c-.6-.63-1.34-.94-2.2-.94s-1.6.31-2.2.93c-.6.62-.91,1.47-.91,2.56,0,1.09.3,1.95.9,2.58.6.64,1.34.96,2.2.96s1.6-.31,2.2-.94c.6-.63.9-1.48.91-2.57,0-1.09-.3-1.95-.9-2.57Z"/>
          <path class="cls-1" d="M84.45,272.5l-4.33-5.96v5.96s-4.36,0-4.36,0v-18.85s4.36,0,4.36,0v10.42s4.3-5.78,4.3-5.78h5.38s-5.91,7.13-5.91,7.13l5.96,7.08h-5.4Z"/>
          <path class="cls-1" d="M104.52,266.44h-9.86c.07.88.35,1.56.85,2.02.5.47,1.12.7,1.85.7,1.09,0,1.84-.46,2.27-1.38h4.64c-.24.93-.67,1.78-1.29,2.52s-1.4,1.33-2.33,1.76c-.93.42-1.98.64-3.13.64-1.39,0-2.63-.3-3.72-.89-1.09-.59-1.94-1.44-2.55-2.55s-.92-2.4-.92-3.87c0-1.48.3-2.77.9-3.87.6-1.1,1.45-1.95,2.54-2.55,1.09-.6,2.34-.89,3.75-.89s2.6.29,3.67.87c1.07.58,1.91,1.4,2.51,2.47s.9,2.32.9,3.74c0,.41-.03.83-.08,1.27ZM100.14,264.02c0-.75-.25-1.34-.76-1.78s-1.15-.66-1.91-.66-1.35.21-1.85.64c-.5.42-.81,1.03-.93,1.81h5.45Z"/>
          <path class="cls-1" d="M114.15,272.07c-.97-.42-1.73-1.01-2.29-1.75-.56-.74-.87-1.57-.94-2.48h4.31c.05.49.28.89.69,1.2.41.31.91.46,1.5.46.54,0,.96-.11,1.26-.32s.45-.49.45-.83c0-.41-.21-.71-.64-.9-.43-.2-1.11-.41-2.06-.65-1.02-.24-1.87-.49-2.55-.75-.68-.26-1.27-.68-1.76-1.25-.49-.57-.74-1.34-.74-2.31,0-.82.23-1.56.68-2.23.45-.67,1.11-1.2,1.99-1.59.88-.39,1.92-.58,3.12-.58,1.78,0,3.19.44,4.22,1.33,1.03.88,1.62,2.05,1.77,3.52h-4.03c-.07-.49-.28-.88-.65-1.17-.37-.29-.85-.43-1.44-.43-.51,0-.9.1-1.17.29-.27.2-.41.46-.41.8,0,.41.22.71.65.92.43.2,1.11.41,2.03.61,1.05.27,1.91.54,2.57.8s1.24.69,1.74,1.27c.5.59.76,1.37.78,2.36,0,.83-.23,1.58-.7,2.23s-1.14,1.17-2.01,1.54c-.88.37-1.89.56-3.04.56-1.24,0-2.34-.21-3.31-.64Z"/>
          <path class="cls-1" d="M128.3,271.82c-1.11-.59-1.99-1.44-2.62-2.55-.64-1.1-.95-2.4-.95-3.87,0-1.46.32-2.75.97-3.86.65-1.11,1.53-1.97,2.65-2.56,1.12-.59,2.38-.89,3.77-.89,1.39,0,2.65.3,3.77.89,1.12.59,2,1.45,2.65,2.56.65,1.11.97,2.4.97,3.86,0,1.46-.33,2.75-.98,3.86-.65,1.11-1.55,1.96-2.68,2.56-1.13.6-2.39.89-3.78.89-1.39,0-2.64-.3-3.76-.89ZM134.19,268.03c.59-.61.88-1.49.88-2.62,0-1.14-.28-2.01-.85-2.62-.57-.61-1.27-.92-2.1-.92s-1.55.3-2.11.9c-.56.6-.84,1.48-.84,2.64,0,1.14.28,2.01.83,2.62.55.61,1.24.92,2.08.92s1.54-.3,2.13-.92Z"/>
          <path class="cls-1" d="M163.87,259.76c1.04,1.07,1.57,2.56,1.57,4.46v8.3h-4.33v-7.72c0-.92-.24-1.63-.72-2.13-.48-.5-1.15-.75-2-.75s-1.52.25-2,.75c-.48.5-.73,1.21-.73,2.13v7.72s-4.33,0-4.33,0v-7.72c0-.92-.24-1.63-.72-2.13-.48-.5-1.15-.75-2-.75s-1.52.25-2,.75c-.48.5-.73,1.21-.73,2.13v7.72s-4.36,0-4.36,0v-14.22s4.36,0,4.36,0v1.78c.44-.59,1.02-1.07,1.73-1.41.71-.35,1.52-.52,2.42-.52,1.07,0,2.03.23,2.87.69.84.46,1.5,1.11,1.97,1.96.49-.78,1.16-1.42,2.01-1.91.85-.49,1.78-.74,2.78-.74,1.77,0,3.17.54,4.22,1.61Z"/>
          <path class="cls-1" d="M181.51,266.46h-9.86c.07.88.35,1.56.85,2.02.5.47,1.12.7,1.85.7,1.09,0,1.84-.46,2.27-1.37h4.64c-.24.93-.67,1.78-1.29,2.52-.62.75-1.4,1.33-2.33,1.76s-1.98.64-3.13.63c-1.39,0-2.63-.3-3.72-.89s-1.94-1.44-2.55-2.55c-.61-1.1-.92-2.4-.92-3.87,0-1.48.3-2.77.91-3.87.6-1.1,1.45-1.95,2.54-2.55,1.09-.6,2.33-.89,3.75-.89,1.38,0,2.6.29,3.67.87,1.07.58,1.91,1.4,2.51,2.47.6,1.07.9,2.32.9,3.74,0,.41-.03.83-.08,1.27ZM177.13,264.04c0-.75-.25-1.34-.76-1.78s-1.15-.66-1.91-.66c-.73,0-1.35.21-1.85.64s-.81,1.03-.93,1.81h5.45Z"/>
          <path class="cls-1" d="M202.71,258.31v14.22h-4.36v-1.94c-.44.63-1.04,1.13-1.8,1.52-.76.38-1.59.57-2.51.57-1.09,0-2.05-.24-2.88-.73-.83-.48-1.48-1.18-1.94-2.1-.46-.92-.69-2-.69-3.24v-8.3s4.33,0,4.33,0v7.72c0,.95.24,1.69.74,2.22.49.53,1.15.79,1.98.79s1.52-.26,2.01-.79c.49-.53.74-1.26.74-2.22v-7.72h4.36Z"/>
          <path class="cls-1" d="M211.65,258.72c.75-.41,1.62-.61,2.62-.61,1.17,0,2.23.3,3.18.89.95.59,1.7,1.44,2.25,2.55.55,1.1.83,2.39.83,3.85,0,1.46-.28,2.75-.83,3.86-.55,1.11-1.3,1.97-2.25,2.57-.95.6-2.01.9-3.18.9-.98,0-1.86-.2-2.61-.61-.76-.41-1.35-.93-1.77-1.58v8.76s-4.36,0-4.36,0v-20.99s4.36,0,4.36,0v2.01c.42-.66,1.01-1.2,1.76-1.6ZM215.2,262.84c-.6-.62-1.35-.93-2.23-.93-.87,0-1.6.31-2.2.94-.6.63-.9,1.49-.91,2.57,0,1.09.3,1.94.9,2.57.6.63,1.34.94,2.2.94.87,0,1.6-.32,2.22-.96.61-.64.92-1.5.92-2.58,0-1.09-.3-1.94-.9-2.56Z"/>
          <path class="cls-1" d="M230.56,258.73c.76.41,1.34.94,1.74,1.61v-2.01s4.36,0,4.36,0v14.19c0,1.31-.26,2.49-.78,3.55-.52,1.06-1.31,1.91-2.37,2.53s-2.38.94-3.96.94c-2.11,0-3.81-.5-5.12-1.49-1.31-.99-2.05-2.34-2.24-4.04h4.3c.14.54.46.97.97,1.29.51.31,1.14.47,1.88.47.9,0,1.62-.26,2.15-.78s.8-1.35.8-2.48v-2.01c-.42.66-1.01,1.2-1.76,1.62-.75.42-1.62.62-2.62.62-1.17,0-2.23-.3-3.18-.9-.95-.6-1.7-1.46-2.25-2.57-.55-1.11-.83-2.4-.83-3.86,0-1.46.28-2.74.83-3.85.55-1.1,1.3-1.95,2.26-2.55.95-.6,2.01-.89,3.18-.89,1,0,1.88.2,2.64.61ZM231.4,262.86c-.6-.63-1.34-.94-2.2-.94s-1.6.31-2.2.93c-.6.62-.9,1.47-.9,2.56,0,1.09.3,1.95.9,2.59.6.64,1.34.96,2.2.96s1.6-.31,2.2-.94c.6-.63.9-1.49.9-2.57,0-1.09-.3-1.95-.9-2.57Z"/>
          <path class="cls-1" d="M245.78,258.85c.76-.45,1.61-.67,2.55-.67v4.61h-1.2c-1.09,0-1.9.23-2.45.7-.54.47-.82,1.29-.82,2.46v6.6s-4.36,0-4.36,0v-14.22s4.36,0,4.36,0v2.37c.51-.78,1.15-1.4,1.91-1.85Z"/>
          <path class="cls-1" d="M250.07,261.56c.55-1.1,1.3-1.95,2.26-2.55.95-.6,2.01-.89,3.18-.89,1,0,1.88.2,2.64.61s1.34.94,1.74,1.61v-2.01s4.36,0,4.36,0v14.22s-4.36,0-4.36,0v-2.01c-.42.66-1.02,1.2-1.77,1.6-.76.41-1.63.61-2.64.61-1.15,0-2.21-.3-3.16-.9-.95-.6-1.7-1.46-2.25-2.57-.55-1.11-.83-2.4-.83-3.86,0-1.46.28-2.74.83-3.85ZM258.99,262.86c-.6-.63-1.34-.94-2.2-.94s-1.6.31-2.2.93c-.6.62-.9,1.47-.9,2.56,0,1.09.3,1.95.9,2.59.6.64,1.34.96,2.2.96s1.6-.31,2.2-.94c.6-.63.9-1.49.9-2.57,0-1.09-.3-1.95-.9-2.57Z"/>
          <path class="cls-1" d="M267.06,261.56c.55-1.1,1.3-1.95,2.26-2.55.95-.6,2.01-.89,3.18-.89.93,0,1.79.2,2.56.59.77.39,1.38.92,1.82,1.58v-6.6s4.36,0,4.36,0v18.85s-4.36,0-4.36,0v-2.04c-.41.68-.99,1.22-1.75,1.63-.76.41-1.63.61-2.64.61-1.17,0-2.23-.3-3.18-.9-.95-.6-1.7-1.46-2.25-2.57-.55-1.11-.83-2.4-.83-3.86,0-1.46.28-2.74.83-3.85ZM275.98,262.87c-.6-.63-1.34-.94-2.2-.94s-1.6.31-2.2.93c-.6.62-.9,1.47-.9,2.56,0,1.09.3,1.95.9,2.58.6.64,1.34.96,2.2.96s1.6-.31,2.2-.94c.6-.63.9-1.49.9-2.57,0-1.09-.3-1.95-.9-2.57Z"/>
          <path class="cls-1" d="M297.42,266.49h-9.86c.07.88.35,1.56.85,2.02.5.47,1.12.7,1.85.7,1.09,0,1.84-.46,2.27-1.37h4.64c-.24.93-.67,1.78-1.29,2.52-.62.75-1.4,1.33-2.33,1.76s-1.98.64-3.13.63c-1.39,0-2.63-.3-3.72-.89s-1.94-1.44-2.55-2.55c-.61-1.1-.92-2.4-.92-3.87,0-1.48.3-2.77.91-3.87.6-1.1,1.45-1.95,2.54-2.55,1.09-.6,2.33-.89,3.75-.89,1.38,0,2.6.29,3.67.87,1.07.58,1.91,1.4,2.51,2.47.6,1.07.9,2.32.9,3.74,0,.41-.03.83-.08,1.27ZM293.04,264.07c0-.75-.25-1.34-.76-1.78s-1.15-.66-1.91-.66-1.35.21-1.85.64-.81,1.03-.93,1.81h5.45Z"/>
          <path class="cls-1" d="M301.95,272.12c-.97-.42-1.73-1.01-2.29-1.75-.56-.74-.87-1.57-.94-2.48h4.31c.05.49.28.89.69,1.2.41.31.91.46,1.5.46.54,0,.96-.11,1.26-.32.3-.21.45-.49.45-.83,0-.41-.21-.71-.64-.9s-1.11-.41-2.06-.65c-1.02-.24-1.87-.49-2.55-.75-.68-.26-1.27-.68-1.76-1.25-.49-.57-.74-1.34-.74-2.31,0-.82.23-1.56.68-2.23.45-.67,1.11-1.2,1.99-1.59.87-.39,1.91-.59,3.12-.59,1.78,0,3.19.44,4.22,1.33,1.03.88,1.62,2.06,1.77,3.52h-4.02c-.07-.49-.28-.88-.65-1.17-.37-.29-.85-.43-1.44-.43-.51,0-.9.1-1.17.29-.27.2-.41.46-.41.8,0,.41.22.71.65.92.43.2,1.11.41,2.03.61,1.05.27,1.91.54,2.57.8s1.24.69,1.75,1.27c.5.59.76,1.37.78,2.36,0,.83-.23,1.58-.7,2.23-.47.65-1.14,1.17-2.01,1.54-.88.37-1.89.56-3.04.56-1.24,0-2.34-.21-3.31-.64Z"/>
          <path class="cls-1" d="M313.55,272.08c-.48-.45-.73-1.01-.73-1.67s.24-1.25.73-1.71c.48-.46,1.11-.69,1.87-.69s1.36.23,1.85.69c.48.46.73,1.03.73,1.71s-.24,1.22-.73,1.67c-.48.45-1.1.67-1.85.67s-1.39-.23-1.87-.68Z"/>
        </g>
        <g>
          <path class="cls-1" d="M15.82,283.77l-3.4,10.9h-1.87l-2.62-8.66-2.63,8.65h-1.87L0,283.76h1.85s2.5,9.15,2.5,9.15l2.71-9.15h1.85s2.64,9.17,2.64,9.17l2.47-9.17h1.79Z"/>
          <path class="cls-1" d="M27.49,289.9h-8.71c.07,1.07.43,1.91,1.1,2.52.67.6,1.48.91,2.44.91.78,0,1.44-.18,1.96-.55.52-.36.89-.85,1.1-1.46h1.95c-.29,1.05-.88,1.9-1.75,2.56-.88.66-1.96.98-3.26.98-1.03,0-1.96-.23-2.78-.7s-1.45-1.12-1.92-1.98-.7-1.85-.7-2.97c0-1.13.23-2.12.68-2.96.45-.85,1.08-1.5,1.9-1.96s1.75-.69,2.82-.69,1.95.23,2.75.68,1.41,1.07,1.84,1.86c.43.79.65,1.68.65,2.68,0,.35-.02.71-.06,1.09ZM25.23,286.65c-.31-.5-.72-.88-1.24-1.13-.52-.26-1.1-.39-1.74-.39-.92,0-1.69.29-2.34.87-.64.58-1.01,1.39-1.11,2.43h6.88c0-.69-.15-1.28-.46-1.78Z"/>
          <path class="cls-1" d="M49.78,283.78l-3.4,10.9h-1.87l-2.62-8.65-2.63,8.65h-1.87l-3.42-10.9h1.85l2.5,9.15,2.71-9.15h1.85l2.64,9.17,2.47-9.17h1.79Z"/>
          <path class="cls-1" d="M51.63,281.65c-.24-.24-.36-.53-.36-.87,0-.35.12-.64.36-.88s.53-.36.88-.36.61.12.85.36c.23.24.35.53.35.88,0,.35-.12.64-.35.88s-.51.36-.84.36c-.35,0-.64-.12-.88-.36ZM53.38,283.78v10.9h-1.81v-10.9h1.81Z"/>
          <path class="cls-1" d="M58.27,279.96v14.72s-1.81,0-1.81,0v-14.72s1.81,0,1.81,0Z"/>
          <path class="cls-1" d="M63.17,279.96v14.72h-1.81v-14.72h1.81Z"/>
          <path class="cls-1" d="M74.73,284.1c.59-.34,1.31-.52,2.16-.52v1.87s-.48,0-.48,0c-2.03,0-3.04,1.1-3.04,3.3v5.93s-1.81,0-1.81,0v-10.9s1.81,0,1.81,0v1.77c.32-.62.77-1.11,1.36-1.45Z"/>
          <path class="cls-1" d="M88.87,289.91h-8.72c.07,1.07.43,1.91,1.1,2.52.67.6,1.48.9,2.44.9.78,0,1.44-.18,1.96-.54.52-.37.89-.85,1.1-1.46h1.95c-.29,1.05-.88,1.9-1.75,2.56-.88.66-1.96.98-3.26.98-1.03,0-1.96-.23-2.77-.7s-1.45-1.13-1.92-1.98c-.47-.86-.7-1.85-.7-2.98,0-1.13.23-2.11.68-2.96.45-.85,1.08-1.5,1.9-1.96.82-.46,1.75-.69,2.82-.69s1.95.23,2.75.68c.8.45,1.41,1.07,1.84,1.86.43.79.64,1.68.64,2.68,0,.35-.02.71-.06,1.09ZM86.6,286.66c-.31-.5-.72-.88-1.24-1.13-.52-.26-1.1-.39-1.74-.39-.92,0-1.7.29-2.34.88-.64.58-1.01,1.39-1.1,2.43h6.88c0-.69-.15-1.28-.46-1.78Z"/>
          <path class="cls-1" d="M93.53,285.28v6.43c0,.53.11.91.34,1.12.23.22.62.33,1.17.33h1.33v1.53h-1.63c-1.01,0-1.76-.23-2.27-.7-.5-.46-.76-1.23-.76-2.29v-6.43s-1.41,0-1.41,0v-1.49h1.41v-2.75s1.81,0,1.81,0v2.74s2.84,0,2.84,0v1.49h-2.85Z"/>
          <path class="cls-1" d="M108.23,283.79v10.9h-1.81v-1.61c-.34.56-.82.99-1.44,1.3-.62.31-1.3.47-2.04.47-.85,0-1.61-.17-2.29-.53-.68-.35-1.21-.88-1.6-1.58-.39-.7-.59-1.56-.59-2.57v-6.39h1.79v6.15c0,1.07.27,1.9.81,2.48.54.58,1.29.86,2.23.86s1.73-.3,2.29-.89c.56-.6.84-1.46.84-2.61v-5.99h1.81Z"/>
          <path class="cls-1" d="M114.46,284.11c.59-.34,1.31-.52,2.16-.52v1.87h-.48c-2.03,0-3.05,1.1-3.05,3.3v5.93s-1.81,0-1.81,0v-10.9s1.81,0,1.81,0v1.77c.32-.62.77-1.11,1.36-1.45Z"/>
          <path class="cls-1" d="M127.25,284.8c.82.8,1.23,1.96,1.23,3.47v6.43h-1.79v-6.17c0-1.09-.27-1.92-.81-2.5-.54-.58-1.29-.87-2.23-.87s-1.71.3-2.28.89c-.57.6-.85,1.46-.85,2.61v6.03h-1.81v-10.9h1.81v1.55c.36-.56.85-.99,1.46-1.29.62-.3,1.3-.46,2.04-.46,1.33,0,2.4.4,3.22,1.2Z"/>
          <path class="cls-1" d="M144.05,294.19c-.83-.46-1.48-1.13-1.95-1.98-.47-.86-.71-1.85-.71-2.98,0-1.11.24-2.1.73-2.95.49-.86,1.15-1.51,1.98-1.97.83-.46,1.77-.69,2.8-.69s1.97.23,2.8.69c.84.46,1.5,1.11,1.98,1.96.48.85.73,1.84.73,2.96,0,1.13-.25,2.12-.75,2.98-.5.85-1.17,1.52-2.02,1.98-.85.46-1.79.7-2.83.7s-1.95-.23-2.78-.7ZM148.65,292.83c.57-.3,1.03-.76,1.38-1.37.35-.61.53-1.35.53-2.23s-.17-1.62-.52-2.23c-.35-.61-.79-1.06-1.35-1.36-.56-.3-1.16-.45-1.81-.45s-1.27.15-1.82.45c-.55.3-.99.75-1.32,1.36-.33.61-.5,1.35-.5,2.23,0,.89.16,1.64.49,2.25.33.61.76,1.06,1.3,1.36.54.3,1.14.45,1.79.45s1.26-.15,1.83-.46Z"/>
          <path class="cls-1" d="M163.34,284.81c.82.8,1.23,1.96,1.23,3.47v6.43h-1.79v-6.17c0-1.09-.27-1.92-.81-2.5-.54-.58-1.29-.87-2.23-.87s-1.71.3-2.28.9c-.57.6-.85,1.46-.85,2.61v6.03h-1.81v-10.9h1.81v1.55c.36-.56.85-.99,1.46-1.29.62-.31,1.3-.46,2.04-.46,1.33,0,2.4.4,3.22,1.21Z"/>
          <path class="cls-3" d="M183.75,294.71h-1.81l-7.28-11.04v11.04h-1.81v-13.89s1.81,0,1.81,0l7.28,11.02v-11.02h1.81v13.89Z"/>
          <path class="cls-3" d="M188.81,294.2c-.83-.46-1.48-1.12-1.95-1.98-.47-.86-.71-1.85-.71-2.97,0-1.12.24-2.1.73-2.96.49-.85,1.15-1.51,1.98-1.97.83-.46,1.77-.69,2.8-.69s1.97.23,2.8.69,1.5,1.11,1.98,1.96c.48.85.73,1.84.73,2.96,0,1.13-.25,2.12-.75,2.97s-1.17,1.52-2.02,1.98c-.85.46-1.79.7-2.83.7s-1.95-.23-2.78-.7ZM193.42,292.85c.57-.31,1.03-.76,1.38-1.37s.53-1.35.53-2.23-.17-1.62-.52-2.23c-.35-.61-.79-1.06-1.35-1.36-.56-.3-1.16-.45-1.81-.45s-1.27.15-1.82.45c-.55.3-.99.75-1.32,1.36s-.5,1.35-.5,2.23c0,.89.16,1.64.49,2.25.33.61.76,1.06,1.3,1.36.54.3,1.14.45,1.79.45s1.26-.15,1.83-.46Z"/>
          <path class="cls-3" d="M203.62,293.05l3.38-9.23h1.93l-4.28,10.9h-2.11l-4.27-10.9h1.95l3.4,9.23Z"/>
          <path class="cls-3" d="M220.61,289.95h-8.71c.07,1.07.43,1.91,1.1,2.52.67.6,1.48.91,2.44.91.78,0,1.44-.18,1.96-.55.52-.36.89-.85,1.1-1.46h1.95c-.29,1.05-.88,1.9-1.75,2.56-.88.66-1.96.98-3.26.98-1.03,0-1.96-.23-2.77-.7-.81-.46-1.45-1.12-1.92-1.98-.47-.86-.7-1.85-.7-2.97,0-1.13.23-2.12.68-2.96.45-.85,1.09-1.5,1.9-1.96.82-.46,1.75-.69,2.82-.69s1.95.23,2.75.68c.8.45,1.41,1.07,1.84,1.86.43.79.65,1.68.65,2.68,0,.35-.02.71-.06,1.09ZM218.35,286.69c-.3-.5-.72-.87-1.24-1.13-.52-.26-1.1-.39-1.74-.39-.92,0-1.69.29-2.34.87-.64.58-1.01,1.39-1.11,2.43h6.88c0-.69-.15-1.28-.46-1.78Z"/>
          <path class="cls-3" d="M238.44,284.15c.66.35,1.19.88,1.57,1.58.38.7.58,1.56.58,2.57v6.43h-1.79v-6.17c0-1.09-.27-1.92-.8-2.5-.54-.58-1.26-.87-2.18-.87s-1.69.3-2.25.9c-.56.6-.84,1.47-.84,2.62v6.01h-1.79v-6.17c0-1.09-.27-1.92-.8-2.5-.54-.58-1.26-.87-2.18-.87s-1.69.3-2.25.9c-.56.6-.84,1.47-.84,2.62v6.01h-1.81v-10.9h1.81v1.57c.36-.57.84-1.01,1.44-1.31.6-.3,1.27-.46,2-.46.92,0,1.72.21,2.43.62.7.41,1.23,1.01,1.57,1.81.31-.77.81-1.37,1.51-1.79.7-.43,1.49-.64,2.35-.64s1.6.18,2.27.53Z"/>
          <path class="cls-3" d="M247,284.26c.72-.41,1.53-.62,2.45-.62.98,0,1.86.23,2.65.7s1.4,1.12,1.85,1.96c.45.84.68,1.82.68,2.93,0,1.1-.23,2.08-.68,2.95s-1.07,1.53-1.86,2.01c-.79.48-1.67.72-2.64.72-.94,0-1.77-.2-2.48-.62-.71-.41-1.24-.93-1.6-1.57v2.01h-1.81v-14.72h1.81v5.85c.37-.65.91-1.18,1.63-1.59ZM252.27,287.09c-.33-.61-.78-1.07-1.34-1.39-.56-.32-1.18-.48-1.86-.48-.66,0-1.28.16-1.84.49s-1.01.8-1.35,1.41-.51,1.33-.51,2.14.17,1.54.51,2.16.79,1.09,1.35,1.41c.56.32,1.18.49,1.84.49.68,0,1.3-.16,1.86-.49s1.01-.8,1.34-1.41c.33-.62.5-1.34.5-2.18s-.17-1.54-.5-2.15Z"/>
          <path class="cls-3" d="M266.89,289.96h-8.71c.07,1.07.43,1.91,1.1,2.52s1.48.9,2.44.91c.78,0,1.44-.18,1.96-.55.52-.37.89-.85,1.1-1.46h1.95c-.29,1.05-.88,1.9-1.75,2.56-.88.66-1.96.98-3.26.98-1.03,0-1.96-.23-2.77-.7-.81-.46-1.45-1.13-1.92-1.98-.47-.86-.7-1.85-.7-2.98,0-1.13.23-2.11.68-2.96.45-.85,1.09-1.5,1.9-1.96s1.75-.69,2.82-.69,1.95.23,2.75.68c.8.45,1.41,1.07,1.84,1.86.43.79.65,1.68.65,2.68,0,.35-.02.71-.06,1.09ZM264.62,286.71c-.3-.5-.72-.88-1.24-1.13-.52-.26-1.1-.39-1.74-.39-.92,0-1.69.29-2.34.87-.64.58-1.01,1.39-1.11,2.43h6.88c0-.69-.15-1.28-.46-1.78Z"/>
          <path class="cls-3" d="M272.51,284.15c.59-.35,1.31-.52,2.16-.52v1.87h-.48c-2.03,0-3.05,1.1-3.05,3.3v5.93h-1.81v-10.9h1.81v1.77c.32-.62.77-1.11,1.36-1.45Z"/>
          <path class="cls-3" d="M281.3,282v-1.65h3.74s0,14.39,0,14.39h-1.83v-12.73s-1.91,0-1.91,0Z"/>
          <path class="cls-3" d="M289.05,285.99c-.4-.56-.6-1.23-.6-2.03,0-.72.18-1.36.54-1.94s.89-1.03,1.6-1.37c.71-.34,1.57-.51,2.58-.51,1.01,0,1.87.17,2.58.51.71.34,1.25.8,1.61,1.37.36.58.55,1.23.55,1.94,0,.77-.21,1.44-.62,2.02-.41.58-.98,1-1.69,1.28.82.25,1.47.69,1.96,1.32.48.63.73,1.39.72,2.28,0,.86-.21,1.62-.64,2.26-.42.64-1.03,1.14-1.8,1.49-.78.35-1.67.53-2.68.53s-1.89-.18-2.66-.53c-.76-.35-1.36-.85-1.78-1.49-.42-.64-.64-1.39-.64-2.26,0-.89.24-1.65.72-2.29s1.13-1.07,1.95-1.31c-.74-.29-1.31-.72-1.71-1.27ZM290.76,288.74c-.62.46-.94,1.15-.94,2.06,0,.85.3,1.53.91,2.05.6.52,1.42.78,2.44.78,1.02,0,1.83-.26,2.43-.77.6-.52.9-1.2.9-2.05,0-.89-.3-1.57-.91-2.04s-1.41-.71-2.41-.71-1.78.23-2.41.69ZM295.36,282.31c-.53-.44-1.26-.66-2.19-.66s-1.64.22-2.17.66c-.53.44-.8,1.07-.8,1.89,0,.74.28,1.34.83,1.79.55.45,1.26.68,2.14.68s1.61-.23,2.16-.69c.55-.46.82-1.06.82-1.8,0-.81-.27-1.43-.8-1.87Z"/>
          <path class="cls-3" d="M303.2,285.33v6.43c0,.53.11.91.34,1.12.23.22.62.33,1.17.33h1.33v1.53s-1.63,0-1.63,0c-1.01,0-1.76-.23-2.27-.7-.5-.47-.76-1.23-.76-2.29v-6.43s-1.41,0-1.41,0v-1.49h1.41v-2.75s1.81,0,1.81,0v2.74s2.84,0,2.84,0v1.49h-2.85Z"/>
          <path class="cls-3" d="M315.87,284.17c.66.35,1.18.88,1.56,1.58.38.71.57,1.56.57,2.57v6.43h-1.79v-6.17c0-1.09-.27-1.92-.81-2.5-.54-.58-1.29-.87-2.23-.87-.96,0-1.71.3-2.28.9-.57.6-.85,1.46-.85,2.61v6.03h-1.81v-14.72h1.81v5.37c.36-.56.85-.99,1.48-1.29s1.34-.46,2.12-.46c.82,0,1.57.18,2.23.53Z"/>
        </g>
      </g>
      <g>
        <g>
          <g>
            <rect class="cls-1" x="220.9" width="22.05" height="13.22" rx="4.78" ry="4.78"/>
            <path class="cls-1" d="M252.52,24.52c-5.3-5.09-12.17-7.64-20.6-7.64s-15.41,2.67-20.76,8.02c-5.3,5.3-7.95,11.93-7.95,19.91,0,8.44,2.67,15.2,8.02,20.29,5.4,5.09,12.29,7.64,20.68,7.64s15.12-2.62,20.52-7.87c5.45-5.25,8.18-11.93,8.18-20.06s-2.7-15.2-8.1-20.29ZM242.91,55.55c-2.89,2.81-6.55,4.21-10.99,4.21s-8.18-1.36-11.07-4.09c-2.86-2.73-4.3-6.35-4.3-10.86,0-4.27,1.42-7.82,4.25-10.66,2.86-2.86,6.57-4.3,11.11-4.3s8.19,1.36,11.03,4.09c2.89,2.73,4.34,6.35,4.34,10.86s-1.46,7.93-4.38,10.74Z"/>
          </g>
          <path class="cls-1" d="M159.05,67.98V21.66c0-2.64,2.14-4.78,4.78-4.78h12.14c6.17,0,10.84,1.11,14.01,3.59,3.16,2.47,4.75,5.87,4.75,10.18,0,5.48-2.13,9.63-6.38,12.45v.16c2.39.91,4.32,2.45,5.79,4.63,1.46,2.18,2.19,4.9,2.19,8.14,0,5.59-1.97,9.87-5.91,12.85-3.88,2.93-8.99,3.88-15.32,3.88h-11.27c-2.64,0-4.78-2.14-4.78-4.78ZM175.81,29.05h-3.99v10.14h4.23c3.94,0,5.91-1.81,5.91-5.43,0-1.54-.59-2.77-1.76-3.67-1.17-.9-2.63-1.04-4.39-1.04ZM176.77,50.36h-4.95v10.46c1.17.32,2.61.48,4.31.48,4.95,0,7.42-1.97,7.42-5.91,0-3.35-2.26-5.03-6.78-5.03Z"/>
          <path class="cls-1" d="M12.77,53.2v14.78c0,2.64-2.14,4.78-4.78,4.78h-3.22c-2.64,0-4.78-2.14-4.78-4.78V21.64c0-2.62,2.11-4.76,4.73-4.78,1.69-.01,3.47-.03,5.32-.06,3.67-.05,6.65-.08,8.94-.08,13.78,0,20.67,5.96,20.67,17.88,0,7.66-3.14,13.04-9.42,16.12l10.65,14.41c2.33,3.15.08,7.62-3.84,7.62h-3.51c-1.57,0-3.03-.77-3.92-2.05l-12.14-17.5h-4.71ZM18.36,28.69c-.05,0-.29.01-.72.04-.43.03-1.09.05-2,.08-.91.03-1.86.04-2.87.04v12.37h4.63c5.8,0,8.7-2.16,8.7-6.47,0-4.04-2.58-6.07-7.74-6.07Z"/>
          <path class="cls-1" d="M304.85,19.88l-11.39,29.89c-.52,1.37-2.46,1.37-2.98,0l-11.39-29.89c-.71-1.85-2.48-3.08-4.46-3.08h-3.9c-3.38,0-5.69,3.41-4.44,6.55l18.53,46.32c.73,1.81,2.48,3,4.44,3h5.43c1.95,0,3.71-1.19,4.44-3l18.53-46.32c1.26-3.14-1.06-6.55-4.44-6.55h-3.9c-1.98,0-3.76,1.22-4.46,3.08Z"/>
          <path class="cls-1" d="M111.65,69.69l11.39-29.89c.52-1.37,2.46-1.37,2.98,0l11.39,29.89c.71,1.85,2.48,3.08,4.46,3.08h3.9c3.38,0,5.69-3.41,4.44-6.55l-18.53-46.32c-.73-1.81-2.48-3-4.44-3h-5.43c-1.95,0-3.71,1.19-4.44,3l-18.53,46.32c-1.26,3.14,1.06,6.55,4.44,6.55h3.9c1.98,0,3.76-1.22,4.46-3.08Z"/>
          <g>
            <path class="cls-1" d="M84.69,51.44h-31.21c-2.94,0-5.32-2.14-5.32-4.78v-3.66c0-2.64,2.38-4.78,5.32-4.78h31.21c2.94,0,5.32,2.14,5.32,4.78v3.66c0,2.64-2.38,4.78-5.32,4.78Z"/>
            <path class="cls-1" d="M84.69,72.77h-31.21c-2.94,0-5.32-2.14-5.32-4.78v-3.66c0-2.64,2.38-4.78,5.32-4.78h31.21c2.94,0,5.32,2.14,5.32,4.78v3.66c0,2.64-2.38,4.78-5.32,4.78Z"/>
            <path class="cls-1" d="M84.69,30.11h-31.21c-2.94,0-5.32-2.14-5.32-4.78v-3.66c0-2.64,2.38-4.78,5.32-4.78h31.21c2.94,0,5.32,2.14,5.32,4.78v3.66c0,2.64-2.38,4.78-5.32,4.78Z"/>
          </g>
        </g>
        <g>
          <path class="cls-1" d="M32.55,129.73c0-2.63-.77-4.88-2.31-6.77-1.54-1.88-3.46-3.31-5.74-4.28-2.28-.97-4.77-2.04-7.45-3.21-2.69-1.17-5.17-2.33-7.45-3.47-2.29-1.14-4.2-2.84-5.74-5.1-1.54-2.26-2.31-4.93-2.31-8.01,0-4.34,1.57-7.91,4.71-10.71,3.2-2.85,7.48-4.28,12.85-4.28,7.02,0,12.39,2.03,16.1,6.08l-2.57,3.51c-3.43-3.43-7.88-5.14-13.36-5.14-3.94,0-7.05.96-9.34,2.87-2.28,1.91-3.43,4.47-3.43,7.67,0,2.57.77,4.78,2.31,6.64,1.54,1.86,3.46,3.24,5.74,4.15,2.28.91,4.77,1.93,7.45,3.04,2.68,1.11,5.17,2.24,7.45,3.38,2.28,1.14,4.2,2.87,5.74,5.18,1.54,2.31,2.31,5.1,2.31,8.35,0,4.68-1.83,8.48-5.48,11.39-3.65,2.91-8.2,4.37-13.62,4.37-3.71,0-7.37-.77-10.97-2.31-3.54-1.66-6.03-3.77-7.45-6.34l2.83-3.25c1.71,2.23,4,4.03,6.85,5.4,2.85,1.37,5.74,2.06,8.65,2.06,3.88,0,7.22-1,10.02-3,2.8-1.94,4.2-4.68,4.2-8.22"/>
          <polygon class="cls-1" points="65.19 89.12 43 89.12 43 84.67 92.08 84.67 92.08 89.12 69.9 89.12 69.9 144.63 65.19 144.63 65.19 89.12"/>
          <path class="cls-1" d="M143.91,84.67h4.71v34.86c0,8.62-2.14,15.08-6.43,19.36-4.28,4.28-9.71,6.42-16.27,6.42-7.25,0-13.14-2.25-17.65-6.77-4.45-4.51-6.68-11.05-6.68-19.62v-34.26h4.71v33.41c0,7.14,1.76,12.72,5.27,16.75,3.51,4.03,8.29,6.04,14.35,6.04,5.6,0,9.99-1.91,13.19-5.74,3.2-3.83,4.8-9.37,4.8-16.62v-33.84Z"/>
          <path class="cls-1" d="M167.55,144.63h-.77v-59.96h.94c2.45,0,4.74-.03,6.85-.09,4.23-.11,6.74-.17,7.54-.17,5.77,0,10.87.79,15.29,2.36,4.43,1.57,7.95,3.74,10.58,6.51,2.63,2.77,4.58,5.88,5.87,9.34,1.29,3.46,1.93,7.18,1.93,11.18,0,9.02-3,16.45-8.99,22.27-5.94,5.83-14.39,8.74-25.36,8.74-2.46,0-4.71-.03-6.77-.09-2.06-.06-4.43-.09-7.11-.09M181.94,88.87c-1.26,0-3.1.04-5.53.13-2.43.09-4.07.13-4.93.13v51.05c1.88,0,3.65.02,5.31.04,1.66.03,2.86.06,3.6.09.74.03,1.14.04,1.2.04,9.31,0,16.5-2.45,21.59-7.37,5.08-4.97,7.62-11.36,7.62-19.19,0-7.37-2.43-13.36-7.28-17.99-4.91-4.63-12.11-6.94-21.59-6.94"/>
          <rect class="cls-1" x="231.97" y="84.67" width="4.71" height="59.96"/>
          <path class="cls-1" d="M252.87,114.65c0-8.74,2.85-16.05,8.57-21.93,5.71-5.88,12.88-8.82,21.5-8.82s15.7,2.91,21.42,8.74c5.77,5.77,8.65,13.11,8.65,22.02s-2.88,16.08-8.65,22.02c-5.71,5.82-12.85,8.74-21.42,8.74s-15.73-2.88-21.5-8.65c-5.71-5.77-8.57-13.13-8.57-22.1M257.84,114.65c0,7.42,2.4,13.68,7.2,18.76,4.85,5.03,10.82,7.54,17.9,7.54s13.31-2.51,17.99-7.54c4.74-5.08,7.11-11.34,7.11-18.76s-2.43-13.85-7.28-18.76c-4.8-5.02-10.74-7.54-17.82-7.54s-13.11,2.51-17.9,7.54c-4.8,4.97-7.2,11.22-7.2,18.76"/>
        </g>
      </g>
    </g>
  </g>
</svg>