<?xml version="1.0" encoding="UTF-8"?>
<svg id="Layer_2" data-name="Layer 2" xmlns="http://www.w3.org/2000/svg" viewBox="0 0 44.02 36.76">
  <defs>
    <style>
      .cls-1 {
        fill: #fff;
      }
    </style>
  </defs>
  <g id="Layer_1-2" data-name="Layer 1">
    <path class="cls-1" d="M1.74,18.61l9.98,3.1,23.03-14.41c.47-.31.87-.37,1.08-.32.07.01.1.04.1.04,0,.02-.02.13-.22.3l-18.55,16.66-.07.06-.75,10.48h.26c1.13,0,1.64-.51,2.18-1.04l4.69-4.48,9.87,7.23c.63.35,1.21.53,1.73.53.28,0,.55-.05.79-.16.7-.31,1.19-1.06,1.46-2.22l6.56-30.72.02-.07c.3-1.39.07-2.5-.64-3.11-.61-.52-1.5-.62-2.45-.27L2.17,15C.75,15.55-.03,16.28,0,17.04c.02.67.64,1.22,1.74,1.56Z"/>
  </g>
</svg>