<?xml version="1.0" encoding="UTF-8"?>
<svg id="Layer_2" data-name="Layer 2" xmlns="http://www.w3.org/2000/svg" viewBox="0 0 191.38 23.69">
  <defs>
    <style>
      .cls-1 {
        fill: #fff;
      }
    </style>
  </defs>
  <g id="Layer_1-2" data-name="Layer 1">
    <g>
      <g>
        <path class="cls-1" d="M.53,18.03c.05-.81.1-2.02.1-3.09V.5h2.15v7.51h.05c.77-1.33,2.15-2.2,4.07-2.2,2.96,0,5.06,2.47,5.04,6.1,0,4.27-2.69,6.39-5.36,6.39-1.73,0-3.11-.67-4-2.25h-.07l-.1,1.97H.53ZM2.78,13.24c0,.27.05.54.1.79.42,1.51,1.68,2.54,3.26,2.54,2.27,0,3.63-1.85,3.63-4.59,0-2.39-1.23-4.44-3.56-4.44-1.48,0-2.86,1.01-3.31,2.67-.05.25-.12.54-.12.89v2.15Z"/>
        <path class="cls-1" d="M6.58,18.8c-1.51,0-2.73-.48-3.64-1.42l-.06,1.15H0l.03-.53c.05-.79.1-2,.1-3.06V0h3.15v6.63c.92-.86,2.17-1.32,3.62-1.32s2.72.52,3.7,1.52c1.2,1.21,1.85,3.01,1.83,5.08,0,4.52-2.95,6.89-5.86,6.89ZM2.03,15.55h.77l.22.25c.75,1.34,1.92,1.99,3.56,1.99,2.34,0,4.86-1.84,4.86-5.89.01-1.81-.54-3.36-1.54-4.38-.79-.8-1.83-1.22-2.99-1.22-1.65,0-2.91.67-3.64,1.95l-.14.25h-.79l-.05-.5V1h-1.15v13.94c0,.98-.04,1.97-.07,2.59h.87l.1-1.97ZM6.13,17.07c-1.78,0-3.25-1.14-3.74-2.91-.06-.31-.12-.61-.12-.92v-2.15c0-.35.06-.64.11-.88l.02-.11c.5-1.85,2.02-3.07,3.8-3.07,2.39,0,4.06,2.03,4.06,4.94,0,3.09-1.62,5.09-4.13,5.09ZM6.21,8.04c-1.32,0-2.46.92-2.82,2.3l-.02.08c-.04.21-.09.43-.09.68v2.15c0,.22.04.47.09.69.36,1.29,1.45,2.14,2.77,2.14,1.93,0,3.13-1.57,3.13-4.09,0-1.96-.94-3.94-3.06-3.94Z"/>
      </g>
      <g>
        <path class="cls-1" d="M24.23,14.77c0,1.23.02,2.32.1,3.26h-1.93l-.12-1.95h-.05c-.57.96-1.83,2.22-3.95,2.22-1.88,0-4.12-1.04-4.12-5.23v-6.99h2.17v6.62c0,2.27.69,3.8,2.67,3.8,1.46,0,2.47-1.01,2.86-1.98.12-.32.2-.72.2-1.11v-7.33h2.17v8.69Z"/>
        <path class="cls-1" d="M18.28,18.8c-1.39,0-4.62-.56-4.62-5.73v-7.49h3.17v7.12c0,2.96,1.24,3.3,2.17,3.3,1.27,0,2.09-.9,2.4-1.67.1-.26.16-.6.16-.92v-7.83h3.17v9.19c0,1.36.03,2.38.1,3.22l.04.54h-2.94l-.07-1.17c-.72.71-1.87,1.44-3.58,1.44ZM14.66,6.58v6.49c0,4.12,2.27,4.73,3.62,4.73,2.12,0,3.17-1.38,3.52-1.98l.15-.25h.75l.08.47.09,1.48h.92c-.04-.76-.06-1.65-.06-2.76V6.58h-1.17v6.83c0,.44-.08.9-.23,1.29-.44,1.07-1.57,2.3-3.33,2.3-1.44,0-3.17-.75-3.17-4.3v-6.12h-1.17Z"/>
      </g>
      <g>
        <path class="cls-1" d="M30.02,2.65v3.43h3.11v1.65h-3.11v6.44c0,1.48.42,2.32,1.63,2.32.57,0,.99-.07,1.26-.15l.1,1.63c-.42.17-1.09.3-1.93.3-1.01,0-1.83-.32-2.35-.91-.62-.64-.84-1.7-.84-3.11v-6.52h-1.85v-1.65h1.85v-2.86l2.12-.57Z"/>
        <path class="cls-1" d="M31.08,18.78c-1.16,0-2.1-.38-2.72-1.08-.65-.68-.96-1.78-.96-3.44v-6.02h-1.85v-2.65h1.85v-2.75l3.12-.83v3.58h3.11v2.65h-3.11v5.94c0,1.68.56,1.82,1.13,1.82.54,0,.91-.07,1.13-.13l.59-.16.16,2.6-.33.14c-.52.22-1.28.33-2.12.33ZM26.54,7.23h1.85v7.02c0,1.39.22,2.27.7,2.76.44.5,1.12.76,1.99.76.53,0,1.02-.05,1.4-.15l-.04-.67c-.22.03-.49.05-.79.05-1.41,0-2.13-.95-2.13-2.82v-6.94h3.11v-.65h-3.11v-3.28l-1.12.3v2.98h-1.85v.65Z"/>
      </g>
      <g>
        <path class="cls-1" d="M40.78,6.08l1.58,6.07c.35,1.33.67,2.57.89,3.8h.07c.27-1.21.67-2.49,1.06-3.78l1.95-6.1h1.83l1.85,5.97c.44,1.43.79,2.69,1.06,3.9h.07c.2-1.21.52-2.47.91-3.88l1.7-6h2.15l-3.85,11.95h-1.98l-1.83-5.7c-.42-1.33-.76-2.52-1.06-3.93h-.05c-.3,1.43-.67,2.67-1.09,3.95l-1.93,5.68h-1.97l-3.6-11.95h2.22Z"/>
        <path class="cls-1" d="M52.43,18.53h-2.7l-1.94-6.05c-.22-.71-.43-1.38-.61-2.06-.21.74-.42,1.43-.64,2.08l-2.04,6.02h-2.7l-3.91-12.95h3.28l1.68,6.45c.17.66.34,1.3.49,1.92.18-.63.37-1.26.56-1.88l2.07-6.49h2.56l1.96,6.33c.22.7.41,1.35.58,1.97.16-.67.34-1.33.51-1.93l1.81-6.36h3.21l-4.17,12.95ZM50.45,17.53h1.25l3.53-10.95h-1.08l-1.6,5.64c-.33,1.17-.69,2.53-.9,3.82l-.07.42h-.83l-.16-.39c-.26-1.17-.6-2.4-1.05-3.86l-1.74-5.62h-1.09l-1.84,5.75c-.39,1.27-.79,2.56-1.05,3.73l-.09.39h-.82l-.15-.41c-.22-1.2-.53-2.42-.87-3.72l-1.49-5.75h-1.16l3.3,10.95h1.24l1.81-5.34c.37-1.14.76-2.41,1.07-3.89l.08-.4h.81l.13.4c.29,1.36.63,2.54,1.05,3.88l1.71,5.35Z"/>
      </g>
      <g>
        <path class="cls-1" d="M58.61,12.45c.05,2.94,1.93,4.15,4.1,4.15,1.55,0,2.49-.27,3.31-.62l.37,1.55c-.77.35-2.07.74-3.98.74-3.68,0-5.88-2.42-5.88-6.02s2.12-6.44,5.6-6.44c3.9,0,4.94,3.43,4.94,5.63,0,.44-.05.79-.07,1.01h-8.39ZM64.98,10.89c.02-1.38-.57-3.53-3.01-3.53-2.2,0-3.16,2.03-3.33,3.53h6.35Z"/>
        <path class="cls-1" d="M62.41,18.78c-3.87,0-6.38-2.56-6.38-6.52s2.51-6.94,6.1-6.94,5.44,3.08,5.44,6.13c0,.4-.04.73-.07.96l-.06.55h-8.31c.29,2.83,2.56,3.15,3.57,3.15,1.54,0,2.41-.28,3.11-.58l.54-.23.6,2.53-.38.17c-.79.36-2.16.79-4.18.79ZM62.14,6.31c-3.05,0-5.1,2.39-5.1,5.94s2.06,5.52,5.38,5.52c1.54,0,2.66-.27,3.39-.54l-.14-.58c-.7.24-1.61.44-2.95.44-2.19,0-4.54-1.22-4.6-4.64v-.51s8.45,0,8.45,0c.01-.15.02-.32.02-.51,0-.53-.12-5.13-4.44-5.13ZM65.47,11.39h-7.4l.06-.56c.23-1.98,1.5-3.97,3.83-3.97,1,0,1.81.32,2.43.94,1.01,1.03,1.1,2.51,1.09,3.1v.49ZM59.23,10.39h5.23c-.05-.54-.23-1.33-.78-1.89-.42-.42-.99-.64-1.71-.64-1.67,0-2.46,1.41-2.73,2.53Z"/>
      </g>
      <g>
        <path class="cls-1" d="M73.82,15.81c.64.42,1.78.86,2.86.86,1.58,0,2.32-.79,2.32-1.78,0-1.04-.62-1.6-2.22-2.2-2.15-.76-3.16-1.95-3.16-3.38,0-1.93,1.55-3.51,4.12-3.51,1.21,0,2.27.35,2.94.74l-.54,1.58c-.47-.3-1.33-.69-2.44-.69-1.28,0-2,.74-2,1.63,0,.99.72,1.43,2.27,2.02,2.07.79,3.14,1.83,3.14,3.6,0,2.1-1.63,3.58-4.47,3.58-1.31,0-2.52-.32-3.36-.81l.54-1.65Z"/>
        <path class="cls-1" d="M76.64,18.78c-1.34,0-2.66-.32-3.61-.88l-.35-.2.87-2.66.55.36c.6.39,1.63.78,2.59.78,1.16,0,1.82-.47,1.82-1.28,0-.68-.29-1.14-1.9-1.73-2.88-1.03-3.49-2.66-3.49-3.85,0-2.32,1.94-4.01,4.62-4.01,1.14,0,2.33.3,3.19.81l.35.21-.88,2.56-.53-.34c-.29-.18-1.09-.61-2.18-.61-.91,0-1.5.44-1.5,1.13,0,.57.27.92,1.95,1.56,1.61.61,3.46,1.63,3.46,4.07s-1.95,4.08-4.97,4.08ZM73.89,17.22c.77.36,1.75.56,2.75.56,2.45,0,3.97-1.18,3.97-3.08,0-1.47-.82-2.38-2.81-3.14-1.47-.56-2.59-1.1-2.59-2.49,0-1.25,1.03-2.13,2.5-2.13.91,0,1.64.23,2.16.47l.21-.62c-.67-.31-1.51-.48-2.33-.48-2.13,0-3.62,1.24-3.62,3.01,0,1.26.95,2.24,2.83,2.91,1.54.57,2.55,1.24,2.55,2.67,0,1.05-.74,2.28-2.82,2.28-.95,0-1.89-.3-2.58-.63l-.22.68Z"/>
      </g>
      <g>
        <path class="cls-1" d="M86.07,2.65v3.43h3.11v1.65h-3.11v6.44c0,1.48.42,2.32,1.63,2.32.57,0,.99-.07,1.26-.15l.1,1.63c-.42.17-1.09.3-1.92.3-1.01,0-1.83-.32-2.35-.91-.62-.64-.84-1.7-.84-3.11v-6.52h-1.85v-1.65h1.85v-2.86l2.12-.57Z"/>
        <path class="cls-1" d="M87.13,18.78c-1.16,0-2.1-.38-2.72-1.08-.65-.68-.96-1.78-.96-3.44v-6.02h-1.85v-2.65h1.85v-2.75l3.12-.83v3.58h3.11v2.65h-3.11v5.94c0,1.68.56,1.82,1.13,1.82.54,0,.91-.07,1.13-.13l.59-.16.16,2.6-.33.14c-.52.22-1.27.33-2.12.33ZM82.6,7.23h1.85v7.02c0,1.39.22,2.27.7,2.76.44.5,1.12.76,1.99.76.53,0,1.02-.05,1.4-.15l-.04-.67c-.22.03-.49.05-.79.05-1.41,0-2.13-.95-2.13-2.82v-6.94h3.11v-.65h-3.11v-3.28l-1.12.3v2.98h-1.85v.65Z"/>
      </g>
      <g>
        <path class="cls-1" d="M93.6,2.72c.02.74-.52,1.33-1.38,1.33-.76,0-1.31-.59-1.31-1.33s.57-1.36,1.36-1.36,1.33.59,1.33,1.36ZM91.18,18.03V6.08h2.17v11.95h-2.17Z"/>
        <path class="cls-1" d="M93.86,18.53h-3.17V5.58h3.17v12.95ZM91.68,17.53h1.17V6.58h-1.17v10.95ZM92.22,4.56c-1.01,0-1.81-.8-1.81-1.83s.8-1.86,1.86-1.86,1.83.78,1.83,1.85c.01.49-.16.95-.48,1.29-.35.36-.84.56-1.4.56ZM92.27,1.86c-.51,0-.86.35-.86.86s.34.83.81.83c.29,0,.52-.09.68-.25.14-.15.21-.34.2-.57v-.02c0-.52-.33-.86-.83-.86Z"/>
      </g>
      <g>
        <path class="cls-1" d="M96.52.5h2.17v17.53h-2.17V.5Z"/>
        <path class="cls-1" d="M99.19,18.53h-3.17V0h3.17v18.53ZM97.02,17.53h1.17V1h-1.17v16.53Z"/>
      </g>
      <g>
        <path class="cls-1" d="M101.9.5h2.17v17.53h-2.17V.5Z"/>
        <path class="cls-1" d="M104.57,18.53h-3.17V0h3.17v18.53ZM102.4,17.53h1.17V1h-1.17v16.53Z"/>
      </g>
      <g>
        <path class="cls-1" d="M112.94,6.08l1.58,6.07c.35,1.33.67,2.57.89,3.8h.07c.27-1.21.67-2.49,1.06-3.78l1.95-6.1h1.83l1.85,5.97c.44,1.43.79,2.69,1.06,3.9h.07c.2-1.21.52-2.47.91-3.88l1.7-6h2.15l-3.85,11.95h-1.98l-1.83-5.7c-.42-1.33-.77-2.52-1.06-3.93h-.05c-.3,1.43-.67,2.67-1.09,3.95l-1.93,5.68h-1.98l-3.6-11.95h2.22Z"/>
        <path class="cls-1" d="M124.59,18.53h-2.7l-1.94-6.05c-.23-.71-.43-1.38-.61-2.06-.2.74-.42,1.43-.64,2.08l-2.04,6.02h-2.71l-3.91-12.95h3.28l1.68,6.45c.17.66.34,1.3.49,1.92.18-.63.37-1.26.56-1.88l2.08-6.49h2.56l1.96,6.33c.22.7.41,1.35.58,1.97.16-.67.34-1.33.51-1.93l1.81-6.36h3.21l-4.17,12.95ZM122.61,17.53h1.25l3.53-10.95h-1.08l-1.6,5.64c-.33,1.16-.69,2.53-.9,3.82l-.07.42h-.83l-.16-.39c-.26-1.17-.6-2.4-1.05-3.86l-1.74-5.62h-1.09l-1.84,5.75c-.39,1.27-.79,2.56-1.05,3.73l-.09.39h-.82l-.15-.41c-.22-1.2-.53-2.42-.87-3.72l-1.49-5.75h-1.16l3.3,10.95h1.25l1.81-5.34c.38-1.15.77-2.42,1.07-3.89l.08-.4h.81l.13.4c.29,1.37.63,2.54,1.05,3.88l1.71,5.35Z"/>
      </g>
      <g>
        <path class="cls-1" d="M140.37,11.96c0,4.42-3.06,6.34-5.95,6.34-3.23,0-5.73-2.37-5.73-6.15,0-4,2.62-6.34,5.92-6.34s5.75,2.49,5.75,6.15ZM130.89,12.08c0,2.62,1.51,4.59,3.63,4.59s3.63-1.95,3.63-4.64c0-2.02-1.01-4.59-3.58-4.59s-3.68,2.37-3.68,4.64Z"/>
        <path class="cls-1" d="M134.42,18.8c-3.67,0-6.23-2.73-6.23-6.65s2.64-6.84,6.42-6.84,6.25,2.73,6.25,6.65c0,4.7-3.34,6.84-6.45,6.84ZM134.62,6.31c-3.24,0-5.42,2.35-5.42,5.84s2.15,5.65,5.23,5.65c2.71,0,5.45-1.81,5.45-5.84,0-3.38-2.11-5.65-5.25-5.65ZM134.52,17.17c-2.39,0-4.13-2.14-4.13-5.09,0-2.56,1.29-5.14,4.18-5.14s4.08,2.64,4.08,5.09c0,2.93-1.77,5.14-4.13,5.14ZM134.57,7.94c-2.2,0-3.18,2.08-3.18,4.14,0,2.37,1.32,4.09,3.13,4.09s3.13-1.74,3.13-4.14c0-1.42-.64-4.09-3.08-4.09Z"/>
      </g>
      <g>
        <path class="cls-1" d="M142.67,9.81c0-1.41-.03-2.62-.1-3.73h1.9l.07,2.35h.1c.54-1.61,1.85-2.62,3.31-2.62.25,0,.42.02.62.07v2.05c-.22-.05-.44-.07-.74-.07-1.53,0-2.62,1.16-2.91,2.79-.05.3-.1.64-.1,1.01v6.37h-2.15v-8.22Z"/>
        <path class="cls-1" d="M145.32,18.53h-3.15v-8.72c0-1.54-.03-2.67-.1-3.69l-.04-.53h2.92l.04,1.18c.93-1.13,2.38-1.7,3.7-1.37l.38.1v3.06l-.61-.14c-.19-.04-.38-.06-.63-.06-1.23,0-2.15.91-2.42,2.38-.05.28-.09.59-.09.92v6.87ZM143.17,17.53h1.15v-5.87c0-.4.05-.76.11-1.09.35-1.95,1.69-3.21,3.41-3.21.08,0,.16,0,.24,0v-1.05s-.08,0-.12,0c-1.25,0-2.37.89-2.83,2.28l-.11.34h-.84l-.11-.48-.06-1.86h-.89c.05.91.07,1.93.07,3.23v7.72Z"/>
      </g>
      <g>
        <path class="cls-1" d="M152.55,11.56h.05c.3-.42.72-.94,1.06-1.36l3.51-4.12h2.62l-4.62,4.91,5.26,7.04h-2.64l-4.12-5.73-1.11,1.23v4.49h-2.15V.5h2.15v11.06Z"/>
        <path class="cls-1" d="M161.42,18.53h-3.9l-3.91-5.43-.57.63v4.8h-3.15V0h3.15v10.16c.08-.09.15-.19.23-.27l3.66-4.31h4l-5.12,5.45,5.6,7.5ZM158.04,17.53h1.39l-4.91-6.57,4.11-4.38h-1.23l-3.36,3.95c-.33.4-.74.91-1.03,1.32l-.15.21h-.76l-.05-.5V1h-1.15v16.53h1.15v-4.19l1.65-1.84,4.34,6.02Z"/>
      </g>
      <g>
        <path class="cls-1" d="M164.38,2.72c.02.74-.52,1.33-1.38,1.33-.76,0-1.31-.59-1.31-1.33s.57-1.36,1.36-1.36,1.33.59,1.33,1.36ZM161.96,18.03V6.08h2.17v11.95h-2.17Z"/>
        <path class="cls-1" d="M164.63,18.53h-3.17V5.58h3.17v12.95ZM162.46,17.53h1.17V6.58h-1.17v10.95ZM162.99,4.56c-1.01,0-1.81-.8-1.81-1.83s.8-1.86,1.86-1.86,1.83.78,1.83,1.85c.01.49-.16.95-.48,1.29-.35.36-.84.56-1.4.56ZM163.04,1.86c-.51,0-.86.35-.86.86s.34.83.81.83c.29,0,.52-.09.68-.25.14-.15.21-.34.2-.57v-.02c0-.52-.33-.86-.83-.86Z"/>
      </g>
      <g>
        <path class="cls-1" d="M167.29,9.31c0-1.23-.03-2.25-.1-3.23h1.93l.12,1.97h.05c.59-1.14,1.98-2.25,3.95-2.25,1.65,0,4.22.99,4.22,5.09v7.13h-2.17v-6.89c0-1.93-.72-3.53-2.77-3.53-1.43,0-2.54,1.01-2.91,2.22-.1.27-.15.64-.15,1.01v7.18h-2.17v-8.71Z"/>
        <path class="cls-1" d="M177.96,18.53h-3.17v-7.39c0-2.01-.76-3.03-2.27-3.03-1.29,0-2.15.94-2.44,1.87-.08.23-.13.54-.13.87v7.68h-3.17v-9.21c0-1.33-.03-2.28-.1-3.2l-.04-.54h2.93l.07,1.15c.8-.79,2-1.42,3.58-1.42,2.18,0,4.72,1.46,4.72,5.59v7.63ZM175.79,17.53h1.17v-6.63c0-4.25-2.85-4.59-3.72-4.59-1.83,0-3.03,1.07-3.51,1.98l-.14.27h-.77l-.08-.47-.09-1.51h-.92c.05.79.07,1.64.07,2.73v8.21h1.17v-6.68c0-.45.06-.87.18-1.18.46-1.52,1.83-2.55,3.38-2.55,2.08,0,3.27,1.47,3.27,4.03v6.39Z"/>
      </g>
      <g>
        <path class="cls-1" d="M190.85,6.08c-.05.86-.1,1.83-.1,3.28v6.94c0,2.74-.54,4.42-1.7,5.46-1.16,1.09-2.84,1.43-4.34,1.43s-3.01-.35-3.97-.99l.54-1.65c.79.49,2.02.94,3.51.94,2.22,0,3.85-1.16,3.85-4.17v-1.33h-.05c-.67,1.11-1.95,2-3.8,2-2.96,0-5.09-2.52-5.09-5.83,0-4.05,2.64-6.34,5.38-6.34,2.07,0,3.21,1.09,3.73,2.07h.05l.1-1.8h1.9ZM188.6,10.8c0-.37-.02-.69-.12-.99-.4-1.26-1.46-2.3-3.04-2.3-2.07,0-3.55,1.75-3.55,4.52,0,2.34,1.18,4.3,3.53,4.3,1.33,0,2.54-.84,3.01-2.22.12-.37.17-.79.17-1.16v-2.15Z"/>
        <path class="cls-1" d="M184.7,23.69c-1.63,0-3.26-.41-4.25-1.07l-.32-.21.86-2.62.54.34c.42.26,1.56.86,3.24.86,2.22,0,3.35-1.24,3.35-3.67v-.02c-.87.76-2.04,1.19-3.35,1.19-3.18,0-5.59-2.72-5.59-6.33,0-4.45,3.03-6.84,5.88-6.84,1.63,0,2.69.61,3.35,1.25l.05-.98h2.9l-.03.53c-.05.86-.1,1.82-.1,3.25v6.94c0,2.88-.58,4.67-1.87,5.83-1.37,1.29-3.3,1.56-4.68,1.56ZM181.33,21.98c.85.44,2.12.71,3.37.71s2.86-.23,4-1.3c1.07-.96,1.55-2.52,1.55-5.09v-6.94c0-1.18.03-2.04.07-2.78h-.9l-.1,1.8h-.78l-.19-.27c-.35-.67-1.25-1.81-3.28-1.81-2.43,0-4.88,2.01-4.88,5.84,0,3.09,1.93,5.33,4.59,5.33,1.47,0,2.7-.64,3.37-1.76l.15-.24h.78l.05.5v1.33c0,3.01-1.55,4.67-4.35,4.67-1.13,0-2.27-.25-3.22-.71l-.23.7ZM185.42,16.83c-2.41,0-4.03-1.93-4.03-4.8s1.63-5.02,4.05-5.02c1.65,0,3,1.01,3.51,2.65.13.39.15.79.15,1.14v2.15c0,.33-.03.83-.2,1.32-.53,1.56-1.9,2.56-3.49,2.56ZM185.44,8.01c-1.83,0-3.05,1.62-3.05,4.02,0,1.83.8,3.8,3.03,3.8,1.15,0,2.15-.74,2.54-1.88.09-.28.15-.64.15-1v-2.15c0-.38-.03-.62-.1-.83-.3-.95-1.13-1.95-2.56-1.95Z"/>
      </g>
    </g>
  </g>
</svg>