<?xml version="1.0" encoding="UTF-8"?>
<svg id="Layer_2" data-name="Layer 2" xmlns="http://www.w3.org/2000/svg" viewBox="0 0 1034.65 256.3">
  <defs>
    <style>
      .cls-1 {
        fill-rule: evenodd;
      }

      .cls-1, .cls-2, .cls-3 {
        fill: #fff;
      }

      .cls-1, .cls-3 {
        stroke-width: 0px;
      }

      .cls-4 {
        letter-spacing: 0em;
      }

      .cls-2 {
        font-family: Poppins-ExtraLightItalic, Poppins;
        font-size: 22px;
        font-style: italic;
        font-weight: 200;
      }

      .cls-5 {
        letter-spacing: 0em;
      }

      .cls-6 {
        letter-spacing: 0em;
      }
    </style>
  </defs>
  <g id="Layer_1-2" data-name="Layer 1">
    <g>
      <g>
        <path class="cls-3" d="M432.14,192.38h54.17v-54.17h-54.17v54.17ZM483.93,190h-49.41v-49.41h49.41v49.41Z"/>
        <path class="cls-3" d="M480.98,187h-3.79v-9.43l-2.48,5.57-2.47-5.07v8.93h-3.8v-20.27h.05c.64.17,1.31.35,1.97.55h.02s4.23,8.69,4.23,8.69l2.32-6.01.04.02c.06.03.13.06.19.1,1.27.67,2.52,1.42,3.7,2.23h.02v14.71Z"/>
        <path class="cls-3" d="M461.18,187h-3.8v-8.1l-.63-.62-3.97-3.98v-8.12h.04c1.17-.2,2.36-.35,3.54-.43h.05s0,7.08,0,7.08l2.87,2.87,2.88-2.88v-7.07h.05c1.18.09,2.38.24,3.54.43h.04v8.11l-4.6,4.6v8.11Z"/>
        <path class="cls-3" d="M450.12,187h-12.56v-14.69h.02c1.19-.82,2.44-1.57,3.71-2.24,1.63-.86,3.33-1.6,5.05-2.21,1.21-.43,2.46-.8,3.72-1.11h.06s0,3.73,0,3.73h-.03c-1.26.35-2.5.76-3.71,1.24-1.73.68-3.41,1.52-5.02,2.47v9h4.96v-5.01l.07-.07h3.74v8.89Z"/>
        <path class="cls-3" d="M437.56,167.59v-24h3.8v8.5h4.96v-8.5h3.8v19.05h-.03c-1.25.28-2.5.62-3.71,1l-.06.02v-7.5h-4.96v9.43h-.03c-1.26.6-2.51,1.25-3.71,1.96l-.07.04Z"/>
        <path class="cls-3" d="M452.78,143.58v18.56h.05c.96-.15,1.94-.27,2.9-.35,2.32-.19,4.74-.19,7.07,0,.97.08,1.95.19,2.93.34h.05s0-18.55,0-18.55h-13.01ZM462.24,157.84h-.05c-1.92-.12-3.91-.12-5.83,0h-.05s0-10.71,0-10.71h5.93v10.71Z"/>
        <path class="cls-3" d="M468.44,143.58v19.06h.03c1.24.28,2.49.61,3.71,1l.06.02v-7.5h8.74v-12.57h-12.55ZM477.28,152.44h-5.13v-5.13h5.03l.1-.1v5.23Z"/>
        <path class="cls-3" d="M480.91,160.24v7.26c-1.2-.71-2.43-1.35-3.69-1.94-.3-.14-.61-.28-.91-.41v-4.91h4.6Z"/>
      </g>
      <g>
        <path class="cls-3" d="M612.68,186.17c.17-1.22.32-2.35.48-3.48,0-.04,0-.08.01-.12.11-.74.17-1.47.17-2.22,0-1.92.21-3.84-.17-5.75-.11-.56-.22-1.09-.54-1.6-.81-1.29.13-2.95,1.7-3.01.44-.02.89.07,1.31.19.62.17,1.23.38,1.82.61.81.31,1.64.45,2.5.45,1.1,0,2.2,0,3.3-.06,1.42-.08,2.82.07,4.2.33.89.16,1.47.72,1.69,1.6.21.88-.07,1.64-.77,2.2-.69.55-1.43.54-2.24.21-.48-.19-1.03-.26-1.55-.27-1.03-.01-2.06.07-3.09.08-.86,0-1.73-.04-2.59-.08-.64-.03-.92.12-1.12.7-.2.58-.49,2.89.39,2.93.88.05,2.68-.38,3.93-.94.59-.26,1.24-.34,1.88-.16.84.24,1.42.77,1.65,1.62.21.76.05,1.44-.51,2-.45.46-1.01.6-1.65.57-.25-.02-3.97.77-5.1.98s-1.76,1.4-1.08,2.18c.68.78,3.17.37,4.45.03.86-.22,1.55-.48,2.53-.86.98-.38,3.19-.64,4.17-.36.98.28,1.96.87,1.96,1.93,0,1.06-.8,2.08-1.94,2.18-.42.04-.87,0-1.29-.09-.53-.12-1.01-.06-1.5.15-1.87.8-3.82,1.31-5.85,1.48-1.24.1-2.48.02-3.68-.34-.13-.04-.34,0-.43.09-.63.6-1.4.84-2.24.88-2.44.11-4.48-.81-6.26-2.41-.87-.79-1.58-1.71-2.29-2.64-.98-1.29-2.83-3.06-3.25-3.62s-1.08-1.14-.86-2.25,2.39-1.6,2.97-1.9,1.46-.83,1.16-1.55c-.3-.73-.77-1.15-1.54-1.38-.77-.23-1.79-.36-2.65-.45-.68-.07-1.52-.1-1.96,0-.44.1-.55.39-.58,1.14-.03.76.19,4.95.21,5.71.04.99.15,1.97.16,2.96.01,2.01-.75,4.13-3.14,4.72-1.52.37-3.21.46-4.58-.7-.39-.33-.74-.73-.99-1.17-.74-1.29.18-2.89,1.69-2.97.47-.02.94.07,1.48.11.02-.21.08-.47.07-.72-.06-1.94-.13-3.87-.2-5.81-.07-1.99,0-4.76.34-5.94.35-1.18,1.37-1.52,2.59-1.67,1.21-.15,4.46.26,6.83.72,2.37.45,4.99,1.48,6.44,3.54.54.76.81,1.61.87,2.54.07,1.07-.25,2.01-1.04,2.72-.69.62-1.46,1.15-2.21,1.73.06.08.2.24.32.4.53.67,1.07,1.32,1.57,2.01.82,1.14,1.82,2.07,3.14,2.61.27.11.55.16.92.26"/>
        <path class="cls-3" d="M616.37,149.14c.59-.14,1.28-.34,2.22-.12.93.22,1.65.6,2.5,1.34.9.78,1.46,1.8,2.1,2.75,1.56,2.36,3.03,4.8,4.55,7.19.52.83,2.69,4.46,3.17,5.49.22.47.41,1,.41,1.5,0,1.02-.75,1.95-1.87,2.16-1.48.27-2.32-.68-2.76-1.72-.59-1.36-2.96-5.02-3.06-5-.85.34-1.38.49-2.4.8-.81.25-1.7.48-2.71.61.03.36.15,2.14.19,2.6.08,1.05-.52,2.2-1.77,2.52-1.48.38-2.69-.92-2.92-2.26-.23-1.34-.32-2-.45-2.92-.1-.7-.8-6.32-.9-7.13-.11-.91-.18-1.77-.28-2.67-.08-.77-.13-1.99.49-3.26.63-1.27,2.92-1.75,3.5-1.89M617.24,155.22c.19,1.67.4,3.42.6,5.19.35.03.68.03,1.35-.05.67-.08,1.62-.43,2.6-.89-1.23-1.87-2.45-3.72-3.66-5.54-.64.15-1.04.27-.89,1.29"/>
        <path class="cls-3" d="M573.71,186.29c-.06.02-.17.07-.29.11-1.44.52-2.88-.6-2.73-2.12.09-.88.19-1.77.31-2.65.33-2.33.68-4.66,1-6.99.14-1.05.2-2.11.34-3.16.15-1.07,1.03-1.78,2.07-1.76.59.01,1.09.23,1.47.68.16.19.32.25.57.21,2.47-.39,4.85.03,7.09,1.07,2.58,1.21,3.37,3.68,2.08,6.22-.02.04-.03.08-.05.14,1.22,1.06,2.12,2.37,2.67,3.88.29.8.51,1.66.55,2.51.07,1.47-1,2.7-1.92,3.33-.92.64-3.54,1.36-5.04,1.36-1.49,0-3.28-.1-4.97-.81-1.69-.71-2.83-1.72-3.16-2.02M577.53,174.61c-1.29.29-1.49.97-1.68,1.7-.18.73-.4,2.2-.56,3.36-.06.43-.08,1.13-.11,1.56-.05.94.71,1.75,1.47,2.27.76.52,2.03,1.04,3.32,1.46.89.29,2.5.33,3.34-.02.78-.33,1.14-1.16.89-2.07-.25-.91-2.04-1.49-3.25-2.48-1.21-.98-.81-2.21-.52-2.7.29-.49.52-.92.66-1.31.14-.39.22-.78.06-1.14-.16-.36-.87-.61-1.4-.64-.53-.03-1.81-.11-2.21-.02"/>
        <path class="cls-3" d="M571.6,155.36c-.87.84-2.43,2.27-4.52,3.24-1.79.82-2.38,1.4-2.45,2.03-.08.63-.26,1.65-.33,2.36-.06.63-.2,1.27-.42,1.85-.32.84-1,1.34-1.89,1.43-.82.08-1.51-.2-2.05-.87-.58-.73-.61-1.95-.64-3.35-.03-1.41-.21-8.51-.26-9.63-.04-1.07-.04-2.14-.09-3.2-.06-1.31-.2-2.61-.23-3.92-.03-1.26.82-2.53,2.3-2.68.25-.03.52.03.77.11,1.28.38,3.09.96,4.22,1.51,1.13.55,4.35,1.91,5.5,3.39.82,1.05,1.68,2.08,1.68,3.6s-.21,2.77-1.58,4.15M563.55,148.8c.02.19.07.43.08.67.06,1.7.11,3.4.17,5.1,0,.07.05.15.12.34.66-.34,1.29-.65,1.9-.99.4-.22.8-.47,1.16-.75.44-.33.84-.71,1.25-1.08.04-.04.05-.17.02-.24-.16-.41-.34-.83-.52-1.23-.22-.49-.63-.75-1.11-.9-1.02-.32-2.04-.62-3.07-.92"/>
        <path class="cls-3" d="M578.55,147.95c.98-.12,1.66-.05,2.6.43.94.47,1.96,3.01,2.14,4.33.16,1.23,1.03,7.42,1.09,7.99.1.88.22,1.76.33,2.64.09.76.26,1.53.24,2.28-.05,1.52-.95,2.5-2.45,2.47-1.22-.02-2.11-.96-2.23-2.23-.08-.83-.21-1.65-.34-2.47-.01-.09-.22-.2-.34-.21-.36,0-.71.06-1.07.06-1.07,0-2.15-.02-3.31-.03-.28.3-.32.47-.52.81-.11.21-.27.59-.44,1.15-.17.57-1.11,2.44-2.43,2.43-.8,0-1.57-.1-2.18-.64-1.06-.94-1.05-2.06-.33-3.24.65-1.07,1.43-2.06,2.02-3.15.46-.86,2.69-5.76,3.38-7.57.68-1.81,1.4-3.63,1.97-4.17.56-.55.89-.76,1.86-.89M578.79,154.54c-.54,1.32-1.09,2.65-1.67,4.07.82-.05,1.53-.09,2.21-.12-.18-1.34-.36-2.64-.54-3.95"/>
        <path class="cls-3" d="M600.6,157.55c.02.88-.08,3.17-.14,3.56-.06.39-.26.78-.76.82-.47.03-2.85.15-3.56.07-.39-.05-.49-.4-.47-.8.09-1.34.18-2.67.24-4.01.08-1.75.17-3.51.17-5.26,0-.82.38-1.03.88-1.1.61-.04,1.22-.14,1.83-.12.33,0,.56.12.9.49.34.36,2.44,2.89,2.74,3.11.31.22.68.54,1.09-.01.66-.88,1.27-1.81,1.93-2.7.28-.38.59-.73.93-1.06.12-.11.24-.26.63-.41.39-.14,1.08-.07,1.64-.06.72,0,1.27.43,1.58,1.04.41.81.6,1.67.62,2.6.03,1.77.27,3.76.43,5.52.14,1.6.26,2.97.47,4.56.09.67.13,1.34.17,2.01,0,1.1-.19,2.9-2.87,2.9-1.2-.07-2.09-.95-2.23-2.16-.09-.74-.65-8.04-.67-8.46-.02-.41-.06-.82-.1-1.31-.32.34-.57.65-.86.91-.4.38-.84.73-1.24,1.11-.4.38-.84.39-1.26.15-.57-.33-1.11-.73-1.66-1.1-.13-.09-.26-.18-.42-.29"/>
        <path class="cls-3" d="M591.27,162.4c.16.28.37.47.7.46,1.27,0,2.94-.04,3.79-.04.85,0,2.88.2,3.52.64.64.44.94,1.11.93,1.74-.02.48-.37,1.33-1.29,1.58-.92.25-3.34.37-4.45.44-1.11.07-2.49.18-3.73.13-1.03-.04-2.05-.3-2.85-1.04-.64-.59-.9-1.38-1.07-2.2-.12-.57-.19-1.16-.26-1.74-.07-.57-.21-4.65-.27-6.36-.02-.58-.19-3.52-.23-4.27-.06-1.05-.17-2.09-.17-2.33.76-.07,1.28-.11,2.33-.17,1.05-.06,2.27.75,2.43,2.11.13,1.16.14,2.34.18,3.52.04,1.19.05,2.39.09,3.58.04.95.1,1.9.17,2.85.03.37.03.84.19,1.12"/>
        <path class="cls-3" d="M558.84,182.83c.89.16,1.71.33,2.53.44,1.5.21,5.11.74,5.39.86.75.3,1.1.87.93,1.68-.18.86-.75,1.42-2.25,1.53-1.5.11-4.86,0-6.08-.29-1.22-.28-1.65-.34-2.41-.64-1.74-.7-2.46-2.02-2.17-3.87.24-1.55,1.2-6.33,1.44-7.56.24-1.24.6-3.14.85-4.19.26-1.05.38-1.42.76-2.04.38-.62,1.41-.77,2.28-.46.9.32,1.38.9,1.26,1.93-.11.9-.27,1.74-.6,3.24s-1.61,7.69-1.93,9.36"/>
        <path class="cls-3" d="M568,181.68c-.26.55-.67.9-1.3.88-.57-.01-.69,0-1.69-.16-1-.16-1.27-.67-1.16-1.22.11-.56.68-3.5,1.13-5.22.25-.96.96-1.37,1.87-1.36.81.01,1.51.56,1.76,1.47.14.5.25,3.63-.61,5.6"/>
        <path class="cls-3" d="M569.72,171.44c0,1.46-1.02,2.46-2.35,2.3-1.14-.14-1.86-1.13-1.74-2.39.13-1.42.98-2.27,2.18-2.19,1.13.08,1.91,1,1.91,2.28"/>
      </g>
      <g>
        <path class="cls-3" d="M910.06,144.71c-11.48-.05-20.75,9.26-20.79,20.56-.04,11.58,9.19,20.91,20.62,20.92,11.5.01,20.82-9.2,20.9-20.52.08-11.52-9.22-20.98-20.73-20.96M922.91,162.13c-.82,1.94-1.63,3.89-2.45,5.83-.73,1.7-1.9,2.93-3.74,3.41-.36.09-.73.11-.99.15-2.16-.09-3.58-1.13-4.58-2.84-.16-.28-.31-.58-.52-.82-.56-.68-1.3-.69-1.86-.01-.32.38-.54.83-.83,1.23-1.16,1.64-2.69,2.6-4.75,2.34-2.23-.28-3.63-1.68-4.35-3.72-.69-1.96-1.26-3.96-1.84-5.95-.29-.97.3-1.96,1.24-2.25.97-.3,1.98.21,2.3,1.21.56,1.76,1.08,3.53,1.65,5.29.14.43.34.88.61,1.24.55.71,1.33.7,1.89,0,.29-.36.51-.78.77-1.16,1.09-1.59,2.55-2.54,4.54-2.42,1.92.12,3.24,1.2,4.18,2.8.16.27.29.55.48.79.56.72,1.35.74,1.93.04.22-.27.39-.6.53-.92.81-1.88,1.59-3.77,2.39-5.66.46-1.1,1.48-1.56,2.48-1.14.99.42,1.39,1.49.93,2.57"/>
        <polygon class="cls-3" points="941.46 163.61 939.01 163.61 934.49 150.06 937.57 150.06 940.34 159.15 943.38 150.03 945.54 150.03 948.6 159.15 951.37 150.06 954.39 150.06 949.85 163.61 947.4 163.61 944.46 154.62 941.46 163.61"/>
        <path class="cls-3" d="M958.87,157.41v6.12h-2.71v-13.47h2.71v5.04c.87-.95,1.94-1.42,3.21-1.42,1.1,0,1.96.35,2.58,1.05.61.7.92,1.67.92,2.91v5.89h-2.71v-5.33c0-.69-.17-1.21-.51-1.54-.34-.33-.78-.5-1.32-.5-.41,0-.82.12-1.22.36-.4.24-.72.54-.95.89"/>
        <path class="cls-3" d="M967.47,158.72c0-1.42.5-2.62,1.5-3.58.99-.97,2.26-1.46,3.83-1.46s2.84.49,3.83,1.46c1,.98,1.5,2.17,1.5,3.58s-.5,2.64-1.5,3.62c-1,.96-2.28,1.44-3.83,1.44s-2.83-.48-3.83-1.44c-1-.98-1.5-2.18-1.5-3.62M970.15,158.72c0,.77.25,1.41.75,1.92.5.51,1.14.77,1.91.77s1.4-.26,1.9-.77c.5-.53.75-1.17.75-1.92s-.25-1.4-.75-1.9c-.5-.51-1.14-.77-1.9-.77s-1.4.26-1.91.77c-.5.5-.75,1.14-.75,1.9"/>
        <path class="cls-3" d="M982.75,163.78c-.8,0-1.42-.21-1.88-.64-.45-.43-.68-1.1-.68-2.01v-11.06h2.71v10.35c0,.64.29.96.87.96.27,0,.5-.06.69-.17v2.23c-.46.23-1.03.35-1.71.35"/>
        <path class="cls-3" d="M991.06,163.78c-1.5,0-2.77-.46-3.79-1.39-1.03-.92-1.54-2.15-1.54-3.67,0-1.42.46-2.62,1.39-3.58.92-.97,2.13-1.46,3.62-1.46,1.39,0,2.49.49,3.33,1.48.83.99,1.25,2.19,1.25,3.6v.71h-6.89c.14.64.5,1.13,1.07,1.48.57.35,1.29.52,2.14.52,1.07,0,2.09-.28,3.08-.85v2.17c-.86.65-2.08.98-3.66.98M988.43,157.74h4.21c-.03-.55-.22-1.01-.59-1.38-.37-.37-.84-.55-1.43-.55s-1.1.18-1.5.53c-.4.35-.63.82-.69,1.39"/>
        <path class="cls-3" d="M942.29,180.75c-2.05,0-3.76-.65-5.12-1.96-1.37-1.33-2.06-3.01-2.06-5.04s.69-3.73,2.06-5.04c1.36-1.31,3.1-1.96,5.21-1.96,1.55,0,2.9.34,4.04,1.02v2.73c-1.24-.77-2.53-1.15-3.85-1.15s-2.49.41-3.35,1.23c-.86.81-1.29,1.89-1.29,3.23s.42,2.4,1.25,3.19c.83.79,1.87,1.19,3.1,1.19s2.08-.29,2.71-.89v-4.64h2.77v5.95c-.58.62-1.35,1.12-2.31,1.52-1,.41-2.06.62-3.17.62"/>
        <path class="cls-3" d="M949.79,175.68c0-1.42.5-2.62,1.5-3.58.99-.97,2.26-1.46,3.83-1.46s2.84.49,3.83,1.46c1,.98,1.5,2.17,1.5,3.58s-.5,2.64-1.5,3.62c-1,.96-2.28,1.44-3.83,1.44s-2.83-.48-3.83-1.44c-1-.97-1.5-2.18-1.5-3.62M952.46,175.68c0,.77.25,1.41.75,1.92.5.51,1.14.77,1.91.77s1.4-.26,1.9-.77c.5-.53.75-1.17.75-1.92s-.25-1.4-.75-1.9c-.5-.51-1.14-.77-1.9-.77s-1.4.26-1.91.77c-.5.5-.75,1.14-.75,1.9"/>
        <path class="cls-3" d="M961.87,175.68c0-1.42.5-2.62,1.5-3.58.99-.97,2.26-1.46,3.83-1.46s2.84.49,3.83,1.46c1,.98,1.5,2.17,1.5,3.58s-.5,2.64-1.5,3.62c-1,.96-2.28,1.44-3.83,1.44s-2.83-.48-3.83-1.44c-1-.97-1.5-2.18-1.5-3.62M964.55,175.68c0,.77.25,1.41.75,1.92.5.51,1.14.77,1.91.77s1.4-.26,1.9-.77c.5-.53.75-1.17.75-1.92s-.25-1.4-.75-1.9c-.5-.51-1.14-.77-1.9-.77s-1.4.26-1.91.77c-.5.5-.75,1.14-.75,1.9"/>
        <path class="cls-3" d="M978.48,180.73c-1.3,0-2.38-.48-3.25-1.44-.85-.97-1.27-2.18-1.27-3.62s.42-2.62,1.27-3.58c.86-.97,1.94-1.46,3.25-1.46s2.4.47,3.16,1.42v-5.04h2.71v13.47h-2.71v-1.17c-.72.95-1.77,1.42-3.16,1.42M979.25,178.37c.51,0,.98-.13,1.4-.4.42-.27.75-.62.98-1.04v-2.5c-.23-.42-.56-.77-.98-1.03-.42-.26-.89-.39-1.4-.39-.77,0-1.39.26-1.87.77-.49.53-.73,1.16-.73,1.91s.24,1.4.73,1.92c.47.51,1.1.77,1.87.77"/>
        <path class="cls-3" d="M990.6,180.74c-1.71,0-3.05-.3-4.04-.9v-2.4c.46.31,1.05.57,1.76.78.71.21,1.43.32,2.16.32,1.1,0,1.66-.27,1.66-.81,0-.26-.16-.45-.48-.6-.17-.08-.33-.14-.5-.17l-.71-.17c-.1-.02-.24-.06-.41-.1-.17-.04-.29-.08-.35-.11-1.14-.31-1.95-.68-2.42-1.11-.47-.43-.7-1.06-.7-1.88,0-.91.38-1.63,1.13-2.16.75-.52,1.79-.79,3.11-.79,1.46,0,2.66.3,3.6.89v2.31c-1.14-.67-2.3-1-3.48-1-1.03,0-1.54.26-1.54.77,0,.1.03.19.09.28.06.08.11.14.17.18.06.04.15.1.28.17.08.03.22.07.42.12.2.06.34.1.4.13l1.02.21c1.06.24,1.85.61,2.37,1.09.51.48.77,1.13.77,1.95,0,.9-.39,1.62-1.17,2.17s-1.82.83-3.12.83"/>
        <path class="cls-3" d="M926.58,148.73c0-.71.25-1.32.75-1.82.51-.51,1.11-.76,1.82-.76s1.32.25,1.82.76c.5.5.75,1.11.75,1.82s-.25,1.32-.75,1.82c-.51.51-1.11.76-1.82.76s-1.32-.25-1.82-.75c-.5-.51-.74-1.11-.74-1.82M931.18,148.73c0-.57-.2-1.05-.59-1.45-.39-.4-.87-.61-1.43-.61s-1.04.2-1.44.61c-.4.4-.59.88-.59,1.45s.2,1.05.59,1.46c.4.4.88.6,1.44.6s1.04-.2,1.44-.6c.4-.4.59-.89.59-1.45M928.61,150.02h-.51v-2.7h1.25c.28,0,.5.07.66.22.16.14.24.34.24.58,0,.18-.05.34-.15.47s-.24.21-.42.26l.84,1.17h-.57l-.8-1.11h-.55v1.11ZM928.61,147.76v.72h.71c.13,0,.23-.03.31-.1.07-.06.11-.15.11-.26,0-.25-.14-.37-.42-.37h-.71Z"/>
      </g>
      <g>
        <path class="cls-3" d="M212.43,167.01h-7.95c-.74,0-1.37-.63-1.37-1.37v-11.46h-8.55v13.2c0,4.7,1.97,6.76,6.56,6.76h11.32v-7.13Z"/>
        <path class="cls-3" d="M239.14,174.14v-14.25h-19.1c-4.59,0-6.56,2.05-6.56,6.76v.74c0,4.7,1.97,6.76,6.56,6.76h4.7c2.71,0,4.85-2.14,4.85-4.85v-.29h-5.76c-1,0-1.37-.37-1.37-1.28v-.94c0-.91.37-1.28,1.37-1.28h6.76v8.64h8.55Z"/>
        <path class="cls-3" d="M240.47,173.42v.71h22.06v-5.13h-10.06l5.56-2.71c4.65-2.25,5.07-4.42,5.07-5.7v-.71h-22.06v5.13h10.06l-5.56,2.71c-4.56,2.28-5.07,4.42-5.07,5.7"/>
        <path class="cls-3" d="M264.22,165.7c0,4.7,1.97,6.76,6.56,6.76h3.71c2.71,0,4.85-2.14,4.85-4.85v-.29h-5.19c-1,0-1.37-.37-1.37-1.28v-6.16h-8.55v5.82ZM280.01,159.88v13.14c0,.91-.37,1.28-1.37,1.28h-13.17v5.53h16.53c4.59,0,6.56-2.05,6.56-6.75v-13.2h-8.55Z"/>
        <path class="cls-3" d="M296.72,166.64v13.2h8.55v-12.97c0-.74.63-1.37,1.37-1.37h6.47c1,0,1.37.37,1.37,1.28v.94c0,.91-.37,1.28-1.37,1.28h-6.84v.85c0,2.39,1.88,4.28,4.28,4.28h6.36c4.56,0,6.56-2.05,6.56-6.76v-.74c0-4.7-1.97-6.76-6.56-6.76h-13.63c-4.59,0-6.56,2.05-6.56,6.76"/>
        <path class="cls-3" d="M334.71,165.58h4.53v-5.7h-7.9c-4.59,0-6.56,2.05-6.56,6.76v7.5h8.55v-7.18c0-.74.63-1.37,1.37-1.37"/>
        <path class="cls-3" d="M340.1,167.38c0,4.7,1.97,6.76,6.53,6.76h13.74c4.56,0,6.53-2.05,6.53-6.76v-.74c0-4.7-1.97-6.76-6.53-6.76h-13.74c-4.56,0-6.53,2.05-6.53,6.76v.74ZM350.45,165.24h6.1c1,0,1.37.37,1.37,1.28v.97c0,.91-.37,1.28-1.37,1.28h-6.1c-1,0-1.37-.37-1.37-1.28v-.97c0-.91.37-1.28,1.37-1.28"/>
      </g>
      <g>
        <path class="cls-3" d="M56.27,168.06c.8,1.03,1.2,2.2,1.2,3.51,0,1.9-.66,3.41-1.99,4.52-1.33,1.11-3.18,1.67-5.55,1.67h-10.59v-22.73h10.23c2.31,0,4.12.53,5.42,1.59,1.31,1.06,1.96,2.49,1.96,4.31,0,1.34-.35,2.45-1.05,3.33-.7.89-1.64,1.5-2.8,1.85,1.32.28,2.37.93,3.17,1.96M44.87,164.23h3.63c.91,0,1.6-.2,2.09-.6.49-.4.73-.99.73-1.77s-.24-1.37-.73-1.78c-.49-.41-1.18-.62-2.09-.62h-3.63v4.76ZM51.11,172.66c.51-.42.76-1.03.76-1.83s-.27-1.42-.79-1.88c-.53-.45-1.26-.68-2.19-.68h-4.02v5.02h4.08c.93,0,1.65-.21,2.15-.63"/>
        <rect class="cls-3" x="60.35" y="155.03" width="5.54" height="22.73"/>
        <path class="cls-3" d="M74.46,176.5c-1.78-.99-3.2-2.38-4.24-4.16-1.05-1.78-1.57-3.78-1.57-6.01s.52-4.22,1.57-5.99c1.05-1.77,2.46-3.15,4.24-4.14,1.78-.99,3.74-1.49,5.88-1.49s4.1.5,5.88,1.49c1.78.99,3.18,2.38,4.21,4.14,1.02,1.77,1.54,3.77,1.54,5.99s-.52,4.23-1.55,6.01c-1.04,1.78-2.44,3.17-4.21,4.16-1.77.99-3.72,1.49-5.86,1.49s-4.1-.5-5.88-1.49M84.69,171.13c1.09-1.21,1.63-2.81,1.63-4.79s-.54-3.61-1.63-4.81c-1.09-1.2-2.54-1.8-4.36-1.8s-3.3.59-4.39,1.78c-1.09,1.19-1.64,2.8-1.64,4.83s.54,3.61,1.64,4.81c1.09,1.2,2.55,1.8,4.39,1.8s3.27-.6,4.36-1.81"/>
        <polygon class="cls-3" points="116.05 155.03 107.99 177.76 101.06 177.76 93 155.03 98.89 155.03 104.52 172.19 110.19 155.03 116.05 155.03"/>
        <rect class="cls-3" x="118.03" y="155.03" width="5.54" height="22.73"/>
        <polygon class="cls-3" points="143.61 155.03 143.61 159.47 137.59 159.47 137.59 177.76 132.05 177.76 132.05 159.47 126.03 159.47 126.03 155.03 143.61 155.03"/>
      </g>
      <path class="cls-3" d="M693.71,155.25h13.36s.09,0,.13.01c4.21.72,6.21,3.02,6,6.9-.05,2.67-1.05,4.82-2.99,6.45-.24.2-.32.55-.19.84l2.19,5.16c.21.48-.15,1.02-.67,1.02h-5.19c-.29,0-.56-.17-.67-.44l-2.38-5.52c-.12-.27-.38-.44-.67-.44h-4.24c-.38,0-.69.29-.73.66l-.49,5.01c-.04.37-.35.66-.73.66h-4.62c-.43.01-.78-.36-.73-.8l1.9-18.86c.04-.38.35-.66.73-.66M698.44,163.06c-.04.43.29.8.73.81h6.67c1.14,0,1.8-.56,1.97-1.64.17-1.06-.33-1.69-1.49-1.88-.04,0-.09-.01-.13-.01h-6.8c-.38,0-.69.29-.73.66l-.2,2.06Z"/>
      <path class="cls-3" d="M734.83,156.08l-1.9,18.89c-.04.37-.35.66-.73.66h-13.09c-3.98.08-5.86-2.08-5.63-6.48l1.33-13.21c.04-.38.35-.66.73-.66h3.91c.43,0,.77.38.73.81l-1.26,11.9c-.24,1.32.24,1.93,1.45,1.84h6.83c.38,0,.69-.29.73-.66l1.32-13.23c.04-.38.35-.66.73-.66h4.13c.43-.01.78.36.73.8"/>
      <path class="cls-3" d="M734.04,174.86l1.9-18.96c.04-.38.35-.66.73-.66h13.15c3.99-.09,5.87,2.08,5.65,6.49l-1.33,13.27c-.04.37-.35.66-.73.66h-3.94c-.44,0-.78-.38-.73-.81l1.28-11.95c.24-1.32-.25-1.93-1.47-1.84h-6.86c-.38,0-.69.29-.73.66l-1.32,13.3c-.04.38-.35.66-.73.66h-4.15c-.43,0-.77-.37-.73-.81"/>
      <path class="cls-3" d="M757.71,155.28h13.37s.05,0,.07,0c3.88.33,5.84,2.08,5.89,5.27-.06,1.68-.51,3.03-1.35,4.05-.25.3-.2.74.09,1,1.07.98,1.45,2.53,1.15,4.67-.55,3.57-3.22,5.33-8,5.29h-13.04c-.43.01-.77-.36-.73-.79l1.83-18.83c.04-.38.35-.66.73-.66M761.82,169.87c-.04.43.3.8.73.8h6.21c1.11-.03,1.74-.44,1.88-1.23.14-.78-.41-1.24-1.65-1.37-.03,0-.06,0-.08,0l-6.23-.07c-.38,0-.7.28-.74.66l-.12,1.2ZM762.51,162.26c-.04.43.3.8.73.81h6.21c1.11-.03,1.74-.44,1.88-1.22.14-.77-.38-1.25-1.54-1.44-.04,0-.09-.01-.13-.01h-6.3c-.38,0-.69.29-.73.66l-.12,1.21Z"/>
      <path class="cls-3" d="M777.25,174.72l1.3-13.01s0-.03,0-.05c.65-4.15,3.16-6.31,7.53-6.49l6.85.02s.04,0,.06,0c3.97.28,5.83,2.43,5.59,6.46l-1.33,13.25c-.04.37-.35.66-.73.66h-3.93c-.43,0-.77-.38-.73-.81l.46-4.58c.04-.43-.29-.8-.73-.81l-7.56-.04c-.38,0-.7.28-.73.66l-.48,4.87c-.04.38-.35.66-.73.66h-4.13c-.43,0-.77-.38-.73-.81M784.16,162.12l-.15,1.35c-.05.43.29.81.73.81h7.54c.37,0,.69-.28.73-.65l.12-1.05c.28-1.54-.15-2.41-1.29-2.62-.05,0-.1-.01-.15-.01h-5.39c-1.45.05-2.17.77-2.15,2.16"/>
      <path class="cls-3" d="M798.3,174.86l1.9-18.96c.04-.38.35-.66.73-.66h13.15c3.99-.09,5.87,2.08,5.65,6.49l-1.33,13.27c-.04.37-.35.66-.73.66h-3.94c-.44,0-.78-.38-.73-.81l1.28-11.95c.24-1.32-.25-1.93-1.47-1.84h-6.86c-.38,0-.69.29-.73.66l-1.32,13.3c-.04.38-.35.66-.73.66h-4.15c-.43,0-.77-.37-.73-.81"/>
      <path class="cls-3" d="M821.76,155.15h5.18c.43,0,.77.37.73.81l-.53,5.3c-.07.67.73,1.05,1.22.59,0,0,.02-.02.03-.02l5.84-6.42c.14-.15.34-.24.54-.24h6.14c.62,0,.96.72.56,1.2l-6.62,8.02c-.61.72-.65,1.45-.13,2.21l5.06,7.81c.32.49-.03,1.13-.62,1.13h-6.37c-.24,0-.47-.12-.6-.32l-4.56-6.64c-.72-.95-1.02-2.01-.9-3.18l-.95,9.48c-.04.37-.35.66-.73.66h-5.18c-.43,0-.77-.38-.73-.81l1.89-18.91c.04-.37.35-.66.73-.66"/>
      <path class="cls-3" d="M727.58,159.05h-6.27c-.24,0-.43-.21-.4-.44l.32-2.98c.02-.2.19-.36.4-.36h6.27c.24,0,.43.21.4.44l-.32,2.98c-.02.21-.19.36-.4.36"/>
      <path class="cls-3" d="M727.14,163.88h-6.27c-.24,0-.43-.21-.4-.44l.32-2.95c.02-.2.19-.36.4-.36h6.27c.24,0,.43.21.4.45l-.32,2.95c-.02.21-.19.36-.4.36"/>
      <path class="cls-3" d="M726.99,168.33c-.02.2-.2.36-.4.36h-6.22c-.26,0-.47-.23-.44-.49l.31-2.89c.02-.2.19-.36.4-.36h6.27c.24,0,.43.21.4.45l-.31,2.93Z"/>
      <g>
        <path class="cls-3" d="M35.12,77.31c.01-.11.06-.21.13-.3.08-.08.18-.12.33-.12h3.31c.24,0,.39.12.46.36l2.6,8.69,2.62-8.69c.09-.24.25-.36.49-.36h3.27c.11,0,.22.04.31.12.09.08.14.18.16.3.22,2.25.45,4.48.68,6.69.23,2.21.46,4.44.68,6.69v.05c0,.25-.14.37-.42.37h-2.71c-.29,0-.45-.14-.46-.42l-.83-7.4-2.15,7.45c-.01.06-.06.14-.14.23-.08.09-.16.13-.23.13h-2.52c-.08,0-.16-.04-.24-.13s-.13-.16-.14-.23l-2.15-7.43-.83,7.38c-.01.28-.17.42-.47.42h-2.71c-.28,0-.41-.14-.41-.42l1.37-13.37Z"/>
        <path class="cls-3" d="M55.1,81.93c0,.47.06.87.2,1.2.13.33.3.6.52.8.21.21.46.36.75.46.28.1.58.14.89.14s.62-.06.91-.17c.29-.11.53-.28.75-.5.21-.22.38-.49.51-.82s.19-.7.19-1.12v-8.12c0-.11.04-.21.12-.3.08-.08.19-.12.32-.12h2.8c.15,0,.26.04.35.13.08.09.12.18.12.29v8.07c0,1.12-.16,2.05-.49,2.81-.33.76-.77,1.37-1.32,1.83-.56.46-1.2.79-1.93,1-.73.2-1.5.3-2.3.3s-1.57-.1-2.31-.31c-.73-.21-1.38-.55-1.93-1.01s-1-1.08-1.33-1.84c-.33-.76-.49-1.68-.49-2.78v-8.07c0-.11.04-.2.11-.29.07-.09.16-.13.27-.13h2.87c.1,0,.2.04.3.12.11.08.16.18.16.3v8.12Z"/>
        <path class="cls-3" d="M65.46,76.25c0-.11.04-.21.11-.3.08-.08.18-.12.32-.12h2.83c.11,0,.21.04.3.11.09.08.14.18.14.31v10.42h5.27c.11,0,.21.04.3.11.08.08.12.18.12.32v2.52c0,.11-.04.21-.11.3-.07.09-.18.14-.31.14h-8.55c-.28,0-.42-.14-.42-.42v-13.38Z"/>
        <path class="cls-3" d="M73.14,78.89c0-.13.04-.23.13-.3.09-.08.19-.11.32-.11h10.3c.11,0,.22.04.31.11.09.07.14.17.15.31v2.38c0,.11-.04.22-.12.33-.08.1-.19.16-.34.16h-3.3v10.48c0,.12-.04.22-.12.31-.08.09-.19.14-.33.14h-2.81c-.11,0-.21-.04-.3-.13-.1-.09-.14-.19-.14-.32v-10.48h-3.29c-.13,0-.23-.04-.32-.12-.09-.08-.13-.2-.13-.36v-2.38Z"/>
        <path class="cls-3" d="M86.46,74.59c0-.11.03-.21.1-.3.07-.08.18-.12.32-.12h2.81c.1,0,.2.04.31.11.11.08.16.18.16.31v13.37c0,.28-.16.42-.47.42h-2.81c-.28,0-.42-.14-.42-.42v-13.37Z"/>
        <path class="cls-3" d="M92.7,76.27c0-.13.03-.24.1-.32.07-.08.18-.12.32-.12h6.12c.44,0,.86.06,1.24.18.39.12.75.29,1.07.5.33.21.62.47.88.77.26.3.48.62.66.96.18.34.32.71.42,1.09.1.38.14.76.14,1.15,0,.58-.1,1.14-.31,1.68-.21.55-.5,1.04-.89,1.46-.38.43-.84.77-1.38,1.04-.54.27-1.13.4-1.78.41h-2.9v4.56c0,.27-.15.41-.44.41h-2.84c-.13,0-.23-.03-.31-.1-.08-.07-.11-.17-.11-.31v-13.36ZM99.91,80.47c0-.19-.03-.38-.1-.57-.07-.19-.16-.36-.29-.51-.13-.15-.28-.27-.46-.37-.18-.1-.39-.14-.62-.14h-2.03v3.2h2.03c.23,0,.44-.05.62-.14.18-.09.34-.21.46-.36.12-.15.22-.32.29-.51.07-.19.1-.39.1-.59"/>
        <path class="cls-3" d="M104.68,73.91c0-.11.04-.21.11-.3.08-.08.18-.12.32-.12h2.83c.11,0,.21.04.3.11.09.08.14.18.14.31v10.42h5.27c.11,0,.21.04.3.11.08.08.12.18.12.32v2.52c0,.11-.04.21-.11.3-.07.09-.18.14-.31.14h-8.55c-.28,0-.42-.14-.42-.42v-13.38Z"/>
        <path class="cls-3" d="M117.92,81.08l2.31-4.95c.04-.08.07-.13.1-.17.03-.03.05-.06.08-.08.03-.02.05-.02.08-.03.03,0,.06-.01.1-.02h3.68s.08.02.11.04c.03.03.04.06.04.1,0,.07-.04.15-.13.24l-4.54,8.03v5.35c0,.3-.15.45-.44.45h-2.86c-.13,0-.23-.04-.3-.12-.07-.08-.11-.19-.11-.33v-5.37l-4.53-8.01c-.08-.08-.12-.16-.12-.24,0-.04.01-.07.04-.1.03-.03.06-.04.11-.04h3.68s.08.02.11.02c.03,0,.05.01.08.03.03.02.05.04.08.08.03.03.06.09.1.17l2.33,4.95Z"/>
        <path class="cls-3" d="M113.37,98.43l3.23-6.91c.05-.11.1-.18.13-.23.03-.05.07-.08.11-.11.03-.02.07-.04.11-.04.04,0,.09-.02.14-.03h5.15c.06,0,.11.02.15.06s.06.09.06.14c0,.1-.06.21-.19.33l-6.34,11.22v7.47c0,.42-.2.63-.61.63h-4c-.18,0-.32-.06-.41-.17-.1-.11-.15-.27-.15-.46v-7.5l-6.32-11.19c-.12-.12-.17-.23-.17-.33,0-.05.02-.1.05-.14s.08-.06.15-.06h5.15c.06.02.11.03.15.03.04,0,.07.02.11.04.04.02.07.06.11.11.04.05.08.13.15.23l3.26,6.91Z"/>
        <path class="cls-3" d="M33.41,93.55c0-.18.06-.32.18-.42.12-.11.27-.16.45-.16h14.34c.16,0,.3.05.43.15.12.1.19.24.21.44v3.31c0,.16-.06.31-.17.46s-.27.22-.47.22h-4.6v14.59c0,.16-.06.3-.17.43-.12.13-.27.19-.45.19h-3.91c-.15,0-.29-.06-.42-.18s-.2-.27-.2-.45v-14.59h-4.58c-.18,0-.33-.06-.45-.17-.12-.11-.18-.28-.18-.51v-3.31Z"/>
        <path class="cls-3" d="M50.88,97.07c0-.68.09-1.33.26-1.95.17-.62.42-1.21.74-1.75.32-.55.7-1.04,1.14-1.49.44-.45.94-.83,1.48-1.14.54-.31,1.13-.56,1.75-.74.62-.18,1.27-.26,1.95-.26s1.32.09,1.95.26c.63.17,1.21.42,1.75.74.54.32,1.04.7,1.48,1.14.45.45.83.94,1.14,1.49.32.54.56,1.13.74,1.75.18.62.26,1.27.26,1.95s-.09,1.33-.26,1.95c-.18.62-.42,1.2-.74,1.74-.32.54-.7,1.03-1.14,1.47-.45.44-.94.83-1.48,1.14-.54.32-1.13.56-1.75.74-.63.17-1.27.26-1.95.26s-1.33-.09-1.95-.26c-.62-.17-1.2-.42-1.75-.74-.54-.32-1.04-.7-1.48-1.14-.44-.44-.82-.93-1.14-1.47-.32-.54-.57-1.12-.74-1.74-.17-.62-.26-1.27-.26-1.95M54.59,97.06c0,.53.09,1.02.27,1.48.18.46.43.86.75,1.2.32.34.7.61,1.14.8.44.2.92.29,1.45.29s1.02-.1,1.46-.29.83-.46,1.15-.8c.32-.34.57-.74.75-1.2.18-.46.27-.95.27-1.48s-.09-1.02-.27-1.48c-.18-.46-.43-.87-.75-1.21-.32-.35-.7-.62-1.15-.81-.44-.2-.93-.3-1.46-.3s-1.01.1-1.45.3c-.44.2-.82.47-1.14.81-.32.34-.57.75-.75,1.21-.18.46-.27.96-.27,1.48"/>
        <path class="cls-3" d="M82.29,105.66c0,.81-.1,1.58-.31,2.3-.21.73-.5,1.41-.88,2.04-.38.63-.84,1.2-1.37,1.71-.53.51-1.12.95-1.76,1.3-.64.36-1.34.64-2.09.83-.75.2-1.52.29-2.32.29h-5.64c-.14,0-.26-.03-.37-.09-.11-.06-.16-.19-.16-.39v-15.98c0-.16.04-.29.13-.39s.22-.15.39-.15h5.64c.8,0,1.57.1,2.32.3.74.2,1.44.48,2.08.85.64.37,1.23.8,1.77,1.32s.99,1.08,1.37,1.72c.38.63.67,1.32.88,2.05.21.73.31,1.5.31,2.3M71.82,101.24v8.8h.96c.17,0,.35,0,.51-.02.17-.01.34-.02.5-.04.57-.04,1.11-.18,1.6-.42.49-.23.93-.54,1.3-.92.37-.38.66-.82.87-1.33.21-.51.32-1.07.32-1.67,0-.64-.12-1.23-.36-1.77-.24-.54-.57-1-.98-1.4-.41-.39-.89-.7-1.45-.91-.55-.22-1.14-.33-1.77-.33h-1.51Z"/>
        <path class="cls-3" d="M101.77,91.77c.05-.02.12-.03.21-.02s.17.04.26.07c.09.04.17.08.25.14.07.06.13.12.17.19l1.92,3.2c.09.14.11.29.09.44-.03.15-.06.27-.1.36l-.52.74-12.97,16.72c-.13.17-.27.24-.43.21-.16-.03-.31-.16-.44-.38l-2.15-3.59c-.11-.19-.17-.36-.16-.51,0-.15.08-.3.21-.46.32-.42.65-.84.97-1.25.33-.41.65-.82.98-1.24l-3.98-6.63c-.52.1-1.04.19-1.56.28-.52.09-1.04.18-1.56.28-.37.08-.65-.04-.84-.36l-2.21-3.68c-.09-.16-.13-.31-.11-.47.02-.15.13-.25.34-.28l21.63-3.77ZM97.79,97.26c-.52.1-1.07.21-1.66.34-.59.13-1.18.27-1.78.41-.59.14-1.18.28-1.77.41-.58.13-1.14.24-1.66.34l2.3,3.84,4.56-5.34Z"/>
      </g>
      <g>
        <path class="cls-3" d="M232.67,113.35c-8.12,0-16.24-.02-24.36.01-1.58,0-2.86-.56-3.98-1.61-1.24-1.17-2.14-2.58-2.9-4.09-1.11-2.21-1.88-4.55-2.34-6.98-.24-1.27-.41-2.54-.55-3.82-.2-1.72-.18-3.44-.04-5.16.18-2.23.57-4.42,1.19-6.57.62-2.19,1.43-4.31,2.57-6.3.77-1.35,1.66-2.62,2.89-3.6.7-.56,1.47-.94,2.37-1.06.09-.01.18-.01.27-.01,8.37,0,16.74,0,25.1,0s16.17,0,24.26,0c1.19,0,2.2.38,3.11,1.1,1.07.86,1.87,1.94,2.58,3.1,1.38,2.29,2.31,4.76,3,7.34.43,1.59.73,3.21.92,4.84.18,1.53.26,3.07.2,4.61-.12,3.14-.63,6.21-1.64,9.19-.77,2.28-1.77,4.46-3.29,6.35-.7.86-1.49,1.62-2.48,2.14-.66.35-1.37.52-2.12.52-8.24,0-16.49,0-24.73,0M232.69,110.19c8.14,0,16.29,0,24.43,0,.55,0,1.01-.15,1.42-.49.22-.18.44-.38.64-.59.9-.96,1.56-2.08,2.11-3.27,1.6-3.45,2.35-7.09,2.48-10.88.11-3.09-.33-6.11-1.18-9.08-.61-2.14-1.42-4.19-2.59-6.09-.52-.83-1.1-1.62-1.91-2.2-.24-.17-.5-.27-.81-.27-16.3,0-32.61,0-48.92,0-.6,0-1.06.18-1.47.58-.17.17-.35.33-.51.51-1.25,1.45-2.05,3.16-2.76,4.92-.03.07,0,.18.04.24.84,1.1,1.35,2.35,1.74,3.66.69,2.36.92,4.78.86,7.23-.05,1.98-.3,3.93-.86,5.84-.41,1.4-.96,2.74-1.91,3.87-.05.06-.05.21-.01.28.42.91.82,1.83,1.3,2.71.53.97,1.18,1.86,2.07,2.55.4.32.84.48,1.38.48,8.16-.01,16.32,0,24.48,0M202.21,91.76c-1.06,0-1.93.86-1.94,1.92,0,1.07.86,1.95,1.93,1.95,1.06,0,1.96-.89,1.95-1.95-.01-1.06-.88-1.93-1.94-1.93"/>
        <path class="cls-3" d="M232.67,109.18c-8.17,0-16.34,0-24.51,0-.28,0-.49-.08-.71-.24-.84-.66-1.42-1.53-1.93-2.44-.33-.61-.62-1.25-.91-1.88-.04-.09-.04-.24.01-.31,1.05-1.47,1.62-3.15,2.01-4.89.51-2.24.69-4.5.59-6.79-.1-2.36-.43-4.69-1.3-6.9-.3-.78-.75-1.51-1.12-2.27-.04-.08-.08-.21-.05-.28.52-1.25,1.1-2.47,1.92-3.55.3-.4.67-.75,1.02-1.12.14-.14.31-.19.52-.19,16.3,0,32.61,0,48.91,0,.21,0,.36.07.52.19.66.56,1.16,1.25,1.6,1.98,1.12,1.86,1.89,3.87,2.46,5.95.78,2.86,1.17,5.76,1.04,8.73-.15,3.6-.88,7.06-2.42,10.33-.5,1.07-1.09,2.08-1.91,2.95-.03.04-.07.07-.1.11-.41.44-.88.62-1.51.62-8.04-.02-16.09-.02-24.13-.02M214.12,95.3h.04c.02.05.04.11.04.16.09.51.17,1.03.26,1.54.35,2.02.7,4.04,1.05,6.07.03.17.09.22.26.22.29-.01.58,0,.87,0,.16,0,.22-.05.24-.21.13-.79.27-1.58.41-2.37.31-1.73.62-3.47.93-5.21.01-.07.04-.14.06-.21.02,0,.03,0,.05.01-.05,2.65-.1,5.3-.16,7.96h3.87v-19.02s-.08-.02-.11-.02c-1.38,0-2.75,0-4.13,0-.16,0-.19.09-.21.21-.07.43-.13.87-.2,1.3-.35,2.32-.7,4.63-1.05,6.95-.01.08-.1.14-.15.22-.06-.07-.15-.14-.16-.22-.16-1.04-.32-2.08-.47-3.12-.26-1.69-.52-3.39-.77-5.08-.03-.2-.1-.26-.3-.26-1.31,0-2.62,0-3.93,0-.07,0-.15,0-.23.02v19.04c.09,0,.16.01.24.01,1.11,0,2.22,0,3.33,0,.25,0,.3-.08.3-.31-.02-.94-.03-1.89-.04-2.83-.02-1.01-.04-2.02-.05-3.03,0-.6,0-1.21,0-1.81M239.18,84.21c-.75,6.36-1.49,12.71-2.24,19.07h4.23c.07-1.14.14-2.26.21-3.39h1.43c.09,1.14.17,2.26.26,3.39h4.23c-.54-6.37-1.09-12.72-1.63-19.08h-6.47ZM257.08,91.63s.02-.07.02-.09c0-1.51,0-3.02,0-4.53,0-.09-.05-.19-.11-.26-.69-.8-1.39-1.6-2.1-2.39-.07-.08-.22-.15-.33-.15-1.43-.01-2.85,0-4.28,0-.11,0-.24.06-.32.14-.71.79-1.4,1.59-2.1,2.39-.07.08-.11.2-.11.31,0,4.47,0,8.94,0,13.4,0,.11.05.24.12.33.67.79,1.36,1.56,2.04,2.35.11.13.23.18.4.18,1.41,0,2.82,0,4.23,0,.17,0,.28-.05.38-.17.67-.78,1.35-1.55,2.02-2.33.09-.11.15-.27.16-.41.01-1.67,0-3.33,0-5v-.26h-4.24v4.49h-.87v-11.72h.88v3.73h4.21ZM235.23,103.29v-15.06c0-.06,0-.12,0-.17-.02-.17.06-.21.22-.21.48,0,.96,0,1.44,0,.1,0,.19-.01.28-.02v-3.61h-8.11v3.64h1.96v15.43h4.22ZM226.13,91.26c-1.12,0-2.04.89-2.05,2-.02,1.12.93,2.07,2.05,2.06,1.09,0,2.01-.91,2.01-1.99,0-1.17-.86-2.07-2.01-2.08"/>
        <path class="cls-3" d="M242.61,96.19h-1.07c0-.07-.02-.14-.01-.2.12-2.32.24-4.63.37-6.95,0-.08.08-.15.12-.22.05.07.13.13.14.21.15,2.24.3,4.48.45,6.72,0,.14,0,.28,0,.45"/>
      </g>
      <g>
        <rect class="cls-3" x="553.45" y="93.75" width="4.07" height="4.07"/>
        <rect class="cls-3" x="553.45" y="98.96" width="4.07" height="5.22"/>
        <path class="cls-3" d="M532.65,93.75h4.07v5.6c0,3.93-3.18,5.08-7.12,5.08-3.92,0-7.13-1.14-7.12-5.08v-1.27h4.07v1.02c-.02,1.72,1.39,2.01,3.05,2.03,1.67-.02,3.08-.32,3.06-2.03v-5.34Z"/>
        <path class="cls-3" d="M552.25,98.58v.76c.02,3.94-3.2,5.09-7.12,5.09-3.93,0-7.14-1.15-7.12-5.09v-.76c-.02-3.95,3.2-5.08,7.12-5.09,3.93,0,7.12,1.15,7.12,5.09M548.18,98.83c.02-1.7-1.39-2.01-3.05-2.03-1.67.02-3.08.33-3.06,2.03v.26c-.02,1.71,1.39,2.02,3.06,2.04,1.66-.02,3.07-.33,3.05-2.04v-.26Z"/>
        <polygon class="cls-3" points="569.85 93.75 573.93 93.75 573.93 104.18 569.35 104.18 563.74 97.81 563.74 104.18 559.68 104.18 559.68 93.75 565.27 93.75 569.85 99.27 569.85 93.75"/>
        <polygon class="cls-3" points="576.3 93.76 588.51 93.76 588.51 96.43 580.36 96.43 580.36 97.77 588.51 97.77 588.51 100.18 580.36 100.18 580.36 101.52 588.51 101.52 588.51 104.19 576.3 104.19 576.3 93.76"/>
        <path class="cls-3" d="M600.72,93.75c2.15-.02,3.97,1.79,3.94,3.94,0,.78-.21,1.5-.63,2.13-.41.63-.96,1.11-1.65,1.43l2.27,2.93h-4.33l-1.96-2.55h-3.63v2.55h-4.07v-10.43h10.05ZM594.73,96.8v1.78h4.96c.25,0,.46-.09.63-.26.18-.18.26-.39.26-.63,0-.5-.4-.89-.89-.89h-4.96Z"/>
        <polygon class="cls-3" points="611.61 97.5 614.67 93.76 619.5 93.76 613.64 100.63 613.64 104.19 609.58 104.19 609.58 100.63 603.72 93.76 608.56 93.76 611.61 97.5"/>
        <rect class="cls-3" x="552.81" y="81.5" width="4.07" height="4.07"/>
        <path class="cls-3" d="M532.53,81.5c2.15-.02,3.97,1.78,3.94,3.94.03,2.15-1.79,3.97-3.94,3.94h-5.98v2.55h-4.07v-10.43h10.05ZM531.51,86.33c.24,0,.45-.08.62-.26.18-.18.26-.39.26-.63s-.09-.46-.26-.63c-.17-.18-.38-.26-.62-.26h-4.97v1.78h4.97Z"/>
        <polygon class="cls-3" points="558.85 81.5 571.06 81.5 571.06 84.17 562.91 84.17 562.91 85.51 571.06 85.51 571.06 87.92 562.91 87.92 562.91 89.26 571.06 89.26 571.06 91.94 558.85 91.94 558.85 81.5"/>
        <polygon class="cls-3" points="577.28 81.49 577.28 88.61 585.42 88.61 585.42 91.92 573.21 91.92 573.21 81.49 577.28 81.49"/>
        <rect class="cls-3" x="537.58" y="81.49" width="4.07" height="4.07"/>
        <rect class="cls-3" x="537.58" y="86.71" width="4.07" height="5.22"/>
        <polygon class="cls-3" points="547.34 81.5 542.25 81.5 547.72 86.72 542.25 91.94 547.34 91.94 550.27 88.89 553.19 91.94 558.28 91.94 547.34 81.5"/>
        <rect class="cls-3" x="585.42" y="84.55" width="4.07" height="4.07"/>
        <rect class="cls-3" x="480.22" y="96.79" width="7.65" height="7.65"/>
        <rect class="cls-3" x="487.87" y="89.14" width="7.65" height="7.65"/>
        <rect class="cls-3" x="480.22" y="81.49" width="7.65" height="7.65"/>
        <rect class="cls-3" x="499.35" y="96.79" width="7.65" height="7.65"/>
        <rect class="cls-3" x="507" y="89.14" width="7.65" height="7.65"/>
        <rect class="cls-3" x="507" y="81.49" width="7.65" height="7.65"/>
      </g>
      <g>
        <path class="cls-1" d="M378.34,97.89c.43-.44.76-.91.99-1.42.23-.5.41-.99.53-1.48.12-.49.18-.98.18-1.46,0-.57-.08-1.12-.23-1.65-.15-.53-.38-1.04-.68-1.54-.3-.5-.68-.95-1.13-1.36-.45-.4-.96-.76-1.55-1.07-.58-.31-1.23-.55-1.93-.73-.22-.06-.45-.11-.69-.15.22-.07.44-.15.65-.24.69-.29,1.32-.68,1.88-1.19.58-.52,1.01-1.12,1.3-1.82.29-.7.43-1.48.43-2.35,0-.48-.05-.96-.16-1.43-.11-.46-.27-.92-.48-1.36-.22-.45-.52-.86-.89-1.23-.37-.37-.82-.7-1.35-.99-.53-.3-1.15-.52-1.85-.67-.7-.15-1.49-.22-2.37-.22h-12.24v.68l4.22.58c.05.35.1.75.14,1.2.05.53.09,1.14.13,1.83.04.68.07,1.38.08,2.08.02.69.03,1.41.03,2.18v5.29c0,.62-.01,1.35-.04,2.19-.03.84-.07,1.81-.12,2.91-.05,1.09-.12,2.01-.19,2.78-.06.66-.13,1.19-.21,1.61l-3.86.58-.11.02v-.02h-.27c-.4,0-.8-.1-1.21-.32-.42-.22-.85-.54-1.28-.98-.2-.21-.41-.45-.62-.72-.22-.27-.44-.57-.68-.91-.25-.35-.53-.75-.84-1.21-.32-.47-.68-1.01-1.07-1.61-.4-.6-.76-1.14-1.08-1.62-.32-.48-.6-.89-.84-1.23-.24-.35-.48-.67-.7-.95-.22-.28-.43-.52-.62-.72-.26-.26-.54-.49-.86-.7-.12-.08-.25-.15-.38-.22.16-.04.31-.09.47-.15.39-.15.79-.35,1.17-.6.4-.25.75-.55,1.07-.89.32-.34.6-.72.84-1.15.24-.43.43-.89.55-1.38.12-.49.18-1,.18-1.55,0-.4-.06-.84-.18-1.31-.12-.47-.3-.97-.53-1.5-.24-.55-.58-1.07-1.02-1.56-.43-.48-.96-.93-1.57-1.35-.62-.43-1.35-.75-2.18-.96-.82-.21-1.75-.32-2.77-.32h-10.86v.67l3.9.58c.05.43.1.93.15,1.5.05.67.1,1.42.14,2.25.04.84.08,1.63.1,2.37.02.72.03,1.42.03,2.09v5.08c0,.47-.01,1.07-.04,1.78-.02.72-.06,1.59-.11,2.6-.05.99-.1,1.87-.17,2.66-.06.68-.12,1.27-.19,1.78l-3.82.58v.67h12.51v-.68l-4.04-.58c-.12-.96-.21-1.83-.27-2.62-.07-.84-.1-1.58-.1-2.21v-3.04c0-.37,0-.71.02-1.02.01-.25.03-.49.05-.72.13-.02.29-.04.45-.05.25-.02.55-.03.88-.03.36,0,.67.02.94.06.25.04.46.09.63.17h0c.17.07.36.18.55.32.2.15.41.33.63.56.15.15.32.36.53.62.21.27.44.59.7.96h0c.26.37.56.8.89,1.28.33.48.69,1.01,1.07,1.59l1.02,1.5.7,1.02c.19.26.37.5.56.72.19.23.38.44.56.62.49.51,1.07.9,1.72,1.15.65.25,1.39.38,2.21.38h16.18c1.01,0,1.91-.09,2.72-.27.81-.18,1.53-.45,2.14-.81.61-.36,1.13-.76,1.55-1.19M344.11,77.14c.32.07.64.18.96.32h0c.33.14.64.3.93.5.29.2.57.42.84.68h0c.27.25.51.53.72.84.22.31.41.65.57,1.02h0c.17.37.29.75.38,1.15.08.4.13.82.13,1.25s-.04.86-.13,1.27c-.09.4-.22.79-.39,1.16-.17.36-.39.68-.67.97-.28.29-.62.55-1.03.78-.39.23-.86.4-1.38.51-.53.12-1.14.18-1.8.18-.4,0-.75,0-1.04-.02-.2,0-.38-.02-.53-.04-.02-.35-.04-.7-.06-1.05-.02-.42-.02-.88-.02-1.37v-2.7c0-.4,0-.85.03-1.32.02-.48.05-1.02.09-1.62.04-.6.09-1.12.13-1.56.04-.37.07-.69.11-.96.12-.02.26-.04.42-.05.23-.02.51-.03.81-.03s.62.04.93.11M347.23,77.38c.35.2.69.43,1,.7h0c.32.26.6.55.85.88.25.33.47.69.65,1.08.18.39.32.8.41,1.23.09.43.14.89.14,1.38,0,.62-.09,1.19-.26,1.72-.17.53-.42,1.01-.76,1.45h0c-.2.26-.41.49-.63.69.14-.17.26-.35.37-.54.49-.84.74-1.83.74-2.97,0-.51-.06-1.03-.18-1.55-.12-.52-.29-1.03-.53-1.56-.24-.53-.54-1.02-.92-1.46-.38-.44-.82-.84-1.34-1.2-.12-.08-.24-.16-.36-.24.28.11.55.24.81.39M339.41,98.97h-.62v-22.23h.62v22.23ZM346.36,89.3l.07.03c.3.14.57.32.82.53.25.22.52.49.79.82.28.33.56.72.86,1.16l2.81,4.11c.67,1,1.29,1.78,1.85,2.35.22.23.44.42.64.58l-.16-.05c-.36-.12-.69-.3-.99-.54-.32-.25-.66-.59-1.02-1.01-.37-.43-.76-.94-1.17-1.54l-3.49-5.17c-.28-.44-.56-.81-.86-1.14l-.14-.14ZM373.69,79.25c.17.34.3.7.39,1.08.09.38.13.78.13,1.21,0,.55-.06,1.06-.17,1.52-.11.46-.28.87-.51,1.24-.23.37-.5.69-.81.97-.31.28-.66.52-1.06.71-.4.19-.83.33-1.28.42-.46.09-.95.14-1.47.14-.39,0-.74-.02-1.04-.07-.23-.04-.44-.09-.63-.15-.02-.24-.04-.58-.05-1.03-.01-.54-.02-1.25-.02-2.15,0-1.2.03-2.31.1-3.34.06-.97.15-1.86.27-2.67.16-.04.35-.07.57-.09.3-.03.65-.05,1.06-.05.59,0,1.14.05,1.62.16.48.1.91.26,1.28.47h0c.37.2.7.44.97.71.27.27.49.57.66.92M367.34,97.86c-.07-.95-.12-1.9-.16-2.87-.04-1.01-.06-2.06-.06-3.14,0-.92.01-1.69.03-2.32.02-.55.04-1.01.08-1.38.17-.05.39-.08.65-.11.35-.04.79-.06,1.31-.06.73,0,1.41.06,2.02.19.62.12,1.18.31,1.68.56h0c.51.24.96.53,1.34.86.38.33.7.7.95,1.12h0c.26.42.45.88.58,1.36.13.48.2,1,.2,1.55s-.06,1.06-.17,1.53c-.11.46-.29.88-.51,1.26h0c-.22.38-.49.71-.8.99-.31.28-.67.52-1.07.71-.4.19-.84.33-1.32.42-.48.09-.99.14-1.55.14-.35,0-.68-.02-.97-.05-.29-.03-.55-.08-.79-.14-.23-.06-.47-.15-.74-.27-.23-.1-.47-.22-.72-.36M374.34,77.77h0c.24.22.45.46.64.72.18.27.34.55.47.87h0c.13.32.23.66.3,1.02.07.36.1.75.1,1.16,0,.66-.1,1.27-.3,1.84-.2.57-.5,1.09-.89,1.57-.33.4-.71.73-1.15.99.21-.18.41-.38.59-.61.24-.3.46-.64.64-1.02.19-.39.34-.81.43-1.25.09-.44.14-.92.14-1.42,0-.53-.05-1.03-.16-1.5-.11-.47-.27-.91-.48-1.32-.22-.42-.49-.79-.82-1.12-.33-.33-.71-.61-1.14-.85-.13-.07-.26-.14-.4-.2.13.04.27.08.39.12h0c.31.11.6.25.88.41.28.17.53.36.77.58M364.94,98.97h-.59v-22.27h.59v22.27ZM374.27,98.76c.49-.29.91-.61,1.26-.98.35-.37.64-.78.86-1.23.22-.45.38-.91.49-1.39.11-.48.16-.97.16-1.48,0-.62-.07-1.2-.2-1.73-.13-.54-.33-1.03-.6-1.49-.26-.45-.56-.85-.9-1.21-.35-.36-.74-.67-1.17-.93-.18-.11-.36-.21-.54-.31.43.13.82.3,1.19.5h0c.48.26.9.56,1.25.91.36.35.66.74.89,1.18.24.45.42.92.54,1.43.12.51.18,1.06.18,1.64,0,.48-.06.95-.17,1.4-.11.45-.29.89-.52,1.33h0c-.22.43-.51.81-.85,1.16-.34.35-.75.65-1.21.92-.32.18-.67.33-1.04.45.12-.06.24-.12.35-.19"/>
        <path class="cls-1" d="M405.67,84.05c.27-.53.54-1.03.8-1.49.15-.26.29-.51.43-.75l.07.39c.07.45.15,1.03.23,1.72.08.71.16,1.43.22,2.16.07.73.13,1.52.18,2.35.06.82.11,1.59.15,2.29.04.73.08,1.4.1,2.02.03.63.05,1.2.06,1.69.01.48.02.93.02,1.34,0,.72-.01,1.35-.03,1.89-.02.46-.04.88-.08,1.24l-3.86.58v.68h11.59v-.67l-3.04-.59c-.09-.26-.18-.7-.28-1.35-.12-.79-.25-1.85-.38-3.18-.13-1.33-.26-2.73-.37-4.2-.12-1.46-.22-2.96-.32-4.5-.09-1.57-.16-2.86-.21-3.89-.04-1.02-.07-1.78-.07-2.29s0-.97.02-1.44c.01-.4.03-.8.06-1.21l4.3-.61v-.68h-7.35l-.07.18c-.31.82-.69,1.72-1.14,2.7-.45.98-.97,2.04-1.56,3.18l-4.13,7.91c-.68,1.33-1.26,2.45-1.75,3.36-.39.73-.72,1.32-.99,1.79-.31-.45-.65-.98-1.02-1.59-.46-.76-.97-1.66-1.53-2.69l-4.53-8.56c-.29-.56-.56-1.09-.8-1.57-.26-.51-.48-.96-.68-1.35-.2-.42-.43-.9-.68-1.44-.23-.51-.5-1.1-.8-1.77l-.07-.16h-7.37v.66l2.89.64c.41.35.76.69,1.04,1.02.27.32.48.62.62.91.02.43.04.8.05,1.11.01.31.02.58.02.81,0,.61-.02,1.41-.07,2.38-.05.97-.12,2.14-.22,3.51-.1,1.34-.2,2.68-.32,4.02-.12,1.36-.24,2.66-.36,3.91-.13,1.28-.24,2.3-.34,3.06-.08.6-.15,1.03-.21,1.28l-3.12.62v.67h8.45v-.67l-3.07-.61c-.02-.41-.03-.77-.04-1.08-.01-.35-.02-.67-.02-.94,0-.38,0-.82.02-1.3.02-.49.04-1.06.07-1.71.04-.63.08-1.34.13-2.12.05-.76.11-1.6.17-2.52.07-.89.14-1.76.21-2.62.08-.91.15-1.72.22-2.44.07-.76.14-1.4.2-1.91l.03-.28c.18.33.38.69.59,1.08.36.66.77,1.42,1.22,2.27l5.25,9.93c.18.33.37.71.59,1.13.22.42.46.91.73,1.46.29.58.52,1.06.7,1.43.19.4.34.72.46.97l.07.16h.58l.07-.17c.17-.42.41-.98.74-1.67.33-.69.74-1.53,1.23-2.52l6.27-11.98ZM408.44,78.43l1.49,20.54h-.62l-1.39-19.46.52-1.08ZM386.07,76.74l10.94,20.55-.27.53-11.19-21.08h.52Z"/>
        <path class="cls-1" d="M337.83,104.38c-2.56,0-4.02,1.07-4.02,3.73s1.46,3.73,4.02,3.73,4.02-1.07,4.02-3.73-1.46-3.73-4.02-3.73M337.83,110.5c-1.54,0-2.14-.85-2.14-2.38s.61-2.38,2.14-2.38,2.14.85,2.14,2.38-.6,2.38-2.14,2.38"/>
        <path class="cls-1" d="M351.8,104.54h-.93c-.26,0-.47.21-.47.47v3.87c0,.98-.41,1.45-1.32,1.45h-.8c-.91,0-1.32-.47-1.32-1.45v-3.87c0-.27-.22-.47-.47-.47h-.93c-.27,0-.48.21-.48.47v3.86c0,1.81,1.06,2.87,3.15,2.87h.9c2.09,0,3.15-1.06,3.15-2.87v-3.86c0-.27-.22-.47-.48-.47"/>
        <path class="cls-1" d="M362.13,104.54h-6.34c-.27,0-.47.21-.47.47v.47c0,.27.2.47.47.47h2.23v5.29c0,.25.22.46.47.46h.94c.26,0,.47-.21.47-.46v-5.29h2.23c.27,0,.47-.21.47-.47v-.47c0-.27-.21-.47-.47-.47"/>
        <path class="cls-1" d="M369,104.54h-2.79c-.27,0-.47.22-.47.48v6.22c0,.25.22.46.47.46h2.79c2.92,0,4.14-1.14,4.14-3.58s-1.23-3.58-4.14-3.58M368.95,110.29h-1.33v-4.34h1.33c1.83,0,2.31.64,2.31,2.17s-.48,2.17-2.31,2.17"/>
        <path class="cls-1" d="M380.09,104.38c-2.56,0-4.02,1.07-4.02,3.73s1.46,3.73,4.02,3.73,4.02-1.07,4.02-3.73-1.46-3.73-4.02-3.73M380.09,110.5c-1.54,0-2.14-.85-2.14-2.38s.61-2.38,2.14-2.38,2.14.85,2.14,2.38-.6,2.38-2.14,2.38"/>
        <path class="cls-1" d="M391.06,104.38c-2.56,0-4.02,1.07-4.02,3.73s1.46,3.73,4.02,3.73,4.02-1.07,4.02-3.73-1.46-3.73-4.02-3.73M391.06,110.5c-1.54,0-2.14-.85-2.14-2.38s.61-2.38,2.14-2.38,2.14.85,2.14,2.38-.6,2.38-2.14,2.38"/>
        <path class="cls-1" d="M404.86,109.79c-.41-.65-.71-1-1.14-1.16,1.03-.21,1.88-.72,1.88-1.82,0-1.41-1.12-2.27-2.61-2.27h-4.12c-.26,0-.46.21-.46.47v6.22c0,.26.22.47.47.47h.94c.27,0,.47-.22.47-.47v-2.15h1.22c.64,0,1.01.42,1.27.82l.85,1.33c.16.27.51.47.77.47h1.2c.27,0,.34-.21.18-.47l-.91-1.44ZM402.43,107.67h-2.13v-1.72h2.13c.57,0,1.3.2,1.3.86s-.73.86-1.3.86"/>
        <path class="cls-1" d="M410.53,106.48c0-.36.27-.57.88-.57h1.5c.51,0,.9.17,1.06.51.16.34.39.47.67.47h.59c.13,0,.51-.09.51-.55,0-1.1-1.38-1.84-2.67-1.84h-1.27c-2.46,0-3.17.86-3.17,2.09,0,2.65,5.41,1.98,5.41,3.17,0,.36-.27.58-.88.58h-1.75c-.51,0-.9-.17-1.06-.51-.17-.34-.39-.47-.67-.47h-.6c-.13,0-.51.09-.51.55,0,1.1,1.38,1.84,2.67,1.84h1.52c2.45,0,3.17-.86,3.17-2.08,0-2.67-5.41-1.99-5.41-3.17"/>
      </g>
      <g>
        <path class="cls-3" d="M743.11,100.88c-.12-3.27-.25-6.58-.38-9.96h4.74v18.31c-1.42,0-2.83.04-4.24-.04-.27-.02-.61-.51-.73-.85-1.09-2.86-2.13-5.74-3.25-8.78v9.59h-4.56v-18.28c1.43,0,2.88-.04,4.32.04.23.01.52.49.64.81,1.1,2.91,2.16,5.83,3.24,8.75.06.17.17.33.22.42"/>
        <path class="cls-3" d="M690.6,91.08c2.71,0,5.38-.25,7.99.07,3.02.36,4.68,3.23,3.96,6.19-.33,1.34-1.25,2.07-2.55,2.37.03.1.04.22.08.23,2.34.87,3.13,2.09,2.94,4.56-.18,2.3-1.77,4.32-4.07,4.51-2.74.23-5.52.05-8.35.05v-17.98ZM695.48,101.77c0,1.01-.05,1.97.03,2.91.02.2.48.53.74.52,1.03-.02,1.73-.8,1.7-1.79-.03-1.12-.77-1.67-2.48-1.65M695.48,97.88c1.49.12,2.2-.34,2.26-1.4.05-.96-.52-1.63-1.5-1.62-.26,0-.71.33-.73.55-.09.82-.03,1.66-.03,2.48"/>
        <path class="cls-3" d="M714.57,101.61c1.23,2.56,2.4,4.97,3.67,7.61-1.8,0-3.42.03-5.05-.04-.23-.01-.51-.51-.63-.83-.77-1.99-1.51-3.99-2.47-5.95v6.77h-4.87v-18.33c2.91.16,5.85-.41,8.68.61,2.09.76,3.16,2.4,3.43,4.54.3,2.41-.34,4.43-2.77,5.62M710.22,95.03v4.26c1.41,0,2.24-.83,2.27-2.19.03-1.33-.65-1.98-2.27-2.07"/>
        <path class="cls-3" d="M750.21,109.13v-18.43c2.38.18,4.74.12,7,.58,2.93.59,4.52,2.8,5.25,5.57.62,2.34.57,4.73-.12,7.06-.91,3.07-2.91,4.96-6.17,5.2-1.95.14-3.91.03-5.95.03M755.16,95.49v9.14c1.65-.06,2.45-1.22,2.57-3.69.17-3.42-.64-5.19-2.57-5.45"/>
        <path class="cls-3" d="M728.12,109.11c-.22-.71-.29-1.54-.72-2.09-.23-.29-1.1-.02-1.66-.13-2.04-.41-1.44,1.37-1.93,2.28h-5.02c.8-3.37,1.58-6.65,2.37-9.93.59-2.46,1.22-4.92,1.78-7.4.16-.71.41-1.04,1.2-1,1.42.07,2.85.04,4.28,0,.6-.01.89.15,1.02.78,1.21,5.79,2.44,11.58,3.7,17.49h-5.01ZM726.18,96.24s-.09,0-.13,0c-.34,2.2-.68,4.41-1.03,6.65h1.99c-.29-2.27-.56-4.46-.83-6.65"/>
        <path class="cls-3" d="M764.59,103.51c.98.52,1.8,1.14,2.72,1.37.51.13,1.4-.26,1.7-.7.2-.3-.2-1.2-.57-1.64-.5-.61-1.25-1.02-1.85-1.55-2.54-2.28-2.81-5.85-.65-8.5,1.67-2.05,4.99-2.62,7.26-1.22.21.13.43.46.44.7.04,1.56.02,3.12.02,4.77-.71-.54-1.27-1.07-1.92-1.42-.76-.4-1.64-.48-2.14.4-.46.81.14,1.36.74,1.83.52.4,1.06.77,1.56,1.19,2.3,1.92,2.94,4.79,1.68,7.5-1.18,2.53-3.76,3.74-6.77,3.16q-2.22-.42-2.22-2.67v-3.21Z"/>
        <path class="cls-3" d="M690.55,77.14c1.14,0,2.14-.07,3.13.04.29.03.68.53.75.87.39,1.84.7,3.69,1.07,5.74.45-2.31.86-4.43,1.3-6.66.93,0,1.81-.06,2.68.04.28.03.68.45.75.75.38,1.61.67,3.23,1,4.85.06.28.15.56.26.97.36-2.03.73-3.91,1.03-5.79.1-.61.32-.86.96-.83.92.04,1.83.01,2.89.01-.97,4.02-1.9,7.89-2.83,11.76h-3.65c-.45-2.19-.9-4.36-1.4-6.78-.4,2.41-.76,4.58-1.14,6.83-1.1,0-2.09.03-3.09-.02-.24-.01-.61-.23-.67-.43-1.02-3.73-2-7.48-3.03-11.35"/>
        <polygon class="cls-3" points="734.16 84.22 732.23 84.22 732.23 88.87 728.3 88.87 728.3 77.24 732.18 77.24 732.18 81.24 734.05 81.24 734.05 77.22 738.01 77.22 738.01 88.88 734.16 88.88 734.16 84.22"/>
        <polygon class="cls-3" points="747.49 77.2 747.49 79.88 744.2 79.88 744.2 81.57 747.13 81.57 747.13 84.28 744.19 84.28 744.19 86.1 747.47 86.1 747.47 88.88 740.22 88.88 740.22 77.2 747.49 77.2"/>
        <polygon class="cls-3" points="707.43 77.19 714.29 77.19 714.29 79.89 711.22 79.89 711.22 81.59 713.97 81.59 713.97 84.24 711.23 84.24 711.23 86.11 714.3 86.11 714.3 88.88 707.43 88.88 707.43 77.19"/>
        <path class="cls-3" d="M724.92,80.01v8.85h-3.97v-8.85h-2.1v-2.78h8.26v2.67c-.73.04-1.4.07-2.19.11"/>
        <rect class="cls-3" x="776.52" y="105.29" width="13.77" height="3.79"/>
      </g>
      <g>
        <path class="cls-3" d="M864.46,102.48h-4.14c-1.03,0-1.74-.61-2.39-1.61l-2.52-4.01-.74.87v3.13c0,1.03-.58,1.61-1.61,1.61h-3.07c-1.03,0-1.62-.58-1.62-1.61v-19.22c0-1.07.58-1.45,1.62-1.65l3.07-.55c1.03-.19,1.61.58,1.61,1.62v11.08l3.26-4.36c.77-.97,1.36-1.61,2.39-1.61h3.81c1.03,0,1.75.61.91,1.61l-4.78,5.98,5.1,7.11c.84,1,.13,1.61-.9,1.61"/>
        <path class="cls-3" d="M881.94,92.89v7.98c0,1.03-.58,1.61-1.65,1.61h-1.49c-1,0-1.62-.55-1.65-1.52-1.36,1.2-3.07,1.94-5.04,1.94-3.84,0-6.4-2.03-6.4-5.1,0-3.33,2.78-5.56,6.98-5.56,1.13,0,2.26.23,3.36.58v-.42c0-1.29-.9-2.03-2.55-2.03s-2.71.48-3.26.77c-.78.39-1.58.32-2.07-.71l-.42-.87c-.55-1.13-.29-1.74.42-2.16,1.45-.87,3.88-1.49,5.78-1.49,3.81,0,7.98,1.55,7.98,6.98M876.22,97.67v-1.39c-.52-.23-1.49-.55-2.42-.55-1.29,0-2.16.68-2.16,1.71s.87,1.68,2.16,1.68c1.55,0,2.42-1,2.42-1.45"/>
        <path class="cls-3" d="M900.22,93.02v7.85c0,1.03-.58,1.62-1.65,1.62h-3.13c-1.03,0-1.61-.58-1.61-1.62v-7.4c0-1.26-.78-2.2-2.07-2.2s-2.07.94-2.07,2.2v7.4c0,1.03-.58,1.62-1.61,1.62h-3.13c-1.03,0-1.62-.58-1.62-1.62v-13.08c0-1.03.58-1.62,1.62-1.62h1.97c1.03,0,1.62.58,1.62,1.62v.68c1.03-1.49,2.62-2.55,4.94-2.55,3.91,0,6.75,2.75,6.75,7.11"/>
        <path class="cls-3" d="M918.61,87.78v12.5c0,5.56-4.01,8.34-9.37,8.34-3.49,0-5.91-1.2-7.37-2.59-.55-.55-.81-1.26-.13-2.1l1.07-1.26c.52-.68,1.2-.84,2.07-.16.78.61,2.55,1.62,4.43,1.62,1.71,0,3.55-.78,3.55-2.58v-1.55c-1.13.68-2.49,1.1-3.97,1.1-4.26,0-7.56-3.2-7.56-7.59s3.3-7.59,7.56-7.59c1.84,0,3.46.65,4.75,1.65.1-.91.68-1.39,1.65-1.39h1.71c1.03,0,1.62.58,1.62,1.61M913.31,93.5c0-1.74-1.2-3.04-2.88-3.04s-2.84,1.29-2.84,3.04,1.2,3.04,2.84,3.04,2.88-1.29,2.88-3.04"/>
        <path class="cls-3" d="M919.22,94.41c0-4.91,3.81-8.5,9.11-8.5s9.11,3.59,9.11,8.5-3.81,8.5-9.11,8.5-9.11-3.59-9.11-8.5M931.18,94.41c0-1.78-1.2-3.1-2.84-3.1s-2.84,1.33-2.84,3.1,1.19,3.1,2.84,3.1,2.84-1.33,2.84-3.1"/>
        <path class="cls-3" d="M937.83,94.41c0-4.91,3.81-8.5,9.11-8.5s9.11,3.59,9.11,8.5-3.81,8.5-9.11,8.5-9.11-3.59-9.11-8.5M949.78,94.41c0-1.78-1.2-3.1-2.84-3.1s-2.84,1.33-2.84,3.1,1.19,3.1,2.84,3.1,2.84-1.33,2.84-3.1"/>
        <path class="cls-3" d="M972.9,102.48h-4.14c-1.03,0-1.74-.61-2.39-1.61l-2.52-4.01-.74.87v3.13c0,1.03-.58,1.61-1.62,1.61h-3.07c-1.03,0-1.61-.58-1.61-1.61v-19.22c0-1.07.58-1.45,1.61-1.65l3.07-.55c1.03-.19,1.62.58,1.62,1.62v11.08l3.26-4.36c.78-.97,1.36-1.61,2.39-1.61h3.81c1.03,0,1.75.61.9,1.61l-4.78,5.98,5.1,7.11c.84,1,.13,1.61-.9,1.61"/>
        <path class="cls-3" d="M975,80.09c0-2.07,1.65-3.72,3.68-3.72s3.72,1.65,3.72,3.72-1.65,3.68-3.72,3.68-3.68-1.65-3.68-3.68M975.52,100.87v-13.09c0-1.03.58-1.61,1.61-1.61h3.13c1.03,0,1.62.58,1.62,1.61v13.09c0,1.03-.58,1.62-1.62,1.62h-3.13c-1.03,0-1.61-.58-1.61-1.62"/>
        <path class="cls-3" d="M1001.24,81.06v19.81c0,1.03-.58,1.61-1.61,1.61h-1.97c-.97,0-1.55-.52-1.62-1.45-1.23,1.13-2.84,1.87-4.81,1.87-4.62,0-8.08-3.68-8.08-8.5s3.43-8.5,8.08-8.5c1.36,0,2.58.32,3.65.9v-5.17c0-1.07.58-1.45,1.61-1.65l3.13-.55c1.03-.13,1.61.58,1.61,1.61M995.13,94.41c0-1.78-1.23-3.1-2.88-3.1s-2.84,1.33-2.84,3.1,1.2,3.1,2.84,3.1,2.88-1.33,2.88-3.1"/>
      </g>
      <g>
        <path class="cls-3" d="M458.9,225.08h11.19c.8,0,1.55.15,2.26.45.7.3,1.31.72,1.83,1.24.52.53.93,1.14,1.23,1.85.3.7.45,1.45.45,2.25v10.34h-3.51v-3.87h-15.7v3.87h-3.51v-10.34c0-.8.15-1.55.45-2.25.3-.7.71-1.32,1.23-1.85.52-.53,1.13-.94,1.83-1.24.7-.3,1.45-.45,2.25-.45M456.64,233.81h15.7v-2.93c0-.62-.22-1.16-.66-1.6-.44-.44-.97-.66-1.6-.66h-11.19c-.62,0-1.16.22-1.6.66-.44.44-.66.97-.66,1.6v2.93Z"/>
        <path class="cls-3" d="M486.83,232.99h-9.23v-3.25h16.25c.29,0,.53.08.72.23.18.16.32.35.4.57s.08.46.01.7c-.07.24-.22.44-.45.6-1.48,1.04-2.96,2.07-4.44,3.09-1.47,1.02-2.95,2.05-4.44,3.09h8.87v3.19h-15.81c-.27,0-.51-.08-.7-.23-.2-.16-.33-.35-.4-.57-.07-.23-.07-.46,0-.7.07-.24.22-.44.45-.6l8.76-6.12Z"/>
        <path class="cls-3" d="M505.46,232.99h-9.23v-3.25h16.25c.29,0,.53.08.72.23.18.16.32.35.4.57s.08.46.01.7c-.07.24-.22.44-.45.6-1.48,1.04-2.96,2.07-4.44,3.09-1.47,1.02-2.95,2.05-4.44,3.09h8.87v3.19h-15.81c-.27,0-.51-.08-.7-.23-.2-.16-.33-.35-.4-.57-.07-.23-.07-.46,0-.7.07-.24.22-.44.45-.6l8.76-6.12Z"/>
        <path class="cls-3" d="M534.19,241.22h-13.59c-.8,0-1.55-.15-2.26-.45-.7-.3-1.31-.71-1.83-1.23-.52-.52-.93-1.13-1.23-1.83-.3-.7-.45-1.45-.45-2.26s.15-1.55.45-2.26c.3-.7.71-1.31,1.23-1.83.52-.52,1.13-.93,1.83-1.23s1.45-.45,2.26-.45h13.59v3.51h-13.59c-.62,0-1.16.22-1.6.66-.44.44-.66.97-.66,1.6s.22,1.16.66,1.6c.44.44.97.66,1.6.66h13.59v3.51Z"/>
        <path class="cls-3" d="M541.04,241.22c-.8,0-1.55-.15-2.26-.45-.7-.3-1.31-.71-1.83-1.23-.52-.52-.93-1.13-1.23-1.83-.3-.7-.45-1.45-.45-2.26s.15-1.55.45-2.26c.3-.7.71-1.31,1.23-1.83.52-.52,1.13-.93,1.83-1.23.7-.3,1.45-.45,2.26-.45h9.69c.8,0,1.55.15,2.26.45.7.3,1.31.71,1.83,1.23.52.52.93,1.13,1.23,1.83.3.7.45,1.46.45,2.26s-.15,1.55-.45,2.26c-.3.7-.71,1.31-1.23,1.83-.52.52-1.13.93-1.83,1.23-.7.3-1.45.45-2.26.45h-9.69ZM541.04,233.2c-.62,0-1.16.22-1.6.66-.44.44-.66.97-.66,1.6s.22,1.16.66,1.6c.44.44.97.66,1.6.66h9.69c.62,0,1.16-.22,1.6-.66.44-.44.66-.97.66-1.6s-.22-1.16-.66-1.6c-.44-.44-.97-.66-1.6-.66h-9.69Z"/>
        <path class="cls-3" d="M563.59,229.68h7.82c.78,0,1.52.15,2.23.45.7.3,1.32.71,1.84,1.23.53.52.94,1.13,1.24,1.83s.45,1.46.45,2.26v5.77h-3.54v-5.77c0-.62-.22-1.16-.65-1.6-.43-.44-.96-.66-1.58-.66h-7.82c-.62,0-1.16.22-1.6.66-.44.44-.66.97-.66,1.6v5.77h-3.51v-5.77c0-.8.15-1.55.45-2.26.3-.7.71-1.31,1.23-1.83.52-.52,1.13-.93,1.83-1.23s1.45-.45,2.26-.45"/>
        <path class="cls-3" d="M586.78,245.41l2.43-4.19h-.97c-.84,0-1.61-.2-2.31-.6-.7-.4-1.27-.97-1.7-1.71l-5.39-9.23h4.01l4.36,7.5c.23.37.58.56,1.03.56h2.99l4.71-8.05h4.01l-9.17,15.73h-4.01Z"/>
      </g>
      <text class="cls-2" transform="translate(670.76 241.4)"><tspan class="cls-6" x="0" y="0">+M</tspan><tspan class="cls-4" x="31.33" y="0">o</tspan><tspan class="cls-5" x="45.3" y="0">r</tspan><tspan x="52.8" y="0">e</tspan></text>
      <g>
        <path class="cls-3" d="M352.3,229.5c.59.32,1.13.54,1.29.43,0,0,1.45-1.34,5.05-4.08.16-.11-.21-.48-.75-.8-.59-.32-1.13-.48-1.29-.43-3.54,2.74-5.05,4.13-5.05,4.13-.16.11.21.43.75.75"/>
        <path class="cls-3" d="M387.57,232.4c-.54-.32-1.18-.59-1.4-.54-.05,0-6.6,1.13-11.65,1.45.11-.75-.8-1.34-2.15-1.77-.75-.21-1.72-.11-2.52.11-.12.04-.24.08-.35.12-.1-.02-.18-.02-.24,0-.05,0-12.13,3.92-21.36,5.53-.86.16-1.56.27-2.09.27.24-1.28,3.57-3.85,4.35-4.44l.11-.02c.12-.02.13-.09.07-.18-.03-.16-.33-.46-.77-.73-.59-.32-1.13-.54-1.29-.43,0,0-.06.05-.17.14-2.93.36-5.26.61-7.13.77-2.15.11-3.6.11-4.62,0h-.16v-.11c.11-.16.27-.32.43-.48l1.02-.8c.16-.11-.21-.48-.75-.81-.54-.32-1.07-.48-1.23-.43,0,0-.59.38-1.07.8-2.31,1.72-7.84,5.8-10.95,7.41.81-2.09,3.01-5.21,3.01-5.21,0-.02,0-.04,0-.06-.02-.13-.25-.36-.59-.58-.05-.03-.1-.06-.15-.08-.04-.03-.08-.05-.12-.08-.59-.32-1.13-.48-1.23-.38,0,0,0,0,0,.02-.9.14-6.86,1.13-11.53,1.43.11-.75-.81-1.34-2.15-1.77-.75-.21-1.72-.11-2.52.11-.23.07-.45.15-.65.23-.88.14-6.85,1.13-11.54,1.43.11-.75-.8-1.34-2.15-1.77-.75-.21-1.72-.11-2.52.11-.24.07-.47.15-.67.24-5.96,1.96-8.63,2.5-9.91,2.5-.97,0-1.07-.32-1.23-.59-.59-1.34-1.07-2.42-3.7-1.93h-.05c-.75.11-1.45.43-2.2.86-.16-.16-.38-.32-.64-.48-.59-.32-1.13-.48-1.24-.38-.75.8-1.99,1.82-3.22,2.9-1.99,1.66-3.97,3.38-3.97,4.03,0,.86.7,1.4,2.31,1.4,1.02,0,2.42-1.29,4.13-2.74,2.04-1.82,4.46-3.92,6.66-4.35.54,1.07,1.29,2.31,4.35,2.31,1.11,0,2.51-.15,4.29-.52-1.49,1.08-2.82,2.19-3.05,2.88l-.05.05c0,.11,0,.27.05.38v.05c.27.43.86.86,1.83,1.18h.16c1.29.38,3.76-.48,5.96-1.77,1.61-.91,3.17-2.04,4.03-3.01,2.73,0,6.47-.41,9.44-.81-1.99,1.34-4.25,3.01-4.56,3.93l-.05.05c0,.11,0,.27.05.38v.05c.27.43.86.86,1.83,1.18h.16c1.29.38,3.76-.48,5.96-1.77,1.61-.91,3.17-2.04,4.03-3.01,3.34,0,8.17-.62,11.29-1.07-.67,1.08-1.48,2.47-1.9,3.6-.16.48-.27.86-.27,1.23s.27.81.91,1.24h.05c.7.43,1.23.59,1.66.54,1.5,0,9.77-5.96,11.33-7.14.22.11.38.21.65.32l.11.05c.32.16.64.27.97.32.32.05.64.11,1.02.16h.05c1.07.11,2.63.16,4.78,0,.97-.08,2.08-.18,3.34-.3-1.41,1.34-2.83,3.07-1.89,3.96.81.75,1.77,1.18,3.01,1.23.64,0,1.5-.05,2.58-.27,4.87-.85,10.54-2.34,14.81-3.56-1.45,1.05-2.72,2.13-2.95,2.81l-.05.05c0,.11,0,.27.05.38v.05c.27.43.86.86,1.83,1.18h.16c1.29.38,3.76-.48,5.96-1.77,1.61-.91,3.17-2.04,4.03-3.01,5.31,0,14.39-1.56,14.39-1.56.27-.05,0-.38-.48-.7M286.01,237.98c1.23-1.18,3.7-2.9,5.37-3.92.27.11.59.21.97.27-1.72,1.5-4.19,2.95-6.34,3.65M293.36,233.42c-.32,0-.64,0-.91-.05l.54-.32.86-.27c-.16.21-.32.43-.48.64M302.86,237.98c1.23-1.18,3.7-2.9,5.37-3.92.27.11.59.21.97.27-1.72,1.5-4.19,2.95-6.33,3.65M310.22,233.42c-.32,0-.64,0-.91-.05l.54-.32.86-.27c-.16.21-.32.43-.48.64M364.38,237.98c1.23-1.18,3.7-2.9,5.37-3.92.27.11.59.21.97.27-1.72,1.5-4.19,2.95-6.33,3.65M371.74,233.42c-.32,0-.64,0-.91-.05l.54-.32.86-.27c-.16.21-.32.43-.48.64"/>
        <path class="cls-3" d="M255.52,220.57c.13-.37.39-1.42-.88-1.54-.69-.06-2.37,1.9-2.37,1.9l-.94,1c-1.38.6-2.79,1.37-4.22,2.33-9.8,6.57-15.32,17.32-21.48,25l-5.03,5.35s-.71.68-.13,1.38c.58.7,2.46.01,2.46.01l14.52-15.76c1.08,1.03,12.54.81,17.28-.91,22.26-7.68,14.59-21.71.78-18.77M240.64,232.56c2.06-2.8,4.4-4.93,6.82-6.49l-9.38,9.97c1.23-1.66,2.16-2.94,2.56-3.48M252.47,237.94c-4.01,1.47-12.26,1.35-14.14,1.49-.06.02-.12.05-.18.07l14.79-16.05c12.85-4.12,23.28,5.81-.47,14.49"/>
      </g>
      <g>
        <path class="cls-3" d="M423.33,38.46v-4.85c0-.72-.46-1.12-1.21-1.12-.46,0-.83.14-1.09.36v5.61h-1.87v-4.93c0-.65-.49-1.04-1.28-1.04-.42,0-.76.07-1.02.18v5.8h-1.85v-6.92c.75-.3,1.72-.53,2.77-.53,1.19,0,1.94.36,2.36.74.46-.35,1.36-.74,2.47-.74,1.62,0,2.6.93,2.6,2.4v5.04h-1.87Z"/>
        <path class="cls-3" d="M430.02,38.63c-2.21,0-3.31-.86-3.31-2.35,0-1.99,2.09-2.38,4.31-2.5v-.38c0-.76-.53-1.04-1.38-1.04-.7,0-1.54.22-2.06.43l-.46-1.24c.61-.26,1.66-.53,2.73-.53,1.88,0,2.93.73,2.93,2.59v4.49c-.54.28-1.65.53-2.75.53M431.01,34.95c-1.36.07-2.56.19-2.56,1.28,0,.69.55,1.08,1.51,1.08.4,0,.86-.07,1.05-.15v-2.22Z"/>
        <path class="cls-3" d="M438.23,32.61c-.23-.07-.53-.11-.83-.11-.34,0-.7.05-.93.15v5.81h-1.85v-6.92c.76-.3,1.81-.53,3-.53.38,0,.71.03.95.07l-.34,1.53Z"/>
        <polygon class="cls-3" points="444.43 38.46 441.79 34.79 441.76 34.79 441.76 38.46 439.92 38.46 439.92 29.03 441.76 29.03 441.76 34.37 441.79 34.37 444.21 31.18 446.35 31.18 443.71 34.59 446.53 38.46 444.43 38.46"/>
        <path class="cls-3" d="M453.6,34.95l-4.73.63c.16,1.07.96,1.59,2.03,1.59.74,0,1.53-.19,2.05-.46l.53,1.38c-.61.31-1.65.53-2.71.53-2.43,0-3.71-1.57-3.71-3.81s1.27-3.8,3.41-3.8,3.16,1.32,3.16,3.31c0,.2,0,.41-.03.62M450.42,32.36c-.97,0-1.65.7-1.68,2.07l3.08-.42c0-1.09-.55-1.65-1.4-1.65"/>
        <path class="cls-3" d="M457.69,38.57c-1.42,0-2.09-.77-2.09-2.3v-3.71h-.94v-1.38h.94v-1.62l1.83-.53v2.15h1.38v1.38h-1.38v3.59c0,.59.37.8.85.8.19,0,.41-.05.53-.11v1.53c-.22.11-.67.2-1.12.2"/>
        <path class="cls-3" d="M415.08,26.43v-10.39c0-.31.05-.72.2-.93.33-.47.67-.61,1.12-.7.48-.1.89-.11,1.31,0,.51.13.73.34,1.02.64.18.18.35.36.51.55,1.2,1.42,2.34,2.89,3.51,4.33.87,1.07,1.71,2.16,2.6,3.2.11.13.22.26.37.35.25.13.45.02.46-.26,0-.09,0-.19,0-.28v-8.52h2.35c0,.07,0,6.83,0,10.14,0,.18,0,.35-.04.52-.14.77-.56,1.23-1.26,1.36-.38.07-.76.06-1.14.03-.38-.03-.7-.2-.99-.44-.41-.34-.75-.74-1.08-1.15-1.76-2.17-3.5-4.35-5.25-6.52-.26-.32-.51-.64-.81-.91-.13-.11-.29-.14-.42-.07-.16.1-.12.5-.12.59v8.47h-2.34Z"/>
        <path class="cls-3" d="M449.32,26.43v-10.39c0-.31.05-.72.2-.93.33-.47.67-.61,1.12-.7.48-.1.89-.11,1.31,0,.51.13.73.34,1.02.64.18.18.35.36.51.55,1.2,1.42,2.34,2.89,3.51,4.33.87,1.07,1.71,2.16,2.6,3.2.11.13.22.26.37.35.25.13.45.02.46-.26,0-.09,0-.19,0-.28v-8.52h2.35c0,.07,0,6.83,0,10.14,0,.18,0,.35-.04.52-.14.77-.56,1.23-1.26,1.36-.38.07-.76.06-1.14.03-.38-.03-.7-.2-.99-.44-.41-.34-.75-.74-1.08-1.15-1.76-2.17-3.5-4.35-5.25-6.52-.26-.32-.51-.64-.81-.91-.13-.11-.29-.14-.42-.07-.16.1-.12.5-.12.59v8.47h-2.34Z"/>
        <path class="cls-3" d="M434.1,26.43h-2.56s2.98-6.34,4.06-8.63c.39-.82.74-1.66,1.18-2.45.24-.43.61-.71,1.08-.84.72-.19,1.45-.17,2.18-.05.6.1,1.05.42,1.34.96.26.48.48.99.71,1.49,1.25,2.67,2.5,5.35,3.76,8.02.23.49.49,1.02.72,1.5h-2.53c-.33-.69-.64-1.32-.96-2.02-.1-.24-.23-.31-.44-.31-2.39,0-4.65,0-7.04,0-.26,0-.42.05-.54.31-.34.74-.95,2.02-.95,2.02M441.55,22.05c.23,0,.35-.17.26-.37-.79-1.67-1.5-3.17-2.28-4.84-.1-.21-.24-.3-.47-.3s-.38.08-.47.29c-.78,1.67-1.51,3.21-2.3,4.88-.09.2-.03.34.18.34.9,0,4.19,0,5.08,0"/>
        <path class="cls-3" d="M471.21,26.4c-.64-.12-1.26-.31-1.84-.62-1.01-.55-1.62-1.4-1.95-2.49-.22-.76-.32-1.53-.33-2.31-.01-2.14,0-4.43-.01-6.57h2.32c0,1.88,0,3.95,0,5.83,0,.64,0,1.29.11,1.93.09.6.27,1.18.74,1.6.41.36.92.53,1.45.62.99.17,1.98.16,2.97.1.47-.03.94-.11,1.4-.26.79-.26,1.28-.8,1.49-1.6.13-.49.18-1,.18-1.5,0-2.17,0-6.72,0-6.72h2.34v6.69c0,.71-.02,1.46-.25,2.19-.29.91-.74,1.56-1.51,2.16-.7.53-1.51.79-2.35.96-2.21.35-3.06.22-4.77,0"/>
        <path class="cls-3" d="M390.32,6.74c-10.29,0-18.62,8.34-18.62,18.62s8.34,18.62,18.62,18.62,18.62-8.34,18.62-18.62-8.34-18.62-18.62-18.62M397.96,24.13s-.02.1-.03.23c-.05.4-.19,1.46-.42,2.28-.9,3.25-2.77,4.22-4.14,4.93-.59.31-1.1.57-1.51.96-.19.18-.35.37-.47.57-.42.65-.52,1.39-.29,2.13.16.53.48,1.04.96,1.54.47.49.99.87,1.35,1.1l4.03,2.64c-2.17.95-5.03,1.82-7.11,1.82-2.3,0-5.22-.68-7.12-1.64,1.29-.86,4.38-2.93,5.48-3.92.48-.43.98-1.29.99-2.23.01-.75-.29-1.42-.89-2-.4-.39-.92-.65-1.51-.96-1.48-.77-3.31-1.72-4.13-4.88-.09-.36-.17-.76-.23-1.17-.02-.15-.07-.75-.1-1.07,0-.13-.02-.23-.02-.28v-.14c.89-.25,1.86-.45,2.84-.6,1.62-.25,3.26-.37,4.69-.39,0,0,.02,0,.02,0,1.6,0,3.13.08,4.58.3,1.06.15,2.08.38,3.06.69l-.02.09ZM399.05,39.95l-2.83-1.86-1.97-1.41s0,0-.01,0h0c-.38-.24-.78-.55-1.11-.9-.29-.3-.52-.63-.62-.97-.09-.3-.07-.62.13-.93.07-.1.15-.21.26-.31.25-.24.68-.47,1.19-.73,1.6-.83,3.93-2.05,4.91-5.9.1-.4.19-.84.26-1.3.03-.17.05-.35.07-.53.31-.13.55-.26.73-.39.24-.17.37-.35.37-.54,0-.15-.09-.3-.25-.45-.15-.13-.36-.26-.64-.39-.65-.3-1.64-.6-2.87-.84-1.13-.22-2.46-.4-3.93-.49-.02,0-.02-.07-.05-.13-.07-.13-.14-.62-.67-.62h-3.44c-.56,0-.63.75-.65.75-1.47.1-2.81.27-3.94.5-1.24.24-2.23.54-2.88.85-.27.13-.48.26-.63.39-.16.14-.24.29-.24.44,0,.18.13.37.37.54.18.13.43.26.74.39.02.19.05.38.07.56.07.47.16.91.27,1.33.98,3.82,3.31,5.03,4.9,5.85.51.26.93.48,1.19.73,1.07,1.02-.17,2.22-.31,2.36l-5.73,4.09c-5.03-2.95-8.41-8.42-8.41-14.67,0-9.39,7.61-17,17-17s17,7.61,17,17c0,6.2-3.32,11.62-8.27,14.59"/>
        <path class="cls-1" d="M394,12.68c-.13-.04-.25-.09-.37-.14-.03-.01-.08-.03-.12-.05-.02.15-1.09,7.64-1.09,7.64l-.28-8.18s0-.37,0-.56c-.78-.13-2.67-.16-3.52,0,0,.09-.29,8.73-.29,8.73,0,0-.92-6.12-1.14-7.55-.1.03-.2.06-.31.09h0c-3.59,1.4-5.98,5.31-5.64,9.48v.19c.41-.19.87-.33,1.29-.45.79-.22,1.61-.39,2.43-.52.98-.16,1.67-.25,2.65-.32.02-.02.27-.62.76-.64.8-.03,3.01-.04,3.71-.03.82,0,.95.65.96.68.99.07,1.84.16,2.82.32.82.13,1.63.29,2.43.52.42.12.87.26,1.28.44,0-.06,0-.13.01-.19.32-4.16-2-8.05-5.57-9.45"/>
      </g>
      <g>
        <path class="cls-3" d="M60.46,34.22c-.54,3.66-1.07,7.17-1.58,10.68-.2,1.37-.37,2.75-.58,4.13-.17,1.12-.94,1.77-1.98,1.68-1.04-.09-1.74-.87-1.6-2.02.37-3.05.83-6.08,1.23-9.12.64-4.84,1.29-9.67,1.88-14.51.35-2.89.44-3.04,3.34-3.53,3.42-.57,6.85-1.03,10.32-.55,1.11.15,2.24.39,3.28.8,3.09,1.23,4.16,4.46,2.52,7.36-.96,1.7-2.47,2.8-4.2,3.6-3.63,1.68-7.48,1.88-11.39,1.57-.38-.03-.76-.06-1.23-.1M63.98,30.89c2.96-.05,5.48-.28,7.75-1.51.9-.49,1.7-1.26,2.36-2.06.49-.6.47-1.45-.25-1.99-.4-.3-.92-.49-1.41-.59-3.45-.65-6.89-.26-10.31.29-.28.05-.63.53-.69.85-.23,1.3-.33,2.63-.55,3.93-.09.56.09.79.61.84.96.09,1.93.18,2.47.23"/>
        <path class="cls-3" d="M47.28,27.63c-1.88,1.79-3.7,3.53-5.53,5.27-.54.51-1.07,1.03-1.65,1.5-1.16.96-2.32.73-3.07-.58-1.36-2.38-2.71-4.77-4.15-7.3-.29.4-.5.66-.69.93-2.01,2.97-4.01,5.95-6.01,8.93-.2.29-.4.6-.65.85-.65.64-1.68.69-2.39.15-.69-.53-.91-1.47-.45-2.26.44-.75.96-1.46,1.45-2.18,2.32-3.46,4.64-6.93,6.97-10.39,1.16-1.73,2.62-1.69,3.69.12,1.31,2.23,2.61,4.46,3.92,6.69.17.3.36.59.35.58,1.51-1.36,3.04-2.7,4.54-4.09.92-.86,1.77-1.79,2.69-2.66,1.18-1.11,2.51-.87,3.23.59,1.37,2.78,2.72,5.57,4.06,8.37.5,1.03.2,2.02-.72,2.49-.95.49-1.99.16-2.53-.89-.9-1.75-1.74-3.53-2.61-5.3-.15-.31-.32-.62-.43-.82"/>
        <path class="cls-3" d="M94.23,31.1c-.79.66-1.44,1.3-2.18,1.81-2.17,1.51-4.55,1.95-7.09,1.14-3.16-1.01-4.79-3.93-4.06-7.17,1.01-4.47,5.32-7.4,9.54-6.49,1.41.3,2.18.82,4.18,2.85.28-.72.52-1.4.79-2.07.45-1.11,1.39-1.6,2.37-1.26,1.05.36,1.49,1.35,1.03,2.53-.57,1.47-1.28,2.89-1.83,4.37-.17.45-.2,1.09,0,1.51.71,1.52,1.54,2.98,2.32,4.47.6,1.14.37,2.18-.58,2.68-.96.51-1.99.16-2.6-.93-.63-1.12-1.23-2.26-1.88-3.45M87.33,30.87c1.75-.01,4.24-1.67,4.94-3.29.04-.09.08-.18.09-.27.12-1.74-2.15-3.77-3.92-3.47-1.96.33-3.25,1.5-3.85,3.37-.68,2.09.53,3.67,2.74,3.66"/>
        <path class="cls-3" d="M4.78,45.04c-.93-.24-1.88-.42-2.78-.75-.94-.34-1.33-1.25-1.07-2.11.28-.92,1.11-1.43,2.12-1.24.38.07.74.22,1.12.31,1.74.41,3.35-.68,3.62-2.45.24-1.53-.19-2.92-1.12-4.09-.82-1.03-1.77-1.96-2.72-2.88-1.7-1.63-3.25-3.33-3.81-5.72-.59-2.53.67-5.42,2.94-6.74,2.18-1.27,5.52-.95,7.36.71.8.72.94,1.74.35,2.51-.59.77-1.63.92-2.52.36-.03-.02-.05-.04-.08-.05-1.43-.95-2.73-1-3.64-.14-1.04.98-1.23,2.61-.23,3.98.83,1.13,1.95,2.06,2.85,3.14,1.19,1.43,2.44,2.84,3.41,4.41.98,1.6,1.17,3.46.77,5.34-.68,3.15-3.3,5.27-6.57,5.4"/>
        <path class="cls-3" d="M102.86,35.75c.39-2.57.79-5.32,1.22-8.06,1.33-8.58,2.67-17.15,4.01-25.73.22-1.39.99-2.1,2.15-1.93,1.1.16,1.65,1.04,1.44,2.41-1.26,8.26-2.54,16.52-3.82,24.78-.43,2.78-.84,5.55-1.27,8.33-.04.29-.09.58-.16.86-.24.98-1.05,1.59-1.97,1.48-.98-.11-1.63-.9-1.6-2.14"/>
        <path class="cls-3" d="M111.72,39.71c-.17-.01-.5,0-.81-.08-.84-.19-1.41-.95-1.36-1.77.06-.84.7-1.49,1.56-1.59.06,0,.13-.02.19-.01,2.51.1,3.38-1.78,3.12-3.76-.15-1.18-.54-2.35-.56-3.53-.02-1.47.03-3,.44-4.39.84-2.88,3.97-4.99,6.96-4.97,1.07,0,1.82.6,1.93,1.53.11.91-.49,1.71-1.57,1.86-3.02.41-4.86,1.96-4.19,6.16.28,1.78.79,3.52.45,5.37-.55,2.98-3,5.14-6.17,5.18"/>
        <path class="cls-3" d="M19.88,22.61c-.39,5.16-.79,10.51-1.22,15.85-.1,1.31-.95,2.07-2.05,1.96-1.04-.11-1.71-.96-1.62-2.14.42-5.47.84-10.94,1.28-16.41.12-1.48.82-2.23,1.93-2.17,1.17.06,1.73.88,1.68,2.44,0,.1,0,.19,0,.47"/>
        <path class="cls-3" d="M21.04,14.65c.01,1.38-1.09,2.5-2.42,2.48-1.3-.02-2.34-1.05-2.35-2.33-.01-1.33,1.03-2.38,2.38-2.4,1.35-.01,2.38.96,2.39,2.25"/>
      </g>
      <g>
        <path class="cls-3" d="M868.08,19.72l-4.66,1.63-6.96-8.34-5.86-3.37,19.63,34.02v-6.78l-3.74-10.18,5.92-4.45-4.33-2.52ZM868.51,18.95l-.92-4.82-10.68-1.87-5.86-3.41h39.27l-5.83,3.41-10.68,1.87-.92,7.36-4.39-2.55Z"/>
        <path class="cls-3" d="M884.89,13l5.86-3.37-19.63,34.02-.03-6.78,13.81-23.87ZM918.97,18.83h3.8v12.58h12.82l-2.3,2.15h-14.33v-14.72ZM962.47,18.83h19.2l-2.21,2.15h-13.07v3.96h13.16v2.21h-13.16v4.39h13.53l2.39,2.15h-19.76l-.09-14.85ZM992.5,20.98h-6.69l-1.99-2.15h21.23l-1.93,2.15h-6.72v12.58h-3.8l-.09-12.58ZM1015.6,20.98h-6.72l-1.99-2.15h21.17l-1.96,2.15h-6.69v12.58h-3.77l-.03-12.58ZM1030.79,18.83h3.86v14.72h-3.8l-.06-14.72ZM896.92,18.83h10.03c2.45-.03,4.88.4,7.15,1.32v4.79c-.52.34-1.1.61-1.72.77.77.22,1.5.58,2.15,1.04v5.37c-1.99,1.14-4.29,1.63-6.56,1.47h-11.26v-14.2l3.83,2.02v10.03h6.56c1.53.06,3.04-.15,4.51-.61v-3.04c-1.47-.46-2.97-.64-4.51-.61h-5.89v-2.64h5.89c1.32.03,2.67-.12,3.96-.46v-2.7c-1.29-.34-2.61-.49-3.96-.43h-5.98l-4.2-2.12ZM938.12,30.15v-11.41l3.56,1.14v9.45c.77.86,1.81,1.44,2.94,1.66h6.9c1.14-.21,2.18-.8,2.95-1.66v-9.42l3.56-1.14v11.38c-1.47,1.87-3.53,3.19-5.86,3.74h-8.22c-2.3-.52-4.36-1.81-5.89-3.62"/>
      </g>
      <g>
        <rect class="cls-3" x="536.67" y="13.53" width="17.16" height="2.02"/>
        <rect class="cls-3" x="536.67" y="25.32" width="10.53" height="2.02"/>
        <rect class="cls-3" x="536.67" y="36.94" width="17.16" height="2.02"/>
        <rect class="cls-3" x="594.1" y="13.53" width="17.16" height="2.02"/>
        <rect class="cls-3" x="594.1" y="25.32" width="12.73" height="2.02"/>
        <rect class="cls-3" x="594.1" y="36.94" width="17.16" height="2.02"/>
        <path class="cls-3" d="M573.29,31.27c0,2.08-.94,4.01-2.58,5.44-1.68,1.47-4,2.26-6.51,2.26-3.1,0-5.94-1.11-8.3-3.26-.41-.39-.41-1-.04-1.4.41-.39,1.05-.39,1.46-.03,1.94,1.79,4.34,2.72,6.88,2.72,1.98,0,3.81-.61,5.12-1.75,1.2-1.07,1.87-2.47,1.87-3.97,0-3.72-2.58-4.37-6.77-5.05-1.87-.32-3.81-.65-5.31-1.5-.86-.47-1.53-1.11-2.02-1.9-.49-.82-.75-1.83-.75-3.01,0-.93.22-1.83.64-2.61.37-.79.93-1.47,1.68-2.01,1.38-1.07,3.29-1.65,5.53-1.65,2.39,0,4.9.68,6.84,1.86.49.29.64.9.34,1.36-.3.47-.93.61-1.42.32-1.65-1-3.74-1.58-5.76-1.58-1.76,0-3.21.43-4.26,1.22-1.01.75-1.5,1.83-1.5,3.08,0,1.54.52,2.54,1.72,3.22,1.16.65,2.84.93,4.6,1.22,1.98.36,4,.68,5.61,1.61.93.54,1.64,1.25,2.09,2.08.52.93.82,2.04.82,3.33"/>
        <path class="cls-3" d="M592.67,14.55c0,.6-.45,1.05-1.01,1.05h-6.92v22.35c0,.56-.45,1.01-1.05,1.01-.56,0-1.01-.45-1.01-1.01V15.6h-6.92c-.56,0-1.05-.45-1.05-1.05,0-.56.49-1.01,1.05-1.01h15.89c.56,0,1.01.45,1.01,1.01"/>
        <path class="cls-3" d="M630.59,38.97c-.3,0-.56-.11-.79-.34l-9.83-10.47c-.26-.3-.34-.75-.19-1.12.19-.37.56-.6.93-.6h3.29c2.84,0,5.16-2.43,5.16-5.42s-2.32-5.42-5.16-5.42h-8.41v22.35c0,.56-.45,1.01-1.01,1.01-.6,0-1.05-.45-1.05-1.01V14.56c0-.56.45-1.01,1.05-1.01h9.42c3.96,0,7.18,3.36,7.18,7.48s-3.21,7.48-7.18,7.48h-.93l8.26,8.75c.52.6.15,1.72-.75,1.72"/>
      </g>
      <g>
        <path class="cls-3" d="M751.13,20.74h-3.14v-.8c-.85.73-1.94,1.12-3.06,1.08-2.61,0-4.81-2.1-4.81-5.21s2.2-5.21,4.81-5.21c1.12-.04,2.21.35,3.06,1.08v-.78h3.14v9.84ZM747.99,15.82c.05-1.36-1.01-2.5-2.36-2.55-.01,0-.03,0-.04,0-1.37,0-2.37,1.04-2.37,2.55s1,2.55,2.37,2.55c1.35-.02,2.43-1.13,2.41-2.48,0-.02,0-.04,0-.07"/>
        <path class="cls-3" d="M763.74,24.07h-3.13v-4.11c-.85.73-1.94,1.12-3.06,1.08-2.6,0-4.81-2.1-4.81-5.21s2.2-5.21,4.81-5.21c1.12-.04,2.21.35,3.06,1.08v-.79h3.13v13.17ZM760.6,15.82c.05-1.36-1.01-2.5-2.36-2.55-.01,0-.03,0-.04,0-1.38,0-2.37,1.04-2.37,2.55s1,2.55,2.37,2.55c1.35-.01,2.43-1.12,2.42-2.47,0-.03,0-.05,0-.08h-.02Z"/>
        <path class="cls-3" d="M775.81,20.74h-3.13v-.94c-.79.82-1.89,1.26-3.02,1.23-2.29,0-3.82-1.63-3.82-4.1v-6.03h3.11v5.37c0,1.16.68,1.94,1.69,1.94,1.23,0,2.04-.84,2.04-2.74v-4.56h3.13v9.84Z"/>
        <path class="cls-3" d="M788.43,20.74h-3.14v-.8c-.85.73-1.94,1.12-3.06,1.08-2.61,0-4.81-2.1-4.81-5.21s2.2-5.21,4.81-5.21c1.12-.04,2.21.35,3.06,1.08v-.78h3.14v9.84ZM785.3,15.82c.05-1.35-1-2.49-2.35-2.55-.02,0-.03,0-.05,0-1.38,0-2.37,1.04-2.37,2.55s1,2.55,2.37,2.55c1.35-.02,2.43-1.13,2.41-2.47,0-.02,0-.05,0-.08"/>
        <path class="cls-3" d="M751.77,34.2c0,3.12-2.2,5.21-4.81,5.21-1.12.04-2.21-.35-3.05-1.08v4.12h-3.13v-13.17h3.13v.8c.85-.73,1.94-1.12,3.06-1.08,2.61-.02,4.8,2.12,4.8,5.2M748.7,34.2c0-1.51-1-2.55-2.37-2.55-1.41.08-2.48,1.28-2.41,2.69.07,1.3,1.11,2.33,2.41,2.41,1.38,0,2.37-1.02,2.37-2.55"/>
        <path class="cls-3" d="M763.6,34.2c0,3.12-2.47,5.21-5.39,5.21s-5.45-2.08-5.45-5.21,2.47-5.18,5.45-5.18,5.39,2.1,5.39,5.18M760.58,34.2c-.08-1.32-1.22-2.33-2.54-2.25-1.33.08-2.33,1.22-2.26,2.54.08,1.28,1.15,2.27,2.43,2.26,1.35-.04,2.41-1.17,2.37-2.52,0,0,0-.02,0-.03"/>
        <path class="cls-3" d="M768.77,26.38c-.11.99-1.02,1.71-2.01,1.59-.84-.1-1.5-.76-1.59-1.59.11-1,1.02-1.71,2.01-1.6.84.1,1.5.76,1.59,1.6M765.38,29.28h3.14v9.85h-3.14v-9.85Z"/>
        <path class="cls-3" d="M780.93,33.08v6.05h-3.12v-5.39c0-1.15-.69-1.94-1.68-1.94-1.24,0-2.04.84-2.04,2.74v4.58h-3.14v-9.85h3.14v.94c.79-.82,1.88-1.27,3.02-1.24,2.3,0,3.82,1.63,3.82,4.1"/>
        <path class="cls-3" d="M790.35,38.69c-.82.48-1.74.73-2.69.73-2.45,0-3.92-1.33-3.92-3.92v-3.73h-1.78v-2.49h1.8v-2.9h3.14v2.9h2.87v2.49h-2.9v3.41c0,1.02.49,1.43,1.31,1.43.5-.02.99-.16,1.43-.4l.73,2.48Z"/>
        <rect class="cls-3" x="713.92" y="3.87" width="4.5" height="4.5"/>
        <rect class="cls-3" x="718.42" y="8.37" width="4.5" height="4.5"/>
        <polygon class="cls-3" points="727.41 17.37 727.41 12.87 722.92 12.87 722.92 17.37 722.92 21.86 727.41 21.86 727.41 17.37"/>
        <polygon class="cls-3" points="722.92 26.36 722.92 21.86 718.42 21.86 718.42 26.36 718.42 30.86 718.42 35.36 722.92 35.36 722.92 30.86 722.92 26.36"/>
        <polygon class="cls-3" points="713.92 39.86 709.42 39.86 709.42 44.35 713.92 44.35 718.42 44.35 722.92 44.35 722.92 39.86 718.42 39.86 713.92 39.86"/>
        <polygon class="cls-3" points="727.41 21.86 727.41 26.36 727.41 30.86 727.41 35.36 731.91 35.36 731.91 30.86 731.91 26.36 731.91 21.86 727.41 21.86"/>
        <polygon class="cls-3" points="700.43 26.36 700.43 30.86 700.43 35.36 704.93 35.36 704.93 30.86 704.93 26.36 704.93 21.86 700.43 21.86 700.43 26.36"/>
        <rect class="cls-3" x="722.92" y="35.36" width="4.5" height="4.5"/>
        <rect class="cls-3" x="704.93" y="35.36" width="4.5" height="4.5"/>
        <rect class="cls-3" x="709.42" y="8.37" width="4.5" height="4.5"/>
        <polygon class="cls-3" points="704.93 17.37 704.93 21.86 709.42 21.86 709.42 17.37 709.42 12.87 704.93 12.87 704.93 17.37"/>
      </g>
      <g>
        <path class="cls-3" d="M195.17,17.14c.44-1.26,1.35-1.79,2.66-1.74,2.33.08,4.68-.03,6.99.25,2.84.34,4.65,2.35,4.83,4.91.23,3.36-1.14,5.49-4.11,6.45-1.68.55-3.42.54-5.15.55-.23,0-.45.02-.69.04,0,1.83-.05,3.63.02,5.42.06,1.6-.75,2.7-2.16,2.73-1.3.02-2.21-.84-2.24-2.21-.04-2.26-.04-4.52-.06-6.78,0-.25-.06-.49-.09-.74v-8.88ZM199.64,23.7c1.46.04,2.86.13,4.22-.34.98-.34,1.46-1.08,1.41-2.06-.05-.97-.53-1.7-1.54-1.86-1.35-.21-2.73-.22-4.09-.31v4.57Z"/>
        <path class="cls-3" d="M263.71,24.53c1.53-6.68,7.15-9.3,12.79-8.87,1.82.14,3.56.59,5.16,1.47,3.01,1.66,4.78,4.22,5.38,7.58.57,3.26.14,6.37-1.76,9.14-2.04,2.97-4.98,4.5-8.52,4.83-4.04.38-7.62-.65-10.43-3.73-1.32-1.44-2.13-3.17-2.58-5.19-.1.22-.16.33-.19.45-1.1,4.5-4.83,7.81-9.46,8.41-2.31.3-4.57.17-6.76-.68-3.24-1.26-5.44-3.53-6.55-6.81-.87-2.57-.87-5.19-.09-7.78.91-3.01,2.78-5.27,5.68-6.54,3.95-1.74,7.92-1.67,11.79.26,2.81,1.4,4.52,3.74,5.35,6.74.05.17.1.34.2.71M251.97,35.23c1.96,0,3.73-.63,5.08-1.88,2.26-2.11,2.89-4.79,2.42-7.73-1.07-6.6-8.04-8.02-11.96-5.06-2.68,2.02-3.77,5.98-2.6,9.54,1.04,3.15,3.76,5.12,7.06,5.13M275.31,35.23c3.5,0,6.29-2.08,7.27-5.42.38-1.3.48-2.63.28-3.97-.45-2.9-1.87-5.13-4.68-6.2-2.78-1.05-5.45-.7-7.73,1.28-2.18,1.9-2.8,4.43-2.59,7.21.3,4.1,3.45,7.09,7.46,7.1"/>
        <path class="cls-3" d="M232.56,17.85c-1.58.16-3.08.33-4.57.46-.48.04-.98.06-1.44-.04-.84-.17-1.3-.76-1.36-1.61-.07-.85.3-1.51,1.09-1.82.38-.15.8-.23,1.21-.28,4.3-.45,8.61-.88,12.92-1.31.67-.07,1.34-.14,2.01-.13,1.01,0,1.68.61,1.82,1.56.14.99-.32,1.83-1.35,2.02-1.52.28-3.07.39-4.61.57-.34.04-.68.08-1.09.14.16,1.6.32,3.16.48,4.72.39,3.79.77,7.58,1.16,11.38.03.3.04.6.03.9-.07,1.2-.79,2.02-1.87,2.15-1.26.15-2.25-.42-2.51-1.65-.25-1.17-.33-2.38-.46-3.57-.44-4.27-.87-8.55-1.3-12.82-.02-.2-.07-.4-.12-.66"/>
        <path class="cls-3" d="M291.82,24.09c.68-1.5,1.58-2.52,2.94-3.05,3.48-1.35,6.82.49,7.52,4.25.52,2.79.85,5.61,1.23,8.43.13,1.01-.54,1.83-1.52,2-1.1.19-1.97-.33-2.17-1.43-.33-1.86-.56-3.74-.85-5.61-.13-.84-.24-1.69-.46-2.52-.34-1.32-1.27-2.15-2.36-2.23-1.35-.09-2.58.62-3.17,1.83-.61,1.24-.41,2.52-.22,3.81.26,1.73.52,3.47.76,5.21.21,1.57-.79,2.6-2.25,2.35-.82-.14-1.34-.71-1.48-1.69-.47-3.24-.93-6.49-1.39-9.73-.07-.5-.15-1-.23-1.51-.21-1.37.34-2.26,1.51-2.43,1.07-.15,1.85.54,2.06,1.85.01.09.03.18.07.48"/>
        <path class="cls-3" d="M221.33,28.08c-1.02-1.12-2.01-2.21-3-3.3-.55-.61-.79-1.3-.54-2.11.48-1.52,2.42-1.91,3.53-.67.82.91,1.56,1.89,2.34,2.84.13.16.26.31.45.53.83-1.01,1.63-1.99,2.44-2.96.22-.26.45-.54.72-.74.8-.6,1.93-.5,2.61.18.67.68.76,1.77.09,2.6-.84,1.04-1.76,2.03-2.64,3.03-.16.19-.33.38-.53.6,1.17,1.3,2.32,2.56,3.45,3.84.26.29.52.61.66.96.39.93.03,2.01-.76,2.51-.82.52-1.89.42-2.6-.33-.72-.76-1.35-1.58-2.02-2.38-.46-.55-.91-1.1-1.43-1.73-.44.51-.85.99-1.27,1.47-.74.86-1.45,1.75-2.22,2.57-.83.89-2.02.95-2.86.21-.83-.73-.89-2.01-.1-2.93,1.04-1.21,2.11-2.4,3.16-3.59.17-.19.33-.38.52-.61"/>
        <path class="cls-3" d="M215.22,28.58c0,1.71.05,3.42-.02,5.13-.06,1.53-1.42,2.37-2.86,1.86-.84-.3-1.32-1.04-1.33-2.15-.01-2.7,0-5.41,0-8.11,0-.65-.02-1.29,0-1.94.05-1.25.86-2.07,2.04-2.09,1.25-.03,2.11.73,2.15,2.03.05,1.75.01,3.51.01,5.27h0"/>
        <path class="cls-3" d="M213.12,20.03c-1.45,0-2.56-1.06-2.56-2.45,0-1.37,1.07-2.4,2.51-2.41,1.52-.01,2.65,1.02,2.64,2.43,0,1.37-1.13,2.42-2.59,2.43"/>
        <path class="cls-3" d="M273.81,12.3c-.01-.46,0-.77.51-.66,1.6.34,3.2.66,4.85,1.01-.03.23-.06.42-.1.71-1.77-.36-3.5-.7-5.26-1.06"/>
        <path class="cls-3" d="M254.98,13.9v.74h-5.36c-.07-.39-.2-.74.38-.74,1.64,0,3.27,0,4.98,0"/>
        <path class="cls-3" d="M254.86,23.42c-.18.47-.32.94.23,1.22.56.29.85-.09,1.1-.51,1.56,1.11,2.01,3.36,1.01,5.07-1.03,1.77-3.25,2.44-5.14,1.57-1.82-.84-2.7-2.96-2.03-4.91.67-1.93,2.69-2.98,4.83-2.44"/>
        <path class="cls-3" d="M274.95,23.44c-.22.49-.31,1.02.26,1.18.33.09.77-.19,1.3-.34,1.34.92,1.77,3.23.76,4.95-1.02,1.74-3.3,2.42-5.15,1.53-1.88-.9-2.71-3.08-1.94-5.05.73-1.86,2.76-2.85,4.77-2.27"/>
      </g>
    </g>
  </g>
</svg>