<?xml version="1.0" encoding="UTF-8"?>
<svg id="Layer_2" data-name="Layer 2" xmlns="http://www.w3.org/2000/svg" viewBox="0 0 350.74 313.43">
  <defs>
    <style>
      .cls-1 {
        letter-spacing: 0em;
      }

      .cls-2 {
        font-family: Poppins-ExtraLightItalic, Poppins;
        font-size: 17px;
        font-style: italic;
        font-weight: 200;
      }

      .cls-2, .cls-3 {
        fill: #fff;
      }

      .cls-3 {
        stroke-width: 0px;
      }

      .cls-4 {
        letter-spacing: 0em;
      }
    </style>
  </defs>
  <g id="Layer_1-2" data-name="Layer 1">
    <g>
      <path class="cls-3" d="M175.94,242.91c.07-.09.11-.21.11-.34,0-.18-.06-.31-.18-.42-.12-.1-.28-.16-.48-.16h-.9v1.95h.37v-.8h.4l.58.8h.42l-.61-.85c.13-.03.23-.1.3-.19ZM175.37,242.84h-.51v-.52h.51c.2,0,.3.09.3.27,0,.08-.03.14-.08.19-.05.05-.13.07-.22.07Z"/>
      <path class="cls-3" d="M175.37,241.15c-.51,0-.95.18-1.31.55s-.54.8-.54,1.31.18.95.54,1.32c.36.36.8.54,1.31.54s.95-.18,1.32-.55c.36-.36.55-.8.55-1.32s-.18-.95-.55-1.31c-.36-.37-.8-.55-1.31-.55ZM176.41,244.06c-.29.29-.63.44-1.04.44s-.76-.14-1.04-.43c-.28-.29-.42-.64-.42-1.05s.14-.76.43-1.05c.29-.29.63-.44,1.04-.44s.75.15,1.04.44c.28.29.43.64.43,1.05s-.14.76-.43,1.05Z"/>
      <g>
        <g>
          <path class="cls-3" d="M51.41,261.54c-.42.22-1.99.57-2.15,1.37-.15.81.32,1.22.63,1.63.31.41,1.64,1.69,2.35,2.62.52.68,1.03,1.34,1.66,1.91,1.29,1.16,2.76,1.83,4.53,1.75.61-.03,1.17-.2,1.62-.64.07-.06.22-.09.31-.06.87.26,1.76.32,2.67.25,1.47-.12,2.88-.49,4.23-1.07.36-.15.7-.2,1.09-.11.3.07.62.09.93.07.83-.07,1.4-.81,1.4-1.58s-.71-1.19-1.42-1.4c-.71-.2-2.3-.02-3.01.26-.71.28-1.21.46-1.83.63-.93.24-2.73.54-3.22-.03-.49-.57-.04-1.42.78-1.58.82-.16,3.51-.72,3.69-.71.46.03.86-.08,1.19-.41.41-.41.52-.9.37-1.45-.17-.61-.59-1-1.2-1.17-.47-.13-.93-.07-1.36.12-.91.4-2.21.72-2.84.68-.63-.04-.42-1.71-.28-2.12.14-.42.34-.53.81-.5.62.03,1.25.06,1.87.06.75,0,1.49-.07,2.24-.06.38,0,.77.05,1.12.19.59.24,1.12.25,1.62-.15.51-.41.71-.96.55-1.59-.15-.64-.58-1.04-1.22-1.16-1-.18-2.01-.29-3.04-.23-.79.05-1.59.04-2.39.05-.62,0-1.22-.1-1.8-.32-.43-.17-.87-.32-1.32-.44-.31-.08-.64-.15-.95-.14-1.13.05-1.81,1.24-1.23,2.18.23.37.31.75.39,1.16.27,1.38.12,2.77.12,4.16,0,.55-.04,1.07-.12,1.61,0,.03,0,.06,0,.09-.11.82-.22,1.63-.35,2.52-.27-.07-.47-.11-.67-.19-.95-.39-1.67-1.06-2.27-1.89-.36-.5-.75-.97-1.13-1.45-.09-.12-.19-.23-.23-.29.55-.42,1.1-.81,1.6-1.25.57-.51.8-1.19.75-1.96-.05-.67-.24-1.28-.63-1.83-1.05-1.49-2.95-2.23-4.66-2.56-1.71-.33-4.06-.62-4.94-.52-.88.11-1.62.35-1.87,1.2-.25.85-.3,2.86-.25,4.3.05,1.4.1,2.8.14,4.2,0,.18-.04.37-.05.52-.39-.03-.73-.09-1.07-.08-1.1.05-1.76,1.21-1.23,2.15.18.32.44.61.72.85.99.84,2.21.78,3.31.51,1.73-.43,2.28-1.96,2.27-3.41,0-.71-.09-1.43-.12-2.14-.02-.55-.18-3.59-.15-4.13.02-.55.1-.76.42-.83.32-.07.93-.05,1.42,0,.62.06,1.35.16,1.91.32.56.17.9.47,1.11,1,.21.52-.42.91-.84,1.12Z"/>
          <path class="cls-3" d="M71.31,254.26c0-.36-.14-.75-.29-1.09-.34-.75-1.91-3.38-2.29-3.97-1.1-1.73-2.16-3.49-3.29-5.2-.46-.69-.87-1.43-1.52-1.99-.61-.53-1.13-.81-1.81-.97-.68-.16-1.18-.02-1.6.09-.42.1-2.08.45-2.53,1.37-.45.92-.41,1.8-.36,2.36.07.66.12,1.28.2,1.93.07.58.58,4.64.65,5.15.09.66.16,1.14.32,2.11.16.97,1.04,1.91,2.11,1.64.91-.23,1.34-1.06,1.28-1.82-.03-.33-.12-1.62-.14-1.88.74-.09,1.37-.27,1.96-.45.74-.22,1.12-.33,1.73-.58.07-.02,1.79,2.63,2.21,3.61.32.75.93,1.44,2,1.24.81-.15,1.35-.83,1.35-1.56ZM62.55,249.24c-.48.05-.72.05-.97.04-.15-1.28-.3-2.55-.44-3.75-.1-.74.19-.82.65-.93.87,1.32,1.75,2.66,2.65,4.01-.71.34-1.4.59-1.88.65Z"/>
          <path class="cls-3" d="M29.45,268.07c.08-.03.17-.06.21-.08.24.22,1.07.95,2.29,1.46,1.22.51,2.52.59,3.59.59,1.08,0,2.98-.52,3.64-.98.66-.46,1.44-1.35,1.39-2.41-.03-.61-.19-1.24-.4-1.81-.4-1.09-1.05-2.04-1.93-2.8.02-.05.02-.08.04-.1.93-1.84.37-3.63-1.5-4.5-1.62-.76-3.34-1.06-5.12-.77-.18.03-.29-.01-.41-.15-.27-.32-.64-.48-1.07-.49-.75-.02-1.38.5-1.49,1.27-.11.76-.15,1.53-.25,2.28-.23,1.69-.49,3.37-.72,5.06-.09.64-.16,1.28-.23,1.92-.12,1.1.93,1.91,1.97,1.53ZM30.81,263.21c.12-.84.27-1.9.4-2.43.13-.53.28-1.02,1.21-1.23.29-.07,1.22,0,1.6.02.39.02.9.2,1.02.46.12.26.06.54-.04.82-.1.28-.27.59-.48.95-.21.35-.5,1.24.38,1.95.87.71,2.17,1.13,2.35,1.79.18.66-.08,1.26-.64,1.5-.61.25-1.77.22-2.42.01-.94-.3-1.85-.68-2.4-1.06-.55-.38-1.1-.96-1.06-1.64.02-.31.03-.82.08-1.13Z"/>
          <path class="cls-3" d="M21.03,236.48c-.18-.05-.37-.1-.55-.08-1.07.11-1.68,1.03-1.66,1.94.02.95.12,1.89.17,2.83.04.77.04,1.54.07,2.32.03.81.16,5.95.18,6.97.02,1.02.04,1.89.46,2.42.39.49.89.69,1.48.63.65-.06,1.14-.42,1.37-1.03.16-.43.26-.89.3-1.34.05-.51.19-1.25.24-1.7.06-.46.48-.87,1.77-1.47,1.52-.7,2.64-1.74,3.27-2.34.99-.99,1.14-1.89,1.14-3s-.62-1.85-1.21-2.61c-.83-1.06-3.17-2.05-3.98-2.45s-2.13-.82-3.05-1.09ZM25.34,242.2c.13.29.26.59.38.89.02.05.02.14-.01.17-.29.27-.59.54-.9.78-.26.2-.55.38-.84.54-.44.25-.9.47-1.37.72-.05-.14-.08-.19-.09-.25-.04-1.23-.08-2.46-.13-3.69,0-.17-.04-.35-.06-.49.74.22,1.48.43,2.22.67.35.11.65.3.8.65Z"/>
          <path class="cls-3" d="M30.07,252.73c.12-.41.24-.68.32-.83.15-.25.17-.37.37-.58.84,0,1.62.02,2.39.02.26,0,.52-.05.77-.04.08,0,.23.08.24.15.1.59.19,1.19.25,1.79.09.92.73,1.6,1.61,1.61,1.08.02,1.73-.69,1.77-1.79.02-.55-.11-1.1-.17-1.65-.08-.64-.16-1.27-.24-1.91-.05-.41-.67-4.89-.79-5.78-.13-.96-.87-2.79-1.55-3.13-.68-.34-1.18-.4-1.88-.31-.71.09-.94.25-1.35.64-.41.4-.93,1.71-1.42,3.02-.49,1.31-2.1,4.85-2.44,5.47-.43.79-.99,1.51-1.46,2.28-.52.85-.53,1.67.24,2.34.45.4,1,.46,1.58.47.95,0,1.64-1.35,1.76-1.76ZM33.33,245.03c.13.95.26,1.89.39,2.86-.49.03-1,.06-1.59.09.42-1.03.82-1.99,1.21-2.95Z"/>
          <path class="cls-3" d="M50.61,248.22c.31.18.63.17.91-.11.29-.28.61-.53.9-.8.21-.2.39-.41.62-.66.03.35.06.65.07.95.01.3.42,5.58.48,6.12.1.87.74,1.51,1.61,1.56,1.93,0,2.07-1.3,2.07-2.1-.02-.49-.06-.97-.12-1.46-.15-1.15-.23-2.14-.34-3.3-.11-1.27-.29-2.72-.31-3.99-.01-.67-.15-1.29-.45-1.88-.22-.44-.62-.75-1.14-.75-.4,0-.91-.06-1.19.05s-.37.21-.45.29c-.24.24-.47.49-.67.77-.47.64-.91,1.31-1.39,1.95-.3.4-.57.16-.79,0-.22-.16-1.74-1.98-1.98-2.25-.25-.26-.41-.35-.65-.35-.44-.01-.88.06-1.32.09-.36.05-.64.2-.64.79,0,1.27-.07,2.54-.12,3.8-.04.97-.1,1.93-.17,2.9-.02.29.06.54.34.58.52.06,2.24-.02,2.57-.05.37-.03.51-.31.55-.59.04-.28.12-1.94.1-2.58.12.08.21.15.31.21.4.27.78.56,1.2.8Z"/>
          <path class="cls-3" d="M44.67,254.19c.8-.05,2.55-.14,3.22-.32.67-.18.92-.79.94-1.14.01-.46-.21-.94-.67-1.26-.46-.32-1.93-.47-2.54-.46-.62,0-1.83.03-2.74.03-.24,0-.39-.14-.51-.34s-.12-.54-.14-.81c-.05-.69-.1-1.37-.12-2.06-.03-.86-.03-1.73-.06-2.59-.03-.85-.04-1.7-.13-2.54-.11-.98-1-1.57-1.76-1.53-.76.04-1.13.08-1.68.12,0,.18.07.92.12,1.68.03.54.15,2.67.17,3.09.04,1.23.15,4.18.2,4.6.05.42.1.84.19,1.26.12.59.31,1.17.77,1.59.58.53,1.32.72,2.06.75.89.04,1.89-.04,2.7-.09Z"/>
          <path class="cls-3" d="M17.63,256.79c-.19.76-.44,2.13-.62,3.03-.17.89-.87,4.34-1.04,5.47-.21,1.34.31,2.29,1.57,2.8.55.22.86.26,1.75.47.88.2,3.31.29,4.4.21,1.08-.08,1.5-.48,1.63-1.11.12-.59-.13-1-.67-1.22-.21-.08-2.81-.47-3.9-.62-.6-.08-1.19-.21-1.83-.32.23-1.2,1.16-5.69,1.4-6.77.24-1.08.36-1.7.43-2.34.09-.74-.26-1.16-.91-1.4-.63-.23-1.38-.12-1.65.33-.27.45-.36.72-.55,1.48Z"/>
          <path class="cls-3" d="M25.53,264.66c.62-1.42.54-3.69.44-4.05-.18-.66-.69-1.05-1.27-1.06-.66-.01-1.17.29-1.35.98-.33,1.24-.74,3.37-.82,3.77-.08.4.12.77.84.88.72.11.81.11,1.22.12.45.01.74-.24.94-.64Z"/>
          <path class="cls-3" d="M26.78,257.25c0-.93-.56-1.59-1.38-1.65-.86-.06-1.48.56-1.58,1.59-.09.91.43,1.62,1.26,1.73.96.12,1.7-.61,1.7-1.66Z"/>
        </g>
        <path class="cls-3" d="M273.16,240.11c-8.3-.04-15,6.7-15.04,14.87-.03,8.37,6.65,15.12,14.91,15.13,8.31,0,15.06-6.66,15.11-14.84.06-8.33-6.67-15.17-14.99-15.16ZM282.45,252.7c-.59,1.41-1.18,2.81-1.78,4.21-.52,1.23-1.37,2.12-2.71,2.46-.26.07-.53.08-.71.11-1.56-.06-2.59-.82-3.31-2.05-.12-.2-.22-.42-.37-.6-.41-.49-.94-.5-1.35-.01-.23.27-.39.6-.6.89-.83,1.19-1.95,1.88-3.43,1.69-1.61-.21-2.63-1.22-3.15-2.69-.5-1.41-.91-2.86-1.33-4.3-.21-.7.22-1.42.9-1.63.7-.21,1.43.15,1.66.88.41,1.27.78,2.55,1.19,3.82.1.32.25.64.44.89.4.51.96.51,1.36,0,.21-.26.36-.56.56-.84.79-1.15,1.84-1.83,3.28-1.75,1.39.09,2.34.87,3.03,2.02.11.19.21.4.35.57.41.52.97.54,1.39.03.16-.2.28-.43.38-.67.58-1.36,1.15-2.73,1.73-4.09.34-.79,1.07-1.13,1.8-.82.72.3,1,1.08.67,1.86Z"/>
        <polygon class="cls-3" points="295.87 253.77 298.04 247.27 300.17 253.77 301.93 253.77 305.22 243.98 303.03 243.98 301.03 250.54 298.82 243.95 297.26 243.95 295.06 250.54 293.06 243.98 290.83 243.98 294.1 253.77 295.87 253.77"/>
        <path class="cls-3" d="M311.35,249.86v3.85h1.96v-4.26c0-.9-.22-1.6-.67-2.11-.45-.51-1.07-.76-1.86-.76-.92,0-1.69.34-2.32,1.03v-3.65h-1.96v9.74h1.96v-4.42c.17-.26.4-.47.69-.65.29-.17.59-.26.88-.26.39,0,.71.12.95.36.25.24.37.61.37,1.11Z"/>
        <path class="cls-3" d="M322.39,250.24c0-1.02-.36-1.88-1.08-2.59-.71-.71-1.64-1.06-2.77-1.06s-2.05.35-2.77,1.06c-.72.7-1.09,1.56-1.09,2.59s.36,1.91,1.09,2.62c.72.7,1.65,1.04,2.77,1.04s2.05-.35,2.77-1.04c.72-.71,1.08-1.58,1.08-2.62ZM319.91,251.63c-.36.37-.82.56-1.38.56s-1.01-.19-1.38-.56c-.36-.37-.54-.84-.54-1.39s.18-1.02.54-1.38c.36-.37.82-.56,1.38-.56s1.02.18,1.38.56c.36.36.54.82.54,1.38s-.18,1.01-.54,1.39Z"/>
        <path class="cls-3" d="M325.84,251.46v-7.49h-1.96v8c0,.66.16,1.14.49,1.45.33.31.78.47,1.36.47.49,0,.91-.08,1.24-.25v-1.61c-.14.08-.31.13-.5.13-.42,0-.62-.23-.62-.7Z"/>
        <path class="cls-3" d="M331.5,246.59c-1.08,0-1.95.35-2.62,1.06-.67.7-1,1.56-1,2.59,0,1.1.37,1.99,1.11,2.66.74.67,1.66,1,2.74,1,1.14,0,2.02-.24,2.64-.71v-1.57c-.71.41-1.46.61-2.23.61-.62,0-1.14-.12-1.55-.38-.41-.25-.67-.61-.77-1.07h4.98v-.51c0-1.02-.3-1.89-.9-2.6-.6-.71-1.41-1.07-2.41-1.07ZM329.83,249.53c.05-.42.21-.75.5-1.01.29-.26.65-.38,1.08-.38s.77.13,1.04.4c.26.27.4.6.42.99h-3.05Z"/>
        <path class="cls-3" d="M298.43,263.68c-.45.43-1.11.64-1.96.64s-1.64-.29-2.24-.86c-.6-.58-.91-1.35-.91-2.31s.31-1.75.93-2.34c.62-.59,1.43-.89,2.42-.89s1.88.28,2.78.84v-1.98c-.83-.49-1.8-.74-2.92-.74-1.53,0-2.79.47-3.77,1.42-.99.95-1.49,2.16-1.49,3.65s.5,2.68,1.49,3.65c.98.95,2.22,1.42,3.7,1.42.81,0,1.57-.15,2.3-.44.7-.29,1.25-.65,1.67-1.1v-4.3h-2v3.35Z"/>
        <path class="cls-3" d="M305.75,258.85c-1.13,0-2.05.35-2.77,1.06-.72.7-1.09,1.56-1.09,2.59s.36,1.91,1.09,2.62c.72.7,1.65,1.04,2.77,1.04s2.05-.35,2.77-1.04c.72-.71,1.08-1.58,1.08-2.62s-.36-1.88-1.08-2.59c-.71-.71-1.64-1.06-2.77-1.06ZM307.12,263.89c-.36.37-.82.56-1.38.56s-1.01-.19-1.38-.56c-.36-.37-.54-.83-.54-1.39s.18-1.02.54-1.38c.36-.37.82-.56,1.38-.56s1.02.18,1.38.56c.36.36.54.82.54,1.38s-.18,1.01-.54,1.39Z"/>
        <path class="cls-3" d="M314.48,258.85c-1.13,0-2.06.35-2.77,1.06-.72.7-1.08,1.56-1.08,2.59s.36,1.91,1.08,2.62c.72.7,1.65,1.04,2.77,1.04s2.05-.35,2.77-1.04c.72-.71,1.08-1.58,1.08-2.62s-.36-1.88-1.08-2.59c-.71-.71-1.64-1.06-2.77-1.06ZM315.86,263.89c-.36.37-.82.56-1.38.56s-1.02-.19-1.38-.56c-.36-.37-.54-.83-.54-1.39s.18-1.02.54-1.38c.36-.37.82-.56,1.38-.56s1.02.18,1.38.56c.36.36.54.82.54,1.38s-.18,1.01-.54,1.39Z"/>
        <path class="cls-3" d="M324.92,259.88c-.55-.69-1.31-1.03-2.28-1.03s-1.73.35-2.35,1.06c-.61.7-.92,1.56-.92,2.59s.31,1.91.92,2.62c.63.69,1.41,1.04,2.35,1.04,1,0,1.76-.34,2.28-1.03v.85h1.96v-9.74h-1.96v3.65ZM324.92,263.4c-.17.31-.4.56-.71.75-.31.19-.65.29-1.02.29-.56,0-1.01-.19-1.35-.56-.35-.38-.53-.84-.53-1.39s.18-1,.53-1.38c.34-.37.79-.56,1.35-.56.37,0,.71.1,1.02.29.31.19.54.44.71.74v1.81Z"/>
        <path class="cls-3" d="M332.24,261.79l-.74-.15s-.14-.05-.29-.09c-.15-.04-.25-.07-.31-.09-.09-.06-.16-.1-.2-.12s-.08-.07-.12-.13-.06-.13-.06-.2c0-.37.37-.56,1.11-.56.85,0,1.69.24,2.52.72v-1.67c-.68-.43-1.54-.64-2.6-.64-.96,0-1.7.19-2.25.57-.54.38-.81.9-.81,1.56,0,.59.17,1.05.51,1.36.34.31.92.58,1.75.8.05.02.13.04.26.08.13.03.23.06.3.08l.52.12c.12.03.24.07.36.12.23.1.35.25.35.43,0,.39-.4.58-1.2.58-.53,0-1.05-.08-1.56-.23-.51-.15-.94-.34-1.27-.56v1.74c.71.44,1.69.65,2.92.65.94,0,1.69-.2,2.25-.6.57-.4.85-.92.85-1.57,0-.59-.19-1.06-.56-1.41-.37-.35-.94-.61-1.71-.79Z"/>
        <path class="cls-3" d="M129.69,261.46c.08.17.25.29.44.29h3.38c.34,0,.57-.35.44-.66l-1.43-3.37c-.08-.19-.03-.41.13-.55,1.26-1.06,1.91-2.46,1.95-4.21.14-2.53-1.17-4.03-3.91-4.5-.03,0-.06,0-.09,0h-8.71c-.25,0-.45.19-.48.43l-1.24,12.3c-.03.28.19.53.48.53h3.01c.25,0,.45-.19.47-.44l.32-3.27c.02-.25.23-.43.48-.43h2.76c.19,0,.36.11.44.29l1.55,3.6ZM125.45,254.07c-.28,0-.5-.24-.48-.52l.13-1.35c.02-.25.23-.43.48-.43h4.44s.06,0,.09,0c.76.13,1.08.54.97,1.23-.11.7-.54,1.06-1.28,1.07h-4.35Z"/>
        <path class="cls-3" d="M138.45,261.73h8.53c.25,0,.45-.19.48-.43l1.24-12.31c.03-.28-.19-.53-.48-.53h-2.69c-.25,0-.45.19-.47.44l-.86,8.63c-.02.24-.23.43-.48.43h-4.45c-.79.06-1.1-.34-.95-1.2l.82-7.75c.03-.28-.19-.53-.48-.53h-2.55c-.25,0-.45.19-.48.43l-.87,8.61c-.15,2.87,1.08,4.27,3.67,4.22Z"/>
        <path class="cls-3" d="M157.76,261.22c-.03.28.19.53.48.53h2.57c.25,0,.45-.19.48-.43l.87-8.65c.15-2.88-1.08-4.29-3.68-4.23h-8.57c-.25,0-.45.19-.48.43l-1.24,12.36c-.03.28.19.53.48.53h2.7c.25,0,.45-.19.48-.43l.86-8.67c.02-.24.23-.43.48-.43h4.47c.8-.06,1.11.34.96,1.2l-.83,7.79Z"/>
        <path class="cls-3" d="M176.21,251.91c-.03-2.08-1.31-3.22-3.84-3.43-.02,0-.03,0-.05,0h-8.72c-.25,0-.45.19-.48.43l-1.19,12.28c-.03.28.19.52.48.52h8.5c3.12.02,4.86-1.13,5.22-3.46.2-1.39-.05-2.41-.75-3.05-.19-.17-.22-.46-.05-.65.55-.66.84-1.55.88-2.64ZM170.8,258.52h-4.05c-.28,0-.5-.25-.47-.53l.08-.78c.02-.25.23-.43.48-.43l4.06.04s.04,0,.05,0c.81.09,1.17.38,1.08.89-.09.51-.5.78-1.23.81ZM171.26,253.56h-4.05c-.28,0-.5-.25-.48-.53l.08-.79c.02-.24.23-.43.48-.43h4.11s.06,0,.08,0c.76.12,1.09.44,1,.94-.09.51-.5.78-1.23.8Z"/>
        <path class="cls-3" d="M186.36,261.69h2.56c.25,0,.45-.19.48-.43l.87-8.64c.16-2.63-1.06-4.03-3.64-4.21-.01,0-.03,0-.04,0h-4.47c-2.85.11-4.49,1.52-4.91,4.22,0,.01,0,.02,0,.03l-.85,8.48c-.03.28.19.53.48.53h2.69c.25,0,.45-.19.48-.43l.31-3.18c.02-.25.23-.43.48-.43l4.93.02c.28,0,.5.25.47.53l-.3,2.98c-.03.28.19.53.48.53ZM186.15,254.34h-4.92c-.28,0-.51-.25-.48-.53l.09-.88c-.01-.91.45-1.38,1.4-1.4h3.51s.06,0,.09,0c.75.14,1.03.7.84,1.71l-.08.68c-.03.24-.23.43-.48.43Z"/>
        <path class="cls-3" d="M200.35,248.44h-8.57c-.25,0-.45.19-.48.43l-1.24,12.36c-.03.28.19.53.48.53h2.7c.25,0,.45-.19.48-.43l.86-8.67c.02-.24.23-.43.48-.43h4.47c.8-.06,1.11.34.96,1.2l-.83,7.79c-.03.28.19.53.48.53h2.57c.25,0,.45-.19.48-.43l.87-8.65c.15-2.88-1.08-4.29-3.68-4.23Z"/>
        <path class="cls-3" d="M217.84,248.39h-4c-.14,0-.26.06-.35.16l-3.81,4.19s-.01.01-.02.02c-.32.3-.84.05-.79-.38l.34-3.45c.03-.28-.19-.53-.48-.53h-3.38c-.25,0-.45.19-.48.43l-1.23,12.33c-.03.28.19.52.48.52h3.38c.25,0,.45-.19.48-.43l.62-6.18c-.08.76.12,1.46.59,2.07l2.97,4.33c.09.13.24.21.39.21h4.15c.38,0,.61-.42.4-.74l-3.3-5.09c-.34-.49-.31-.97.08-1.44l4.32-5.23c.26-.31.04-.78-.37-.78Z"/>
        <path class="cls-3" d="M144.43,248.75c.02-.16-.1-.29-.26-.29h-4.09c-.13,0-.25.1-.26.23l-.21,1.94c-.02.16.11.29.26.29h4.09c.13,0,.25-.1.26-.23l.21-1.94Z"/>
        <path class="cls-3" d="M143.94,253.84l.21-1.92c.02-.16-.11-.29-.26-.29h-4.09c-.13,0-.25.1-.26.23l-.21,1.92c-.02.16.1.29.26.29h4.09c.13,0,.25-.1.26-.23Z"/>
        <path class="cls-3" d="M139.44,254.77c-.13,0-.25.1-.26.23l-.2,1.88c-.02.17.12.32.29.32h4.06c.13,0,.25-.1.26-.23l.21-1.91c.02-.16-.1-.29-.26-.29h-4.09Z"/>
      </g>
      <g>
        <g>
          <path class="cls-3" d="M96.22,14.54h2.22c.25,0,.37-.12.39-.35l.68-6.06,1.77,6.1c0,.06.04.12.11.19.07.07.14.11.2.11h2.07c.06,0,.13-.04.19-.11.06-.07.1-.14.11-.19l1.77-6.11.68,6.07c.01.23.14.35.38.35h2.22c.23,0,.35-.1.35-.31v-.04c-.18-1.84-.37-3.67-.56-5.49-.19-1.82-.38-3.65-.56-5.49-.01-.1-.05-.18-.13-.25-.08-.07-.16-.1-.26-.1h-2.69c-.19,0-.33.1-.4.3l-2.15,7.14-2.14-7.14c-.06-.2-.18-.3-.38-.3h-2.72c-.11,0-.2.04-.27.1s-.1.15-.11.24l-1.12,10.98c0,.23.11.35.34.35Z"/>
          <path class="cls-3" d="M111.86,10.76c.46.38.99.66,1.59.83.6.17,1.23.26,1.89.26s1.29-.08,1.89-.25c.6-.17,1.13-.44,1.58-.82.46-.38.82-.88,1.09-1.51.27-.62.41-1.39.41-2.31V.35c0-.09-.04-.17-.1-.24-.07-.07-.16-.11-.28-.11h-2.29c-.11,0-.2.03-.26.1-.07.07-.1.15-.1.24v6.67c0,.35-.05.65-.15.92-.1.27-.24.49-.42.67-.18.18-.38.32-.61.41-.23.09-.48.14-.74.14s-.49-.04-.73-.12c-.23-.08-.44-.2-.61-.37-.18-.17-.32-.39-.43-.66-.11-.27-.16-.6-.16-.99V.35c0-.1-.04-.18-.13-.25-.09-.07-.17-.1-.25-.1h-2.35c-.09,0-.16.04-.22.11-.06.07-.09.15-.09.24v6.62c0,.9.14,1.66.41,2.28.27.62.63,1.12,1.09,1.51Z"/>
          <path class="cls-3" d="M122.25,13.68h7.02c.11,0,.2-.05.26-.12.06-.07.09-.15.09-.24v-2.07c0-.11-.03-.2-.1-.26-.07-.06-.15-.09-.24-.09h-4.32V2.35c0-.1-.04-.19-.12-.25-.07-.06-.15-.1-.24-.1h-2.33c-.11,0-.2.03-.26.1-.06.07-.09.15-.09.24v10.98c0,.23.12.35.35.35Z"/>
          <path class="cls-3" d="M128.33,4.26c-.07.06-.11.15-.11.25v1.95c0,.13.04.23.11.3.07.07.16.1.26.1h2.7v8.6c0,.1.04.19.12.26.08.07.16.11.25.11h2.3c.11,0,.2-.04.27-.11.07-.08.1-.16.1-.26V6.87h2.71c.12,0,.21-.04.28-.13.07-.09.1-.18.1-.27v-1.95c-.01-.11-.05-.2-.13-.26-.07-.06-.16-.09-.25-.09h-8.46c-.1,0-.19.03-.26.09Z"/>
          <path class="cls-3" d="M139.24.74c-.06.07-.09.15-.09.24v10.98c0,.23.11.35.34.35h2.31c.26,0,.38-.12.38-.35V.99c0-.1-.04-.19-.13-.25-.09-.06-.17-.1-.25-.1h-2.31c-.11,0-.2.04-.26.1Z"/>
          <path class="cls-3" d="M146.95,13.68c.24,0,.36-.11.36-.34v-3.74h2.38c.53,0,1.02-.12,1.46-.33.44-.22.82-.5,1.13-.85.31-.35.56-.75.73-1.2.17-.45.26-.91.26-1.38,0-.32-.04-.64-.12-.95-.08-.31-.19-.61-.34-.89-.15-.28-.33-.55-.55-.79-.21-.24-.46-.45-.72-.63-.27-.18-.56-.31-.88-.41-.32-.1-.66-.15-1.02-.15h-5.02c-.11,0-.2.03-.26.1-.06.07-.09.15-.09.26v10.97c0,.12.03.2.09.26.06.06.15.08.25.08h2.33ZM147.31,4.5h1.67c.19,0,.36.04.51.12.15.08.28.18.38.3.1.12.19.26.24.42.06.16.08.31.08.47,0,.17-.03.33-.08.49-.05.16-.13.3-.24.42-.1.12-.23.22-.38.3s-.32.11-.51.11h-1.67v-2.62Z"/>
          <path class="cls-3" d="M157.03.18c-.07-.06-.15-.1-.24-.1h-2.32c-.11,0-.2.04-.26.1-.06.07-.09.15-.09.24v10.98c0,.23.11.35.35.35h7.02c.11,0,.2-.05.26-.12.06-.07.09-.15.09-.24v-2.07c0-.11-.03-.2-.1-.26-.07-.06-.15-.09-.24-.09h-4.32V.43c0-.1-.04-.19-.12-.25Z"/>
          <path class="cls-3" d="M170.19,2.01h-3.03s-.06.02-.08.02c-.02,0-.05.01-.07.02-.02.01-.04.03-.06.06-.02.03-.05.07-.08.14l-1.9,4.06-1.91-4.06c-.04-.06-.06-.11-.09-.14-.02-.03-.04-.05-.06-.06-.02-.01-.04-.02-.06-.02-.02,0-.05,0-.09-.02h-3.03s-.06.01-.09.04c-.02.02-.03.05-.03.08,0,.06.03.13.1.2l3.72,6.58v4.41c0,.11.03.21.09.27.06.06.14.1.24.1h2.35c.24,0,.36-.12.36-.37v-4.39l3.72-6.59c.07-.07.11-.14.11-.2,0-.03-.01-.06-.04-.08-.02-.02-.05-.04-.09-.04Z"/>
          <path class="cls-3" d="M153.8,14.59s-.04.07-.04.12c0,.09.05.18.14.27l5.19,9.19v6.16c0,.16.04.29.12.38.08.09.19.14.34.14h3.28c.34,0,.5-.17.5-.52v-6.13l5.2-9.21c.1-.1.15-.19.15-.27,0-.04-.02-.08-.05-.12s-.08-.05-.13-.05h-4.23s-.08.02-.12.03c-.03,0-.06.01-.09.03-.03.02-.06.05-.09.09-.03.04-.07.1-.11.19l-2.65,5.67-2.67-5.67c-.05-.09-.09-.15-.12-.19-.03-.04-.06-.07-.09-.09-.03-.02-.06-.03-.09-.03-.03,0-.07-.01-.12-.03h-4.23c-.05,0-.09.02-.12.05Z"/>
          <path class="cls-3" d="M96.12,19.82h3.76v11.97c0,.15.05.27.16.37.11.1.22.15.35.15h3.21c.15,0,.28-.05.37-.16.09-.11.14-.22.14-.36v-11.97h3.77c.17,0,.3-.06.39-.18.09-.12.14-.25.14-.38v-2.72c-.01-.16-.07-.28-.17-.36-.1-.08-.22-.12-.35-.12h-11.77c-.15,0-.27.04-.37.13-.1.09-.15.2-.15.35v2.72c0,.18.05.32.15.41.1.09.22.14.37.14Z"/>
          <path class="cls-3" d="M110.76,22.47c.26.44.58.85.94,1.21.36.36.77.68,1.21.94.45.26.92.46,1.43.61.51.14,1.04.21,1.6.21s1.08-.07,1.6-.21c.51-.14.99-.34,1.44-.61.45-.26.85-.57,1.22-.94.37-.36.68-.77.94-1.21.26-.44.46-.92.6-1.43.14-.51.22-1.04.22-1.6s-.07-1.09-.22-1.6c-.14-.51-.35-.99-.6-1.44-.26-.45-.57-.85-.94-1.22-.37-.37-.77-.68-1.22-.94-.45-.26-.93-.46-1.44-.61-.51-.14-1.05-.22-1.6-.22s-1.09.07-1.6.22c-.51.14-.99.35-1.43.61-.44.26-.85.57-1.21.94-.36.37-.68.77-.94,1.22-.26.45-.46.93-.6,1.44-.14.51-.21,1.04-.21,1.6s.07,1.09.21,1.6c.14.51.34.99.6,1.43ZM113.2,18.22c.15-.38.35-.71.62-.99.26-.28.58-.51.94-.67.36-.16.76-.24,1.19-.24s.83.08,1.2.24c.36.16.68.39.94.67.26.28.47.61.62.99.15.38.22.79.22,1.21s-.07.84-.22,1.22c-.15.38-.35.71-.62.99-.26.28-.58.5-.94.66-.36.16-.76.24-1.2.24s-.83-.08-1.19-.24c-.36-.16-.67-.38-.94-.66-.26-.28-.47-.61-.62-.99-.15-.38-.22-.78-.22-1.22s.07-.83.22-1.21Z"/>
          <path class="cls-3" d="M132.17,20.43c-.53-.3-1.1-.53-1.71-.69-.61-.16-1.24-.24-1.9-.24h-4.63c-.14,0-.25.04-.32.12-.07.08-.11.19-.11.32v13.12c0,.16.04.27.13.32s.19.07.3.07h4.63c.66,0,1.29-.08,1.91-.24.61-.16,1.19-.39,1.71-.68.53-.29,1.01-.65,1.45-1.07.43-.42.81-.89,1.12-1.4.31-.52.55-1.07.72-1.67.17-.6.25-1.23.25-1.89s-.09-1.29-.26-1.89c-.17-.6-.41-1.16-.72-1.68-.31-.52-.68-.99-1.12-1.41-.44-.42-.92-.78-1.45-1.08ZM131.85,27.85c-.17.42-.41.78-.71,1.09-.3.31-.66.56-1.07.75-.41.19-.85.31-1.31.34-.14.01-.28.02-.41.03-.14,0-.28.01-.42.01h-.79v-7.22h1.24c.51,0,1,.09,1.45.27.45.18.85.43,1.19.75s.6.7.8,1.15c.2.44.29.93.29,1.45,0,.49-.08.95-.26,1.37Z"/>
          <path class="cls-3" d="M133.68,18.41c-.02.13.01.25.09.38l1.82,3.03c.16.26.39.36.69.3.43-.08.85-.16,1.28-.23.42-.07.85-.15,1.28-.23l3.27,5.44c-.27.34-.54.68-.81,1.01-.27.34-.53.68-.8,1.02-.11.13-.16.26-.17.38,0,.12.04.26.13.42l1.77,2.94c.11.18.23.29.36.31.13.02.25-.03.35-.17l10.65-13.72.43-.61c.03-.07.06-.17.08-.3.02-.12,0-.25-.07-.36l-1.58-2.62c-.03-.05-.08-.11-.14-.15-.06-.05-.13-.09-.2-.12-.07-.03-.15-.05-.22-.06-.07,0-.13,0-.17.01l-17.76,3.09c-.17.03-.26.1-.28.23ZM144.18,20.55c.48-.11.96-.22,1.45-.33.49-.12.97-.23,1.46-.34.48-.11.94-.2,1.36-.28l-3.74,4.38-1.89-3.15c.43-.08.88-.17,1.36-.28Z"/>
        </g>
        <g>
          <path class="cls-3" d="M214.1,15.96c-.15-.18-.3-.39-.47-.62-.17-.24-.36-.51-.57-.82-.21-.32-.46-.68-.73-1.09-.27-.41-.51-.77-.73-1.1-.22-.32-.41-.6-.57-.83-.17-.24-.32-.45-.47-.64-.15-.19-.29-.35-.42-.49-.17-.18-.37-.33-.59-.48-.08-.05-.17-.1-.25-.15.11-.03.21-.06.32-.1.27-.1.53-.24.8-.41.27-.17.51-.37.73-.6.22-.23.41-.49.57-.78.17-.29.29-.61.37-.94.08-.33.12-.68.12-1.05,0-.27-.04-.57-.12-.89-.08-.32-.2-.66-.36-1.02-.17-.38-.4-.73-.69-1.06-.29-.33-.65-.63-1.07-.92-.42-.29-.92-.51-1.48-.65-.56-.14-1.19-.21-1.88-.21h-7.36v.46l2.64.39c.04.29.07.63.1,1.02.04.45.07.96.1,1.52.03.57.05,1.11.07,1.61.01.49.02.96.02,1.42v3.44c0,.32,0,.72-.02,1.21-.02.49-.04,1.08-.07,1.76-.03.67-.07,1.27-.12,1.8-.04.46-.08.86-.13,1.21l-2.59.39v.46h8.49v-.46l-2.74-.39c-.08-.65-.14-1.24-.19-1.78-.04-.57-.07-1.07-.07-1.5v-2.06c0-.25,0-.48.02-.69,0-.17.02-.33.03-.49.09-.01.19-.03.31-.03.17-.01.37-.02.6-.02.24,0,.46.01.64.04.17.03.32.06.43.11h0c.12.05.24.12.37.22.14.1.28.23.43.38.1.1.22.24.36.42.14.18.3.4.47.65h0c.18.25.38.54.6.87.22.33.47.69.73,1.08l.69,1.02.47.69c.13.17.25.34.38.49.13.15.26.3.38.42.33.35.72.61,1.17.78.44.17.94.26,1.5.26h10.97c.68,0,1.3-.06,1.84-.18.55-.12,1.04-.3,1.45-.55.41-.25.77-.52,1.05-.81.29-.3.51-.62.67-.97.16-.34.28-.67.36-1.01.08-.33.12-.67.12-.99,0-.38-.05-.76-.16-1.12-.1-.36-.26-.71-.46-1.04-.21-.34-.46-.65-.77-.92-.3-.27-.65-.52-1.05-.73-.4-.21-.83-.38-1.31-.49-.15-.04-.31-.07-.47-.1.15-.05.3-.1.44-.16.47-.2.89-.46,1.28-.8.39-.35.69-.76.88-1.24.2-.47.29-1,.29-1.59,0-.33-.04-.65-.11-.97-.07-.31-.18-.62-.33-.92-.15-.31-.35-.58-.6-.84-.25-.25-.56-.47-.91-.67-.36-.2-.78-.35-1.26-.45-.48-.1-1.01-.15-1.6-.15h-8.3v.46l2.87.39c.03.24.07.51.1.81.03.36.06.78.09,1.24.03.46.05.94.06,1.41.01.47.02.96.02,1.48v3.59c0,.42,0,.92-.03,1.48-.02.57-.04,1.23-.08,1.98-.04.74-.08,1.37-.13,1.88-.04.44-.09.81-.14,1.09l-2.62.39h-.08s0,0,0,0h-.18c-.27,0-.54-.07-.82-.21-.28-.15-.57-.37-.87-.67-.14-.14-.28-.3-.42-.49ZM208.53,2.35c.24.14.47.29.68.47h0c.21.18.41.38.58.6.17.22.32.47.44.73.12.26.22.54.28.83.06.3.09.61.09.94,0,.42-.06.81-.17,1.17-.12.36-.29.68-.52.98h0c-.13.18-.28.33-.43.47.09-.12.18-.24.25-.37.33-.57.5-1.24.5-2.02,0-.35-.04-.7-.12-1.05-.08-.35-.2-.7-.36-1.06-.16-.36-.37-.69-.63-.99-.26-.3-.56-.57-.91-.81-.08-.06-.16-.11-.25-.16.19.08.37.16.55.26ZM203.23,17h-.42V1.92h.42v15.08ZM207.05,9.28c-.36.08-.77.12-1.22.12-.27,0-.51,0-.7-.02-.13,0-.25-.02-.36-.03-.02-.24-.03-.47-.04-.71-.01-.29-.02-.6-.02-.93v-1.83c0-.27,0-.58.02-.9.01-.33.03-.69.06-1.1.03-.41.06-.76.09-1.06.02-.25.05-.47.07-.65.08-.02.18-.03.28-.04.16-.01.34-.02.55-.02s.42.02.63.07c.21.05.43.12.65.21h0c.22.09.44.21.63.34.2.13.39.29.57.46h0c.18.17.34.36.49.57.15.21.28.44.39.69h0c.11.25.2.51.26.78s.09.55.09.85-.03.59-.09.86c-.06.28-.15.54-.27.79-.11.24-.26.46-.45.66-.19.2-.42.38-.7.53-.27.15-.58.27-.94.35ZM213.13,16.92c-.24-.08-.47-.2-.67-.37-.21-.17-.44-.4-.69-.69-.25-.29-.51-.64-.79-1.05l-2.37-3.51c-.19-.3-.38-.55-.58-.77l-.09-.1.05.02c.2.1.39.22.55.36.17.15.35.34.53.56.19.23.38.49.58.79l1.9,2.79c.46.68.88,1.21,1.25,1.59.15.15.3.29.44.39l-.11-.03ZM227.25,9.91h0c.32.18.61.38.85.62.24.24.44.5.61.8.16.3.29.63.37.97.08.35.12.72.12,1.11,0,.33-.04.64-.12.95-.08.31-.2.61-.35.9h0c-.15.29-.34.55-.57.79-.23.24-.51.44-.82.63-.22.12-.45.23-.7.31.08-.04.16-.08.24-.13.33-.19.62-.42.86-.66.24-.25.44-.53.58-.83.15-.3.26-.62.33-.94.08-.32.11-.66.11-1,0-.42-.04-.81-.13-1.17-.09-.37-.23-.7-.41-1.01-.18-.31-.38-.58-.61-.82-.23-.24-.5-.45-.79-.63-.12-.08-.24-.14-.36-.21.29.09.56.2.81.34ZM225.8,1.94h0c.21.08.41.17.6.28.19.11.36.25.52.39h0c.16.15.31.31.43.49s.23.38.32.59h0c.09.22.16.45.2.69.04.24.07.51.07.79,0,.45-.07.86-.2,1.25-.14.38-.34.74-.61,1.06-.22.27-.48.49-.78.67.14-.12.28-.26.4-.41.16-.2.31-.43.43-.69.13-.26.23-.55.29-.85.06-.3.1-.62.1-.96,0-.36-.04-.7-.11-1.02-.07-.32-.18-.62-.33-.9-.15-.29-.33-.54-.56-.76-.22-.22-.48-.41-.77-.57-.09-.05-.18-.1-.27-.14.09.03.18.05.27.09ZM222.11,4.01c.04-.65.1-1.26.19-1.81.11-.03.24-.05.39-.06.2-.02.44-.03.72-.03.4,0,.77.04,1.1.11.33.07.62.18.87.32h0c.25.14.47.3.66.48.18.18.33.39.45.62.12.23.2.48.26.73.06.26.09.53.09.82,0,.38-.04.72-.12,1.03-.08.31-.19.59-.35.84-.15.25-.34.47-.55.66-.21.19-.45.35-.72.48-.27.13-.56.22-.87.29-.31.06-.64.1-1,.1-.26,0-.5-.02-.71-.05-.16-.02-.3-.06-.42-.1-.02-.16-.03-.4-.04-.7-.01-.36-.02-.85-.02-1.46,0-.81.02-1.57.07-2.27ZM222.04,10.59c.01-.37.03-.68.05-.94.12-.03.26-.06.44-.07.24-.02.54-.04.89-.04.5,0,.95.04,1.37.13.42.08.8.21,1.14.38h0c.35.17.65.36.91.58.26.22.47.48.64.76h0c.18.29.31.59.4.92.09.33.13.68.13,1.05s-.04.72-.12,1.04c-.08.31-.19.6-.35.85h0c-.15.26-.33.48-.54.67-.21.19-.45.35-.72.48-.27.13-.57.22-.89.29-.32.06-.67.1-1.05.1-.24,0-.46-.01-.66-.03-.2-.02-.37-.05-.53-.1-.15-.04-.32-.1-.5-.18-.15-.07-.32-.15-.49-.24-.05-.64-.08-1.29-.11-1.95-.03-.69-.04-1.4-.04-2.13,0-.62,0-1.15.02-1.58ZM220.14,1.9h.4v15.1h-.4V1.9Z"/>
          <path class="cls-3" d="M237.02,17.36l-2.08-.41c-.01-.28-.02-.52-.03-.73,0-.24-.01-.45-.01-.64,0-.26,0-.55.02-.88.01-.33.03-.72.05-1.16.02-.43.05-.91.09-1.44.03-.52.07-1.09.12-1.71.05-.6.09-1.2.14-1.77.05-.62.1-1.17.15-1.66.05-.51.09-.95.13-1.3l.02-.19c.13.22.26.47.4.73.24.45.52.96.83,1.54l3.56,6.73c.12.23.25.48.4.76.15.29.31.62.5.99.2.39.35.72.48.97.13.27.23.49.31.66l.05.11h.39l.05-.12c.11-.28.28-.66.5-1.13.22-.47.5-1.04.84-1.71l4.25-8.13c.19-.36.37-.7.54-1.01.1-.18.2-.35.29-.51l.05.26c.05.31.1.7.16,1.17.06.48.11.97.15,1.46.04.5.09,1.03.12,1.59.04.56.07,1.07.1,1.56.03.49.05.95.07,1.37.02.43.03.81.04,1.15,0,.33.01.63.01.91,0,.48,0,.91-.02,1.28-.01.31-.03.6-.05.84l-2.62.39v.46h7.86v-.45l-2.06-.4c-.06-.17-.12-.48-.19-.92-.08-.53-.17-1.25-.26-2.16-.09-.9-.17-1.85-.25-2.85-.08-.99-.15-2.01-.22-3.05-.06-1.06-.11-1.94-.14-2.64-.03-.69-.05-1.21-.05-1.56s0-.66.02-.98c0-.27.02-.54.04-.82l2.92-.41v-.46h-4.98l-.05.12c-.21.55-.47,1.17-.77,1.83-.3.66-.65,1.38-1.06,2.16l-2.8,5.36c-.46.9-.86,1.66-1.19,2.28-.27.49-.49.9-.67,1.21-.21-.3-.44-.66-.69-1.07-.31-.52-.66-1.12-1.04-1.82l-3.07-5.81c-.2-.38-.38-.74-.55-1.06-.17-.34-.33-.65-.46-.92-.14-.28-.29-.61-.46-.98-.16-.35-.34-.75-.54-1.2l-.05-.11h-5v.45l1.96.44c.28.24.51.47.7.69.18.21.32.42.42.62.01.29.02.54.03.75,0,.21.01.39.01.55,0,.42-.02.96-.05,1.62-.03.66-.08,1.45-.15,2.38-.06.91-.14,1.82-.21,2.73-.08.92-.16,1.81-.24,2.65-.09.87-.17,1.56-.23,2.07-.05.41-.1.7-.14.87l-2.12.42v.45h5.73v-.45ZM250.04,3.07l1.01,13.93h-.42l-.95-13.2.35-.73ZM234.87,1.92l7.42,13.94-.18.36-7.59-14.3h.35Z"/>
          <path class="cls-3" d="M204.88,23.2c0-1.8-.99-2.53-2.73-2.53s-2.73.73-2.73,2.53.99,2.53,2.73,2.53,2.73-.73,2.73-2.53ZM200.7,23.2c0-1.04.41-1.62,1.45-1.62s1.45.58,1.45,1.62-.41,1.62-1.45,1.62-1.45-.57-1.45-1.62Z"/>
          <path class="cls-3" d="M208.03,20.78h-.63c-.18,0-.33.14-.33.32v2.62c0,1.23.72,1.95,2.14,1.95h.61c1.42,0,2.14-.72,2.14-1.95v-2.62c0-.18-.15-.32-.33-.32h-.63c-.17,0-.32.14-.32.32v2.62c0,.67-.28.99-.9.99h-.54c-.62,0-.9-.32-.9-.99v-2.62c0-.18-.15-.32-.32-.32Z"/>
          <path class="cls-3" d="M216.16,25.63h.64c.17,0,.32-.14.32-.31v-3.59h1.51c.18,0,.32-.14.32-.32v-.32c0-.18-.14-.32-.32-.32h-4.3c-.18,0-.32.14-.32.32v.32c0,.18.14.32.32.32h1.51v3.59c0,.17.15.31.32.31Z"/>
          <path class="cls-3" d="M223.29,25.63c1.98,0,2.81-.77,2.81-2.43s-.83-2.43-2.81-2.43h-1.89c-.18,0-.32.15-.32.33v4.22c0,.17.15.31.32.31h1.89ZM222.36,21.73h.9c1.24,0,1.57.43,1.57,1.47s-.33,1.47-1.57,1.47h-.9v-2.94Z"/>
          <path class="cls-3" d="M228.09,23.2c0,1.8.99,2.53,2.73,2.53s2.73-.73,2.73-2.53-.99-2.53-2.73-2.53-2.73.73-2.73,2.53ZM230.82,21.59c1.04,0,1.45.58,1.45,1.62s-.41,1.62-1.45,1.62-1.45-.57-1.45-1.62.41-1.62,1.45-1.62Z"/>
          <path class="cls-3" d="M240.98,23.2c0-1.8-.99-2.53-2.73-2.53s-2.73.73-2.73,2.53.99,2.53,2.73,2.53,2.73-.73,2.73-2.53ZM236.81,23.2c0-1.04.41-1.62,1.45-1.62s1.45.58,1.45,1.62-.41,1.62-1.45,1.62-1.45-.57-1.45-1.62Z"/>
          <path class="cls-3" d="M246.21,24.41l.58.9c.11.18.35.32.52.32h.81c.18,0,.23-.14.12-.32l-.62-.98c-.28-.44-.48-.68-.77-.79.7-.14,1.28-.48,1.28-1.24,0-.96-.76-1.54-1.77-1.54h-2.8c-.17,0-.31.14-.31.32v4.22c0,.17.15.32.32.32h.64c.18,0,.32-.15.32-.32v-1.46h.83c.44,0,.69.28.86.55ZM244.53,22.9v-1.17h1.44c.39,0,.88.14.88.58s-.49.58-.88.58h-1.44Z"/>
          <path class="cls-3" d="M252.06,21.7h1.02c.35,0,.61.11.72.35.11.23.26.32.46.32h.4c.09,0,.35-.06.35-.37,0-.74-.94-1.25-1.81-1.25h-.86c-1.67,0-2.15.58-2.15,1.42,0,1.8,3.67,1.35,3.67,2.15,0,.24-.18.39-.6.39h-1.19c-.35,0-.61-.11-.72-.35-.11-.23-.26-.32-.46-.32h-.4c-.09,0-.35.06-.35.37,0,.74.94,1.25,1.81,1.25h1.03c1.66,0,2.15-.58,2.15-1.41,0-1.81-3.67-1.35-3.67-2.15,0-.24.18-.39.6-.39Z"/>
        </g>
      </g>
      <g>
        <g>
          <rect class="cls-3" x="51.04" y="159.55" width="2.84" height="2.83"/>
          <rect class="cls-3" x="51.04" y="163.19" width="2.84" height="3.64"/>
          <path class="cls-3" d="M34.41,167.01c2.75,0,4.97-.8,4.97-3.54v-3.9h-2.83v3.72c.02,1.2-.97,1.4-2.13,1.42-1.16-.02-2.14-.22-2.13-1.42v-.71h-2.83v.89c-.01,2.75,2.23,3.54,4.96,3.54Z"/>
          <path class="cls-3" d="M45.24,167.01c2.73,0,4.97-.8,4.96-3.55v-.53c0-2.75-2.22-3.55-4.96-3.55-2.74,0-4.98.8-4.97,3.55v.53c-.01,2.75,2.23,3.54,4.97,3.55ZM43.11,163.1c-.02-1.18.97-1.4,2.13-1.42,1.16.02,2.14.23,2.13,1.42v.18c.02,1.19-.97,1.41-2.13,1.42-1.16-.02-2.15-.23-2.13-1.42v-.18Z"/>
          <polygon class="cls-3" points="62.48 163.41 59.28 159.55 55.38 159.55 55.38 166.83 58.22 166.83 58.22 162.38 62.12 166.83 65.32 166.83 65.32 159.55 62.48 159.55 62.48 163.41"/>
          <polygon class="cls-3" points="75.48 164.97 69.8 164.97 69.8 164.04 75.48 164.04 75.48 162.36 69.8 162.36 69.8 161.43 75.48 161.43 75.48 159.57 66.97 159.57 66.97 166.84 75.48 166.84 75.48 164.97"/>
          <path class="cls-3" d="M79.82,165.06h2.53l1.37,1.77h3.02l-1.58-2.04c.48-.22.86-.56,1.15-1,.29-.44.44-.94.44-1.49.02-1.5-1.25-2.77-2.75-2.75h-7.01v7.27h2.83v-1.77ZM79.82,161.69h3.46c.35,0,.62.28.62.62,0,.17-.06.31-.18.44-.12.12-.26.18-.44.18h-3.46v-1.24Z"/>
          <polygon class="cls-3" points="90.17 164.35 90.17 166.84 93 166.84 93 164.35 97.08 159.56 93.72 159.56 91.58 162.17 89.46 159.56 86.09 159.56 90.17 164.35"/>
          <rect class="cls-3" x="50.6" y="151.02" width="2.83" height="2.83"/>
          <path class="cls-3" d="M29.45,158.29h2.84v-1.77h4.17c1.5.02,2.77-1.25,2.75-2.75.02-1.5-1.25-2.76-2.75-2.75h-7.01v7.27ZM32.29,153.15h3.46c.17,0,.31.06.43.18.12.12.18.27.18.44s-.06.31-.18.44c-.12.12-.26.18-.43.18h-3.46v-1.24Z"/>
          <polygon class="cls-3" points="54.8 158.29 63.32 158.29 63.32 156.43 57.64 156.43 57.64 155.5 63.32 155.5 63.32 153.81 57.64 153.81 57.64 152.88 63.32 152.88 63.32 151.02 54.8 151.02 54.8 158.29"/>
          <polygon class="cls-3" points="73.33 155.98 67.66 155.98 67.66 151.01 64.82 151.01 64.82 158.28 73.33 158.28 73.33 155.98"/>
          <rect class="cls-3" x="39.98" y="151.01" width="2.84" height="2.83"/>
          <rect class="cls-3" x="39.98" y="154.65" width="2.84" height="3.64"/>
          <polygon class="cls-3" points="46.78 158.29 48.82 156.17 50.86 158.29 54.41 158.29 46.78 151.02 43.24 151.02 47.05 154.66 43.24 158.29 46.78 158.29"/>
          <rect class="cls-3" x="73.33" y="153.14" width="2.84" height="2.83"/>
          <rect class="cls-3" y="161.67" width="5.33" height="5.33"/>
          <rect class="cls-3" x="5.33" y="156.34" width="5.33" height="5.33"/>
          <rect class="cls-3" y="151.01" width="5.33" height="5.33"/>
          <rect class="cls-3" x="13.33" y="161.67" width="5.33" height="5.33"/>
          <polygon class="cls-3" points="23.99 156.34 23.99 151.01 18.66 151.01 18.66 156.34 18.66 161.67 23.99 161.67 23.99 156.34"/>
        </g>
        <g>
          <path class="cls-3" d="M179.24,170.73c.98.06,1.96.03,2.96.03v-12.76h-3.3c.09,2.35.18,4.67.26,6.94-.03-.06-.11-.17-.16-.29-.75-2.03-1.49-4.07-2.26-6.1-.08-.22-.29-.56-.45-.57-1.01-.05-2.02-.03-3.01-.03v12.75h3.18v-6.68c.78,2.12,1.51,4.12,2.27,6.12.09.24.33.58.51.59Z"/>
          <path class="cls-3" d="M150.88,162.47c.5-2.06-.66-4.06-2.76-4.31-1.82-.22-3.68-.05-5.57-.05v12.53c1.98,0,3.91.12,5.83-.04,1.6-.13,2.71-1.54,2.84-3.14.13-1.72-.42-2.57-2.05-3.18-.03-.01-.03-.09-.06-.16.91-.21,1.55-.72,1.78-1.65ZM145.97,161.13c.02-.15.33-.38.51-.38.69,0,1.08.46,1.05,1.13-.04.74-.54,1.06-1.58.98,0-.57-.04-1.15.02-1.73ZM146.49,167.96c-.18,0-.5-.22-.51-.36-.06-.66-.02-1.32-.02-2.03,1.19-.01,1.71.37,1.73,1.15.02.69-.47,1.23-1.19,1.25Z"/>
          <path class="cls-3" d="M159.26,165.45c1.69-.83,2.14-2.24,1.93-3.92-.19-1.49-.93-2.64-2.39-3.16-1.97-.71-4.02-.31-6.05-.43v12.78h3.39v-4.72c.67,1.37,1.18,2.76,1.72,4.15.09.23.28.57.44.58,1.13.05,2.27.03,3.52.03-.89-1.84-1.7-3.52-2.56-5.31ZM156.23,163.83v-2.97c1.13.06,1.6.52,1.58,1.44-.02.95-.6,1.52-1.58,1.52Z"/>
          <path class="cls-3" d="M188.24,170.67c2.28-.16,3.67-1.49,4.3-3.62.48-1.63.52-3.29.08-4.92-.51-1.93-1.61-3.47-3.66-3.88-1.58-.32-3.22-.28-4.88-.4v12.84c1.42,0,2.79.08,4.15-.02ZM187.55,161.19c1.35.18,1.91,1.42,1.79,3.8-.08,1.72-.64,2.53-1.79,2.57v-6.37Z"/>
          <path class="cls-3" d="M165.69,170.72c.35-.63-.07-1.88,1.35-1.59.39.08,1-.11,1.16.09.3.38.35.96.51,1.46h3.49c-.87-4.12-1.74-8.16-2.58-12.19-.09-.44-.3-.55-.71-.54-1,.02-1.99.04-2.98,0-.55-.03-.72.2-.84.7-.39,1.72-.83,3.44-1.24,5.16-.55,2.29-1.09,4.57-1.65,6.92h3.5ZM167.26,161.71s.06,0,.09,0c.19,1.52.38,3.05.58,4.63h-1.39c.24-1.56.48-3.1.72-4.64Z"/>
          <path class="cls-3" d="M200.39,168.67c.88-1.88.44-3.88-1.17-5.23-.35-.29-.73-.55-1.09-.83-.42-.33-.84-.71-.52-1.28.35-.61.96-.56,1.49-.28.46.24.84.61,1.34.99,0-1.15.01-2.24-.01-3.32,0-.17-.16-.4-.31-.49-1.58-.98-3.9-.58-5.06.85-1.5,1.84-1.32,4.34.45,5.92.42.38.94.66,1.29,1.08.25.31.54.93.39,1.14-.21.31-.83.58-1.19.49-.64-.16-1.22-.59-1.9-.96v2.24q0,1.57,1.55,1.86c2.1.4,3.9-.44,4.72-2.21Z"/>
          <path class="cls-3" d="M145.22,149.03c-.05-.24-.32-.59-.52-.61-.69-.08-1.39-.03-2.18-.03.71,2.7,1.4,5.31,2.11,7.91.04.14.3.29.46.3.69.03,1.39.01,2.15.01.26-1.57.51-3.08.79-4.76.35,1.69.66,3.2.98,4.73h2.55c.65-2.7,1.3-5.39,1.97-8.2-.73,0-1.37.02-2.01,0-.45-.02-.6.16-.67.58-.21,1.31-.46,2.62-.71,4.04-.08-.28-.14-.48-.18-.67-.23-1.13-.43-2.26-.7-3.38-.05-.21-.33-.5-.53-.52-.6-.07-1.22-.03-1.87-.03-.3,1.56-.59,3.03-.91,4.64-.26-1.43-.47-2.72-.74-4.01Z"/>
          <polygon class="cls-3" points="175.59 156.58 175.59 148.45 172.83 148.45 172.83 151.25 171.53 151.25 171.53 148.46 168.82 148.46 168.82 156.57 171.57 156.57 171.57 153.33 172.91 153.33 172.91 156.58 175.59 156.58"/>
          <polygon class="cls-3" points="177.14 156.58 182.19 156.58 182.19 154.64 179.91 154.64 179.91 153.37 181.96 153.37 181.96 151.48 179.91 151.48 179.91 150.3 182.21 150.3 182.21 148.43 177.14 148.43 177.14 156.58"/>
          <polygon class="cls-3" points="154.28 156.57 159.07 156.57 159.07 154.65 156.93 154.65 156.93 153.34 158.83 153.34 158.83 151.5 156.92 151.5 156.92 150.31 159.06 150.31 159.06 148.43 154.28 148.43 154.28 156.57"/>
          <path class="cls-3" d="M162.24,150.4h1.47v6.17h2.76v-6.17c.55-.03,1.02-.05,1.52-.08v-1.86h-5.76v1.94Z"/>
          <rect class="cls-3" x="202.44" y="168.01" width="9.6" height="2.64"/>
        </g>
        <g>
          <path class="cls-3" d="M248.79,158.18l3.46-4.32c.61-.72.09-1.17-.66-1.17h-2.76c-.75,0-1.17.47-1.73,1.17l-2.36,3.15v-8.01c0-.75-.42-1.31-1.17-1.17l-2.22.4c-.75.14-1.17.42-1.17,1.19v13.9c0,.75.42,1.17,1.17,1.17h2.22c.75,0,1.17-.42,1.17-1.17v-2.27l.54-.63,1.82,2.9c.47.72.98,1.17,1.73,1.17h2.99c.75,0,1.26-.44.65-1.17l-3.69-5.14Z"/>
          <path class="cls-3" d="M261.01,163.39c.02.7.47,1.1,1.19,1.1h1.07c.77,0,1.19-.42,1.19-1.17v-5.77c0-3.92-3.01-5.05-5.77-5.05-1.38,0-3.13.44-4.18,1.08-.51.3-.7.75-.3,1.57l.3.63c.35.75.93.79,1.49.51.4-.21,1.22-.56,2.36-.56s1.85.54,1.85,1.47v.3c-.79-.26-1.61-.42-2.43-.42-3.04,0-5.05,1.61-5.05,4.02,0,2.22,1.84,3.69,4.63,3.69,1.43,0,2.66-.54,3.64-1.4ZM257.02,160.84c0-.75.63-1.24,1.57-1.24.68,0,1.38.23,1.75.4v1.01c0,.33-.63,1.05-1.75,1.05-.94,0-1.57-.49-1.57-1.22Z"/>
          <path class="cls-3" d="M266.64,164.49h2.27c.75,0,1.17-.42,1.17-1.17v-5.35c0-.91.56-1.59,1.49-1.59s1.5.68,1.5,1.59v5.35c0,.75.42,1.17,1.17,1.17h2.27c.77,0,1.19-.42,1.19-1.17v-5.68c0-3.15-2.06-5.14-4.88-5.14-1.68,0-2.83.77-3.57,1.85v-.49c0-.75-.42-1.17-1.17-1.17h-1.43c-.75,0-1.17.42-1.17,1.17v9.46c0,.75.42,1.17,1.17,1.17Z"/>
          <path class="cls-3" d="M284.26,165.68c-1.35,0-2.64-.72-3.2-1.17-.63-.49-1.12-.37-1.5.12l-.77.91c-.49.61-.3,1.12.09,1.52,1.05,1.01,2.8,1.87,5.33,1.87,3.88,0,6.78-2.01,6.78-6.03v-9.04c0-.75-.42-1.17-1.17-1.17h-1.24c-.7,0-1.12.35-1.19,1.01-.94-.72-2.1-1.19-3.44-1.19-3.08,0-5.47,2.31-5.47,5.49s2.38,5.49,5.47,5.49c1.07,0,2.06-.3,2.87-.8v1.12c0,1.31-1.33,1.87-2.57,1.87ZM285.08,160.19c-1.19,0-2.06-.93-2.06-2.2s.86-2.2,2.06-2.2,2.08.93,2.08,2.2-.86,2.2-2.08,2.2Z"/>
          <path class="cls-3" d="M298.02,164.79c3.83,0,6.59-2.59,6.59-6.15s-2.76-6.14-6.59-6.14-6.59,2.59-6.59,6.14,2.76,6.15,6.59,6.15ZM298.02,156.4c1.19,0,2.06.96,2.06,2.24s-.86,2.24-2.06,2.24-2.06-.96-2.06-2.24.86-2.24,2.06-2.24Z"/>
          <path class="cls-3" d="M311.48,164.79c3.83,0,6.59-2.59,6.59-6.15s-2.76-6.14-6.59-6.14-6.59,2.59-6.59,6.14,2.76,6.15,6.59,6.15ZM311.48,156.4c1.19,0,2.06.96,2.06,2.24s-.86,2.24-2.06,2.24-2.06-.96-2.06-2.24.86-2.24,2.06-2.24Z"/>
          <path class="cls-3" d="M319.79,164.49h2.22c.75,0,1.17-.42,1.17-1.17v-2.27l.54-.63,1.82,2.9c.47.72.98,1.17,1.73,1.17h2.99c.75,0,1.26-.44.65-1.17l-3.69-5.14,3.46-4.32c.61-.72.09-1.17-.65-1.17h-2.76c-.75,0-1.17.47-1.73,1.17l-2.36,3.15v-8.01c0-.75-.42-1.31-1.17-1.17l-2.22.4c-.75.14-1.17.42-1.17,1.19v13.9c0,.75.42,1.17,1.17,1.17Z"/>
          <rect class="cls-3" x="332.14" y="152.69" width="4.6" height="11.8" rx="1.17" ry="1.17"/>
          <path class="cls-3" d="M334.43,145.61c-1.47,0-2.66,1.19-2.66,2.69s1.19,2.66,2.66,2.66,2.69-1.19,2.69-2.66-1.19-2.69-2.69-2.69Z"/>
          <path class="cls-3" d="M349.57,147.83l-2.27.4c-.75.14-1.17.42-1.17,1.19v3.74c-.77-.42-1.66-.65-2.64-.65-3.36,0-5.84,2.66-5.84,6.14s2.5,6.15,5.84,6.15c1.43,0,2.59-.54,3.48-1.35.05.68.47,1.05,1.17,1.05h1.43c.75,0,1.17-.42,1.17-1.17v-14.32c0-.75-.42-1.26-1.17-1.17ZM344.25,160.89c-1.19,0-2.06-.96-2.06-2.24s.86-2.24,2.06-2.24,2.08.96,2.08,2.24-.89,2.24-2.08,2.24Z"/>
        </g>
      </g>
      <g>
        <text class="cls-2" transform="translate(271.08 303.09)"><tspan class="cls-4" x="0" y="0">+M</tspan><tspan class="cls-1" x="24.21" y="0">or</tspan><tspan x="40.78" y="0">e</tspan></text>
        <g>
          <path class="cls-3" d="M160.07,293.53c-.33-.34-.73-.61-1.18-.8-.45-.19-.94-.29-1.45-.29h-7.2c-.52,0-1,.1-1.45.29-.45.2-.85.46-1.18.8-.33.34-.6.74-.79,1.19-.19.45-.29.94-.29,1.45v6.66h2.26v-2.49h10.1v2.49h2.26v-6.66c0-.51-.1-1-.29-1.45-.2-.45-.46-.85-.79-1.19ZM158.89,298.06h-10.1v-1.89c0-.4.14-.74.42-1.03.28-.28.63-.42,1.03-.42h7.2c.4,0,.75.14,1.03.42.28.28.42.63.42,1.03v1.89Z"/>
          <path class="cls-3" d="M173.21,295.59c-.12-.1-.27-.15-.46-.15h-10.46v2.09h5.94l-5.64,3.94c-.15.1-.25.23-.29.39-.04.16-.04.31,0,.45.04.15.13.27.25.37.13.1.28.15.45.15h10.18v-2.06h-5.71c.96-.67,1.91-1.33,2.86-1.99.95-.66,1.9-1.32,2.86-1.99.15-.1.25-.23.29-.39.04-.16.04-.31,0-.45-.05-.14-.14-.27-.25-.37Z"/>
          <path class="cls-3" d="M185.2,295.59c-.12-.1-.27-.15-.46-.15h-10.46v2.09h5.94l-5.64,3.94c-.15.1-.25.23-.29.39-.04.16-.04.31,0,.45.04.15.13.27.25.37.13.1.28.15.45.15h10.18v-2.06h-5.71c.96-.67,1.91-1.33,2.86-1.99.95-.66,1.9-1.32,2.86-1.99.15-.1.25-.23.29-.39.04-.16.04-.31,0-.45-.05-.14-.14-.27-.25-.37Z"/>
          <path class="cls-3" d="M188.51,295.69c-.45.19-.84.46-1.18.79-.33.33-.6.73-.79,1.18-.19.45-.29.94-.29,1.45s.1,1,.29,1.45.46.84.79,1.18c.33.33.73.6,1.18.79.45.19.94.29,1.45.29h8.75v-2.26h-8.75c-.4,0-.75-.14-1.03-.42-.28-.28-.42-.62-.42-1.03s.14-.74.42-1.03c.28-.28.62-.42,1.03-.42h8.75v-2.26h-8.75c-.52,0-1,.1-1.45.29Z"/>
          <path class="cls-3" d="M211.99,296.48c-.33-.33-.73-.6-1.18-.79-.45-.19-.94-.29-1.45-.29h-6.24c-.52,0-1,.1-1.45.29-.45.19-.84.46-1.18.79-.33.33-.6.73-.79,1.18s-.29.94-.29,1.45.1,1,.29,1.45c.19.45.46.85.79,1.18.33.33.73.6,1.18.79.45.19.94.29,1.45.29h6.24c.51,0,1-.1,1.45-.29.45-.19.85-.46,1.18-.79.33-.33.6-.73.79-1.18.19-.45.29-.94.29-1.45s-.1-1-.29-1.45-.46-.84-.79-1.18ZM210.38,300.14c-.28.28-.63.42-1.03.42h-6.24c-.4,0-.74-.14-1.03-.42-.28-.28-.42-.62-.42-1.03s.14-.75.42-1.03c.28-.28.62-.42,1.03-.42h6.24c.4,0,.74.14,1.03.42.28.28.42.62.42,1.03s-.14.74-.42,1.03Z"/>
          <path class="cls-3" d="M225.28,296.48c-.34-.33-.74-.6-1.19-.79-.45-.19-.93-.29-1.43-.29h-5.03c-.52,0-1,.1-1.45.29-.45.19-.84.46-1.18.79-.33.33-.6.73-.79,1.18s-.29.94-.29,1.45v3.71h2.26v-3.71c0-.4.14-.75.42-1.03.28-.28.62-.42,1.03-.42h5.03c.4,0,.74.14,1.02.42.28.28.41.62.41,1.03v3.71h2.28v-3.71c0-.52-.1-1-.29-1.45-.2-.45-.46-.84-.8-1.18Z"/>
          <path class="cls-3" d="M235.43,300.58h-1.92c-.29,0-.51-.12-.66-.36l-2.81-4.83h-2.58l3.47,5.94c.28.48.64.84,1.09,1.1.45.26.95.39,1.49.39h.62l-1.56,2.7h2.58l5.9-10.12h-2.58l-3.03,5.18Z"/>
        </g>
        <g>
          <path class="cls-3" d="M105.28,295.53c-2,1.55-2.85,2.34-2.85,2.34-.09.06.12.24.42.42.33.18.64.3.73.24,0,0,.82-.76,2.85-2.31.09-.06-.12-.27-.43-.45-.33-.18-.64-.27-.73-.24Z"/>
          <path class="cls-3" d="M122.78,299.93c-.3-.18-.67-.33-.79-.3-.03,0-3.73.64-6.58.82.06-.42-.46-.76-1.21-1-.42-.12-.97-.06-1.43.06-.07.02-.14.04-.2.07-.06-.01-.1-.01-.13,0-.03,0-6.85,2.21-12.07,3.12-.49.09-.88.15-1.18.15.13-.72,2.01-2.18,2.45-2.51.02,0,.04,0,.06,0,.07-.01.07-.05.04-.1-.02-.09-.18-.26-.43-.41-.33-.18-.64-.3-.73-.24,0,0-.03.03-.09.08-1.65.2-2.97.35-4.03.44-1.21.06-2.03.06-2.61,0h-.09v-.06c.06-.09.15-.18.24-.27l.58-.46c.09-.06-.12-.27-.42-.45s-.61-.27-.7-.24c0,0-.33.21-.61.46-1.3.97-4.43,3.27-6.19,4.18.46-1.18,1.7-2.94,1.7-2.94,0,0,0-.02,0-.03,0-.08-.14-.2-.33-.33-.03-.02-.05-.03-.08-.05-.02-.01-.05-.03-.07-.04-.33-.18-.64-.27-.7-.21,0,0,0,0,0,.01-.51.08-3.88.64-6.52.81.06-.42-.45-.76-1.21-1-.43-.12-.97-.06-1.43.06-.13.04-.25.08-.37.13-.5.08-3.87.64-6.52.81.06-.42-.45-.76-1.21-1-.42-.12-.97-.06-1.43.06-.14.04-.26.09-.38.14-3.37,1.11-4.87,1.41-5.6,1.41-.55,0-.61-.18-.7-.33-.33-.76-.61-1.36-2.09-1.09h-.03c-.42.06-.82.24-1.24.49-.09-.09-.21-.18-.36-.27-.33-.18-.64-.27-.7-.21-.42.46-1.12,1.03-1.82,1.64-1.12.94-2.24,1.91-2.24,2.27,0,.49.39.79,1.3.79.58,0,1.36-.73,2.33-1.55,1.15-1.03,2.52-2.21,3.76-2.46.3.61.73,1.3,2.46,1.3.63,0,1.42-.08,2.42-.29-.84.61-1.59,1.24-1.72,1.63l-.03.03c0,.06,0,.15.03.21v.03c.15.24.48.49,1.03.67h.09c.73.21,2.12-.27,3.37-1,.91-.52,1.79-1.15,2.27-1.7,1.55,0,3.65-.23,5.33-.46-1.13.75-2.4,1.7-2.57,2.22l-.03.03c0,.06,0,.15.03.21v.03c.15.24.49.49,1.03.67h.09c.73.21,2.12-.27,3.37-1,.91-.52,1.79-1.15,2.27-1.7,1.89,0,4.62-.35,6.38-.61-.38.61-.83,1.4-1.07,2.03-.09.27-.15.49-.15.7s.15.45.51.7h.03c.39.24.7.33.94.3.85,0,5.52-3.37,6.4-4.03.12.06.21.12.36.18l.06.03c.18.09.36.15.55.18.18.03.36.06.58.09h.03c.61.06,1.49.09,2.7,0,.55-.05,1.18-.1,1.89-.17-.8.76-1.6,1.73-1.07,2.23.45.42,1,.67,1.7.7.36,0,.85-.03,1.46-.15,2.75-.48,5.95-1.32,8.37-2.01-.82.6-1.54,1.21-1.66,1.59l-.03.03c0,.06,0,.15.03.21v.03c.15.24.49.49,1.03.67h.09c.73.21,2.12-.27,3.37-1,.91-.52,1.79-1.15,2.27-1.7,3,0,8.13-.88,8.13-.88.15-.03,0-.21-.27-.39ZM65.4,303.08c.7-.67,2.09-1.64,3.03-2.21.15.06.33.12.55.15-.97.85-2.37,1.67-3.58,2.06ZM69.55,300.51c-.18,0-.36,0-.52-.03l.3-.18.49-.15c-.09.12-.18.24-.27.36ZM74.92,303.08c.7-.67,2.09-1.64,3.03-2.21.15.06.33.12.55.15-.97.85-2.37,1.67-3.58,2.06ZM79.08,300.51c-.18,0-.36,0-.52-.03l.3-.18.49-.15c-.09.12-.18.24-.27.36ZM109.67,303.08c.7-.67,2.09-1.64,3.03-2.21.15.06.33.12.55.15-.97.85-2.36,1.67-3.58,2.06ZM113.83,300.51c-.18,0-.36,0-.52-.03l.3-.18.49-.15c-.09.12-.18.24-.27.36Z"/>
          <path class="cls-3" d="M48.18,293.25c.07-.21.22-.8-.49-.87-.39-.04-1.34,1.07-1.34,1.07l-.53.57c-.78.34-1.58.77-2.38,1.31-5.54,3.71-8.65,9.79-12.13,14.12l-2.84,3.02s-.4.39-.07.78c.33.39,1.39,0,1.39,0l8.2-8.9c.61.58,7.08.46,9.76-.51,12.57-4.34,8.24-12.26.44-10.6ZM39.77,300.02c1.17-1.58,2.49-2.78,3.85-3.67l-5.3,5.63c.7-.94,1.22-1.66,1.44-1.96ZM46.45,303.06c-2.26.83-6.92.76-7.99.84-.04.01-.07.03-.1.04l8.35-9.07c7.26-2.32,13.15,3.28-.26,8.18Z"/>
        </g>
      </g>
      <g>
        <g>
          <path class="cls-3" d="M121.26,212.04h6.76v-4.26h-4.75c-.44,0-.82-.37-.82-.82v-6.85h-5.11v7.89c0,2.81,1.18,4.04,3.92,4.04Z"/>
          <path class="cls-3" d="M143.99,212.04v-8.52h-11.42c-2.74,0-3.92,1.23-3.92,4.04v.44c0,2.81,1.18,4.04,3.92,4.04h2.81c1.62,0,2.9-1.28,2.9-2.9v-.17h-3.44c-.6,0-.82-.22-.82-.77v-.56c0-.55.22-.77.82-.77h4.04v5.16h5.11Z"/>
          <path class="cls-3" d="M158.32,203.95v-.43h-13.19v3.07h6.02l-3.32,1.62c-2.73,1.36-3.03,2.64-3.03,3.41v.43h13.19v-3.07h-6.02l3.32-1.62c2.78-1.35,3.03-2.64,3.03-3.41Z"/>
          <path class="cls-3" d="M158.99,207c0,2.81,1.18,4.04,3.92,4.04h2.22c1.62,0,2.9-1.28,2.9-2.9v-.17h-3.1c-.6,0-.82-.22-.82-.77v-3.68h-5.11v3.48Z"/>
          <path class="cls-3" d="M173.54,211.41v-7.89h-5.11v7.86c0,.54-.22.77-.82.77h-7.87v3.31h9.88c2.74,0,3.92-1.23,3.92-4.04Z"/>
          <path class="cls-3" d="M190.48,203.52h-8.15c-2.74,0-3.92,1.23-3.92,4.04v7.89h5.11v-7.75c0-.44.37-.82.82-.82h3.87c.6,0,.82.22.82.77v.56c0,.55-.22.77-.82.77h-4.09v.51c0,1.43,1.13,2.56,2.56,2.56h3.8c2.73,0,3.92-1.23,3.92-4.04v-.44c0-2.81-1.18-4.04-3.92-4.04Z"/>
          <path class="cls-3" d="M200.31,207.75c0-.44.37-.82.82-.82h2.71v-3.41h-4.72c-2.74,0-3.92,1.23-3.92,4.04v4.48h5.11v-4.29Z"/>
          <path class="cls-3" d="M216.46,203.52h-8.21c-2.73,0-3.9,1.23-3.9,4.04v.44c0,2.81,1.18,4.04,3.9,4.04h8.21c2.73,0,3.9-1.23,3.9-4.04v-.44c0-2.81-1.18-4.04-3.9-4.04ZM215,208.07c0,.55-.22.77-.82.77h-3.65c-.6,0-.82-.22-.82-.77v-.58c0-.55.22-.77.82-.77h3.65c.6,0,.82.22.82.77v.58Z"/>
        </g>
        <g>
          <path class="cls-3" d="M43.38,211.01c.76-.63,1.13-1.49,1.13-2.57,0-.75-.23-1.41-.68-2-.45-.58-1.06-.95-1.8-1.11.66-.2,1.19-.55,1.59-1.05.4-.5.6-1.14.6-1.9,0-1.03-.37-1.85-1.11-2.45s-1.77-.9-3.08-.9h-5.82v12.92h6.02c1.35,0,2.4-.32,3.16-.95ZM37.35,201.56h2.06c.52,0,.91.12,1.19.35.28.23.41.57.41,1.01s-.14.78-.41,1c-.28.23-.67.34-1.19.34h-2.06v-2.71ZM37.35,209.42v-2.85h2.28c.53,0,.94.13,1.24.39.3.26.45.61.45,1.07s-.14.8-.43,1.04c-.29.24-.7.36-1.22.36h-2.32Z"/>
          <rect class="cls-3" x="46.15" y="199.04" width="3.15" height="12.92"/>
          <path class="cls-3" d="M54.17,211.24c1.01.57,2.13.85,3.34.85s2.33-.28,3.33-.85c1.01-.56,1.8-1.35,2.39-2.37.59-1.01.88-2.15.88-3.42s-.29-2.4-.87-3.41c-.58-1.01-1.38-1.79-2.39-2.36-1.01-.56-2.13-.85-3.34-.85s-2.33.28-3.34.85c-1.01.56-1.82,1.35-2.41,2.36s-.89,2.14-.89,3.41.3,2.4.89,3.42c.6,1.01,1.4,1.8,2.41,2.37ZM55.02,202.72c.62-.68,1.45-1.01,2.49-1.01s1.86.34,2.48,1.02c.62.68.93,1.59.93,2.73s-.31,2.04-.93,2.72c-.62.69-1.44,1.03-2.48,1.03s-1.88-.34-2.49-1.02c-.62-.68-.93-1.59-.93-2.73s.31-2.07.93-2.74Z"/>
          <polygon class="cls-3" points="77.82 199.04 74.49 199.04 71.27 208.79 68.06 199.04 64.71 199.04 69.3 211.96 73.24 211.96 77.82 199.04"/>
          <rect class="cls-3" x="78.94" y="199.04" width="3.15" height="12.92"/>
          <polygon class="cls-3" points="90.06 211.96 90.06 201.56 93.49 201.56 93.49 199.04 83.49 199.04 83.49 201.56 86.92 201.56 86.92 211.96 90.06 211.96"/>
        </g>
        <g>
          <path class="cls-3" d="M280.21,199.42c0,2.25,1.59,3.77,3.48,3.77.81.03,1.6-.25,2.21-.78v.58h2.27v-7.12h-2.27v.56c-.61-.53-1.4-.81-2.21-.78-1.89,0-3.48,1.52-3.48,3.77ZM284.19,197.59c.98.04,1.74.86,1.71,1.84,0,.02,0,.03,0,.05.02.98-.76,1.78-1.74,1.79-.99,0-1.71-.75-1.71-1.84s.72-1.84,1.71-1.84c.01,0,.02,0,.03,0Z"/>
          <path class="cls-3" d="M292.81,203.2c.81.03,1.6-.25,2.21-.78v2.98h2.27v-9.52h-2.27v.57c-.61-.53-1.4-.81-2.21-.78-1.89,0-3.48,1.52-3.48,3.77s1.59,3.77,3.48,3.77ZM293.28,197.58s.02,0,.03,0c.98.04,1.75.86,1.71,1.84h.01s0,.04,0,.06c0,.98-.77,1.77-1.75,1.78-.99,0-1.71-.75-1.71-1.84s.72-1.84,1.71-1.84Z"/>
          <path class="cls-3" d="M298.8,195.87v4.36c0,1.79,1.11,2.97,2.76,2.97.82.02,1.61-.3,2.19-.89v.68h2.27v-7.12h-2.27v3.3c0,1.38-.58,1.98-1.48,1.98-.72,0-1.22-.57-1.22-1.4v-3.88h-2.25Z"/>
          <path class="cls-3" d="M312.88,196.43c-.61-.53-1.4-.81-2.21-.78-1.89,0-3.48,1.52-3.48,3.77s1.59,3.77,3.48,3.77c.81.03,1.6-.25,2.21-.78v.58h2.27v-7.12h-2.27v.56ZM311.14,201.27c-.99,0-1.72-.75-1.72-1.84s.72-1.84,1.72-1.84c.01,0,.02,0,.04,0,.98.04,1.74.86,1.7,1.84,0,.02,0,.04,0,.05.01.98-.77,1.78-1.74,1.79Z"/>
          <path class="cls-3" d="M280.69,209.16v9.53h2.27v-2.98c.61.53,1.4.81,2.21.78,1.89,0,3.48-1.51,3.48-3.77s-1.59-3.77-3.47-3.76c-.81-.03-1.6.25-2.21.78v-.58h-2.27ZM284.7,210.88c.99,0,1.71.75,1.71,1.84s-.72,1.84-1.71,1.84c-.94-.05-1.69-.8-1.74-1.74-.06-1.02.72-1.89,1.74-1.95Z"/>
          <path class="cls-3" d="M293.29,208.98c-2.16,0-3.94,1.48-3.94,3.74s1.83,3.77,3.94,3.77,3.9-1.51,3.9-3.77-1.74-3.74-3.9-3.74ZM293.29,214.56c-.93.01-1.7-.71-1.76-1.63-.06-.96.67-1.78,1.63-1.84.96-.06,1.78.67,1.84,1.63,0,0,0,.01,0,.02.03.98-.74,1.79-1.72,1.82Z"/>
          <rect class="cls-3" x="298.48" y="209.16" width="2.27" height="7.12"/>
          <path class="cls-3" d="M299.47,208.22c.72.08,1.37-.43,1.46-1.15-.07-.61-.55-1.08-1.15-1.15-.72-.08-1.37.43-1.46,1.15.07.61.55,1.08,1.15,1.15Z"/>
          <path class="cls-3" d="M304.77,209.84v-.68h-2.27v7.12h2.27v-3.31c0-1.38.58-1.98,1.47-1.98.72,0,1.22.57,1.22,1.4v3.89h2.25v-4.38c0-1.79-1.1-2.96-2.76-2.96-.82-.02-1.61.3-2.18.9Z"/>
          <path class="cls-3" d="M316.12,210.96v-1.8h-2.08v-2.1h-2.27v2.1h-1.3v1.8h1.29v2.7c0,1.87,1.06,2.83,2.83,2.83.68,0,1.35-.18,1.94-.52l-.53-1.79c-.32.18-.67.28-1.03.29-.59,0-.95-.3-.95-1.04v-2.47h2.1Z"/>
          <polygon class="cls-3" points="261.26 190.79 261.26 194.04 264.52 194.04 264.52 197.3 267.77 197.3 267.77 200.55 267.77 203.8 271.02 203.8 271.02 200.55 271.02 197.3 267.77 197.3 267.77 194.04 264.52 194.04 264.52 190.79 261.26 190.79"/>
          <polygon class="cls-3" points="264.52 207.05 264.52 210.31 264.52 213.56 267.77 213.56 267.77 210.31 267.77 207.05 267.77 203.8 264.52 203.8 264.52 207.05"/>
          <polygon class="cls-3" points="258.01 220.06 261.26 220.06 264.52 220.06 267.77 220.06 267.77 216.81 264.52 216.81 261.26 216.81 258.01 216.81 258.01 220.06"/>
          <polygon class="cls-3" points="271.02 207.05 271.02 210.31 271.02 213.56 267.77 213.56 267.77 216.81 271.02 216.81 271.02 213.56 274.27 213.56 274.27 210.31 274.27 207.05 274.27 203.8 271.02 203.8 271.02 207.05"/>
          <polygon class="cls-3" points="251.51 207.05 251.51 210.31 251.51 213.56 254.76 213.56 254.76 210.31 254.76 207.05 254.76 203.8 251.51 203.8 251.51 207.05"/>
          <rect class="cls-3" x="254.76" y="213.56" width="3.25" height="3.25"/>
          <rect class="cls-3" x="258.01" y="194.04" width="3.25" height="3.25"/>
          <polygon class="cls-3" points="258.01 200.55 258.01 197.3 254.76 197.3 254.76 200.55 254.76 203.8 258.01 203.8 258.01 200.55"/>
        </g>
      </g>
      <g>
        <g>
          <path class="cls-3" d="M123.47,125.67h33.34v-33.34h-33.34v33.34ZM124.93,93.8h30.41v30.41h-30.41v-30.41Z"/>
          <path class="cls-3" d="M151.24,111.94s-.08-.04-.12-.06h-.03s-1.43,3.69-1.43,3.69l-2.6-5.34h-.01c-.41-.13-.81-.24-1.21-.33h-.03s0,12.47,0,12.47h2.34v-5.5l1.52,3.12,1.53-3.43v5.81h2.33v-9.04h-.01c-.73-.5-1.5-.97-2.28-1.38Z"/>
          <path class="cls-3" d="M141.97,109.28h-.03s0,4.35,0,4.35l-1.77,1.77-1.77-1.77v-4.36h-.03c-.73.06-1.46.14-2.18.27h-.02v5l2.45,2.45.39.38v4.99h2.34v-4.99l2.83-2.83v-4.99h-.02c-.72-.13-1.45-.21-2.18-.27Z"/>
          <path class="cls-3" d="M132.22,110.58c-1.06.38-2.11.83-3.11,1.36-.78.41-1.55.87-2.29,1.37h-.01v9.05h7.73v-5.47h-2.3l-.04.04v3.08h-3.05v-5.54c.99-.59,2.02-1.1,3.09-1.52.74-.3,1.51-.55,2.28-.76h.02v-2.31h-.03c-.77.2-1.54.43-2.29.69Z"/>
          <path class="cls-3" d="M132.2,100.88h-3.05v-5.23h-2.34v14.77l.04-.02c.74-.44,1.51-.84,2.28-1.2h.02v-5.81h3.05v4.62h.03c.75-.25,1.52-.46,2.29-.62h.02v-11.73h-2.34v5.23Z"/>
          <path class="cls-3" d="M137.99,106.85c1.43-.12,2.92-.12,4.35,0,.59.05,1.2.12,1.8.21h.03s0-11.42,0-11.42h-8v11.42h.03c.59-.1,1.2-.17,1.79-.21ZM138.35,97.83h3.65v6.59h-.03c-1.18-.08-2.41-.08-3.59,0h-.03s0-6.59,0-6.59Z"/>
          <path class="cls-3" d="M148.12,107.99h.04s0-4.61,0-4.61h5.38v-7.74h-7.72v11.73h.02c.76.17,1.53.38,2.28.62ZM148.1,97.94h3.1l.06-.06v3.22h-3.16v-3.16Z"/>
          <path class="cls-3" d="M151.22,109.17c.78.36,1.54.76,2.27,1.2v-4.47h-2.83v3.02c.19.08.38.17.56.25Z"/>
        </g>
        <g>
          <path class="cls-3" d="M183.21,107.94c-.09,1.19-.11,2.38.03,3.57.1.89.22,1.77.38,2.64.32,1.68.85,3.29,1.62,4.82.52,1.04,1.15,2.02,2.01,2.83.77.73,1.66,1.12,2.75,1.11,5.61-.02,11.23,0,16.84,0s11.4,0,17.1,0c.52,0,1.01-.12,1.47-.36.69-.36,1.24-.88,1.72-1.48,1.05-1.31,1.74-2.81,2.28-4.39.7-2.06,1.05-4.19,1.13-6.36.04-1.07,0-2.13-.13-3.19-.13-1.13-.34-2.25-.64-3.35-.48-1.78-1.12-3.49-2.07-5.07-.49-.8-1.04-1.55-1.78-2.14-.63-.5-1.33-.76-2.15-.76-5.59.01-11.18,0-16.77,0s-11.57,0-17.36,0c-.06,0-.13,0-.19,0-.62.08-1.16.35-1.64.73-.85.68-1.46,1.56-2,2.49-.78,1.37-1.34,2.84-1.77,4.35-.42,1.49-.7,3-.82,4.54ZM186.75,102.15c.49-1.22,1.04-2.4,1.91-3.4.11-.13.23-.24.35-.35.28-.27.6-.4,1.02-.4,11.27,0,22.55,0,33.82,0,.21,0,.39.06.56.19.56.4.96.95,1.32,1.52.81,1.31,1.37,2.73,1.79,4.21.58,2.05.89,4.14.81,6.28-.09,2.61-.6,5.14-1.72,7.52-.38.82-.83,1.6-1.46,2.26-.14.15-.29.28-.44.41-.28.24-.6.34-.98.34-5.63,0-11.26,0-16.89,0s-11.28,0-16.93,0c-.37,0-.67-.11-.95-.33-.61-.48-1.06-1.09-1.43-1.77-.33-.61-.6-1.25-.89-1.87-.03-.05-.03-.16,0-.2.66-.78,1.04-1.71,1.32-2.68.39-1.32.56-2.67.59-4.03.04-1.69-.12-3.36-.59-5-.26-.91-.62-1.77-1.2-2.53-.03-.04-.05-.12-.03-.17ZM185.77,107.98c.73,0,1.33.6,1.34,1.33,0,.73-.61,1.35-1.35,1.35-.74,0-1.34-.61-1.33-1.35,0-.73.6-1.33,1.34-1.33Z"/>
          <path class="cls-3" d="M188.35,103.81c.6,1.53.82,3.14.9,4.77.07,1.58-.06,3.15-.41,4.7-.27,1.2-.67,2.36-1.39,3.38-.04.05-.04.15,0,.21.2.44.4.88.63,1.3.35.63.76,1.23,1.33,1.69.14.11.3.17.49.17,5.65,0,11.3,0,16.94,0s11.12,0,16.69.01c.44,0,.76-.13,1.05-.43.02-.02.05-.05.07-.07.57-.6.97-1.3,1.32-2.04,1.07-2.26,1.57-4.66,1.68-7.14.09-2.05-.18-4.06-.72-6.03-.4-1.44-.93-2.83-1.7-4.12-.3-.51-.65-.99-1.11-1.37-.11-.09-.21-.13-.36-.13-11.27,0-22.54,0-33.82,0-.14,0-.26.03-.36.13-.24.25-.5.49-.71.77-.57.75-.97,1.59-1.33,2.46-.02.05,0,.14.04.2.26.52.57,1.02.78,1.57ZM217.26,104.72c0-.07.03-.16.08-.21.48-.56.96-1.11,1.45-1.66.05-.05.14-.1.22-.1.99,0,1.97,0,2.96,0,.08,0,.18.04.23.1.49.55.97,1.1,1.45,1.66.04.05.08.12.08.18,0,1.04,0,2.09,0,3.13,0,.02,0,.03-.01.06h-2.91v-2.58h-.61v8.1h.6v-3.1h2.93v.18c0,1.15,0,2.3,0,3.46,0,.1-.04.21-.11.29-.46.54-.93,1.07-1.4,1.61-.07.09-.15.12-.26.12-.98,0-1.95,0-2.92,0-.12,0-.2-.04-.28-.13-.47-.54-.94-1.08-1.41-1.62-.05-.06-.09-.15-.09-.23,0-3.09,0-6.18,0-9.27ZM215.81,102.76c.38,4.4.75,8.79,1.13,13.19h-2.92c-.06-.78-.12-1.55-.18-2.34h-.99c-.05.78-.1,1.55-.15,2.34h-2.92c.52-4.4,1.03-8.79,1.55-13.19h4.47ZM204.33,102.77h5.61v2.5c-.06,0-.13.01-.2.01-.33,0-.66,0-1,0-.11,0-.16.03-.15.14,0,.04,0,.08,0,.12v10.42h-2.92v-10.67h-1.35v-2.52ZM202.31,107.64c.79,0,1.39.62,1.39,1.44,0,.75-.63,1.37-1.39,1.37-.78,0-1.43-.66-1.42-1.43.01-.77.65-1.39,1.42-1.38ZM191.4,102.78c.06,0,.1-.01.15-.01.91,0,1.81,0,2.72,0,.14,0,.18.04.21.18.17,1.17.35,2.34.53,3.51.11.72.21,1.44.33,2.16,0,.06.07.1.11.15.04-.05.09-.1.1-.15.24-1.6.48-3.2.73-4.8.04-.3.09-.6.14-.9.01-.09.03-.15.15-.15.95,0,1.9,0,2.85,0,.02,0,.04,0,.07.02v13.15h-2.68c.04-1.84.07-3.67.11-5.5-.01,0-.02,0-.03,0-.01.05-.03.1-.04.15-.22,1.2-.43,2.4-.65,3.6-.1.55-.19,1.09-.28,1.64-.02.11-.06.15-.17.14-.2,0-.4,0-.6,0-.11,0-.16-.04-.18-.15-.24-1.4-.48-2.8-.72-4.19-.06-.35-.12-.71-.18-1.07,0-.04-.02-.08-.03-.11h-.03c0,.42,0,.83,0,1.25,0,.7.02,1.4.03,2.1.01.65.01,1.31.03,1.96,0,.16-.03.22-.21.22-.77,0-1.54,0-2.3,0-.05,0-.1,0-.16,0v-13.16Z"/>
          <path class="cls-3" d="M213.71,111.04c0-.12,0-.21,0-.31-.1-1.55-.2-3.1-.31-4.64,0-.05-.06-.1-.1-.14-.03.05-.08.1-.08.15-.09,1.6-.17,3.2-.26,4.8,0,.04,0,.09,0,.14h.74Z"/>
        </g>
        <g>
          <rect class="cls-3" x="16.3" y="101.37" width="12.41" height="1.46"/>
          <rect class="cls-3" x="16.29" y="109.9" width="7.62" height="1.46"/>
          <rect class="cls-3" x="16.3" y="118.3" width="12.41" height="1.46"/>
          <rect class="cls-3" x="57.83" y="101.37" width="12.41" height="1.46"/>
          <rect class="cls-3" x="57.83" y="109.9" width="9.21" height="1.46"/>
          <rect class="cls-3" x="57.83" y="118.3" width="12.41" height="1.46"/>
          <path class="cls-3" d="M32.53,109.46c1.08.62,2.49.85,3.84,1.09,3.03.49,4.89.96,4.89,3.65,0,1.09-.49,2.1-1.35,2.87-.95.83-2.27,1.27-3.7,1.27-1.84,0-3.57-.67-4.97-1.97-.3-.26-.76-.26-1.05.03-.27.28-.27.72.03,1.01,1.7,1.55,3.76,2.36,6,2.36,1.81,0,3.49-.57,4.7-1.63,1.19-1.04,1.86-2.43,1.86-3.94,0-.93-.22-1.73-.59-2.41-.32-.6-.84-1.11-1.51-1.5-1.16-.67-2.62-.91-4.05-1.17-1.27-.21-2.49-.41-3.33-.88-.86-.49-1.24-1.22-1.24-2.33,0-.91.35-1.68,1.08-2.23.76-.57,1.81-.88,3.08-.88,1.46,0,2.97.41,4.16,1.14.35.21.81.1,1.03-.23.22-.34.11-.78-.24-.98-1.41-.85-3.22-1.35-4.95-1.35-1.62,0-3,.42-4,1.19-.54.39-.95.88-1.22,1.45-.3.57-.46,1.22-.46,1.89,0,.85.19,1.58.54,2.17.35.57.84,1.04,1.46,1.37Z"/>
          <path class="cls-3" d="M43.81,102.11c0,.43.35.76.76.76h5v16.17c0,.41.32.73.73.73.43,0,.76-.32.76-.73v-16.17h5c.41,0,.73-.33.73-.76,0-.41-.32-.73-.73-.73h-11.49c-.41,0-.76.32-.76.73Z"/>
          <path class="cls-3" d="M84.65,106.79c0-2.97-2.32-5.41-5.19-5.41h-6.81c-.43,0-.76.32-.76.73v16.92c0,.41.32.73.76.73.41,0,.73-.32.73-.73v-16.16h6.08c2.05,0,3.73,1.76,3.73,3.92s-1.68,3.92-3.73,3.92h-2.38c-.27,0-.54.16-.68.43-.11.27-.05.59.14.81l7.11,7.57c.16.16.35.24.57.24.65,0,.92-.81.54-1.24l-5.97-6.33h.68c2.87,0,5.19-2.43,5.19-5.41Z"/>
        </g>
        <g>
          <path class="cls-3" d="M288.72,113.28c.19-.08.43-.13.74-.13.57,0,.93.28.93.75v3.57h1.35v-4.05c.19-.17.45-.26.79-.26.54,0,.88.29.88.81v3.51h1.35v-3.64c0-1.07-.71-1.74-1.88-1.74-.8,0-1.45.28-1.78.54-.31-.27-.85-.54-1.71-.54-.76,0-1.46.17-2,.38v5h1.34v-4.19Z"/>
          <path class="cls-3" d="M296.47,113.37c.38-.16.99-.31,1.49-.31.61,0,1,.21,1,.75v.27c-1.61.09-3.12.37-3.12,1.81,0,1.08.8,1.7,2.4,1.7.8,0,1.6-.17,1.99-.38v-3.24c0-1.35-.76-1.88-2.12-1.88-.77,0-1.53.2-1.97.38l.33.9ZM298.95,116.54c-.14.06-.47.11-.76.11-.7,0-1.1-.28-1.1-.78,0-.79.87-.88,1.85-.93v1.6Z"/>
          <path class="cls-3" d="M302.9,113.27c.17-.07.42-.11.67-.11.22,0,.43.03.6.08l.25-1.1c-.18-.03-.42-.05-.69-.05-.86,0-1.62.17-2.17.38v5h1.34v-4.2Z"/>
          <polygon class="cls-3" points="305.39 110.65 305.39 117.47 306.72 117.47 306.72 114.82 306.74 114.82 308.66 117.47 310.18 117.47 308.13 114.67 310.05 112.21 308.5 112.21 306.74 114.51 306.72 114.51 306.72 110.65 305.39 110.65"/>
          <path class="cls-3" d="M313.23,117.59c.77,0,1.52-.16,1.96-.38l-.38-1c-.37.2-.95.33-1.48.33-.78,0-1.35-.38-1.47-1.15l3.42-.46c.02-.16.02-.3.02-.45,0-1.44-.82-2.39-2.29-2.39-1.55,0-2.47,1.13-2.47,2.74s.93,2.76,2.68,2.76ZM312.99,113.06c.62,0,1.02.4,1.02,1.19l-2.23.3c.02-.99.51-1.5,1.21-1.5Z"/>
          <path class="cls-3" d="M316.73,111.04v1.17h-.68v1h.68v2.69c0,1.1.48,1.66,1.51,1.66.33,0,.65-.07.81-.15v-1.1c-.09.04-.25.08-.39.08-.34,0-.61-.15-.61-.58v-2.6h1v-1h-1v-1.55l-1.32.38Z"/>
          <path class="cls-3" d="M289.12,102.65c0-.07-.03-.36.09-.43.09-.06.21-.03.31.05.22.2.4.43.59.66,1.27,1.57,2.53,3.15,3.8,4.72.24.29.49.58.78.83.21.18.44.3.72.32.28.02.55.03.83-.02.51-.09.81-.42.91-.98.02-.12.03-.25.03-.38,0-2.4,0-7.28,0-7.33h-1.7s0,4.18,0,6.16c0,.07,0,.14,0,.2,0,.2-.15.28-.33.19-.11-.06-.19-.16-.26-.25-.65-.76-1.25-1.54-1.88-2.32-.85-1.04-1.67-2.1-2.54-3.13-.12-.14-.24-.27-.37-.4-.21-.21-.37-.36-.74-.46-.31-.08-.6-.08-.95,0-.32.07-.57.17-.81.51-.11.15-.14.45-.14.67v7.52h1.69v-6.13Z"/>
          <path class="cls-3" d="M313.88,102.65c0-.07-.03-.36.09-.43.1-.06.21-.03.31.05.22.2.4.43.58.66,1.27,1.57,2.53,3.15,3.8,4.72.24.29.49.58.78.83.21.18.44.3.72.32.28.02.55.03.83-.02.51-.09.81-.42.91-.98.02-.12.03-.25.03-.38,0-2.4,0-7.28,0-7.33h-1.7s0,4.18,0,6.16c0,.07,0,.14,0,.2,0,.2-.15.28-.33.19-.11-.06-.18-.16-.26-.25-.65-.76-1.25-1.54-1.88-2.32-.85-1.04-1.67-2.1-2.54-3.13-.12-.14-.24-.27-.37-.4-.21-.21-.37-.36-.74-.46-.31-.08-.6-.08-.95,0-.32.07-.57.17-.81.51-.11.15-.14.45-.14.67v7.52h1.69v-6.13Z"/>
          <path class="cls-3" d="M301.87,107.31c.09-.19.2-.22.39-.22,1.73,0,3.37,0,5.09,0,.15,0,.24.05.32.23.23.5.45.96.69,1.46h1.83c-.17-.35-.36-.73-.52-1.09-.91-1.93-1.81-3.87-2.72-5.8-.17-.36-.32-.73-.52-1.08-.21-.39-.53-.62-.97-.69-.53-.08-1.05-.1-1.58.04-.34.09-.61.29-.78.61-.32.57-.57,1.18-.85,1.77-.78,1.65-2.93,6.24-2.93,6.24h1.85s.44-.93.68-1.46ZM302.77,105.36c.57-1.21,1.1-2.32,1.66-3.53.07-.15.18-.21.34-.21.17,0,.27.07.34.21.57,1.21,1.08,2.29,1.65,3.5.07.14-.02.26-.19.26h-3.68c-.16,0-.2-.1-.13-.24Z"/>
          <path class="cls-3" d="M325.28,106.5c.23.78.68,1.4,1.41,1.8.42.23.87.36,1.33.45,1.24.16,1.86.26,3.45,0,.61-.12,1.2-.31,1.7-.7.56-.43.88-.9,1.09-1.56.17-.53.18-1.07.18-1.58v-4.83h-1.69s0,3.29,0,4.86c0,.37-.04.73-.13,1.09-.15.58-.5.97-1.08,1.16-.33.11-.67.17-1.01.19-.72.05-1.44.05-2.15-.07-.38-.07-.75-.19-1.05-.45-.34-.31-.47-.72-.54-1.16-.07-.46-.08-.93-.08-1.4,0-1.36,0-2.86,0-4.21h-1.68c0,1.55,0,3.2,0,4.75,0,.57.07,1.13.24,1.67Z"/>
          <path class="cls-3" d="M269.52,121.47c7.44,0,13.47-6.03,13.47-13.47s-6.03-13.47-13.47-13.47-13.47,6.03-13.47,13.47,6.03,13.47,13.47,13.47ZM269.53,120.27c-1.66,0-3.78-.5-5.15-1.19.93-.62,3.17-2.12,3.96-2.83.35-.31.71-.93.72-1.61,0-.54-.21-1.03-.65-1.44-.29-.28-.66-.47-1.09-.69-1.07-.55-2.39-1.24-2.98-3.53-.07-.26-.12-.55-.17-.85-.02-.11-.05-.54-.07-.77,0-.09-.01-.16-.02-.2v-.1c.65-.18,1.35-.33,2.06-.43,1.17-.18,2.35-.27,3.39-.28h.02c1.16,0,2.26.06,3.31.21.77.11,1.51.27,2.21.5l-.02.07s-.01.07-.03.17c-.04.29-.14,1.05-.3,1.65-.65,2.35-2,3.05-2.99,3.57-.43.22-.8.42-1.09.69-.14.13-.25.27-.34.41-.3.47-.38,1-.21,1.54.11.38.35.75.69,1.11.34.35.72.63.98.79l2.91,1.91c-1.57.69-3.64,1.32-5.14,1.32ZM269.52,95.7c6.79,0,12.29,5.51,12.29,12.3,0,4.48-2.4,8.4-5.98,10.55l-2.05-1.34-1.42-1.02s0,0,0,0c-.27-.17-.56-.4-.8-.65-.21-.22-.38-.46-.45-.7-.07-.22-.05-.45.09-.67.05-.07.11-.15.19-.22.18-.18.49-.34.86-.53,1.16-.6,2.85-1.48,3.55-4.27.07-.29.14-.61.19-.94.02-.12.03-.25.05-.39.22-.09.4-.18.53-.28.17-.12.27-.26.27-.39,0-.11-.06-.22-.18-.32-.11-.09-.26-.19-.46-.28-.47-.22-1.19-.43-2.08-.61-.82-.16-1.78-.29-2.84-.36-.01,0-.01-.05-.04-.09-.05-.09-.1-.45-.48-.45h-2.48c-.41,0-.46.54-.47.54-1.06.07-2.03.2-2.85.36-.9.17-1.61.39-2.08.61-.2.09-.35.19-.45.28-.12.11-.18.21-.18.32,0,.13.09.26.27.39.13.09.31.19.54.28.02.14.03.27.05.41.05.34.12.66.2.96.71,2.76,2.39,3.63,3.54,4.23.36.19.67.35.86.53.77.74-.12,1.61-.22,1.71l-4.14,2.96c-3.64-2.14-6.08-6.09-6.08-10.61,0-6.79,5.51-12.3,12.3-12.3Z"/>
          <path class="cls-3" d="M262.95,105.8c.3-.14.63-.24.93-.33.57-.16,1.17-.28,1.76-.37.71-.11,1.21-.18,1.92-.23.01-.02.19-.45.55-.47.58-.02,2.18-.02,2.68-.02.59,0,.69.47.7.49.71.05,1.33.12,2.04.23.59.09,1.18.21,1.76.37.3.08.63.19.92.32,0-.05,0-.09,0-.14.23-3.01-1.45-5.82-4.03-6.83-.09-.03-.18-.07-.27-.1-.02-.01-.06-.02-.09-.04-.01.11-.79,5.52-.79,5.52l-.2-5.92s0-.27,0-.41c-.56-.09-1.93-.11-2.54,0,0,.07-.21,6.32-.21,6.32,0,0-.66-4.43-.82-5.46-.07.02-.15.05-.22.06h0c-2.59,1.01-4.33,3.84-4.08,6.86v.14Z"/>
        </g>
      </g>
      <g>
        <g>
          <path class="cls-3" d="M245.77,57.71c-1.64-.66-3.39-.98-5.17-.95h-7.25l3.04,1.53h4.33c.98-.04,1.93.07,2.86.31v1.95c-.93.24-1.91.35-2.86.33h-4.26v1.91h4.26c1.11-.02,2.2.11,3.26.44v2.2c-1.06.33-2.15.49-3.26.44h-4.75v-7.25l-2.77-1.46v10.27h8.14c1.64.11,3.3-.24,4.75-1.06v-3.88c-.47-.33-1-.6-1.55-.75.44-.11.87-.31,1.24-.56v-3.46Z"/>
          <path class="cls-3" d="M277.54,64.94v-8.23l-2.57.82v6.81c-.55.62-1.31,1.04-2.13,1.2h-4.99c-.82-.16-1.57-.58-2.13-1.2v-6.83l-2.57-.82v8.25l-.04.09c1.11,1.31,2.59,2.24,4.26,2.62h5.94c1.69-.4,3.17-1.35,4.24-2.71Z"/>
          <polygon class="cls-3" points="302.54 67.4 305.29 67.4 305.29 58.3 310.15 58.3 311.55 56.75 296.2 56.75 297.64 58.3 302.47 58.3 302.54 67.4"/>
          <polygon class="cls-3" points="293.38 65.94 283.6 65.94 283.6 62.76 293.11 62.76 293.11 61.17 283.6 61.17 283.6 58.3 293.05 58.3 294.64 56.75 280.76 56.75 280.82 67.49 295.11 67.49 293.38 65.94"/>
          <polygon class="cls-3" points="319.18 58.3 319.2 67.4 321.93 67.4 321.93 58.3 326.76 58.3 328.18 56.75 312.88 56.75 314.32 58.3 319.18 58.3"/>
          <polygon class="cls-3" points="330.16 56.75 330.2 67.4 332.95 67.4 332.95 56.75 330.16 56.75"/>
          <polygon class="cls-3" points="249.3 56.75 249.3 67.4 259.66 67.4 261.32 65.85 252.05 65.85 252.05 56.75 249.3 56.75"/>
        </g>
        <g>
          <path class="cls-3" d="M58.51,79.07c.75.06,1.31-.4,1.43-1.22.15-.99.27-1.99.42-2.98.37-2.54.75-5.08,1.15-7.73.34.03.62.05.89.08,2.83.22,5.61.08,8.24-1.14,1.25-.58,2.34-1.37,3.04-2.6,1.19-2.1.41-4.43-1.82-5.33-.75-.3-1.57-.47-2.37-.58-2.51-.34-4.99-.01-7.46.4-2.09.35-2.16.46-2.41,2.55-.43,3.5-.9,7-1.36,10.49-.29,2.2-.62,4.39-.89,6.6-.1.83.4,1.4,1.16,1.46ZM61.82,63.96c.15-.94.23-1.9.4-2.84.04-.23.3-.58.5-.62,2.47-.4,4.96-.69,7.45-.21.36.07.74.21,1.02.42.52.39.53,1.01.18,1.44-.48.58-1.06,1.13-1.71,1.49-1.64.89-3.46,1.06-5.6,1.09-.4-.04-1.09-.1-1.79-.17-.38-.03-.51-.2-.44-.61Z"/>
          <path class="cls-3" d="M36.26,69.32c.18-.18.32-.4.47-.61,1.45-2.15,2.9-4.31,4.35-6.46.13-.2.29-.39.5-.68,1.04,1.84,2.02,3.56,3.01,5.28.54.95,1.38,1.11,2.22.42.42-.34.8-.72,1.19-1.09,1.32-1.25,2.64-2.51,4-3.81.08.15.2.37.31.6.63,1.28,1.24,2.57,1.89,3.83.39.76,1.14,1,1.83.64.66-.34.88-1.06.52-1.8-.97-2.02-1.95-4.04-2.94-6.05-.52-1.06-1.49-1.23-2.34-.43-.66.63-1.27,1.31-1.94,1.93-1.08,1-2.19,1.97-3.28,2.95,0,.01-.12-.2-.25-.42-.95-1.61-1.88-3.23-2.83-4.84-.77-1.31-1.83-1.34-2.67-.09-1.68,2.5-3.36,5.01-5.04,7.51-.35.52-.73,1.03-1.05,1.58-.33.57-.17,1.26.33,1.64.51.39,1.26.36,1.73-.11Z"/>
          <path class="cls-3" d="M79.23,67.02c1.84.59,3.56.26,5.13-.83.53-.37,1-.83,1.58-1.31.47.86.9,1.69,1.36,2.5.44.79,1.19,1.04,1.88.67.69-.37.85-1.12.42-1.94-.56-1.07-1.17-2.13-1.68-3.23-.14-.3-.12-.77,0-1.09.4-1.07.91-2.1,1.32-3.16.33-.85.01-1.56-.75-1.83-.71-.24-1.39.11-1.71.91-.19.48-.37.97-.57,1.49-1.45-1.47-2.01-1.84-3.03-2.06-3.05-.66-6.17,1.46-6.9,4.69-.53,2.34.66,4.45,2.94,5.18ZM78.96,62.07c.44-1.35,1.37-2.2,2.79-2.44,1.28-.22,2.92,1.25,2.83,2.51,0,.07-.04.13-.06.2-.51,1.17-2.3,2.37-3.57,2.38-1.6.01-2.47-1.14-1.98-2.65Z"/>
          <path class="cls-3" d="M20.64,65.42c.69.66,1.38,1.34,1.97,2.08.67.85.98,1.85.81,2.96-.2,1.28-1.36,2.07-2.62,1.77-.27-.06-.53-.18-.81-.23-.73-.13-1.33.23-1.53.9-.19.62.1,1.28.78,1.53.65.24,1.34.36,2.01.54,2.36-.09,4.26-1.63,4.75-3.91.29-1.36.15-2.7-.55-3.86-.7-1.14-1.6-2.16-2.46-3.19-.66-.79-1.46-1.45-2.06-2.27-.72-.99-.59-2.17.17-2.88.66-.62,1.59-.58,2.63.1.02.01.04.03.06.04.64.4,1.39.3,1.82-.26.43-.55.33-1.29-.25-1.82-1.33-1.2-3.74-1.43-5.32-.51-1.64.96-2.55,3.05-2.13,4.88.4,1.72,1.53,2.96,2.75,4.13Z"/>
          <path class="cls-3" d="M93.33,69.79c.66.07,1.25-.36,1.43-1.07.05-.2.08-.41.12-.62.31-2.01.61-4.01.92-6.02.92-5.97,1.84-11.95,2.76-17.92.15-.99-.25-1.63-1.04-1.74-.84-.12-1.4.39-1.56,1.4-.96,6.2-1.93,12.4-2.9,18.61-.31,1.98-.6,3.97-.88,5.83-.02.9.45,1.47,1.16,1.55Z"/>
          <path class="cls-3" d="M98.28,68.61s-.09,0-.14,0c-.62.07-1.09.55-1.13,1.15-.04.59.37,1.15.98,1.28.23.05.46.05.58.06,2.3-.03,4.07-1.59,4.47-3.75.25-1.34-.12-2.6-.33-3.88-.48-3.04.85-4.16,3.03-4.46.78-.11,1.21-.69,1.13-1.35-.08-.67-.62-1.1-1.4-1.1-2.17-.01-4.43,1.51-5.04,3.6-.29,1.01-.33,2.11-.32,3.17,0,.85.29,1.7.4,2.55.19,1.43-.45,2.79-2.26,2.72Z"/>
          <path class="cls-3" d="M29.8,71.63c.8.08,1.41-.47,1.48-1.42.31-3.86.6-7.73.88-11.46,0-.2,0-.27,0-.34.04-1.13-.36-1.72-1.21-1.77-.81-.04-1.31.5-1.4,1.57-.32,3.95-.63,7.91-.93,11.87-.06.85.42,1.47,1.17,1.55Z"/>
          <path class="cls-3" d="M31.25,54.78c.97.01,1.76-.8,1.75-1.8,0-.94-.75-1.64-1.73-1.63-.97.01-1.73.77-1.72,1.73,0,.93.76,1.67,1.7,1.69Z"/>
        </g>
        <g>
          <path class="cls-3" d="M134.42,66.73c.02.94.65,1.54,1.54,1.52.97-.02,1.53-.78,1.49-1.88-.04-1.24-.01-2.47-.01-3.74.16,0,.32-.02.47-.02,1.2-.01,2.39,0,3.55-.38,2.05-.67,2.99-2.14,2.83-4.45-.12-1.76-1.37-3.15-3.33-3.39-1.59-.19-3.21-.12-4.82-.17-.91-.03-1.53.33-1.83,1.2v6.13c.02.17.06.34.06.51.02,1.56.01,3.12.04,4.68ZM137.41,56.78c.94.06,1.89.07,2.82.21.7.11,1.03.61,1.07,1.28.03.68-.3,1.18-.97,1.42-.94.32-1.91.26-2.91.24v-3.15Z"/>
          <path class="cls-3" d="M165.74,59.7c-.54,1.79-.54,3.59.06,5.37.76,2.26,2.28,3.83,4.52,4.7,1.51.59,3.07.68,4.67.47,3.19-.41,5.77-2.7,6.53-5.8.02-.08.07-.16.13-.31.31,1.4.87,2.59,1.78,3.58,1.94,2.12,4.41,2.84,7.2,2.57,2.45-.23,4.47-1.28,5.88-3.34,1.31-1.92,1.61-4.06,1.22-6.31-.41-2.32-1.63-4.08-3.71-5.23-1.11-.61-2.31-.92-3.56-1.02-3.89-.3-7.77,1.51-8.83,6.12-.07-.26-.11-.37-.14-.49-.57-2.07-1.75-3.69-3.69-4.65-2.67-1.33-5.41-1.38-8.14-.18-2,.88-3.3,2.44-3.92,4.52ZM186.27,58.02c1.57-1.37,3.42-1.61,5.33-.88,1.94.74,2.92,2.28,3.23,4.28.14.93.07,1.84-.19,2.74-.67,2.31-2.6,3.75-5.02,3.74-2.77,0-4.94-2.07-5.15-4.9-.14-1.92.28-3.67,1.79-4.98ZM170.44,57.77c2.71-2.04,7.52-1.06,8.26,3.49.33,2.02-.11,3.87-1.67,5.33-.93.87-2.15,1.3-3.5,1.3-2.28,0-4.16-1.37-4.88-3.54-.81-2.46-.06-5.19,1.79-6.58Z"/>
          <path class="cls-3" d="M155.98,56.2c.32.06.67.05,1,.02,1.03-.09,2.06-.21,3.16-.32.03.18.07.32.08.46.3,2.95.6,5.9.9,8.85.08.82.14,1.66.32,2.46.18.85.86,1.24,1.74,1.14.75-.09,1.25-.66,1.29-1.48.01-.21,0-.42-.02-.62-.26-2.62-.53-5.23-.8-7.85-.11-1.07-.22-2.15-.33-3.25.29-.04.52-.07.75-.09,1.06-.13,2.13-.2,3.18-.39.71-.13,1.03-.71.93-1.4-.09-.65-.56-1.07-1.26-1.07-.46,0-.92.04-1.38.09-2.97.3-5.95.6-8.92.9-.28.03-.57.09-.84.19-.54.21-.8.67-.75,1.26.04.59.36,1,.94,1.11Z"/>
          <path class="cls-3" d="M198.68,61.32c.32,2.24.63,4.48.96,6.72.1.68.46,1.07,1.02,1.17,1.01.17,1.7-.54,1.55-1.62-.16-1.2-.35-2.4-.52-3.59-.13-.89-.27-1.77.15-2.63.41-.83,1.26-1.33,2.19-1.27.75.05,1.39.63,1.63,1.54.15.57.23,1.15.32,1.74.2,1.29.36,2.59.58,3.87.14.76.74,1.11,1.5.98.67-.12,1.14-.68,1.05-1.38-.26-1.94-.49-3.89-.85-5.82-.48-2.6-2.79-3.87-5.19-2.93-.94.37-1.56,1.07-2.03,2.1-.03-.2-.04-.27-.05-.33-.15-.9-.68-1.38-1.42-1.28-.81.12-1.19.73-1.04,1.68.05.35.11.69.16,1.04Z"/>
          <path class="cls-3" d="M151.88,67.73c.53-.57,1.02-1.18,1.53-1.78.29-.33.57-.67.88-1.02.36.43.67.82.99,1.19.46.55.9,1.12,1.39,1.64.5.52,1.23.59,1.8.23.55-.35.79-1.09.52-1.74-.1-.24-.28-.46-.46-.66-.78-.88-1.57-1.75-2.38-2.65.14-.16.25-.29.37-.42.61-.7,1.24-1.37,1.82-2.09.46-.57.4-1.33-.07-1.79-.47-.47-1.25-.53-1.8-.12-.19.14-.35.33-.5.51-.56.67-1.11,1.34-1.68,2.04-.13-.15-.22-.26-.31-.37-.54-.65-1.05-1.33-1.62-1.96-.77-.85-2.1-.59-2.43.46-.18.55,0,1.03.37,1.45.69.75,1.37,1.51,2.07,2.28-.13.16-.24.29-.36.42-.73.83-1.47,1.64-2.18,2.48-.54.64-.5,1.52.07,2.02.58.51,1.4.47,1.97-.15Z"/>
          <path class="cls-3" d="M148.16,59.67c-.03-.9-.62-1.42-1.48-1.4-.82.02-1.38.59-1.41,1.44-.02.45,0,.89,0,1.34,0,1.87,0,3.73,0,5.6,0,.76.34,1.28.91,1.48.99.35,1.93-.23,1.97-1.28.05-1.18.01-2.36.01-3.54h0c0-1.21.03-2.42,0-3.64Z"/>
          <path class="cls-3" d="M146.72,57.4c1.01,0,1.78-.73,1.79-1.67,0-.97-.77-1.68-1.82-1.68-.99,0-1.73.72-1.73,1.66,0,.96.77,1.69,1.76,1.69Z"/>
          <path class="cls-3" d="M192.3,52.48c-1.14-.23-2.24-.46-3.35-.69-.35-.08-.36.14-.35.46,1.21.24,2.41.48,3.63.73.03-.2.05-.34.07-.49Z"/>
          <path class="cls-3" d="M175.61,53.86v-.51c-1.17,0-2.3,0-3.43,0-.4,0-.32.24-.27.51h3.7Z"/>
          <path class="cls-3" d="M173.59,64.82c1.31.6,2.83.13,3.55-1.09.69-1.18.38-2.73-.7-3.5-.17.29-.38.55-.76.35-.38-.2-.28-.52-.16-.84-1.48-.37-2.88.35-3.33,1.69-.46,1.34.14,2.81,1.4,3.39Z"/>
          <path class="cls-3" d="M187.43,64.81c1.28.61,2.85.15,3.55-1.06.7-1.19.4-2.77-.52-3.41-.37.11-.67.3-.9.23-.4-.11-.33-.48-.18-.82-1.39-.4-2.79.28-3.29,1.57-.53,1.36.05,2.86,1.34,3.48Z"/>
        </g>
      </g>
    </g>
  </g>
</svg>