<?xml version="1.0" encoding="UTF-8"?>
<svg id="Layer_2" data-name="Layer 2" xmlns="http://www.w3.org/2000/svg" viewBox="0 0 496.66 466.96">
  <defs>
    <style>
      .cls-1 {
        fill: #fd0;
      }

      .cls-1, .cls-2, .cls-3 {
        stroke-width: 0px;
      }

      .cls-2 {
        fill: #ff1f5e;
      }

      .cls-3 {
        fill: #0095ff;
      }
    </style>
  </defs>
  <g id="Layer_1-2" data-name="Layer 1">
    <g>
      <polygon class="cls-3" points="376.2 89.61 35.72 190.37 91.19 424.92 428.1 356.23 376.2 89.61"/>
      <polygon class="cls-2" points="109.28 134.55 167.69 217.93 120.84 293.78 218.65 271.52 322.36 340.74 298.65 245.33 354.55 193.62 281.76 176.44 250.53 89.61 204.61 162.5 109.28 134.55"/>
      <polygon class="cls-2" points="176.28 466.96 176.28 330.03 219.1 307.48 235.76 333.11 176.28 466.96"/>
      <polygon class="cls-1" points="206.87 169.22 250.53 89.61 270.16 179.81 354.55 193.62 292.91 243.7 314.74 322.03 226.91 251.05 120.84 293.78 173.49 218.02 109.28 134.55 206.87 169.22"/>
      <polygon class="cls-1" points="176.28 330.03 176.28 466.96 225.17 330.03 214.5 314.96 176.28 330.03"/>
      <polygon class="cls-2" points="302.92 117.04 301.47 135.45 306.43 150.96 350.28 167.56 428.1 43.1 302.92 117.04"/>
      <path class="cls-2" d="M334.78,259.02l12.98,48.46s150.22-20.52,148.89-20.96-147.72-39.36-147.72-39.36l-14.15,11.87Z"/>
      <polygon class="cls-1" points="352.94 295.88 489.41 284.65 348.93 247.15 334.78 259.02 352.94 295.88"/>
      <polygon class="cls-1" points="340.49 148.33 428.1 43.1 302.92 117.04 301.47 135.45 340.49 148.33"/>
      <polygon class="cls-2" points="125.17 0 148.96 115.79 191.69 129.7 206.02 96.59 125.17 0"/>
      <polygon class="cls-1" points="194.73 98.6 125.17 0 148.96 115.79 185.57 122.06 194.73 98.6"/>
      <polygon class="cls-2" points="0 248.79 103.39 257.27 115.06 221.04 92.07 210.8 0 248.79"/>
      <polygon class="cls-1" points="92.07 210.8 0 248.79 97.54 250.78 109.28 222.45 92.07 210.8"/>
    </g>
  </g>
</svg>