<?xml version="1.0" encoding="UTF-8"?>
<svg id="Layer_2" data-name="Layer 2" xmlns="http://www.w3.org/2000/svg" viewBox="0 0 388.25 348.87">
  <defs>
    <style>
      .cls-1 {
        fill: #ebc100;
      }

      .cls-1, .cls-2, .cls-3, .cls-4, .cls-5 {
        stroke-width: 0px;
      }

      .cls-2 {
        fill: #ff6400;
      }

      .cls-3 {
        fill: #0095ff;
      }

      .cls-4 {
        fill: #d69d00;
        opacity: .5;
      }

      .cls-5 {
        fill: #ffe600;
      }
    </style>
  </defs>
  <g id="Layer_1-2" data-name="Layer 1">
    <g>
      <polygon class="cls-3" points="42.48 37.89 14.93 317.98 334.93 344.56 321.15 46.4 42.48 37.89"/>
      <g>
        <path class="cls-2" d="M366.19,106.35c-22.5-6.41-58.88,1.62-94.01,22.8-35.13,21.18-59.22,49.6-64.05,72.49l-7.79,4.69,10.57,17.54c14.11,23.41,64.42,18.95,112.36-9.96,47.95-28.91,75.38-71.31,61.27-94.72l-10.57-17.54-7.79,4.69Z"/>
        <ellipse class="cls-5" cx="287.16" cy="153.99" rx="101.37" ry="49.49" transform="translate(-38.27 170.37) rotate(-31.08)"/>
        <ellipse class="cls-4" cx="287.46" cy="156.47" rx="92.23" ry="39.75" transform="translate(-39.51 170.88) rotate(-31.08)"/>
        <g>
          <rect class="cls-5" x="311.41" y="201.32" width="1.71" height="15.57" rx=".44" ry=".44" transform="translate(-63.12 191.25) rotate(-31.08)"/>
          <rect class="cls-5" x="323.77" y="193.87" width="1.71" height="15.57" rx=".44" ry=".44" transform="translate(-57.5 196.56) rotate(-31.08)"/>
          <rect class="cls-5" x="319.65" y="196.35" width="1.71" height="15.57" rx=".44" ry=".44" transform="translate(-59.38 194.79) rotate(-31.08)"/>
          <rect class="cls-5" x="315.53" y="198.84" width="1.71" height="15.57" rx=".44" ry=".44" transform="translate(-61.25 193.02) rotate(-31.08)"/>
          <rect class="cls-5" x="307.11" y="203.51" width="1.71" height="15.57" rx=".44" ry=".44" transform="translate(-64.87 189.34) rotate(-31.08)"/>
          <rect class="cls-5" x="302.99" y="205.99" width="1.71" height="15.57" rx=".44" ry=".44" transform="translate(-66.74 187.57) rotate(-31.08)"/>
          <rect class="cls-5" x="298.58" y="207.99" width="1.71" height="15.57" rx=".44" ry=".44" transform="translate(-68.41 185.58) rotate(-31.08)"/>
          <rect class="cls-5" x="294.13" y="209.93" width="1.71" height="15.57" rx=".44" ry=".44" transform="translate(-70.05 183.56) rotate(-31.08)"/>
          <rect class="cls-5" x="289.73" y="211.95" width="1.71" height="15.57" rx=".44" ry=".44" transform="translate(-71.73 181.58) rotate(-31.08)"/>
          <rect class="cls-5" x="285.37" y="214.04" width="1.71" height="15.57" rx=".44" ry=".44" transform="translate(-73.43 179.63) rotate(-31.08)"/>
          <rect class="cls-5" x="280.61" y="215.46" width="1.71" height="15.57" rx=".44" ry=".44" transform="translate(-74.85 177.38) rotate(-31.08)"/>
          <rect class="cls-5" x="275.72" y="216.67" width="1.71" height="15.57" rx=".44" ry=".44" transform="translate(-76.17 175.02) rotate(-31.08)"/>
          <rect class="cls-5" x="271.03" y="218.21" width="1.71" height="15.57" rx=".44" ry=".44" transform="translate(-77.64 172.82) rotate(-31.08)"/>
          <rect class="cls-5" x="266.34" y="219.75" width="1.71" height="15.57" rx=".44" ry=".44" transform="translate(-79.11 170.62) rotate(-31.08)"/>
          <rect class="cls-5" x="260.99" y="220.19" width="1.71" height="15.57" rx=".44" ry=".44" transform="translate(-80.11 167.93) rotate(-31.08)"/>
          <rect class="cls-5" x="255.99" y="221.21" width="1.71" height="15.57" rx=".44" ry=".44" transform="translate(-81.35 165.49) rotate(-31.08)"/>
          <rect class="cls-5" x="250.53" y="221.47" width="1.71" height="15.57" rx=".44" ry=".44" transform="translate(-82.27 162.71) rotate(-31.08)"/>
          <rect class="cls-5" x="245.05" y="221.71" width="1.71" height="15.57" rx=".44" ry=".44" transform="translate(-83.18 159.91) rotate(-31.08)"/>
          <rect class="cls-5" x="239.94" y="222.55" width="1.71" height="15.57" rx=".44" ry=".44" transform="translate(-84.34 157.39) rotate(-31.08)"/>
          <rect class="cls-5" x="234.15" y="222.26" width="1.71" height="15.57" rx=".44" ry=".44" transform="translate(-85.03 154.36) rotate(-31.08)"/>
          <rect class="cls-5" x="228.47" y="220.95" width="1.71" height="15.57" rx=".44" ry=".44" transform="translate(-85.17 151.25) rotate(-31.08)"/>
          <rect class="cls-5" x="223.25" y="219.74" width="1.71" height="15.57" rx=".44" ry=".44" transform="translate(-85.29 148.37) rotate(-31.08)"/>
          <rect class="cls-5" x="218.56" y="218.58" width="1.71" height="15.57" rx=".44" ry=".44" transform="translate(-85.37 145.79) rotate(-31.08)"/>
          <rect class="cls-5" x="213.32" y="218.23" width="1.71" height="12.14" rx=".44" ry=".44" transform="translate(-85.06 142.78) rotate(-31.08)"/>
          <rect class="cls-5" x="327.47" y="190.68" width="1.71" height="15.57" rx=".44" ry=".44" transform="translate(711.96 198.92) rotate(148.92)"/>
          <rect class="cls-5" x="331.59" y="188.2" width="1.71" height="15.57" rx=".44" ry=".44" transform="translate(718.33 192.18) rotate(148.92)"/>
          <rect class="cls-5" x="335.41" y="185.22" width="1.71" height="15.57" rx=".44" ry=".44" transform="translate(723.9 184.69) rotate(148.92)"/>
          <rect class="cls-5" x="339.2" y="182.19" width="1.71" height="15.57" rx=".44" ry=".44" transform="translate(729.37 177.11) rotate(148.92)"/>
          <rect class="cls-5" x="343.05" y="179.25" width="1.71" height="15.57" rx=".44" ry=".44" transform="translate(734.99 169.66) rotate(148.92)"/>
          <rect class="cls-5" x="346.93" y="176.37" width="1.71" height="15.57" rx=".44" ry=".44" transform="translate(740.71 162.31) rotate(148.92)"/>
          <rect class="cls-5" x="350.41" y="172.82" width="1.71" height="15.57" rx=".44" ry=".44" transform="translate(745.33 153.93) rotate(148.92)"/>
          <rect class="cls-5" x="353.76" y="169.06" width="1.71" height="15.57" rx=".44" ry=".44" transform="translate(749.6 145.21) rotate(148.92)"/>
          <rect class="cls-5" x="357.31" y="165.63" width="1.71" height="15.57" rx=".44" ry=".44" transform="translate(754.43 137.02) rotate(148.92)"/>
          <rect class="cls-5" x="360.86" y="162.21" width="1.71" height="15.57" rx=".44" ry=".44" transform="translate(759.25 128.82) rotate(148.92)"/>
          <rect class="cls-5" x="363.75" y="157.68" width="1.71" height="15.57" rx=".44" ry=".44" transform="translate(762.28 118.93) rotate(148.92)"/>
          <rect class="cls-5" x="366.99" y="153.74" width="1.71" height="15.57" rx=".44" ry=".44" transform="translate(766.26 109.93) rotate(148.92)"/>
          <rect class="cls-5" x="369.77" y="149.03" width="1.71" height="15.57" rx=".44" ry=".44" transform="translate(768.99 99.76) rotate(148.92)"/>
          <rect class="cls-5" x="372.53" y="144.29" width="1.71" height="15.57" rx=".44" ry=".44" transform="translate(771.67 89.54) rotate(148.92)"/>
          <rect class="cls-5" x="375.66" y="140.16" width="1.71" height="15.57" rx=".44" ry=".44" transform="translate(775.35 80.26) rotate(148.92)"/>
          <rect class="cls-5" x="378.11" y="134.91" width="1.71" height="15.57" rx=".44" ry=".44" transform="translate(777.18 69.24) rotate(148.92)"/>
          <rect class="cls-5" x="379.6" y="129.28" width="1.71" height="15.57" rx=".44" ry=".44" transform="translate(777.05 58.02) rotate(148.92)"/>
          <rect class="cls-5" x="380.97" y="124.09" width="1.71" height="15.57" rx=".44" ry=".44" transform="translate(776.92 47.68) rotate(148.92)"/>
          <rect class="cls-5" x="382.14" y="119.4" width="1.71" height="15.57" rx=".44" ry=".44" transform="translate(776.66 38.38) rotate(148.92)"/>
          <rect class="cls-5" x="382.81" y="115.61" width="1.71" height="12.14" rx=".44" ry=".44" transform="translate(775.07 27.81) rotate(148.92)"/>
        </g>
        <path class="cls-2" d="M212.12,208.39s-3.7-1.89-6.34-6.28c-4.37-7.25-3.13-15.55-1.49-21.35,2.77-9.77,11.3-22.42,16.5-28.54,5.2-6.12,19.34-19.84,33.12-28.93,13.13-8.66,24.77-14.27,32.52-17.95,7.75-3.67,25.49-9.29,34.13-11.28,9.45-2.17,17.31-2.55,24.32-1.67,6.29.79,10.9,2.08,14.94,4.63,3.34,2.11,5.54,4.97,7.19,9.24,1.05,2.71,1.48,7.39,1.48,7.39,0,0-2.19-5.65-4.36-7.85-3.88-3.91-6.36-5.05-11.19-6.28-4.84-1.24-13.44-2.09-22.11-1.06-6.84.82-19.49,3.6-27.6,6.66-8.11,3.07-21.37,8.91-30.52,13.82-6.64,3.56-19.25,11.84-28.38,19.21-7.46,6.03-19.32,17.11-24.53,24.31s-8.9,12.27-11.02,18.25c-1.52,4.29-2.5,6.84-2.77,10.97s.58,7.71,1.84,10.51c1.17,2.6,4.29,6.19,4.29,6.19Z"/>
        <path class="cls-2" d="M266.4,205.91l21.17-10.96-.73-26.52,5.08-3.07,19.81,16.33,18.58-11.2-21.5-15.57s6.67-8.18,7.9-10.67c2.66-5.36,2.39-9.95.81-14.83-1.73-5.35-6.26-11.42-12.96-10.95-4.63.32-15.19,4.47-24.48,9.36-6.49,3.42-17.97,10.74-17.97,10.74l4.28,67.33Z"/>
        <polygon class="cls-2" points="266.4 205.91 262.73 199.82 283.89 188.86 287.56 194.95 266.4 205.91"/>
        <polygon class="cls-2" points="283.16 162.35 286.83 168.43 287.56 194.95 283.89 188.86 283.16 162.35"/>
        <rect class="cls-2" x="308.33" y="169.49" width="21.7" height="7.11" transform="translate(-43.51 189.64) rotate(-31.08)"/>
        <rect class="cls-2" x="284.57" y="160.3" width="5.94" height="7.11" transform="translate(-43.31 171.98) rotate(-31.08)"/>
        <polygon class="cls-2" points="288.25 159.28 291.92 165.37 311.72 181.7 308.05 175.61 288.25 159.28"/>
        <polygon class="cls-2" points="315.82 125.56 311.51 118.42 313.95 125.92 316.74 128.28 315.82 125.56"/>
        <path class="cls-5" d="M262.73,199.82l21.17-10.96-.73-26.52,5.08-3.07,19.81,16.33,18.58-11.2-21.5-15.57s6.67-8.18,7.9-10.67c2.66-5.36,2.39-9.95.81-14.83-1.73-5.35-6.26-11.42-12.96-10.95-4.63.32-15.19,4.47-24.48,9.36-6.49,3.42-17.97,10.74-17.97,10.74l4.28,67.33Z"/>
        <path class="cls-2" d="M278.61,149.05l-2.9-12.95s6.85-5.13,10.28-6.19c3.42-1.07,5.87-.5,6.67,1.74s2.4,6,.45,8.42c-1.95,2.42-14.49,8.99-14.49,8.99Z"/>
        <path class="cls-2" d="M275.72,136.1l2.9,12.95s3.02-1.62,3.7-2,2.66-1.46,2.66-1.46l-2.87-2.94-6.39-6.55Z"/>
        <path class="cls-1" d="M281.17,141.69s2.55-1.63,4.7-2.89,4.16-2.51,5.74-3.02c1.58-.51,2.12-.86,2.12-.86,0,0,.59,2.63.12,3.7s-.7,1.68-2.19,2.72c-1.48,1.04-5.34,3.44-5.34,3.44l-3.13,1.73-2.03-4.82Z"/>
      </g>
      <g>
        <path class="cls-2" d="M181.24,118.26c-4.26-23-27.62-52.02-62.21-74.07C84.44,22.13,48.28,13.18,25.62,19.03l-7.67-4.89L6.95,31.41c-14.69,23.04,11.66,66.13,58.87,96.23,47.21,30.1,97.38,35.82,112.08,12.78l11.01-17.27-7.67-4.89Z"/>
        <ellipse class="cls-5" cx="103.43" cy="68.64" rx="49.49" ry="101.37" transform="translate(-10.06 118.95) rotate(-57.48)"/>
        <ellipse class="cls-4" cx="101.35" cy="70.01" rx="39.75" ry="92.23" transform="translate(-12.17 117.82) rotate(-57.48)"/>
        <g>
          <rect class="cls-5" x="64.37" y="107.84" width="1.71" height="15.57" rx=".44" ry=".44" transform="translate(72.4 -16.93) rotate(32.52)"/>
          <rect class="cls-5" x="76.54" y="115.6" width="1.71" height="15.57" rx=".44" ry=".44" transform="translate(78.48 -22.26) rotate(32.52)"/>
          <rect class="cls-5" x="72.48" y="113.02" width="1.71" height="15.57" rx=".44" ry=".44" transform="translate(76.45 -20.48) rotate(32.52)"/>
          <rect class="cls-5" x="68.42" y="110.43" width="1.71" height="15.57" rx=".44" ry=".44" transform="translate(74.42 -18.71) rotate(32.52)"/>
          <rect class="cls-5" x="60.49" y="104.97" width="1.71" height="15.57" rx=".44" ry=".44" transform="translate(70.24 -15.3) rotate(32.52)"/>
          <rect class="cls-5" x="56.44" y="102.38" width="1.71" height="15.57" rx=".44" ry=".44" transform="translate(68.21 -13.53) rotate(32.52)"/>
          <rect class="cls-5" x="52.69" y="99.31" width="1.71" height="15.57" rx=".44" ry=".44" transform="translate(65.98 -11.99) rotate(32.52)"/>
          <rect class="cls-5" x="48.97" y="96.19" width="1.71" height="15.57" rx=".44" ry=".44" transform="translate(63.72 -10.48) rotate(32.52)"/>
          <rect class="cls-5" x="45.2" y="93.15" width="1.71" height="15.57" rx=".44" ry=".44" transform="translate(61.49 -8.93) rotate(32.52)"/>
          <rect class="cls-5" x="41.4" y="90.17" width="1.71" height="15.57" rx=".44" ry=".44" transform="translate(59.29 -7.35) rotate(32.52)"/>
          <rect class="cls-5" x="38.01" y="86.54" width="1.71" height="15.57" rx=".44" ry=".44" transform="translate(56.81 -6.1) rotate(32.52)"/>
          <rect class="cls-5" x="34.76" y="82.69" width="1.71" height="15.57" rx=".44" ry=".44" transform="translate(54.23 -4.96) rotate(32.52)"/>
          <rect class="cls-5" x="31.29" y="79.18" width="1.71" height="15.57" rx=".44" ry=".44" transform="translate(51.8 -3.64) rotate(32.52)"/>
          <rect class="cls-5" x="27.83" y="75.66" width="1.71" height="15.57" rx=".44" ry=".44" transform="translate(49.36 -2.33) rotate(32.52)"/>
          <rect class="cls-5" x="25.05" y="71.07" width="1.71" height="15.57" rx=".44" ry=".44" transform="translate(46.46 -1.56) rotate(32.52)"/>
          <rect class="cls-5" x="21.91" y="67.04" width="1.71" height="15.57" rx=".44" ry=".44" transform="translate(43.8 -.5) rotate(32.52)"/>
          <rect class="cls-5" x="19.25" y="62.27" width="1.71" height="15.57" rx=".44" ry=".44" transform="translate(40.82 .18) rotate(32.52)"/>
          <rect class="cls-5" x="16.61" y="57.46" width="1.71" height="15.57" rx=".44" ry=".44" transform="translate(37.82 .84) rotate(32.52)"/>
          <rect class="cls-5" x="13.58" y="53.26" width="1.71" height="15.57" rx=".44" ry=".44" transform="translate(35.08 1.81) rotate(32.52)"/>
          <rect class="cls-5" x="11.27" y="47.94" width="1.71" height="15.57" rx=".44" ry=".44" transform="translate(31.86 2.22) rotate(32.52)"/>
          <rect class="cls-5" x="9.92" y="42.27" width="1.71" height="15.57" rx=".44" ry=".44" transform="translate(28.6 2.06) rotate(32.52)"/>
          <rect class="cls-5" x="8.68" y="37.06" width="1.71" height="15.57" rx=".44" ry=".44" transform="translate(25.6 1.91) rotate(32.52)"/>
          <rect class="cls-5" x="7.63" y="32.34" width="1.71" height="15.57" rx=".44" ry=".44" transform="translate(22.9 1.73) rotate(32.52)"/>
          <rect class="cls-5" x="7.15" y="28.44" width="1.71" height="12.14" rx=".44" ry=".44" transform="translate(19.81 1.11) rotate(32.52)"/>
          <rect class="cls-5" x="81.04" y="117.5" width="1.71" height="15.57" rx=".44" ry=".44" transform="translate(83.58 274.94) rotate(-147.48)"/>
          <rect class="cls-5" x="85.09" y="120.08" width="1.71" height="15.57" rx=".44" ry=".44" transform="translate(89.66 281.89) rotate(-147.48)"/>
          <rect class="cls-5" x="89.45" y="122.19" width="1.71" height="15.57" rx=".44" ry=".44" transform="translate(96.57 288.12) rotate(-147.48)"/>
          <rect class="cls-5" x="93.85" y="124.24" width="1.71" height="15.57" rx=".44" ry=".44" transform="translate(103.58 294.26) rotate(-147.48)"/>
          <rect class="cls-5" x="98.2" y="126.37" width="1.71" height="15.57" rx=".44" ry=".44" transform="translate(110.44 300.53) rotate(-147.48)"/>
          <rect class="cls-5" x="102.5" y="128.57" width="1.71" height="15.57" rx=".44" ry=".44" transform="translate(117.19 306.89) rotate(-147.48)"/>
          <rect class="cls-5" x="107.23" y="130.11" width="1.71" height="15.57" rx=".44" ry=".44" transform="translate(125.07 312.27) rotate(-147.48)"/>
          <rect class="cls-5" x="112.09" y="131.44" width="1.71" height="15.57" rx=".44" ry=".44" transform="translate(133.32 317.33) rotate(-147.48)"/>
          <rect class="cls-5" x="116.74" y="133.09" width="1.71" height="15.57" rx=".44" ry=".44" transform="translate(141 322.88) rotate(-147.48)"/>
          <rect class="cls-5" x="121.39" y="134.75" width="1.71" height="15.57" rx=".44" ry=".44" transform="translate(148.67 328.44) rotate(-147.48)"/>
          <rect class="cls-5" x="126.72" y="135.33" width="1.71" height="15.57" rx=".44" ry=".44" transform="translate(158.2 332.37) rotate(-147.48)"/>
          <rect class="cls-5" x="131.7" y="136.48" width="1.71" height="15.57" rx=".44" ry=".44" transform="translate(166.75 337.16) rotate(-147.48)"/>
          <rect class="cls-5" x="137.15" y="136.87" width="1.71" height="15.57" rx=".44" ry=".44" transform="translate(176.58 340.83) rotate(-147.48)"/>
          <rect class="cls-5" x="142.62" y="137.24" width="1.71" height="15.57" rx=".44" ry=".44" transform="translate(186.47 344.45) rotate(-147.48)"/>
          <rect class="cls-5" x="147.71" y="138.21" width="1.71" height="15.57" rx=".44" ry=".44" transform="translate(195.33 348.97) rotate(-147.48)"/>
          <rect class="cls-5" x="153.5" y="138.07" width="1.71" height="15.57" rx=".44" ry=".44" transform="translate(206.09 351.83) rotate(-147.48)"/>
          <rect class="cls-5" x="159.21" y="136.9" width="1.71" height="15.57" rx=".44" ry=".44" transform="translate(217.24 352.74) rotate(-147.48)"/>
          <rect class="cls-5" x="164.47" y="135.83" width="1.71" height="15.57" rx=".44" ry=".44" transform="translate(227.5 353.59) rotate(-147.48)"/>
          <rect class="cls-5" x="169.19" y="134.79" width="1.71" height="15.57" rx=".44" ry=".44" transform="translate(236.76 354.21) rotate(-147.48)"/>
          <rect class="cls-5" x="174.42" y="134.66" width="1.71" height="12.14" rx=".44" ry=".44" transform="translate(247.39 353.62) rotate(-147.48)"/>
        </g>
        <path class="cls-2" d="M21.34,25.61s.05-4.15,2.81-8.47c4.55-7.13,12.53-9.72,18.47-10.82,9.98-1.87,25.11.16,32.9,2.09,7.79,1.93,26.37,8.51,40.64,16.81,13.6,7.91,23.8,15.85,30.53,21.16,6.74,5.31,19.65,18.7,25.27,25.56,6.15,7.5,9.98,14.37,12.31,21.04,2.09,5.98,2.98,10.69,2.49,15.44-.4,3.93-1.99,7.17-5.09,10.54-1.96,2.14-5.96,4.61-5.96,4.61,0,0,4.09-4.47,5.09-7.39,1.78-5.21,1.69-7.94.65-12.82-1.04-4.88-4.1-12.97-8.88-20.28-3.77-5.77-11.88-15.86-18.24-21.77-6.35-5.91-17.48-15.18-25.95-21.2-6.14-4.37-19.16-11.99-29.82-16.89-8.72-4.01-23.92-9.7-32.68-11.16-8.34-1.39-14.95-2.52-21.25-1.76-4.52.54-7.24.8-11.05,2.39-3.73,1.56-6.64,3.95-8.6,6.32-1.81,2.2-3.64,6.59-3.64,6.59Z"/>
        <path class="cls-2" d="M47.69,73.12l19.22,14.09,23.43-12.44,5.01,3.19-5.82,25,18.3,11.67,4.39-26.18s10.3,2.34,13.07,2.34c5.99,0,9.98-2.28,13.65-5.86,4.02-3.93,7.45-10.68,4.04-16.48-2.35-4-10.75-11.62-19.27-17.77-5.95-4.29-17.61-11.32-17.61-11.32l-58.41,33.77Z"/>
        <polygon class="cls-2" points="47.69 73.12 51.52 67.13 70.74 81.21 66.92 87.21 47.69 73.12"/>
        <polygon class="cls-2" points="94.17 68.77 90.35 74.77 66.92 87.21 70.74 81.21 94.17 68.77"/>
        <rect class="cls-2" x="97.04" y="94.95" width="7.11" height="21.7" transform="translate(-42.69 133.73) rotate(-57.48)"/>
        <rect class="cls-2" x="91.21" y="70.4" width="7.11" height="5.94" transform="translate(-18.05 113.82) rotate(-57.48)"/>
        <polygon class="cls-2" points="99.18 71.97 95.35 77.96 89.53 102.96 93.36 96.96 99.18 71.97"/>
        <polygon class="cls-2" points="141.64 81.68 146.12 74.64 140.49 80.16 139.61 83.71 141.64 81.68"/>
        <path class="cls-5" d="M51.52,67.13l19.22,14.09,23.43-12.44,5.01,3.19-5.82,25,18.3,11.67,4.39-26.18s10.3,2.34,13.07,2.34c5.99,0,9.98-2.28,13.65-5.86,4.02-3.93,7.45-10.68,4.04-16.48-2.35-4-10.75-11.62-19.27-17.77-5.95-4.29-17.61-11.32-17.61-11.32l-58.41,33.77Z"/>
        <path class="cls-2" d="M104.06,58.79l10.31-8.35s7.64,3.86,10.12,6.45c2.48,2.59,3.06,5.04,1.41,6.74s-4.3,4.82-7.34,4.15c-3.03-.67-14.5-8.99-14.5-8.99Z"/>
        <path class="cls-2" d="M114.37,50.44l-10.31,8.35s2.79,1.98,3.44,2.43,2.49,1.73,2.49,1.73l1.36-3.88,3.03-8.64Z"/>
        <path class="cls-1" d="M111.79,57.81s2.6,1.56,4.67,2.92,4.1,2.61,5.26,3.8c1.16,1.19,1.71,1.52,1.71,1.52,0,0-2.09,1.7-3.26,1.75s-1.82.12-3.41-.75c-1.59-.87-5.45-3.25-5.45-3.25l-2.94-2.03,3.42-3.96Z"/>
      </g>
      <g>
        <path class="cls-2" d="M192.02,264.82c-18.17-14.73-54.78-21.63-95.41-15.94-40.62,5.68-73.94,22.36-87.37,41.51l-9,1.26,2.84,20.28c3.79,27.07,51.8,42.72,107.25,34.96,55.45-7.76,97.32-35.99,93.54-63.05l-2.84-20.28-9,1.26Z"/>
        <ellipse class="cls-5" cx="100.63" cy="277.6" rx="101.37" ry="49.49" transform="translate(-37.49 16.62) rotate(-7.96)"/>
        <ellipse class="cls-4" cx="99.94" cy="279.99" rx="92.23" ry="39.75" transform="translate(-37.83 16.55) rotate(-7.96)"/>
        <g>
          <rect class="cls-5" x="101.22" y="330.36" width="1.71" height="15.57" rx=".44" ry=".44" transform="translate(-45.86 17.4) rotate(-7.96)"/>
          <rect class="cls-5" x="115.52" y="328.36" width="1.71" height="15.57" rx=".44" ry=".44" transform="translate(-45.45 19.36) rotate(-7.96)"/>
          <rect class="cls-5" x="110.75" y="329.03" width="1.71" height="15.57" rx=".44" ry=".44" transform="translate(-45.59 18.71) rotate(-7.96)"/>
          <rect class="cls-5" x="105.99" y="329.69" width="1.71" height="15.57" rx=".44" ry=".44" transform="translate(-45.73 18.06) rotate(-7.96)"/>
          <rect class="cls-5" x="96.41" y="330.69" width="1.71" height="15.57" rx=".44" ry=".44" transform="translate(-45.95 16.74) rotate(-7.96)"/>
          <rect class="cls-5" x="91.65" y="331.35" width="1.71" height="15.57" rx=".44" ry=".44" transform="translate(-46.09 16.09) rotate(-7.96)"/>
          <rect class="cls-5" x="86.8" y="331.46" width="1.71" height="15.57" rx=".44" ry=".44" transform="translate(-46.15 15.42) rotate(-7.96)"/>
          <rect class="cls-5" x="81.95" y="331.49" width="1.71" height="15.57" rx=".44" ry=".44" transform="translate(-46.21 14.74) rotate(-7.96)"/>
          <rect class="cls-5" x="77.11" y="331.63" width="1.71" height="15.57" rx=".44" ry=".44" transform="translate(-46.27 14.07) rotate(-7.96)"/>
          <rect class="cls-5" x="72.28" y="331.84" width="1.71" height="15.57" rx=".44" ry=".44" transform="translate(-46.35 13.41) rotate(-7.96)"/>
          <rect class="cls-5" x="67.34" y="331.27" width="1.71" height="15.57" rx=".44" ry=".44" transform="translate(-46.32 12.72) rotate(-7.96)"/>
          <rect class="cls-5" x="62.37" y="330.46" width="1.71" height="15.57" rx=".44" ry=".44" transform="translate(-46.25 12.02) rotate(-7.96)"/>
          <rect class="cls-5" x="57.46" y="330.03" width="1.71" height="15.57" rx=".44" ry=".44" transform="translate(-46.24 11.34) rotate(-7.96)"/>
          <rect class="cls-5" x="52.54" y="329.61" width="1.71" height="15.57" rx=".44" ry=".44" transform="translate(-46.23 10.65) rotate(-7.96)"/>
          <rect class="cls-5" x="47.44" y="327.92" width="1.71" height="15.57" rx=".44" ry=".44" transform="translate(-46.04 9.93) rotate(-7.96)"/>
          <rect class="cls-5" x="42.44" y="326.89" width="1.71" height="15.57" rx=".44" ry=".44" transform="translate(-45.95 9.23) rotate(-7.96)"/>
          <rect class="cls-5" x="37.32" y="324.99" width="1.71" height="15.57" rx=".44" ry=".44" transform="translate(-45.74 8.5) rotate(-7.96)"/>
          <rect class="cls-5" x="32.19" y="323.05" width="1.71" height="15.57" rx=".44" ry=".44" transform="translate(-45.52 7.77) rotate(-7.96)"/>
          <rect class="cls-5" x="27.16" y="321.82" width="1.71" height="15.57" rx=".44" ry=".44" transform="translate(-45.39 7.06) rotate(-7.96)"/>
          <rect class="cls-5" x="21.95" y="319.28" width="1.71" height="15.57" rx=".44" ry=".44" transform="translate(-45.09 6.31) rotate(-7.96)"/>
          <rect class="cls-5" x="17.24" y="315.84" width="1.71" height="15.57" rx=".44" ry=".44" transform="translate(-44.66 5.63) rotate(-7.96)"/>
          <rect class="cls-5" x="12.91" y="312.68" width="1.71" height="15.57" rx=".44" ry=".44" transform="translate(-44.27 5) rotate(-7.96)"/>
          <rect class="cls-5" x="9.05" y="309.77" width="1.71" height="15.57" rx=".44" ry=".44" transform="translate(-43.9 4.43) rotate(-7.96)"/>
          <rect class="cls-5" x="5.04" y="307.53" width="1.71" height="12.14" rx=".44" ry=".44" transform="translate(-43.39 3.84) rotate(-7.96)"/>
          <rect class="cls-5" x="120.17" y="326.88" width="1.71" height="15.57" rx=".44" ry=".44" transform="translate(287.24 649.33) rotate(172.04)"/>
          <rect class="cls-5" x="124.93" y="326.21" width="1.71" height="15.57" rx=".44" ry=".44" transform="translate(296.63 647.34) rotate(172.04)"/>
          <rect class="cls-5" x="129.62" y="324.98" width="1.71" height="15.57" rx=".44" ry=".44" transform="translate(305.79 644.25) rotate(172.04)"/>
          <rect class="cls-5" x="134.29" y="323.68" width="1.71" height="15.57" rx=".44" ry=".44" transform="translate(314.91 641.01) rotate(172.04)"/>
          <rect class="cls-5" x="138.98" y="322.49" width="1.71" height="15.57" rx=".44" ry=".44" transform="translate(324.08 637.98) rotate(172.04)"/>
          <rect class="cls-5" x="143.68" y="321.36" width="1.71" height="15.57" rx=".44" ry=".44" transform="translate(333.28 635.1) rotate(172.04)"/>
          <rect class="cls-5" x="148.28" y="319.46" width="1.71" height="15.57" rx=".44" ry=".44" transform="translate(342.16 630.68) rotate(172.04)"/>
          <rect class="cls-5" x="152.83" y="317.32" width="1.71" height="15.57" rx=".44" ry=".44" transform="translate(350.93 625.78) rotate(172.04)"/>
          <rect class="cls-5" x="157.45" y="315.56" width="1.71" height="15.57" rx=".44" ry=".44" transform="translate(359.87 621.64) rotate(172.04)"/>
          <rect class="cls-5" x="162.06" y="313.8" width="1.71" height="15.57" rx=".44" ry=".44" transform="translate(368.81 617.5) rotate(172.04)"/>
          <rect class="cls-5" x="166.49" y="310.78" width="1.71" height="15.57" rx=".44" ry=".44" transform="translate(377.21 610.87) rotate(172.04)"/>
          <rect class="cls-5" x="171.02" y="308.42" width="1.71" height="15.57" rx=".44" ry=".44" transform="translate(385.9 605.55) rotate(172.04)"/>
          <rect class="cls-5" x="175.43" y="305.18" width="1.71" height="15.57" rx=".44" ry=".44" transform="translate(394.22 598.5) rotate(172.04)"/>
          <rect class="cls-5" x="179.83" y="301.91" width="1.71" height="15.57" rx=".44" ry=".44" transform="translate(402.52 591.38) rotate(172.04)"/>
          <rect class="cls-5" x="184.33" y="299.34" width="1.71" height="15.57" rx=".44" ry=".44" transform="translate(411.12 585.64) rotate(172.04)"/>
          <rect class="cls-5" x="188.64" y="295.47" width="1.71" height="15.57" rx=".44" ry=".44" transform="translate(419.18 577.34) rotate(172.04)"/>
          <rect class="cls-5" x="192.23" y="290.88" width="1.71" height="15.57" rx=".44" ry=".44" transform="translate(425.67 567.7) rotate(172.04)"/>
          <rect class="cls-5" x="195.52" y="286.65" width="1.71" height="15.57" rx=".44" ry=".44" transform="translate(431.65 558.82) rotate(172.04)"/>
          <rect class="cls-5" x="198.44" y="282.8" width="1.71" height="15.57" rx=".44" ry=".44" transform="translate(436.92 550.75) rotate(172.04)"/>
          <rect class="cls-5" x="201.22" y="279.71" width="1.71" height="12.14" rx=".44" ry=".44" transform="translate(441.79 540.81) rotate(172.04)"/>
        </g>
        <path class="cls-2" d="M10.26,298.17s-2.66-3.19-3.37-8.26c-1.17-8.38,3.23-15.53,7.02-20.22,6.38-7.9,19.2-16.18,26.38-19.77,7.18-3.59,25.58-10.65,41.82-13.6,15.47-2.81,28.39-3.4,36.96-3.73,8.57-.34,27.09,1.47,35.81,3.03,9.54,1.71,16.92,4.45,23.02,8.01,5.47,3.19,9.2,6.2,11.92,10.12,2.25,3.25,3.14,6.74,2.98,11.32-.1,2.9-1.53,7.38-1.53,7.38,0,0,.21-6.06-.93-8.93-2.03-5.12-3.87-7.14-7.83-10.17-3.96-3.04-11.54-7.2-19.92-9.65-6.61-1.94-19.34-4.35-28-4.71-8.67-.37-23.15-.2-33.5.72-7.51.67-22.36,3.33-33.65,6.52-9.23,2.61-24.49,8.15-32.1,12.73-7.25,4.36-13,7.79-17.3,12.46-3.09,3.35-4.98,5.31-6.85,9s-2.49,7.32-2.44,10.39c.05,2.85,1.51,7.37,1.51,7.37Z"/>
        <path class="cls-2" d="M61.15,317.19l23.77-1.77,9.74-24.68,5.88-.82,11.8,22.79,21.49-3.01-13.65-22.76s9.35-4.91,11.46-6.71c4.55-3.88,6.11-8.21,6.57-13.32.51-5.6-1.27-12.96-7.62-15.16-4.38-1.52-15.72-1.86-26.19-1-7.31.6-20.74,2.82-20.74,2.82l-22.5,63.61Z"/>
        <polygon class="cls-2" points="61.15 317.19 60.16 310.15 83.93 308.39 84.91 315.43 61.15 317.19"/>
        <polygon class="cls-2" points="93.67 283.71 94.66 290.75 84.91 315.43 83.93 308.39 93.67 283.71"/>
        <rect class="cls-2" x="111.74" y="304.14" width="21.7" height="7.11" transform="translate(-41.45 19.95) rotate(-7.96)"/>
        <rect class="cls-2" x="94.14" y="283.27" width="5.94" height="7.11" transform="translate(-38.8 16.22) rotate(-7.96)"/>
        <polygon class="cls-2" points="99.55 282.89 100.54 289.93 112.34 312.72 111.36 305.68 99.55 282.89"/>
        <polygon class="cls-2" points="138.15 262.71 136.99 254.44 136.29 262.3 137.93 265.57 138.15 262.71"/>
        <path class="cls-5" d="M60.16,310.15l23.77-1.77,9.74-24.68,5.88-.82,11.8,22.79,21.49-3.01-13.65-22.76s9.35-4.91,11.46-6.71c4.55-3.88,6.11-8.21,6.57-13.32.51-5.6-1.27-12.96-7.62-15.16-4.38-1.52-15.72-1.86-26.19-1-7.31.6-20.74,2.82-20.74,2.82l-22.5,63.61Z"/>
        <path class="cls-2" d="M94.71,269.7l2.42-13.05s8.32-2.02,11.88-1.66c3.57.36,5.6,1.85,5.45,4.22s-.15,6.46-2.89,7.92c-2.74,1.46-16.86,2.58-16.86,2.58Z"/>
        <path class="cls-2" d="M97.13,256.65l-2.42,13.05s3.41-.31,4.19-.39,3.02-.3,3.02-.3l-1.48-3.83-3.31-8.53Z"/>
        <path class="cls-1" d="M99.95,263.93s2.99-.5,5.45-.81,4.81-.68,6.47-.53c1.65.15,2.29.05,2.29.05,0,0-.49,2.65-1.34,3.45s-1.31,1.27-3.08,1.64c-1.77.37-6.26,1.06-6.26,1.06l-3.56.37.03-5.23Z"/>
      </g>
    </g>
  </g>
</svg>