<?xml version="1.0" encoding="UTF-8"?>
<svg id="Layer_2" data-name="Layer 2" xmlns="http://www.w3.org/2000/svg" viewBox="0 0 469.18 460.38">
  <defs>
    <style>
      .cls-1 {
        fill: #fd0;
      }

      .cls-1, .cls-2, .cls-3 {
        stroke-width: 0px;
      }

      .cls-2 {
        fill: #ff6400;
      }

      .cls-3 {
        fill: #0095ff;
      }
    </style>
  </defs>
  <g id="Layer_1-2" data-name="Layer 1">
    <g>
      <polygon class="cls-3" points="0 121.73 79.85 380.48 399.85 407.06 469.18 100.4 0 121.73"/>
      <polygon class="cls-2" points="415.73 0 362.82 68.41 389.27 100.4 376.74 175.66 438.07 94.48 385.03 60.69 415.73 0"/>
      <polygon class="cls-2" points="85.05 274.95 79.25 333.28 113.03 368.84 54.66 435.34 83.85 368.84 63.25 339.21 85.05 274.95"/>
      <polygon class="cls-2" points="286.51 9.26 264.88 165.88 380.88 266.32 201.03 460.38 290.96 278.11 201.03 185.07 286.51 9.26"/>
      <polygon class="cls-1" points="286.51 9.26 137.71 201.68 248.02 292 201.03 460.38 349.36 274.99 239.83 181.41 286.51 9.26"/>
      <polygon class="cls-1" points="85.05 274.95 32.15 343.36 71.37 375.48 54.66 435.34 107.4 369.43 68.46 336.16 85.05 274.95"/>
      <polygon class="cls-1" points="415.73 0 362.82 68.41 402.04 100.52 385.34 160.39 438.07 94.48 399.13 61.2 415.73 0"/>
    </g>
  </g>
</svg>