<?xml version="1.0" encoding="UTF-8"?>
<svg id="Layer_2" data-name="Layer 2" xmlns="http://www.w3.org/2000/svg" viewBox="0 0 423.05 379.87">
  <defs>
    <style>
      .cls-1 {
        fill: #fd0;
      }

      .cls-1, .cls-2, .cls-3 {
        stroke-width: 0px;
      }

      .cls-2 {
        fill: #ff6400;
      }

      .cls-3 {
        fill: #0095ff;
      }
    </style>
  </defs>
  <g id="Layer_1-2" data-name="Layer 1">
    <g>
      <polygon class="cls-3" points="14.89 141.4 14.89 336.79 405.74 379.87 384.67 56.52 14.89 141.4"/>
      <path class="cls-2" d="M28.29,324.17l-26.28-51.99,35.58,42.44s40.5-23.79,39.32-21.42-31.29,32.22-31.29,32.22l27.45,43.06-36.78-33.48L0,350.91l28.29-26.74Z"/>
      <polygon class="cls-2" points="375.14 54.11 398.15 0 387.13 56.2 423.05 73.69 383.12 67.81 358.72 113 371.1 65.71 332.01 42.75 375.14 54.11"/>
      <polygon class="cls-1" points="372.85 51 398.15 0 384.84 53.09 423.05 73.69 380.83 64.7 358.72 113 368.81 62.6 332.01 42.75 372.85 51"/>
      <path class="cls-1" d="M29.85,321.84l-27.84-49.66,36.33,40.94s39.64-22.08,38.57-19.92-31.24,29.78-31.24,29.78l27.4,45.51-35.92-36.76L0,350.91l29.85-29.07Z"/>
      <g>
        <path class="cls-2" d="M244.87,323.91c-8.01-2.1-14.72-4.09-21.55-5.52-2.36-.49-5.28-.22-7.47.77-6.06,2.74-11.78,6.21-17.83,8.98-1.51.69-4.18.43-5.56-.51-5.64-3.83-10.89-8.22-16.49-12.11-1.62-1.12-3.95-1.86-5.89-1.75-6.64.36-13.26,1.06-19.86,1.85-2.87.34-4.58-.48-5.99-3.1-3-5.57-6.13-11.09-9.66-16.32-1.44-2.14-3.82-4.07-6.2-5.08-4.42-1.87-9.07-3.43-13.78-4.3-6.31-1.16-9.65-4.18-9.3-10.84.74-14.14-5.68-24.45-17.65-31.3-5.78-3.31-5.61-7.57-3.84-12.87,1.42-4.25,2.29-8.69,3.61-12.98,1.14-3.7.87-6.97-1.18-10.4-2.89-4.85-5.14-10.09-8-14.96-1.74-2.96-1.89-5.14.52-7.92,3.6-4.13,6.38-8.98,10.06-13.04,3.41-3.76,3.72-7.77,3.14-12.4-.69-5.44-.74-10.97-1.52-16.39-.43-2.93.72-4.21,3.04-5.37,2.52-1.27,4.75-3.21,7.36-4.21,10.26-3.92,15.94-11.5,17.33-22.08,1.26-9.54,6.3-13.61,15.74-13.26,10.35.37,18.64-3.51,23.89-12.82,4.85-8.61,11.43-11.37,20.78-6.84,9.49,4.61,18.65,3.38,26.91-3.12,7.78-6.12,14.63-5.64,21.36,1.76,6.88,7.57,15.51,10.51,25.53,7.55,10.33-3.05,16.64.86,20.11,10.61,3.46,9.75,10.77,14.64,20.71,16.06,9.17,1.31,14.52,5.65,13.86,15.83-.74,11.36,4.64,19.75,14.34,25.16,8.01,4.46,9.36,10.59,5.74,18.36-4.98,10.68-3.4,20.56,3.57,29.69,5.11,6.7,4.91,12.56-1.42,18.43-8.57,7.94-11.65,17.71-8.49,29.16,2.28,8.27-.33,13.79-8.65,16.72-11.42,4.01-17.34,12.56-18.97,24.29-1.02,7.34-4.42,11.8-12.56,11.09-15.25-1.35-23.81,8.28-31.62,19.24-1.21,1.7-3.06,2.95-4.1,3.94ZM298.14,207.56c4.22-50.79-33.54-95.58-84.3-99.98-50.83-4.4-96.02,33.75-100.24,84.62-4.24,51.1,33.41,95.7,84.61,100.21,50.73,4.47,95.68-33.7,99.93-84.86Z"/>
        <path class="cls-1" d="M236.24,322.91c-8.01-2.1-14.72-4.09-21.55-5.52-2.36-.49-5.28-.22-7.47.77-6.06,2.74-11.78,6.21-17.83,8.98-1.51.69-4.18.43-5.56-.51-5.64-3.83-10.89-8.22-16.49-12.11-1.62-1.12-3.95-1.86-5.89-1.75-6.64.36-13.26,1.06-19.86,1.85-2.87.34-4.58-.48-5.99-3.1-3-5.57-6.13-11.09-9.66-16.32-1.44-2.14-3.82-4.07-6.2-5.08-4.42-1.87-9.07-3.43-13.78-4.3-6.31-1.16-9.65-4.18-9.3-10.84.74-14.14-5.68-24.45-17.65-31.3-5.78-3.31-5.61-7.57-3.84-12.87,1.42-4.25,2.29-8.69,3.61-12.98,1.14-3.7.87-6.97-1.18-10.4-2.89-4.85-5.14-10.09-8-14.96-1.74-2.96-1.89-5.14.52-7.92,3.6-4.13,6.38-8.98,10.06-13.04,3.41-3.76,3.72-7.77,3.14-12.4-.69-5.44-.74-10.97-1.52-16.39-.43-2.93.72-4.21,3.04-5.37,2.52-1.27,4.75-3.21,7.36-4.21,10.26-3.92,15.94-11.5,17.33-22.08,1.26-9.54,6.3-13.61,15.74-13.26,10.35.37,18.64-3.51,23.89-12.82,4.85-8.61,11.43-11.37,20.78-6.84,9.49,4.61,18.65,3.38,26.91-3.12,7.78-6.12,14.63-5.64,21.36,1.76,6.88,7.57,15.51,10.51,25.53,7.55,10.33-3.05,16.64.86,20.11,10.61,3.46,9.75,10.77,14.64,20.71,16.06,9.17,1.31,14.52,5.65,13.86,15.83-.74,11.36,4.64,19.75,14.34,25.16,8.01,4.46,9.36,10.59,5.74,18.36-4.98,10.68-3.4,20.56,3.57,29.69,5.11,6.7,4.91,12.56-1.42,18.43-8.57,7.94-11.65,17.71-8.49,29.16,2.28,8.27-.33,13.79-8.65,16.72-11.42,4.01-17.34,12.56-18.97,24.29-1.02,7.34-4.42,11.8-12.56,11.09-15.25-1.35-23.81,8.28-31.62,19.24-1.21,1.7-3.06,2.95-4.1,3.94ZM289.51,206.56c4.22-50.79-33.54-95.58-84.3-99.98-50.83-4.4-96.02,33.75-100.24,84.62-4.24,51.1,33.41,95.7,84.61,100.21,50.73,4.47,95.68-33.7,99.93-84.86Z"/>
        <path class="cls-2" d="M289.51,206.56c-4.25,51.16-49.21,89.33-99.93,84.86-51.2-4.51-88.85-49.11-84.61-100.21,4.22-50.88,49.42-89.03,100.24-84.62,50.76,4.4,88.52,49.18,84.3,99.98ZM275.84,205.33c3.52-43.43-28.67-81.47-71.98-85.05-43.6-3.61-81.6,28.73-85.11,72.42-3.49,43.48,28.7,81.56,71.94,85.08,43.6,3.55,81.61-28.79,85.15-72.45Z"/>
        <path class="cls-1" d="M275.84,205.33c-3.54,43.66-41.55,76-85.15,72.45-43.23-3.52-75.43-41.61-71.94-85.08,3.51-43.69,41.52-76.03,85.11-72.42,43.31,3.58,75.5,41.63,71.98,85.05ZM230.14,153.22c-16.3,17.78-32.2,35.13-48.16,52.55-5.98-6.01-11.46-11.51-17.22-17.31-6.65,6.57-12.97,12.83-19.55,19.33,12.9,13.07,25.38,25.7,38.11,38.59,22.67-25.18,45.02-50,67.64-75.12-7.1-6.16-13.74-11.91-20.81-18.04Z"/>
        <path class="cls-2" d="M230.14,153.22c7.07,6.13,13.7,11.88,20.81,18.04-22.62,25.12-44.97,49.94-67.64,75.12-12.73-12.89-25.21-25.52-38.11-38.59,6.58-6.51,12.91-12.76,19.55-19.33,5.77,5.8,11.25,11.3,17.22,17.31,15.97-17.42,31.87-34.77,48.16-52.55Z"/>
      </g>
    </g>
  </g>
</svg>