<?xml version="1.0" encoding="UTF-8"?>
<svg id="Layer_2" data-name="Layer 2" xmlns="http://www.w3.org/2000/svg" viewBox="0 0 462.06 321.15">
  <defs>
    <style>
      .cls-1 {
        fill: #fd0;
      }

      .cls-1, .cls-2, .cls-3 {
        stroke-width: 0px;
      }

      .cls-2 {
        fill: #ff6400;
      }

      .cls-3 {
        fill: #0095ff;
      }
    </style>
  </defs>
  <g id="Layer_1-2" data-name="Layer 1">
    <g>
      <polygon class="cls-3" points="0 0 31.91 321.15 393.86 262.09 339.34 0 0 0"/>
      <path class="cls-2" d="M93.43,144.47h0s-2.52-14.48-2.52-14.48l-12.56-3.56c-1.77-.73-3.65-1.27-5.6-1.59l-13.71-3.89-18.52,15.7,3.31,18.21h0c2.33,11.58,12.56,20.31,24.83,20.31,13.99,0,25.33-11.34,25.33-25.33,0-1.84-.2-3.64-.58-5.37Z"/>
      <path class="cls-2" d="M84.36,73.47h0s-2.52-14.48-2.52-14.48l-12.56-3.56c-1.77-.73-3.65-1.27-5.6-1.59l-13.71-3.89-18.52,15.7,3.31,18.21h0c2.33,11.58,12.56,20.31,24.83,20.31,13.99,0,25.33-11.34,25.33-25.33,0-1.84-.2-3.64-.58-5.37Z"/>
      <polygon class="cls-2" points="153.27 191.69 142.9 201.69 148.08 244.36 449.53 203.02 462.06 186.43 153.27 191.69"/>
      <polygon class="cls-2" points="122.3 40.8 116.01 58.88 122.3 82.88 430.9 63.99 433.86 54.58 122.3 40.8"/>
      <polygon class="cls-2" points="139.1 114.65 128.67 131.47 133.89 164.06 443.93 135.24 449.53 123.39 139.1 114.65"/>
      <polygon class="cls-1" points="122.3 40.8 428.97 32.8 433.86 54.58 127.53 71.18 122.3 40.8"/>
      <polygon class="cls-1" points="139.1 114.65 444.67 101.74 449.53 123.39 144.33 145.03 139.1 114.65"/>
      <polygon class="cls-1" points="153.27 191.69 458.01 166.88 462.06 186.43 158.49 222.07 153.27 191.69"/>
      <circle class="cls-1" cx="56.97" cy="63.99" r="25.33"/>
      <circle class="cls-1" cx="65.86" cy="135.24" r="25.33"/>
      <path class="cls-2" d="M109.88,232.76h0s-2.52-14.48-2.52-14.48l-12.56-3.56c-1.77-.73-3.65-1.27-5.6-1.59l-13.71-3.89-18.52,15.7,3.31,18.21h0c2.33,11.58,12.56,20.31,24.83,20.31,13.99,0,25.33-11.34,25.33-25.33,0-1.84-.2-3.64-.58-5.37Z"/>
      <circle class="cls-1" cx="82.3" cy="222.07" r="25.33"/>
    </g>
  </g>
</svg>