<?xml version="1.0" encoding="UTF-8"?>
<svg id="Layer_2" data-name="Layer 2" xmlns="http://www.w3.org/2000/svg" viewBox="0 0 405.72 385.02">
  <defs>
    <style>
      .cls-1 {
        fill: #fd0;
      }

      .cls-1, .cls-2, .cls-3 {
        stroke-width: 0px;
      }

      .cls-4 {
        stroke: #ff6400;
        stroke-width: 7px;
      }

      .cls-4, .cls-5 {
        fill: none;
        stroke-miterlimit: 10;
      }

      .cls-5 {
        stroke: #fd0;
        stroke-width: 9px;
      }

      .cls-2 {
        fill: #ff6400;
      }

      .cls-3 {
        fill: #0095ff;
      }
    </style>
  </defs>
  <g id="Layer_1-2" data-name="Layer 1">
    <g>
      <polygon class="cls-3" points="26.49 66.73 405.72 103.77 318.15 385.02 0 263.33 26.49 66.73"/>
      <path class="cls-4" d="M47.58,251.44c-20.79-37.39-19.9-94.67-15.36-121.33S54.6,55.74,108.23,26.7C145.52,6.51,210.96-3.28,252.67,11.89c39.11,14.22,74.44,52.18,87.61,88.89,10.89,30.36,5.38,91.56-17.75,150.67-9.96,25.47-57.99,98.29-135.65,89.81s-119.64-54.47-139.29-89.81Z"/>
      <path class="cls-5" d="M41.68,251.44c-20.79-37.39-19.9-94.67-15.36-121.33S48.7,55.74,102.33,26.7C139.62,6.51,205.06-3.28,246.77,11.89c39.11,14.22,74.44,52.18,87.61,88.89,10.89,30.36,5.38,91.56-17.75,150.67-9.96,25.47-57.99,98.29-135.65,89.81s-119.64-54.47-139.29-89.81Z"/>
      <path class="cls-2" d="M169.73,222.56c-15.1-1.13-28-17.11-32.44-29.56s-5.78-32.37,1.93-45.41,22.26-27.31,30.96-31.11c11.53-5.04,20.14-2.98,27.56.59,8,3.85,16.87,16.67,16.87,16.67l54.53-21.12-4.99-25.14-93.23-24.34-58.37,39.7-23.41,46.22,18.96,66.37,96.15,29.63-3.19-21.19s-16.23-.21-31.33-1.33Z"/>
      <path class="cls-2" d="M90.67,238.65s18.69,15.39,30.57,22,36.86,13.63,57.19,16.3c18.67,2.44,44.86,2.3,59.75-5.5,14-7.33,37.33-51.56,37.33-51.56l-64.8-25.58-29,52.55-91.04-8.21Z"/>
      <path class="cls-1" d="M124.78,58.6c-28.67,15.7-58.07,35.56-67.56,84.15-7.09,36.35,9.78,86.96,43.56,108.3s96,30.22,117.33,14.22,37.4-48,37.4-48l-44.81-22.96s-12.65,21.93-38.18,25.48-47.75-9.48-56.04-27.85c-7.81-17.29-9.31-38.99,4.74-58.67,11.85-16.59,38.56-37.81,66-35.11,17.62,1.73,25.73,18.81,25.73,18.81l51.2-29.47c-28.55-41.93-97.16-52-139.37-28.89Z"/>
    </g>
  </g>
</svg>