<svg xmlns="http://www.w3.org/2000/svg" viewBox="0 0 125.87 156.07"><g id="Layer_2" data-name="Layer 2"><g id="Layer_1-2" data-name="Layer 1"><rect x="39.57" width="46.73" height="28.01" rx="6.89"/><path d="M108.11,50.34Q90.68,33.59,62.94,33.59,35,33.59,17.43,51.18,0,68.61,0,94.83q0,27.75,17.59,44.49,17.78,16.76,45.35,16.75,27.23,0,45-17.25,17.93-17.26,17.93-44Q125.87,67.08,108.11,50.34ZM90.92,122.18q-11,10.74-28,10.74-17.16,0-28.2-10.42T23.8,94.83q0-16.31,10.83-27.14T62.94,56.74q17.25,0,28.09,10.42,11,10.41,11,27.67Q102.07,111.45,90.92,122.18Z"/></g></g></svg>