<?xml version="1.0" encoding="UTF-8"?>
<svg id="Layer_2" data-name="Layer 2" xmlns="http://www.w3.org/2000/svg" viewBox="0 0 68.87 67.02">
  <defs>
    <style>
      .cls-1 {
        fill: #a0fa00;
      }
    </style>
  </defs>
  <g id="Layer_1-2" data-name="Layer 1">
    <g>
      <path d="m59.15,9.16C52.79,3.06,44.55,0,34.43,0S15.95,3.21,9.53,9.63C3.18,15.98,0,23.94,0,33.51c0,10.12,3.21,18.24,9.63,24.35,6.48,6.11,14.75,9.16,24.81,9.16s18.14-3.15,24.62-9.44c6.54-6.29,9.81-14.32,9.81-24.07s-3.24-18.24-9.72-24.34Zm-11.53,37.23c-3.47,3.37-7.86,5.06-13.18,5.06s-9.81-1.64-13.28-4.91c-3.44-3.27-5.15-7.62-5.15-13.03,0-5.12,1.7-9.38,5.1-12.79,3.44-3.44,7.88-5.15,13.33-5.15s9.83,1.64,13.23,4.91c3.47,3.27,5.2,7.62,5.2,13.03s-1.75,9.52-5.25,12.89Z"/>
      <path class="cls-1" d="m41.66,40.6c-1.9,1.85-4.31,2.77-7.23,2.77s-5.38-.9-7.28-2.69c-1.88-1.79-2.83-4.17-2.83-7.15,0-2.81.93-5.14,2.8-7.01,1.88-1.88,4.32-2.83,7.31-2.83s5.39.9,7.25,2.69c1.9,1.79,2.85,4.18,2.85,7.15s-.96,5.22-2.88,7.06Z"/>
    </g>
  </g>
</svg>