<svg xmlns="http://www.w3.org/2000/svg" width="616.074" height="71.844" viewBox="346.409 270.028 616.074 71.844"><g data-name="Animatie HTML5 / JS / Lottie"><path d="M707.233 327.287c0-2.391-.702-4.444-2.105-6.159-1.404-1.715-3.145-3.014-5.224-3.898a746.457 746.457 0 0 1-6.783-2.924 140.926 140.926 0 0 1-6.783-3.157c-2.08-1.039-3.82-2.585-5.223-4.639-1.404-2.053-2.106-4.483-2.106-7.29 0-3.949 1.429-7.198 4.288-9.746 2.911-2.598 6.809-3.897 11.695-3.897 6.393 0 11.278 1.845 14.657 5.535l-2.339 3.196c-3.118-3.118-7.173-4.677-12.162-4.677-3.586 0-6.42.87-8.498 2.612-2.079 1.741-3.118 4.067-3.118 6.977 0 2.339.701 4.354 2.104 6.043 1.404 1.689 3.145 2.95 5.224 3.781a608.67 608.67 0 0 1 6.783 2.767 106.651 106.651 0 0 1 6.782 3.08c2.078 1.04 3.821 2.612 5.224 4.716 1.403 2.106 2.105 4.639 2.105 7.602 0 4.263-1.664 7.719-4.99 10.369-3.326 2.651-7.459 3.977-12.395 3.977-3.38 0-6.705-.703-9.98-2.106-3.223-1.507-5.484-3.431-6.783-5.769l2.573-2.962c1.559 2.026 3.637 3.664 6.237 4.911 2.598 1.248 5.223 1.871 7.875 1.871 3.534 0 6.574-.908 9.123-2.729 2.545-1.766 3.819-4.26 3.819-7.484" fill="#fff" fill-rule="evenodd" data-name="Path 27"/><path d="M736.937 290.332h-20.193v-4.054h44.673v4.054h-20.192v50.52h-4.288v-50.52Z" fill="#fff" fill-rule="evenodd" data-name="Path 28"/><path d="M808.584 286.278h4.288v31.731c0 7.849-1.949 13.722-5.848 17.62-3.898 3.898-8.836 5.847-14.812 5.847-6.602 0-11.956-2.052-16.062-6.159-4.053-4.105-6.081-10.058-6.081-17.853v-31.186h4.288v30.406c0 6.497 1.599 11.577 4.795 15.241 3.197 3.665 7.549 5.498 13.06 5.498 5.093 0 9.095-1.742 12.006-5.224 2.91-3.483 4.366-8.525 4.366-15.125v-30.796Z" fill="#fff" fill-rule="evenodd" data-name="Path 29"/><path d="M830.101 340.852h-.701v-54.574h.858c2.234 0 4.313-.026 6.237-.078 3.846-.104 6.132-.156 6.86-.156 5.249 0 9.889.715 13.917 2.144 4.028 1.43 7.238 3.405 9.628 5.925 2.391 2.522 4.172 5.354 5.341 8.498 1.17 3.145 1.754 6.537 1.754 10.174 0 8.213-2.729 14.969-8.186 20.271-5.406 5.302-13.098 7.952-23.078 7.952-2.235 0-4.287-.027-6.158-.078a232.29 232.29 0 0 0-6.472-.078m13.099-50.754c-1.145 0-2.82.039-5.029.117-2.21.078-3.703.117-4.483.117v46.466c1.715 0 3.325.014 4.833.039a183.599 183.599 0 0 1 4.367.116c8.471 0 15.02-2.233 19.647-6.704 4.625-4.522 6.938-10.342 6.938-17.464 0-6.705-2.21-12.162-6.627-16.372-4.47-4.21-11.019-6.315-19.646-6.315" fill="#fff" fill-rule="evenodd" data-name="Path 30"/><path d="M888.731 286.278h4.288v54.574h-4.288v-54.574z" fill="#fff" fill-rule="evenodd" data-name="Rectangle 47"/><path d="M907.753 313.565c0-7.952 2.598-14.604 7.796-19.958 5.197-5.353 11.72-8.031 19.569-8.031 7.797 0 14.293 2.651 19.491 7.952 5.249 5.251 7.874 11.929 7.874 20.037 0 7.952-2.625 14.632-7.874 20.037-5.198 5.301-11.694 7.952-19.491 7.952-7.796 0-14.32-2.624-19.569-7.875-5.198-5.249-7.796-11.954-7.796-20.114m4.522 0c0 6.757 2.183 12.448 6.549 17.074 4.417 4.574 9.848 6.861 16.294 6.861 6.652 0 12.11-2.287 16.373-6.861 4.313-4.626 6.471-10.317 6.471-17.074 0-6.912-2.21-12.603-6.627-17.074-4.367-4.573-9.773-6.861-16.217-6.861-6.498 0-11.929 2.288-16.294 6.861-4.366 4.522-6.549 10.213-6.549 17.074" fill="#fff" fill-rule="evenodd" data-name="Path 31"/><path d="M358.884 321.752v19.101h-12.475v-54.575c2.963 0 6.238-.025 9.824-.078 3.587-.051 6.497-.077 8.732-.077 13.461 0 20.192 5.821 20.192 17.464 0 7.484-3.067 12.734-9.199 15.748l15.904 21.518h-15.125l-13.253-19.101h-4.6Zm5.457-23.935c-.052 0-.286.013-.702.039a92.409 92.409 0 0 1-4.755.117v12.084h4.521c5.665 0 8.498-2.105 8.498-6.315 0-3.949-2.521-5.925-7.562-5.925" fill="#fff" fill-rule="evenodd" data-name="Path 32"/><path d="M500.231 340.697v-54.263c6.081-.312 11.59-.468 16.528-.468 6.029 0 10.59 1.209 13.683 3.626 3.092 2.417 4.639 5.73 4.639 9.94 0 5.354-2.08 9.408-6.237 12.162v.157c2.339.884 4.222 2.391 5.652 4.521 1.429 2.132 2.144 4.782 2.144 7.952 0 5.458-1.923 9.643-5.769 12.553-3.795 2.858-8.785 4.288-14.969 4.288-7.225 0-12.449-.156-15.671-.468m16.372-43.036c-.935 0-2.235.105-3.897.312v9.901h4.131c3.846 0 5.77-1.766 5.77-5.301 0-1.507-.573-2.702-1.715-3.587-1.145-.883-2.573-1.325-4.289-1.325m.936 21.128h-4.833v10.213c1.142.312 2.545.468 4.209.468 4.834 0 7.251-1.922 7.251-5.769 0-3.275-2.21-4.912-6.627-4.912" fill="#fff" fill-rule="evenodd" data-name="Path 33"/><path d="M544.436 313.565c0-8.056 2.676-14.761 8.03-20.114 5.405-5.406 12.396-8.109 20.973-8.109 8.523 0 15.462 2.573 20.816 7.719 5.457 5.145 8.186 11.981 8.186 20.504 0 8.213-2.755 14.969-8.264 20.271-5.457 5.301-12.371 7.952-20.738 7.952-8.473 0-15.437-2.573-20.895-7.718-5.406-5.147-8.108-11.981-8.108-20.505m13.254 0c0 4.627 1.532 8.551 4.6 11.772 3.014 3.171 6.73 4.756 11.149 4.756 4.989 0 8.861-1.532 11.616-4.599 2.755-3.17 4.133-7.147 4.133-11.929 0-4.937-1.509-8.913-4.522-11.928-3.068-3.067-6.81-4.6-11.227-4.6-4.575 0-8.343 1.533-11.305 4.6-2.963 3.067-4.444 7.043-4.444 11.928" fill="#fff" fill-rule="evenodd" data-name="Path 34"/><path d="M565.847 270.028h15.185a3.175 3.175 0 0 1 3.175 3.175v6.559a3.175 3.175 0 0 1-3.175 3.175h-15.185a3.175 3.175 0 0 1-3.175-3.175v-6.559a3.175 3.175 0 0 1 3.175-3.175z" fill="#fff" fill-rule="evenodd" data-name="Rectangle 48"/><path d="M642.591 286.278h12.552l-21.284 54.574h-9.59l-21.829-54.574h13.331l13.721 36.019 13.1-36.019Z" fill="#fff" fill-rule="evenodd" data-name="Path 35"/><path d="M430.423 299.679h-30.588a3.118 3.118 0 0 1-3.119-3.118v-6.711a3.118 3.118 0 0 1 3.119-3.119h30.588a3.118 3.118 0 0 1 3.118 3.119v6.711a3.118 3.118 0 0 1-3.118 3.118" fill="#fff" fill-rule="evenodd" data-name="Path 36"/><path d="M430.423 320.574h-30.588a3.118 3.118 0 0 1-3.119-3.118v-6.711a3.118 3.118 0 0 1 3.119-3.119h30.588a3.118 3.118 0 0 1 3.118 3.119v6.711a3.118 3.118 0 0 1-3.118 3.118" fill="#fff" fill-rule="evenodd" data-name="Path 37"/><path d="M430.423 341.618h-30.588a3.118 3.118 0 0 1-3.119-3.118v-6.711a3.118 3.118 0 0 1 3.119-3.119h30.588a3.118 3.118 0 0 1 3.118 3.119v6.711a3.118 3.118 0 0 1-3.118 3.118" fill="#fff" fill-rule="evenodd" data-name="Path 38"/><path d="m471.763 293.418-16.858 45.68a3.973 3.973 0 0 1-5.103 2.352l-4.717-1.741a3.972 3.972 0 0 1-2.352-5.102l16.858-45.681a3.974 3.974 0 0 1 5.103-2.352l4.717 1.742a3.971 3.971 0 0 1 2.352 5.102" fill="#fff" fill-rule="evenodd" data-name="Path 39"/><path d="m477.15 339.826-9.57-25.219a3.17 3.17 0 0 1 1.839-4.089l6.203-2.353a3.17 3.17 0 0 1 4.089 1.839l9.569 25.219a3.17 3.17 0 0 1-1.839 4.089l-6.202 2.353a3.17 3.17 0 0 1-4.089-1.839" fill="#fff" fill-rule="evenodd" data-name="Path 40"/></g></svg>