<svg xmlns="http://www.w3.org/2000/svg" width="531.496" height="65.911" viewBox="0 -57 531.496 65.911"><g data-name="Logo"><path d="M11.445-9.548V7.976H0v-50.068c2.719 0 5.723-.023 9.013-.072 3.29-.046 5.96-.07 8.01-.07 12.35 0 18.525 5.34 18.525 16.021 0 6.866-2.814 11.683-8.44 14.448L41.7 7.976H27.824L15.664-9.548h-4.219Zm5.006-21.958c-.047 0-.262.012-.644.036-.381.025-.978.048-1.787.071-.812.025-1.67.036-2.575.036v11.086h4.148c5.197 0 7.796-1.931 7.796-5.793 0-3.623-2.313-5.436-6.938-5.436" fill="#fff" fill-rule="evenodd" data-name="Path 41"/><path d="M141.118 7.833V-41.95c5.579-.286 10.633-.43 15.163-.43 5.531 0 9.716 1.11 12.553 3.327 2.837 2.218 4.256 5.257 4.256 9.12 0 4.911-1.908 8.63-5.722 11.157v.144c2.146.81 3.873 2.194 5.185 4.148 1.311 1.956 1.967 4.387 1.967 7.295 0 5.007-1.764 8.847-5.292 11.516-3.482 2.622-8.06 3.934-13.733 3.934-6.628 0-11.42-.143-14.377-.43m15.02-39.48c-.858 0-2.05.095-3.575.285v9.083h3.79c3.528 0 5.293-1.62 5.293-4.863 0-1.382-.526-2.479-1.573-3.29-1.05-.81-2.36-1.216-3.935-1.216m.859 19.383h-4.434v9.37c1.047.286 2.335.429 3.861.429 4.435 0 6.652-1.763 6.652-5.293 0-3.004-2.027-4.506-6.08-4.506" fill="#fff" fill-rule="evenodd" data-name="Path 42"/><path d="M181.673-17.058c0-7.39 2.455-13.542 7.367-18.453 4.959-4.96 11.373-7.44 19.241-7.44 7.82 0 14.185 2.361 19.097 7.082 5.006 4.72 7.51 10.992 7.51 18.81 0 7.536-2.527 13.734-7.582 18.598-5.006 4.863-11.349 7.295-19.025 7.295-7.773 0-14.162-2.36-19.17-7.08-4.959-4.723-7.438-10.992-7.438-18.812m12.16 0c0 4.245 1.405 7.845 4.22 10.8 2.765 2.909 6.174 4.363 10.228 4.363 4.577 0 8.13-1.406 10.657-4.22 2.527-2.908 3.791-6.556 3.791-10.943 0-4.53-1.384-8.177-4.148-10.943-2.815-2.814-6.248-4.22-10.3-4.22-4.197 0-7.654 1.406-10.371 4.22-2.719 2.814-4.077 6.461-4.077 10.943" fill="#fff" fill-rule="evenodd" data-name="Path 43"/><path d="M203.403-57h9.757a5 5 0 0 1 5 5v1.843a5 5 0 0 1-5 5h-9.757a5 5 0 0 1-5-5V-52a5 5 0 0 1 5-5z" fill="#fff" fill-rule="evenodd" data-name="Rectangle 49"/><path d="M271.722-42.092h11.515L263.711 7.975h-8.798l-20.026-50.067h12.23l12.588 33.045 12.017-33.045Z" fill="#fff" fill-rule="evenodd" data-name="Path 44"/><path d="M77.075-29.798H49.013a2.86 2.86 0 0 1-2.861-2.86v-6.157a2.86 2.86 0 0 1 2.861-2.861h28.062a2.86 2.86 0 0 1 2.86 2.861v6.157a2.86 2.86 0 0 1-2.86 2.86" fill="#fff" fill-rule="evenodd" data-name="Path 45"/><path d="M77.075-10.628H49.013a2.86 2.86 0 0 1-2.861-2.86v-6.158a2.86 2.86 0 0 1 2.861-2.86h28.062a2.86 2.86 0 0 1 2.86 2.86v6.157a2.86 2.86 0 0 1-2.86 2.86" fill="#fff" fill-rule="evenodd" data-name="Path 46"/><path d="M77.075 8.678H49.013a2.86 2.86 0 0 1-2.861-2.86V-.34A2.86 2.86 0 0 1 49.013-3.2h28.062a2.86 2.86 0 0 1 2.86 2.861v6.157a2.86 2.86 0 0 1-2.86 2.86" fill="#fff" fill-rule="evenodd" data-name="Path 47"/><path d="M115.002-35.541 99.536 6.366a3.645 3.645 0 0 1-4.681 2.158l-4.328-1.598a3.644 3.644 0 0 1-2.158-4.68l15.466-41.908a3.646 3.646 0 0 1 4.682-2.158l4.327 1.598a3.644 3.644 0 0 1 2.158 4.68" fill="#fff" fill-rule="evenodd" data-name="Path 48"/><path d="m119.943 7.034-8.78-23.136a2.909 2.909 0 0 1 1.688-3.751l5.69-2.16a2.908 2.908 0 0 1 3.752 1.688l8.779 23.136a2.908 2.908 0 0 1-1.687 3.752l-5.69 2.158a2.909 2.909 0 0 1-3.752-1.687" fill="#fff" fill-rule="evenodd" data-name="Path 49"/><path d="M334.613-4.505c0-2.198-.645-4.087-1.936-5.664-1.29-1.578-2.892-2.772-4.803-3.585a694.265 694.265 0 0 1-6.238-2.689 130.19 130.19 0 0 1-6.238-2.904c-1.912-.955-3.513-2.377-4.804-4.266-1.29-1.887-1.936-4.122-1.936-6.703 0-3.632 1.315-6.62 3.944-8.963 2.676-2.39 6.26-3.585 10.754-3.585 5.88 0 10.372 1.697 13.48 5.09l-2.151 2.94c-2.868-2.867-6.596-4.301-11.185-4.301-3.298 0-5.904.8-7.815 2.401-1.913 1.603-2.868 3.741-2.868 6.418 0 2.15.645 4.003 1.936 5.556a11.854 11.854 0 0 0 4.803 3.478c1.912.765 3.99 1.613 6.238 2.545a98.096 98.096 0 0 1 6.238 2.832c1.911.957 3.513 2.402 4.804 4.338 1.29 1.936 1.936 4.266 1.936 6.99 0 3.92-1.53 7.098-4.589 9.536-3.06 2.438-6.86 3.657-11.4 3.657-3.108 0-6.166-.645-9.178-1.936-2.964-1.386-5.043-3.155-6.237-5.306l2.366-2.724c1.433 1.864 3.345 3.37 5.735 4.517 2.39 1.147 4.804 1.72 7.242 1.72 3.25 0 6.046-.835 8.39-2.509 2.34-1.624 3.512-3.919 3.512-6.883Z" fill="#fff" fill-rule="evenodd" data-name="Path 50"/><path d="M361.93-38.49h-18.57v-3.728h41.083v3.728h-18.57V7.97h-3.943v-46.46Z" fill="#fff" fill-rule="evenodd" data-name="Path 51"/><path d="M386.594-17.124c0-7.313 2.39-13.431 7.17-18.355 4.779-4.922 10.778-7.385 17.996-7.385 7.17 0 13.144 2.438 17.925 7.313 4.827 4.829 7.241 10.97 7.241 18.427 0 7.313-2.414 13.456-7.241 18.427-4.78 4.875-10.755 7.313-17.925 7.313s-13.17-2.413-17.996-7.242c-4.78-4.827-7.17-10.993-7.17-18.498Zm4.158 0c0 6.214 2.008 11.448 6.023 15.702 4.062 4.207 9.058 6.31 14.985 6.31 6.118 0 11.137-2.103 15.057-6.31 3.967-4.254 5.95-9.488 5.95-15.702 0-6.356-2.031-11.59-6.094-15.702-4.015-4.205-8.987-6.31-14.913-6.31-5.976 0-10.97 2.105-14.985 6.31-4.015 4.158-6.023 9.393-6.023 15.702Z" fill="#fff" fill-rule="evenodd" data-name="Path 52"/><path d="m483.817.155 1.577 2.94c-1.72 1.721-3.98 3.072-6.775 4.051-2.796.98-5.725 1.47-8.783 1.47-7.457 0-13.528-2.341-18.212-7.026-4.637-4.636-6.955-10.874-6.955-18.714 0-7.408 2.246-13.526 6.74-18.355 4.492-4.922 10.444-7.385 17.853-7.385 6.357 0 11.424 1.578 15.2 4.732l-1.864 2.94c-3.395-2.628-7.815-3.943-13.264-3.943-6.12 0-11.067 2.079-14.842 6.238-3.776 4.063-5.664 9.32-5.664 15.773 0 6.55 1.96 11.855 5.88 15.917 3.918 4.063 9.057 6.095 15.414 6.095 5.258 0 9.823-1.578 13.695-4.733Z" fill="#fff" fill-rule="evenodd" data-name="Path 53"/><path d="M499.734 7.97h-3.944v-50.188h3.944V7.97Zm25.954-50.188h4.804L506.76-18.486l24.736 26.457h-5.09L502.098-18.2l23.59-24.02Z" fill="#fff" fill-rule="evenodd" data-name="Path 54"/></g></svg>