<svg xmlns="http://www.w3.org/2000/svg" viewBox="0 0 1811.77 711.72"><defs><style>.cls-1{fill:#fff;}.cls-2{fill:none;stroke:#fff;stroke-miterlimit:10;stroke-width:5.67px;}</style></defs><g id="Layer_2" data-name="Layer 2"><g id="Layer_1-2" data-name="Layer 1"><path class="cls-1" d="M1625.61,183.81c-.9,7.15-2.14,14.68-3.58,21.42q-27.37,127.92-54.65,255.87c-2.31,10.82-4.44,21.68-7,32.43a46.22,46.22,0,0,1-4.47,11.7c-4.42,8-11.93,11.15-20.7,8.55a42.89,42.89,0,0,1-12.81-6c-31.44-22.77-62.71-45.78-94-68.71-.78-.58-1.6-1.1-2.61-1.8-.87.73-1.74,1.38-2.52,2.12-16,15.3-25.74,24.52-41.75,39.86-4.74,4.55-18,17.11-22.62,13.48l1.91-32.62s2.41-42.79,4.16-64.89a8.63,8.63,0,0,1,2.61-5.22q89.45-80.55,179-160.93a10.27,10.27,0,0,0,2.43-2.29,49.48,49.48,0,0,0,2.2-5.44c-1.9-.57-4-1.94-5.67-1.54a34.27,34.27,0,0,0-10,4Q1424,293.47,1312.63,363.29c-2.09,1.31-3.87,2-6.51,1.21-31.35-9.89-62.76-19.56-94.08-29.49a41.81,41.81,0,0,1-11.57-5.68c-5.85-4.2-6.69-10.35-1.31-15a61.34,61.34,0,0,1,17.66-10.86q190.23-73.17,380.66-145.82a33.06,33.06,0,0,1,10.22-2.09c9-.4,15.18,4.22,17.94,12.82C1626,169.5,1626.51,176.66,1625.61,183.81Z"/><rect class="cls-2" x="2.83" y="2.83" width="1806.1" height="706.05" rx="128.35"/><path class="cls-1" d="M308.05,257.88c0,51.26-35,82.64-88.4,82.64H165.28V174h54.37C273.07,174,308.05,206.38,308.05,257.88Zm-88.4,60.36c39.29,0,60.37-22.51,60.37-60.36,0-38.09-21.08-61.57-60.37-61.57H192.58V318.24Z"/><path class="cls-1" d="M326.49,173.56A17.37,17.37,0,1,1,344,191,17.29,17.29,0,0,1,326.49,173.56Zm3.6,35h27.3v132h-27.3Z"/><path class="cls-1" d="M415.6,340.52H388.29v-132H415.6v19.16c7.67-13.17,20.84-21.31,39.53-21.31v28.26h-6.95c-20.12,0-32.58,8.39-32.58,36.41Z"/><path class="cls-1" d="M532,342.68c-37.85,0-65.88-26.83-65.88-68.27s26.83-68,65.88-68c37.61,0,64.2,26.11,64.2,64.91a84.15,84.15,0,0,1-1,13.42H494.41c1.92,21.8,17.49,35,37.61,35,16.77,0,26.11-8.14,31.14-18.44h29.47C585.2,324.23,564.36,342.68,532,342.68Zm-37.37-80h73.06c-.48-20.36-16.53-33.3-36.89-33.3C512.38,229.37,497.53,241.83,494.65,262.67Z"/><path class="cls-1" d="M673.59,206.38c32.34,0,53.42,16,60.85,43.83H705c-4.55-12.69-15.09-20.84-31.38-20.84-22,0-36.65,16.29-36.65,45,0,29,14.61,45.27,36.65,45.27,16.29,0,26.35-7.19,31.38-20.84h29.47c-7.43,25.87-28.51,43.84-60.85,43.84-37.85,0-64.68-26.83-64.68-68.27C608.91,233.2,635.74,206.38,673.59,206.38Z"/><path class="cls-1" d="M761,230.81H745.45V208.53H761V175.71h27.54v32.82h32.1v22.28h-32.1v73.06c0,9.82,3.84,13.89,15.33,13.89h16.77v22.76H799.11c-23.47,0-38.08-9.82-38.08-36.65Z"/><path class="cls-1" d="M352.36,465.17c0-24.2-13.17-36.65-33.06-36.65C299.18,428.52,286,441,286,465.17V539H258.94V465.17c0-24.2-13.18-36.65-33.06-36.65-20.12,0-33.3,12.45-33.3,36.65V539h-27.3V407h27.3v15.09c8.87-10.78,23.24-17.25,39-17.25,20.84,0,38.33,8.86,47.43,26.11,8.14-16.05,26.83-26.11,46-26.11,30.9,0,54.38,19.4,54.38,56.29V539H352.36Z"/><path class="cls-1" d="M465.91,541.1c-37.85,0-65.88-26.83-65.88-68.27s26.83-68,65.88-68c37.6,0,64.19,26.11,64.19,64.92a84,84,0,0,1-1,13.41H428.3c1.91,21.8,17.48,35,37.61,35,16.76,0,26.11-8.15,31.14-18.45h29.46C519.09,522.66,498.24,541.1,465.91,541.1Zm-37.37-80H501.6c-.48-20.36-16.53-33.29-36.89-33.29C446.26,427.8,431.41,440.25,428.54,461.09Z"/><path class="cls-1" d="M599.81,541.1c-31.62,0-53.9-18.68-55.09-42.64H573c1,10.78,11.26,19.65,26.35,19.65,15.81,0,24.2-6.71,24.2-15.81,0-25.87-76.66-11-76.66-59.41,0-21.08,19.64-38.09,50.79-38.09,29.94,0,49.58,16.05,51,42.4H621.37c-1-11.5-9.82-19.4-24.67-19.4-14.61,0-22.28,6-22.28,14.85,0,26.59,74.5,11.74,75.94,59.41C650.36,524.33,631,541.1,599.81,541.1Z"/><path class="cls-1" d="M722.7,541.1c-31.62,0-53.9-18.68-55.1-42.64h28.27c1,10.78,11.26,19.65,26.35,19.65,15.81,0,24.2-6.71,24.2-15.81,0-25.87-76.66-11-76.66-59.41,0-21.08,19.64-38.09,50.78-38.09,30,0,49.59,16.05,51,42.4H744.26c-1-11.5-9.82-19.4-24.67-19.4-14.62,0-22.28,6-22.28,14.85,0,26.59,74.5,11.74,75.93,59.41C773.24,524.33,753.84,541.1,722.7,541.1Z"/><path class="cls-1" d="M850.86,404.8c22.28,0,37.61,10.54,45.75,21.32V407h27.55V539H896.61V519.3c-8.38,11.26-24.19,21.8-46.23,21.8-34.26,0-61.8-28-61.8-68.75S816.12,404.8,850.86,404.8Zm5.75,23.72c-20.36,0-40,15.33-40,43.83s19.65,45,40,45c20.6,0,40-16.05,40-44.56C896.61,444.57,877.21,428.52,856.61,428.52Z"/><path class="cls-1" d="M1008.24,404.8c21.56,0,37.61,10.06,45.75,21.32V407h27.55V541.1c0,35.94-23.23,63-64.44,63-35.21,0-61.32-17.48-64.67-46.71H979.5c4.07,13.66,18.68,23,37.6,23,21.08,0,36.89-12.94,36.89-39.29v-22c-8.38,11.26-24.19,22-45.75,22-34.73,0-62.28-28-62.28-68.75S973.51,404.8,1008.24,404.8Zm5.75,23.72c-20.36,0-40,15.33-40,43.83s19.64,45,40,45c20.6,0,40-16.05,40-44.56C1054,444.57,1034.59,428.52,1014,428.52Z"/><path class="cls-1" d="M1169.22,541.1c-37.85,0-65.88-26.83-65.88-68.27s26.83-68,65.88-68c37.61,0,64.2,26.11,64.2,64.92a84,84,0,0,1-1,13.41H1131.61c1.91,21.8,17.48,35,37.61,35,16.77,0,26.11-8.15,31.14-18.45h29.46C1222.4,522.66,1201.56,541.1,1169.22,541.1Zm-37.37-80h73.06c-.48-20.36-16.53-33.29-36.89-33.29C1149.57,427.8,1134.72,440.25,1131.85,461.09Z"/></g></g></svg>