<svg xmlns="http://www.w3.org/2000/svg" width="92.715" height="77.336" viewBox="1047.053 5753.167 92.715 77.336"><path d="M1139.66 5759.256c-.193 1.539-.46 3.16-.772 4.612-3.93 18.365-7.848 36.733-11.768 55.1-.498 2.33-.956 4.668-1.506 6.985a10.052 10.052 0 0 1-.963 2.518c-.952 1.719-2.57 2.4-4.46 1.84-.964-.285-1.947-.701-2.756-1.287-6.772-4.902-13.505-9.858-20.25-14.796-.168-.123-.344-.237-.561-.386-.188.157-.375.297-.542.457-3.454 3.294-5.545 5.28-8.991 8.583-1.02.978-3.874 3.683-4.872 2.902l.412-7.024s.519-9.216.895-13.973c.031-.392.27-.86.563-1.125 12.84-11.564 25.698-23.108 38.553-34.655.18-.161.416-.294.524-.494.198-.37.32-.78.473-1.172-.41-.122-.861-.417-1.22-.33-.746.177-1.5.465-2.15.87a36939.001 36939.001 0 0 0-48.008 30.025c-.45.281-.832.44-1.402.26-6.749-2.13-13.513-4.212-20.26-6.35a9.006 9.006 0 0 1-2.49-1.224c-1.26-.903-1.44-2.229-.282-3.229 1.115-.962 2.431-1.812 3.803-2.34 27.31-10.504 54.64-20.956 81.972-31.4a7.158 7.158 0 0 1 2.2-.45c1.94-.087 3.27.91 3.863 2.76.078.241.187 1.783-.005 3.323Z" fill="#fff" fill-rule="evenodd" data-name="Path 60"/></svg>