<svg version="1.2" xmlns="http://www.w3.org/2000/svg" viewBox="0 0 236 53" width="236" height="53"><defs><clipPath clipPathUnits="userSpaceOnUse" id="cp1"><path d="m-842-16583h1920v17528h-1920z"/></clipPath><clipPath clipPathUnits="userSpaceOnUse" id="cp2"><path d="m0.48 0.2h235.06v51.83h-235.06z"/></clipPath></defs><style>.a{fill:#fdfdf6}</style><g clip-path="url(#cp1)"><g clip-path="url(#cp2)"><path fill-rule="evenodd" d="m30.6 3.2c0.3 0.4 0.6 1.7 0.8 2.8 0.3 2.4 0.9 3.5 1.7 3.5 1 0 2.5 2.2 2.7 4.2 0.4 2.6-0.3 4.2-2.2 5-1.8 0.8-1.5-0.4-3.2 15.7-0.6 6.2-1.3 12-1.5 12.9-1.1 3.6-5.1 5.1-12.5 4.6-4.6-0.2-6.9-1.1-8.2-2.9-0.6-0.9-1.1-3.6-2-12.1-0.6-6.1-1.2-11.9-1.4-13-0.1-1.6-0.1-2.2 0.4-2.6 0.9-0.7 2.1-0.3 2.4 1 0.2 1 2.2 21.9 2.4 23.2 0.2 0.9 0.6 1.4 1.3 2.1 1.1 1.1 1.7 1.2 5.2 1.5 2.3 0.2 5 0.1 6.1-0.1 3.5-0.7 3.4-0.5 4.9-15.2 0.7-7.2 1.2-13.3 1.2-13.6-0.2-0.1-3.4-0.2-7.1-0.1-4.9 0.2-8.6 0-12.9-0.4-6.2-0.8-7.3-1.3-8.1-3.2-0.5-1.4 0.4-5.5 1.4-6.4 1-0.9 2.1-0.9 8-0.1 5.2 0.6 17.8 0.4 18.5-0.4 0.3-0.3 0.3-1.3 0.2-2.5-0.5-3.2-1.7-3.6-11.1-3.6-7 0-8.6 0.2-7.8 1 0.2 0.2 3.9 0.3 8.2 0.4 7.8 0 8 0 8.1 0.9 0.1 0.6-0.2 1.1-0.7 1.4-2.4 1.2-15.9 0.7-18.9-0.7-4.4-2.2-2.1-5 4.7-5.9 8.7-1.1 18.1 0.1 19.4 2.6zm-25 9.2c-1-0.2-1.4-0.1-1.8 0.7-0.3 0.5-0.5 1.4-0.4 1.9 0.2 1.3 1.8 1.6 11.6 2 6.7 0.2 15.2-0.3 17.3-1.1 0.8-0.3 0.8-2.5-0.1-3.2-0.5-0.4-1.1-0.4-3 0-3.7 0.8-13.6 1-18.1 0.5-2.3-0.3-4.7-0.7-5.5-0.8z"/><path fill-rule="evenodd" d="m56.5 14.6c0.3 0.5 0.9 0.6 2.4 0.3 4.6-0.9 7.5 1.4 7 5.3-0.1 1.1-0.5 2.3-0.9 2.9-0.6 0.8-0.5 0.9 0.7 2.1 1.1 1 1.5 1.6 1.6 3.4 0.2 2 0.1 2.4-1 3.7-2.3 2.7-7.1 4.4-10 3.3-0.9-0.3-1.5-0.3-1.6 0-0.4 0.6-2.1 0.5-2.3-0.3-0.3-0.7 1.4-20.2 1.8-20.9 0.4-0.6 1.9-0.5 2.3 0.2zm1 3.3c-0.9 0.2-1.3 1.5-1.3 4.1v1.9l1.7-0.3c0.9-0.1 2.4-0.6 3.3-1 1.2-0.6 1.6-1 1.7-2.2 0.1-0.8-0.1-1.8-0.4-2.2-0.5-0.6-3.3-0.8-5-0.3zm0.2 8.7c-2 0.4-2.1 0.5-2.3 3.4-0.1 1.8 0 2.6 0.4 2.9 1.8 1.1 7-0.4 8-2.2 0.8-1.5 0.6-3.2-0.5-3.9-1.1-0.7-3.2-0.8-5.6-0.2z"/><path fill-rule="evenodd" d="m198.7 14.7c0.1 0.4-0.1 4.4-0.5 9-0.5 4.6-0.7 8.4-0.6 8.5 0.4 0.4 4.7-1.6 5.4-2.4 0.4-0.5 0.9-2.8 1.2-6.4 0.8-8.2 0.9-8.9 1.9-9.2 1.4-0.4 2.1 0.5 1.9 2.4-0.8 6.9-1.5 15.5-1.4 15.6 0.3 0.3 4.1-1.2 5.1-2 0.6-0.5 1.1-1.7 1.5-3.3 0.8-4.5 2.5-6.6 5.2-6.6 1.9 0 2.9 0.9 3.2 2.9 0.4 3.5-2.5 7.8-5.4 7.8-0.9 0-0.9 0-0.3 1.7 0.3 0.8 0.8 1.5 1.2 1.7 1.9 0.7 6-2.9 6-5.3 0-0.6 0.2-2.2 0.5-3.4 1-5.1 5.5-7.3 7.8-3.8 0.7 1 0.7 1.4 0.2 3.5-0.6 2.9-2.4 5.1-4.5 5.5-1.3 0.2-1.4 0.4-1.1 1.4 0.8 3.5 4.9 2.2 6.9-2 1.2-2.2 2.4-2.5 2.6-0.6 0.2 1.5-2.3 5.3-4.3 6.5-0.8 0.4-2.4 0.9-3.5 0.9-1.8 0-2.2-0.2-3.2-1.4l-1.3-1.5-1.1 1.1c-0.6 0.6-1.9 1.3-3.1 1.6-2.6 0.7-4.4 0-5.5-2.4l-0.8-1.7-1.3 0.8c-1.2 0.7-1.2 0.7-0.5 2.3 2.3 5.4-0.7 12-4.7 10.6-2.1-0.7-2.9-2.9-2.9-8.4 0-2.7-0.1-4.8-0.3-4.8-0.2 0-0.7 0.3-1.2 0.6-0.7 0.5-0.7 0.6 0 2.2 1.3 3.1 0.6 7.9-1.3 9.9-1.3 1.2-3.6 1-4.9-0.6-1.4-1.7-1.9-4.6-1.5-9.6l0.4-3.8-1.3 0.3c-0.7 0.1-1.9 0.8-2.6 1.4-0.8 0.7-1.8 1.5-2.4 1.8-2.2 1.2-6.3 0.2-7.3-1.8-0.5-0.9-0.6-0.9-1.2-0.2-0.5 0.3-1.8 1-2.8 1.5-5.4 2.5-8.5-0.3-8-7 0.4-5.7 3.4-9.2 6.6-7.5 1.7 0.9 2 1.4 1.9 3.4-0.2 2.7-0.5 3.2-1.8 3-1.1-0.1-1.2-0.3-1.3-2-0.1-1.1-0.4-1.9-0.6-1.9-1.6 0-2.4 7.9-1 9.5 2 2.2 6.6-0.8 7.4-4.9 0.9-4.6 3.8-7 8.3-6.8 3.4 0.2 4.3 1.4 4.5 5.7 0.1 3.1 0.7 4.1 1.4 2.2 0.2-0.6 0.7-3.8 1-7.1 0.3-3.3 0.7-6.4 0.9-6.8 0.5-1 2.2-1 2.5-0.1zm19.4 8.8c-1-0.2-2.6 3.7-1.9 4.5 0.6 0.6 2.9-2.2 2.7-3.4 0-0.5-0.4-1-0.8-1.1zm10.1-0.1c-0.8 0-2.1 2.8-1.9 4.1 0.1 0.9 0.1 0.9 1.4 0 0.9-0.8 1.2-1.4 1.2-2.6 0-1-0.2-1.5-0.7-1.5zm-42.4 1.5l-0.2-1.1-0.9 1.1c-1.9 2.1-2.5 4.8-1.5 6.7 1 1.9 2.8 2.2 4.5 0.8l1-0.8-1.2-1.4c-0.6-0.8-1.3-2.1-1.4-2.9-0.1-0.8-0.3-1.9-0.3-2.4zm2.7 0.6c0 1.3 0.8 2.9 1.4 2.9 0.5 0 0.6-2.7 0.2-3.8-0.6-1.4-1.6-0.7-1.6 0.9zm8.6 13.8c0 4.2 0.4 5.1 1.8 3.4 1.4-1.7 1-5.7-0.7-6.8-1-0.7-1.1-0.3-1.1 3.4zm8.9 0.4c0 3.9 1.8 5.1 2.7 1.7 0.5-1.7 0.1-4.1-0.9-5.2-1.1-1.4-1.8-0.2-1.8 3.5z"/><path fill-rule="evenodd" d="m136.7 21.2c1.2 1.2 1 4.5-0.2 6.7-0.9 1.6-3.1 3.1-4.4 3.1-0.8 0-0.6 1.8 0.4 2.8 1.7 1.6 4.9-0.3 6.5-4 0.7-1.5 1.9-1.9 2.3-0.7 0.4 1-1.6 4.9-3.1 6.3-1.5 1.2-4.4 2.1-5.9 1.7-0.6-0.2-1.5-0.8-2.1-1.3l-1-1.1-1.5 1.1c-2 1.3-3.8 1.4-4.9 0.1-0.8-0.8-0.9-1.5-0.8-6.5 0.2-5.3 0.1-5.5-0.8-5.5-1.1 0-2.9 3.6-3.6 7.4q-0.8 4.3-2.6 3.3c-0.6-0.3-0.7-1.2-0.7-5 0-5.2-0.5-6.5-2.1-5.7-1.3 0.7-3 4.7-3.6 8.7-0.5 2.9-0.7 3.5-1.6 3.6-0.5 0.2-1.1 0.2-1.3 0.1-0.2-0.1-0.4-3.6-0.3-7.6l0.1-7.3h1.3c1 0 1.3 0.2 1.4 1 0.1 1 0.1 1 1.4-0.3 1-1.1 1.6-1.4 3.1-1.4 1.5 0 2 0.3 3 1.6l1.2 1.5 1.4-1.5c2-2.2 4.2-2.2 5.9-0.1 1.2 1.4 1.2 1.5 1.1 6.3-0.2 4.4-0.1 5 0.5 5.1 1 0.2 3.1-3.3 3.1-5.1 0-2.2 1.2-5.8 2.5-7.1 1.5-1.4 4.1-1.6 5.3-0.2zm-2.7 2.2c-0.8 0-2.1 2.8-1.9 4.2 0.1 0.9 0.2 0.9 1.4-0.2 0.8-0.8 1.2-1.7 1.2-2.6q0-1.4-0.7-1.4z"/><path fill-rule="evenodd" d="m70.9 20.7c1.3 0 1.4 1.6 0.4 6.6-0.7 4-0.8 5.2-0.4 5.6 0.4 0.4 0.8 0.5 1.4 0.1 1.1-0.7 1.9-2.5 3.2-7.3 1.2-4.6 2.1-5.7 3.4-4.4 0.7 0.7 0.7 1 0 4.5-0.8 3.9-0.8 6.6 0.1 6.9 0.8 0.3 1.9-2.2 2.3-5.3 0.6-4.2 1.5-6.2 2.9-6.2 1.5 0 1.7 0.8 0.9 3.5-0.3 1.2-0.6 3.3-0.5 4.6 0.1 2.2 0.2 2.4 1.3 2.6 1.6 0.1 3.3-1.8 5.4-6.1 0.9-2.1 2.1-3.9 2.5-4 1.1-0.5 1.9 0.9 1.5 2.6-0.7 2.3-1.1 7.4-0.6 7.7 0.2 0.2 1.4-0.6 2.5-1.7 1.8-1.9 2-2 2.7-1.4 0.4 0.4 0.7 0.9 0.7 1.1 0 0.9-2.8 4.1-4.4 5.1-1.7 1-1.8 1-1.9 4.2-0.4 6.1-3.3 9.5-6.9 8.1-1.1-0.5-1.6-1-1.8-2.1-0.7-3.1 0.9-6.9 4.2-10.1 1.1-0.9 1.9-2 1.9-2.3 0-0.9-0.4-0.7-1.9 0.5-2.3 1.9-5.9 2.3-7.2 0.9-0.4-0.6-0.7-0.5-1.8 0.5-1.6 1.3-2.5 1.3-4.1 0.1l-1.2-0.9-1.3 1.2c-0.9 0.9-1.6 1.1-3.1 1.1-1.6 0-2-0.2-2.5-1.3-0.4-0.7-0.7-2.5-0.7-4 0-3 1.1-8.9 1.8-9.8 0.3-0.3 0.8-0.6 1.2-0.6zm19 19.2c-1.3 2.1-1.8 5.3-0.9 5 1-0.4 2.1-2.6 2.5-4.8 0.3-2.4-0.3-2.5-1.6-0.2z"/><path fill-rule="evenodd" d="m153.1 21c0.9 0.1 2.3 0.3 3.3 0.5 0.9 0.1 1.8 0.5 2 0.8 0 0.4-0.1 2.1-0.5 3.8-1 4.1-1 7 0 7.4 1 0.4 3.1-2 3.7-4.2 0.4-1.3 0.7-1.8 1.3-1.8 1.4 0 1.5 1.3 0.2 4-2.1 4.9-5.2 6.2-7.8 3.6l-1.4-1.4-1.2 0.9c-2.2 1.6-4.6 1.2-5.7-0.9-1.6-3.1-0.1-9.2 3-11.8 1.2-1 1.8-1.2 3.1-0.9zm-1.5 3.4c-1.8 1.4-2.9 7.3-1.4 7.9 1.2 0.4 2.9-1.7 3.6-4.6 0.4-1.4 0.6-2.9 0.5-3.2-0.3-0.8-1.7-0.8-2.7-0.1z"/><path class="a" d="m9.8 25.8c4.1 0.6 7.9-0.8 11.6-2.4 0.6-0.3 1.3-0.4 1.9-0.4 2.9-0.4 3.7 0.3 3.4 3.2q-0.8 8.8-1.7 17.6c-0.3 3.2-1.1 3.9-4.4 4-2 0-4 0-6-0.1-1.8 0-3.1-1-3.3-2.8-0.7-5.9-1.2-11.8-1.8-17.8 0-0.3 0.1-0.7 0.3-1.3z"/></g></g></svg>