<svg version="1.2" xmlns="http://www.w3.org/2000/svg" viewBox="0 0 100 63" width="100" height="63"><style>.a{fill:#fdfdfe}.b{fill:#fafbfe}</style><path fill-rule="evenodd" class="a" d="m0.1 0.4c0.3 0 0.6 0 0.9 0q14.1 0 28.2 0c3.4 0 6.8 0.3 10.1 1.2 4.3 1.3 7.8 3.8 9.2 8.2 1.5 4.8 1.6 9.5-1.1 14-1.3 2-3.2 3.5-5.3 4.6q-0.5 0.3-0.9 0.5c1.2 0.6 2.5 1.1 3.6 1.7 4.5 2.5 6.8 6.4 7.5 11.4 0.5 3.6 0.2 7.2-1.4 10.5-1.9 4.1-5.2 6.8-9.3 8.4-3.3 1.4-6.8 2.1-10.3 2.1-10.3 0-20.5 0-30.7 0q-0.2 0-0.5 0c0-20.9 0-41.7 0-62.6zm13.7 51.9q0.5 0 1 0c4.4 0 8.8 0.1 13.2 0q2.2 0 4.4-0.4c3.4-0.6 5.7-2.7 6.1-6 0.2-1.6 0.1-3.2-0.2-4.8-0.4-2.5-2-4.1-4.3-5-1.6-0.7-3.2-1-4.9-1q-7.3 0-14.6 0-0.3 0-0.7 0.1c0 5.7 0 11.4 0 17.1zm0.1-26.6c0.1 0 0.1 0 0.2 0 5 0 10 0.2 15-0.1 4.2-0.2 6.8-2.4 7.1-6.7 0.2-3.4-1.3-6.1-4.4-7-1.5-0.5-3-0.7-4.5-0.7-4.3-0.1-8.5-0.1-12.8-0.1q-0.3 0.1-0.6 0.1 0 7.2 0 14.5z"/><path fill-rule="evenodd" class="a" d="m99.3 42.3q-16.2 0-32.5 0c0 5.7 2.4 10.2 8 11.2 3.4 0.5 6.5 0.3 9.4-1.6 1.5-1 2.8-2.2 3.5-4 3.6 0 7.2 0 11 0-0.6 1.5-1.2 2.9-1.8 4.3-2.9 5.9-7.8 9.2-14.2 10.3-4.8 0.9-9.6 0.7-14.3-1-5.6-2-9.6-5.8-11.9-11.2-3-7.2-3.1-14.5-0.1-21.6 2.6-6.2 7.3-10.2 13.7-12.3 4.8-1.5 9.7-1.5 14.6 0 5 1.6 8.7 4.9 11.3 9.5 2.8 5 3.7 10.4 3.4 16 0 0.1 0 0.2-0.1 0.4zm-12.4-8c-1.2-7.2-4.5-9.7-10.3-9.6-6.1 0.1-9.6 4.5-9.8 9.6q10 0 20.1 0z"/><path class="b" d="m64.6 10.5q0-3.4 0-6.9c8.4 0 16.8 0 25.2 0 0 2.3 0 4.6 0 6.9q-12.5 0-25.2 0z"/></svg>