<?xml version="1.0" encoding="UTF-8"?>
<svg id="Layer_2" data-name="Layer 2" xmlns="http://www.w3.org/2000/svg" viewBox="0 0 192.08 65.92">
  <defs>
    <style>
      .cls-1 {
        fill: #fff;
        stroke-width: 0px;
      }
    </style>
  </defs>
  <g id="Layer_1-2" data-name="Layer 1">
    <g>
      <g>
        <g>
          <rect class="cls-1" x="133.43" y="0" width="13.32" height="7.98" rx="2.89" ry="2.89"/>
          <path class="cls-1" d="M152.53,14.81c-3.2-3.08-7.35-4.61-12.44-4.61s-9.31,1.62-12.54,4.85c-3.2,3.2-4.8,7.21-4.8,12.02,0,5.1,1.61,9.18,4.85,12.26,3.26,3.08,7.43,4.61,12.49,4.61s9.13-1.58,12.4-4.75c3.29-3.17,4.94-7.21,4.94-12.12s-1.63-9.18-4.89-12.26ZM146.72,33.56c-1.75,1.7-3.96,2.55-6.64,2.55s-4.94-.82-6.69-2.47c-1.73-1.65-2.59-3.83-2.59-6.56,0-2.58.86-4.72,2.57-6.44,1.73-1.73,3.97-2.6,6.71-2.6s4.95.82,6.66,2.47c1.75,1.65,2.62,3.83,2.62,6.56s-.88,4.79-2.64,6.49Z"/>
        </g>
        <path class="cls-1" d="M96.07,41.06V13.08c0-1.59,1.29-2.89,2.89-2.89h7.34c3.73,0,6.55.67,8.46,2.17,1.91,1.49,2.87,3.54,2.87,6.15,0,3.31-1.29,5.82-3.86,7.52v.1c1.45.55,2.61,1.48,3.5,2.8.88,1.32,1.33,2.96,1.33,4.92,0,3.37-1.19,5.96-3.57,7.76-2.35,1.77-5.43,2.34-9.26,2.34h-6.8c-1.59,0-2.89-1.29-2.89-2.89ZM106.19,17.55h-2.41v6.12h2.56c2.38,0,3.57-1.09,3.57-3.28,0-.93-.35-1.67-1.06-2.22-.71-.55-1.59-.63-2.65-.63ZM106.77,30.42h-2.99v6.32c.71.19,1.57.29,2.6.29,2.99,0,4.48-1.19,4.48-3.57,0-2.03-1.37-3.04-4.1-3.04Z"/>
        <path class="cls-1" d="M7.71,32.13v8.93c0,1.59-1.29,2.89-2.89,2.89h-1.94c-1.59,0-2.89-1.29-2.89-2.89V13.07c0-1.58,1.28-2.87,2.86-2.88,1.02,0,2.09-.02,3.21-.04,2.22-.03,4.02-.05,5.4-.05,8.32,0,12.49,3.6,12.49,10.8,0,4.63-1.9,7.87-5.69,9.74l6.43,8.71c1.41,1.9.05,4.6-2.32,4.6h-2.12c-.95,0-1.83-.46-2.37-1.24l-7.33-10.57h-2.84ZM11.09,17.33s-.18,0-.43.02c-.26.02-.66.03-1.21.05-.55.02-1.13.02-1.74.02v7.47h2.8c3.5,0,5.26-1.3,5.26-3.91,0-2.44-1.56-3.66-4.68-3.66Z"/>
        <path class="cls-1" d="M184.13,12.01l-6.88,18.06c-.31.83-1.48.83-1.8,0l-6.88-18.06c-.43-1.12-1.5-1.86-2.7-1.86h-2.36c-2.04,0-3.44,2.06-2.68,3.96l11.19,27.98c.44,1.1,1.5,1.81,2.68,1.81h3.28c1.18,0,2.24-.72,2.68-1.81l11.19-27.98c.76-1.9-.64-3.96-2.68-3.96h-2.36c-1.2,0-2.27.74-2.7,1.86Z"/>
        <path class="cls-1" d="M67.44,42.09l6.88-18.06c.31-.83,1.48-.83,1.8,0l6.88,18.06c.43,1.12,1.5,1.86,2.7,1.86h2.36c2.04,0,3.44-2.06,2.68-3.96l-11.19-27.98c-.44-1.1-1.5-1.81-2.68-1.81h-3.28c-1.18,0-2.24.72-2.68,1.81l-11.19,27.98c-.76,1.9.64,3.96,2.68,3.96h2.36c1.2,0,2.27-.74,2.7-1.86Z"/>
        <g>
          <path class="cls-1" d="M51.16,31.07h-18.85c-1.77,0-3.21-1.29-3.21-2.89v-2.21c0-1.59,1.44-2.89,3.21-2.89h18.85c1.77,0,3.21,1.29,3.21,2.89v2.21c0,1.59-1.44,2.89-3.21,2.89Z"/>
          <path class="cls-1" d="M51.16,43.95h-18.85c-1.77,0-3.21-1.29-3.21-2.89v-2.21c0-1.59,1.44-2.89,3.21-2.89h18.85c1.77,0,3.21,1.29,3.21,2.89v2.21c0,1.59-1.44,2.89-3.21,2.89Z"/>
          <path class="cls-1" d="M51.16,18.19h-18.85c-1.77,0-3.21-1.29-3.21-2.89v-2.21c0-1.59,1.44-2.89,3.21-2.89h18.85c1.77,0,3.21,1.29,3.21,2.89v2.21c0,1.59-1.44,2.89-3.21,2.89Z"/>
        </g>
      </g>
      <g>
        <path class="cls-1" d="M7.78,62.17c0-.63-.18-1.17-.55-1.62-.37-.45-.83-.79-1.37-1.02-.55-.23-1.14-.49-1.78-.77-.64-.28-1.24-.56-1.78-.83-.55-.27-1-.68-1.37-1.22-.37-.54-.55-1.18-.55-1.91,0-1.04.38-1.89,1.13-2.56.76-.68,1.79-1.02,3.07-1.02,1.68,0,2.96.48,3.85,1.45l-.61.84c-.82-.82-1.88-1.23-3.19-1.23-.94,0-1.69.23-2.23.69-.55.46-.82,1.07-.82,1.83,0,.61.18,1.14.55,1.59.37.44.83.78,1.37.99.55.22,1.14.46,1.78.73.64.27,1.24.54,1.78.81.55.27,1,.69,1.37,1.24.37.55.55,1.22.55,2,0,1.12-.44,2.03-1.31,2.72-.87.7-1.96,1.04-3.26,1.04-.89,0-1.76-.18-2.62-.55-.85-.4-1.44-.9-1.78-1.52l.68-.78c.41.53.96.96,1.64,1.29.68.33,1.37.49,2.07.49.93,0,1.73-.24,2.4-.72.67-.46,1-1.12,1-1.97Z"/>
        <path class="cls-1" d="M46.45,52.46h-5.3v-1.06h11.74v1.06h-5.3v13.27h-1.13v-13.27Z"/>
        <path class="cls-1" d="M84.38,58.56c0-2.09.68-3.84,2.05-5.24,1.37-1.41,3.08-2.11,5.14-2.11s3.75.7,5.12,2.09c1.38,1.38,2.07,3.13,2.07,5.26s-.69,3.84-2.07,5.26c-1.37,1.39-3.07,2.09-5.12,2.09s-3.76-.69-5.14-2.07c-1.37-1.38-2.05-3.14-2.05-5.28ZM85.57,58.56c0,1.78.57,3.27,1.72,4.49,1.16,1.2,2.59,1.8,4.28,1.8s3.18-.6,4.3-1.8c1.13-1.22,1.7-2.71,1.7-4.49s-.58-3.31-1.74-4.49c-1.15-1.2-2.57-1.8-4.26-1.8s-3.13.6-4.28,1.8c-1.15,1.19-1.72,2.68-1.72,4.49Z"/>
        <path class="cls-1" d="M144.24,63.5l.45.84c-.49.49-1.14.88-1.94,1.16-.8.28-1.64.42-2.51.42-2.13,0-3.86-.67-5.2-2.01-1.32-1.32-1.99-3.11-1.99-5.35,0-2.12.64-3.86,1.93-5.24,1.28-1.41,2.98-2.11,5.1-2.11,1.82,0,3.26.45,4.34,1.35l-.53.84c-.97-.75-2.23-1.13-3.79-1.13-1.75,0-3.16.59-4.24,1.78-1.08,1.16-1.62,2.66-1.62,4.51s.56,3.39,1.68,4.55c1.12,1.16,2.59,1.74,4.4,1.74,1.5,0,2.81-.45,3.91-1.35Z"/>
        <path class="cls-1" d="M178.01,65.73h-1.13v-14.34h1.13v14.34ZM185.42,51.4h1.37l-6.78,6.78,7.07,7.56h-1.45l-6.94-7.48,6.74-6.86Z"/>
      </g>
    </g>
  </g>
</svg>