<?xml version="1.0" encoding="UTF-8"?>
<svg id="Layer_2" data-name="Layer 2" xmlns="http://www.w3.org/2000/svg" viewBox="0 0 657.08 82.38">
  <defs>
    <style>
      .cls-1 {
        fill: #fff;
        stroke-width: 0px;
      }
    </style>
  </defs>
  <g id="Layer_1-2" data-name="Layer 1">
    <g>
      <g>
        <g>
          <rect class="cls-1" x="250.08" width="24.96" height="14.96" rx="5.41" ry="5.41"/>
          <path class="cls-1" d="M285.88,27.76c-6-5.76-13.77-8.65-23.32-8.65s-17.44,3.03-23.5,9.08c-6,6-9,13.51-9,22.54,0,9.55,3.03,17.21,9.08,22.97,6.11,5.76,13.92,8.65,23.41,8.65s17.12-2.97,23.23-8.91c6.17-5.94,9.26-13.51,9.26-22.71s-3.06-17.21-9.17-22.97ZM275,62.89c-3.27,3.18-7.42,4.77-12.44,4.77s-9.26-1.54-12.53-4.63c-3.24-3.09-4.86-7.19-4.86-12.3,0-4.83,1.61-8.85,4.82-12.07,3.24-3.24,7.44-4.86,12.58-4.86s9.28,1.54,12.49,4.63c3.27,3.09,4.91,7.19,4.91,12.3s-1.65,8.98-4.96,12.16Z"/>
        </g>
        <path class="cls-1" d="M180.06,76.96V24.52c0-2.99,2.42-5.41,5.41-5.41h13.75c6.99,0,12.27,1.26,15.86,4.06,3.58,2.8,5.38,6.64,5.38,11.52,0,6.2-2.41,10.9-7.23,14.1v.18c2.71,1.02,4.89,2.77,6.55,5.24,1.66,2.47,2.48,5.54,2.48,9.22,0,6.33-2.23,11.18-6.69,14.55-4.4,3.31-10.18,4.39-17.35,4.39h-12.75c-2.99,0-5.41-2.42-5.41-5.41ZM199.03,32.89h-4.52v11.48h4.79c4.46,0,6.69-2.05,6.69-6.14,0-1.75-.66-3.13-1.99-4.16-1.33-1.02-2.98-1.18-4.97-1.18ZM200.12,57.01h-5.6v11.84c1.32.36,2.95.54,4.88.54,5.6,0,8.4-2.23,8.4-6.69,0-3.8-2.56-5.69-7.68-5.69Z"/>
        <path class="cls-1" d="M14.46,60.23v16.73c0,2.99-2.42,5.41-5.41,5.41h-3.64c-2.99,0-5.41-2.42-5.41-5.41V24.5c0-2.97,2.39-5.38,5.36-5.41,1.92-.01,3.92-.04,6.03-.07,4.16-.06,7.53-.09,10.12-.09,15.6,0,23.4,6.75,23.4,20.24,0,8.67-3.56,14.76-10.66,18.25l12.06,16.32c2.64,3.57.09,8.62-4.35,8.62h-3.98c-1.77,0-3.43-.87-4.44-2.33l-13.75-19.81h-5.33ZM20.78,32.49c-.06,0-.33.02-.81.05-.48.03-1.24.06-2.26.09-1.03.03-2.11.04-3.25.04v14.01h5.24c6.57,0,9.85-2.44,9.85-7.32,0-4.58-2.92-6.87-8.77-6.87Z"/>
        <path class="cls-1" d="M345.12,22.51l-12.89,33.84c-.59,1.55-2.78,1.55-3.37,0l-12.89-33.84c-.8-2.1-2.81-3.48-5.05-3.48h-4.42c-3.83,0-6.44,3.86-5.02,7.42l20.97,52.44c.82,2.05,2.81,3.4,5.02,3.4h6.15c2.21,0,4.2-1.35,5.02-3.4l20.97-52.44c1.42-3.55-1.2-7.42-5.02-7.42h-4.42c-2.24,0-4.25,1.39-5.05,3.48Z"/>
        <path class="cls-1" d="M126.4,78.9l12.89-33.84c.59-1.55,2.78-1.55,3.37,0l12.89,33.84c.8,2.1,2.81,3.48,5.05,3.48h4.42c3.83,0,6.44-3.86,5.02-7.42l-20.97-52.44c-.82-2.05-2.81-3.4-5.02-3.4h-6.15c-2.21,0-4.2,1.35-5.02,3.4l-20.97,52.44c-1.42,3.55,1.2,7.42,5.02,7.42h4.42c2.24,0,4.25-1.39,5.05-3.48Z"/>
        <g>
          <path class="cls-1" d="M95.88,58.24h-35.33c-3.33,0-6.02-2.42-6.02-5.41v-4.15c0-2.99,2.7-5.41,6.02-5.41h35.33c3.33,0,6.02,2.42,6.02,5.41v4.15c0,2.99-2.7,5.41-6.02,5.41Z"/>
          <path class="cls-1" d="M95.88,82.38h-35.33c-3.33,0-6.02-2.42-6.02-5.41v-4.15c0-2.99,2.7-5.41,6.02-5.41h35.33c3.33,0,6.02,2.42,6.02,5.41v4.15c0,2.99-2.7,5.41-6.02,5.41Z"/>
          <path class="cls-1" d="M95.88,34.09h-35.33c-3.33,0-6.02-2.42-6.02-5.41v-4.15c0-2.99,2.7-5.41,6.02-5.41h35.33c3.33,0,6.02,2.42,6.02,5.41v4.15c0,2.99-2.7,5.41-6.02,5.41Z"/>
        </g>
      </g>
      <g>
        <path class="cls-1" d="M418.56,66.38c0-2.66-.78-4.95-2.35-6.86-1.56-1.91-3.5-3.36-5.82-4.34-2.32-.98-4.84-2.07-7.56-3.26-2.72-1.19-5.24-2.36-7.56-3.52-2.32-1.16-4.26-2.88-5.82-5.17-1.56-2.29-2.35-4.99-2.35-8.12,0-4.4,1.59-8.02,4.78-10.86,3.24-2.9,7.59-4.34,13.03-4.34,7.12,0,12.57,2.06,16.33,6.17l-2.61,3.56c-3.47-3.47-7.99-5.21-13.55-5.21-4,0-7.15.97-9.47,2.91-2.32,1.94-3.47,4.53-3.47,7.77,0,2.61.78,4.85,2.35,6.73,1.56,1.88,3.5,3.29,5.82,4.21,2.32.93,4.83,1.95,7.56,3.08,2.72,1.13,5.24,2.27,7.56,3.43,2.32,1.16,4.26,2.91,5.82,5.25,1.56,2.35,2.35,5.17,2.35,8.47,0,4.75-1.85,8.6-5.56,11.55-3.71,2.95-8.31,4.43-13.81,4.43-3.77,0-7.47-.78-11.12-2.35-3.59-1.68-6.11-3.82-7.56-6.43l2.87-3.3c1.74,2.26,4.05,4.08,6.95,5.47,2.9,1.39,5.82,2.08,8.77,2.08,3.94,0,7.32-1.01,10.16-3.04,2.84-1.97,4.26-4.75,4.26-8.34Z"/>
        <path class="cls-1" d="M451.66,25.2h-22.5v-4.52h49.77v4.52h-22.5v56.29h-4.78V25.2Z"/>
        <path class="cls-1" d="M481.54,51.09c0-8.86,2.9-16.27,8.69-22.24,5.79-5.96,13.06-8.95,21.8-8.95s15.92,2.95,21.72,8.86c5.85,5.85,8.77,13.29,8.77,22.32s-2.92,16.3-8.77,22.32c-5.79,5.91-13.03,8.86-21.72,8.86s-15.95-2.92-21.8-8.77c-5.79-5.85-8.69-13.32-8.69-22.41ZM486.57,51.09c0,7.53,2.43,13.87,7.3,19.02,4.92,5.1,10.97,7.64,18.15,7.64s13.49-2.55,18.24-7.64c4.81-5.15,7.21-11.49,7.21-19.02s-2.46-14.04-7.38-19.02c-4.86-5.09-10.89-7.64-18.07-7.64s-13.29,2.55-18.15,7.64c-4.86,5.04-7.3,11.38-7.3,19.02Z"/>
        <path class="cls-1" d="M599.32,72.02l1.91,3.56c-2.08,2.08-4.82,3.72-8.21,4.91-3.39,1.19-6.94,1.78-10.64,1.78-9.03,0-16.39-2.84-22.06-8.51-5.62-5.62-8.43-13.17-8.43-22.67,0-8.98,2.72-16.39,8.17-22.24,5.44-5.96,12.65-8.95,21.63-8.95,7.7,0,13.84,1.91,18.41,5.73l-2.26,3.56c-4.11-3.18-9.47-4.78-16.07-4.78-7.41,0-13.41,2.52-17.98,7.56-4.58,4.92-6.86,11.29-6.86,19.11s2.37,14.36,7.12,19.28c4.75,4.92,10.97,7.38,18.68,7.38,6.37,0,11.9-1.91,16.59-5.73Z"/>
        <path class="cls-1" d="M618.6,81.49h-4.78V20.69h4.78v60.8ZM650.05,20.69h5.82l-28.75,28.75,29.97,32.05h-6.17l-29.45-31.71,28.58-29.1Z"/>
      </g>
    </g>
  </g>
</svg>