<svg version="1.2" xmlns="http://www.w3.org/2000/svg" viewBox="0 0 91 64"><style>.a{fill:#fff}</style><path fill-rule="evenodd" class="a" d="m46.9 0c7.7 0.3 15.4 0.5 23 0.8 3.3 0.2 6.5 0.4 9.7 1 5.2 0.9 8.5 4.3 9.5 9.5q1.5 7.3 1.6 14.7 0.1 7.2-0.2 14.4-0.2 6.4-1.5 12.7c-1 4.4-4.7 7.8-9.4 8.6-4.9 0.9-9.8 1.1-14.7 1.3-10.8 0.5-21.6 0.5-32.4 0.1-6.3-0.2-12.6-0.7-18.9-1.1-2.8-0.2-5.4-0.9-7.6-2.7-2.5-2.1-3.7-4.8-4.2-8-1.3-7.8-1.6-15.8-1.3-23.7 0.1-4.3 0.5-8.6 0.9-12.9 0.1-1.5 0.4-3 0.8-4.5 1.1-4.6 4.9-7.8 9.9-8.4 9.6-1.4 19.3-1.5 29-1.6q2.9 0 5.8 0 0-0.1 0-0.2zm-10.1 45.3c8-4.6 15.8-9 23.7-13.6-8-4.5-15.8-9-23.7-13.5 0 9.1 0 18 0 27.1z"/></svg>